M48
;DRILL file {KiCad (5.0.2-4-gb601aea34)} date Friday, January 04, 2019 at 10:11:32 AM
;FORMAT={-:-/ absolute / metric / decimal}
FMAT,2
METRIC,TZ
T1C0.500
T2C0.760
T3C0.800
T4C0.900
T5C1.000
T6C1.100
T7C1.100
T8C3.250
%
G90
G05
T1
X-42.Y33.
X-41.Y33.
T2
X-30.926Y36.68
X-29.656Y39.22
X-28.386Y36.68
X-27.116Y39.22
X-45.404Y36.68
X-44.134Y39.22
X-42.864Y36.68
X-41.594Y39.22
T3
X-52.Y32.25
X-48.25Y34.75
X-33.Y29.75
X-30.25Y15.194
X-28.25Y21.25
X-23.25Y29.75
X-23.Y22.5
X-7.75Y20.5
X-18.138Y40.322
X-18.138Y37.782
X-18.138Y35.242
X-18.138Y32.702
X-18.138Y30.162
X-18.138Y27.622
X-18.138Y25.082
X-18.138Y22.542
X-18.138Y20.002
X-18.138Y17.462
X-18.138Y14.922
X-18.138Y12.382
X-18.138Y9.842
X-18.138Y7.302
X-18.138Y4.762
X-2.898Y40.322
X-2.898Y37.782
X-2.898Y35.242
X-2.898Y32.702
X-2.898Y30.162
X-2.898Y27.622
X-2.898Y25.082
X-2.898Y22.542
X-2.898Y20.002
X-2.898Y17.462
X-2.898Y14.922
X-2.898Y12.382
X-2.898Y9.842
X-2.898Y7.302
X-2.898Y4.762
T4
X-25.16Y4.196
X-22.62Y4.196
T5
X-47.5Y6.722
X-47.5Y2.222
X-41.Y6.722
X-41.Y2.222
X-58.5Y6.722
X-58.5Y2.222
X-52.Y6.722
X-52.Y2.222
X-36.5Y6.748
X-36.5Y2.248
X-30.Y6.748
X-30.Y2.248
T6
X-58.Y45.5
X-55.46Y45.5
T7
X-58.Y48.04
X-55.46Y48.04
T8
X-34.136Y45.57
X-23.976Y45.57
X-48.614Y45.57
X-38.454Y45.57
T0
M30
