G04 #@! TF.GenerationSoftware,KiCad,Pcbnew,(5.0.2-4-gb601aea34)*
G04 #@! TF.CreationDate,2019-01-14T20:19:02-06:00*
G04 #@! TF.ProjectId,Demo,44656d6f-2e6b-4696-9361-645f70636258,rev?*
G04 #@! TF.SameCoordinates,PXaf79e00PY7cee6c0*
G04 #@! TF.FileFunction,Copper,L1,Top*
G04 #@! TF.FilePolarity,Positive*
%FSLAX46Y46*%
G04 Gerber Fmt 4.6, Leading zero omitted, Abs format (unit mm)*
G04 Created by KiCad (PCBNEW (5.0.2-4-gb601aea34)) date Monday, January 14, 2019 at 08:19:02 PM*
%MOMM*%
%LPD*%
G01*
G04 APERTURE LIST*
G04 #@! TA.AperFunction,ComponentPad*
%ADD10C,1.520000*%
G04 #@! TD*
G04 #@! TA.AperFunction,ComponentPad*
%ADD11R,1.520000X1.520000*%
G04 #@! TD*
G04 #@! TA.AperFunction,ComponentPad*
%ADD12C,2.000000*%
G04 #@! TD*
G04 #@! TA.AperFunction,Conductor*
%ADD13C,0.100000*%
G04 #@! TD*
G04 #@! TA.AperFunction,SMDPad,CuDef*
%ADD14C,1.425000*%
G04 #@! TD*
G04 #@! TA.AperFunction,ComponentPad*
%ADD15R,1.700000X1.700000*%
G04 #@! TD*
G04 #@! TA.AperFunction,ComponentPad*
%ADD16O,1.700000X1.700000*%
G04 #@! TD*
G04 #@! TA.AperFunction,SMDPad,CuDef*
%ADD17C,1.525000*%
G04 #@! TD*
G04 #@! TA.AperFunction,ComponentPad*
%ADD18R,2.200000X2.200000*%
G04 #@! TD*
G04 #@! TA.AperFunction,ComponentPad*
%ADD19C,2.200000*%
G04 #@! TD*
G04 #@! TA.AperFunction,ComponentPad*
%ADD20R,1.800000X1.800000*%
G04 #@! TD*
G04 #@! TA.AperFunction,ComponentPad*
%ADD21C,1.800000*%
G04 #@! TD*
G04 #@! TA.AperFunction,SMDPad,CuDef*
%ADD22R,0.800000X0.900000*%
G04 #@! TD*
G04 #@! TA.AperFunction,SMDPad,CuDef*
%ADD23R,2.000000X7.875000*%
G04 #@! TD*
G04 #@! TA.AperFunction,ComponentPad*
%ADD24O,1.600000X1.600000*%
G04 #@! TD*
G04 #@! TA.AperFunction,ComponentPad*
%ADD25R,1.600000X1.600000*%
G04 #@! TD*
G04 #@! TA.AperFunction,SMDPad,CuDef*
%ADD26R,2.000000X0.600000*%
G04 #@! TD*
G04 #@! TA.AperFunction,SMDPad,CuDef*
%ADD27R,0.600000X1.550000*%
G04 #@! TD*
G04 #@! TA.AperFunction,ViaPad*
%ADD28C,1.500000*%
G04 #@! TD*
G04 #@! TA.AperFunction,Conductor*
%ADD29C,0.500000*%
G04 #@! TD*
G04 #@! TA.AperFunction,Conductor*
%ADD30C,0.750000*%
G04 #@! TD*
G04 #@! TA.AperFunction,Conductor*
%ADD31C,1.000000*%
G04 #@! TD*
G04 #@! TA.AperFunction,Conductor*
%ADD32C,0.400000*%
G04 #@! TD*
G04 APERTURE END LIST*
D10*
G04 #@! TO.P,J2,4*
G04 #@! TO.N,/Vin*
X-27145777Y36679963D03*
G04 #@! TO.P,J2,3*
G04 #@! TO.N,/CANH*
X-28385777Y39219963D03*
G04 #@! TO.P,J2,2*
G04 #@! TO.N,/CANL*
X-29655777Y36679963D03*
D11*
G04 #@! TO.P,J2,1*
G04 #@! TO.N,GND*
X-30955777Y39219963D03*
G04 #@! TD*
G04 #@! TO.P,J1,1*
G04 #@! TO.N,GND*
X-45730000Y39219963D03*
D10*
G04 #@! TO.P,J1,2*
G04 #@! TO.N,/CANL*
X-44430000Y36679963D03*
G04 #@! TO.P,J1,3*
G04 #@! TO.N,/CANH*
X-43160000Y39219963D03*
G04 #@! TO.P,J1,4*
G04 #@! TO.N,/Vin*
X-41920000Y36679963D03*
G04 #@! TD*
D12*
G04 #@! TO.P,SW3,2*
G04 #@! TO.N,+5V*
X-57000000Y1500000D03*
G04 #@! TO.P,SW3,1*
G04 #@! TO.N,/S3*
X-52500000Y1500000D03*
G04 #@! TO.P,SW3,2*
G04 #@! TO.N,+5V*
X-57000000Y8000000D03*
G04 #@! TO.P,SW3,1*
G04 #@! TO.N,/S3*
X-52500000Y8000000D03*
G04 #@! TD*
G04 #@! TO.P,SW2,1*
G04 #@! TO.N,/S2*
X-41250000Y8000000D03*
G04 #@! TO.P,SW2,2*
G04 #@! TO.N,+5V*
X-45750000Y8000000D03*
G04 #@! TO.P,SW2,1*
G04 #@! TO.N,/S2*
X-41250000Y1500000D03*
G04 #@! TO.P,SW2,2*
G04 #@! TO.N,+5V*
X-45750000Y1500000D03*
G04 #@! TD*
G04 #@! TO.P,SW1,2*
G04 #@! TO.N,+5V*
X-35500000Y1500000D03*
G04 #@! TO.P,SW1,1*
G04 #@! TO.N,/S1*
X-31000000Y1500000D03*
G04 #@! TO.P,SW1,2*
G04 #@! TO.N,+5V*
X-35500000Y8000000D03*
G04 #@! TO.P,SW1,1*
G04 #@! TO.N,/S1*
X-31000000Y8000000D03*
G04 #@! TD*
D13*
G04 #@! TO.N,GND*
G04 #@! TO.C,C5*
G36*
X-5227496Y8103796D02*
X-5203227Y8100196D01*
X-5179429Y8094235D01*
X-5156329Y8085970D01*
X-5134151Y8075480D01*
X-5113107Y8062867D01*
X-5093402Y8048253D01*
X-5075223Y8031777D01*
X-5058747Y8013598D01*
X-5044133Y7993893D01*
X-5031520Y7972849D01*
X-5021030Y7950671D01*
X-5012765Y7927571D01*
X-5006804Y7903773D01*
X-5003204Y7879504D01*
X-5002000Y7855000D01*
X-5002000Y6930000D01*
X-5003204Y6905496D01*
X-5006804Y6881227D01*
X-5012765Y6857429D01*
X-5021030Y6834329D01*
X-5031520Y6812151D01*
X-5044133Y6791107D01*
X-5058747Y6771402D01*
X-5075223Y6753223D01*
X-5093402Y6736747D01*
X-5113107Y6722133D01*
X-5134151Y6709520D01*
X-5156329Y6699030D01*
X-5179429Y6690765D01*
X-5203227Y6684804D01*
X-5227496Y6681204D01*
X-5252000Y6680000D01*
X-7402000Y6680000D01*
X-7426504Y6681204D01*
X-7450773Y6684804D01*
X-7474571Y6690765D01*
X-7497671Y6699030D01*
X-7519849Y6709520D01*
X-7540893Y6722133D01*
X-7560598Y6736747D01*
X-7578777Y6753223D01*
X-7595253Y6771402D01*
X-7609867Y6791107D01*
X-7622480Y6812151D01*
X-7632970Y6834329D01*
X-7641235Y6857429D01*
X-7647196Y6881227D01*
X-7650796Y6905496D01*
X-7652000Y6930000D01*
X-7652000Y7855000D01*
X-7650796Y7879504D01*
X-7647196Y7903773D01*
X-7641235Y7927571D01*
X-7632970Y7950671D01*
X-7622480Y7972849D01*
X-7609867Y7993893D01*
X-7595253Y8013598D01*
X-7578777Y8031777D01*
X-7560598Y8048253D01*
X-7540893Y8062867D01*
X-7519849Y8075480D01*
X-7497671Y8085970D01*
X-7474571Y8094235D01*
X-7450773Y8100196D01*
X-7426504Y8103796D01*
X-7402000Y8105000D01*
X-5252000Y8105000D01*
X-5227496Y8103796D01*
X-5227496Y8103796D01*
G37*
D14*
G04 #@! TD*
G04 #@! TO.P,C5,1*
G04 #@! TO.N,GND*
X-6327000Y7392500D03*
D13*
G04 #@! TO.N,+12V*
G04 #@! TO.C,C5*
G36*
X-5227496Y5128796D02*
X-5203227Y5125196D01*
X-5179429Y5119235D01*
X-5156329Y5110970D01*
X-5134151Y5100480D01*
X-5113107Y5087867D01*
X-5093402Y5073253D01*
X-5075223Y5056777D01*
X-5058747Y5038598D01*
X-5044133Y5018893D01*
X-5031520Y4997849D01*
X-5021030Y4975671D01*
X-5012765Y4952571D01*
X-5006804Y4928773D01*
X-5003204Y4904504D01*
X-5002000Y4880000D01*
X-5002000Y3955000D01*
X-5003204Y3930496D01*
X-5006804Y3906227D01*
X-5012765Y3882429D01*
X-5021030Y3859329D01*
X-5031520Y3837151D01*
X-5044133Y3816107D01*
X-5058747Y3796402D01*
X-5075223Y3778223D01*
X-5093402Y3761747D01*
X-5113107Y3747133D01*
X-5134151Y3734520D01*
X-5156329Y3724030D01*
X-5179429Y3715765D01*
X-5203227Y3709804D01*
X-5227496Y3706204D01*
X-5252000Y3705000D01*
X-7402000Y3705000D01*
X-7426504Y3706204D01*
X-7450773Y3709804D01*
X-7474571Y3715765D01*
X-7497671Y3724030D01*
X-7519849Y3734520D01*
X-7540893Y3747133D01*
X-7560598Y3761747D01*
X-7578777Y3778223D01*
X-7595253Y3796402D01*
X-7609867Y3816107D01*
X-7622480Y3837151D01*
X-7632970Y3859329D01*
X-7641235Y3882429D01*
X-7647196Y3906227D01*
X-7650796Y3930496D01*
X-7652000Y3955000D01*
X-7652000Y4880000D01*
X-7650796Y4904504D01*
X-7647196Y4928773D01*
X-7641235Y4952571D01*
X-7632970Y4975671D01*
X-7622480Y4997849D01*
X-7609867Y5018893D01*
X-7595253Y5038598D01*
X-7578777Y5056777D01*
X-7560598Y5073253D01*
X-7540893Y5087867D01*
X-7519849Y5100480D01*
X-7497671Y5110970D01*
X-7474571Y5119235D01*
X-7450773Y5125196D01*
X-7426504Y5128796D01*
X-7402000Y5130000D01*
X-5252000Y5130000D01*
X-5227496Y5128796D01*
X-5227496Y5128796D01*
G37*
D14*
G04 #@! TD*
G04 #@! TO.P,C5,2*
G04 #@! TO.N,+12V*
X-6327000Y4417500D03*
D15*
G04 #@! TO.P,J3,1*
G04 #@! TO.N,Net-(J3-Pad1)*
X-39500000Y33250000D03*
D16*
G04 #@! TO.P,J3,2*
G04 #@! TO.N,/CANH*
X-42040000Y33250000D03*
G04 #@! TD*
D13*
G04 #@! TO.N,+12V*
G04 #@! TO.C,D3*
G36*
X-42650495Y48098796D02*
X-42626227Y48095196D01*
X-42602428Y48089235D01*
X-42579329Y48080970D01*
X-42557150Y48070480D01*
X-42536107Y48057868D01*
X-42516401Y48043253D01*
X-42498223Y48026777D01*
X-42481747Y48008599D01*
X-42467132Y47988893D01*
X-42454520Y47967850D01*
X-42444030Y47945671D01*
X-42435765Y47922572D01*
X-42429804Y47898773D01*
X-42426204Y47874505D01*
X-42425000Y47850001D01*
X-42425000Y46824999D01*
X-42426204Y46800495D01*
X-42429804Y46776227D01*
X-42435765Y46752428D01*
X-42444030Y46729329D01*
X-42454520Y46707150D01*
X-42467132Y46686107D01*
X-42481747Y46666401D01*
X-42498223Y46648223D01*
X-42516401Y46631747D01*
X-42536107Y46617132D01*
X-42557150Y46604520D01*
X-42579329Y46594030D01*
X-42602428Y46585765D01*
X-42626227Y46579804D01*
X-42650495Y46576204D01*
X-42674999Y46575000D01*
X-44825001Y46575000D01*
X-44849505Y46576204D01*
X-44873773Y46579804D01*
X-44897572Y46585765D01*
X-44920671Y46594030D01*
X-44942850Y46604520D01*
X-44963893Y46617132D01*
X-44983599Y46631747D01*
X-45001777Y46648223D01*
X-45018253Y46666401D01*
X-45032868Y46686107D01*
X-45045480Y46707150D01*
X-45055970Y46729329D01*
X-45064235Y46752428D01*
X-45070196Y46776227D01*
X-45073796Y46800495D01*
X-45075000Y46824999D01*
X-45075000Y47850001D01*
X-45073796Y47874505D01*
X-45070196Y47898773D01*
X-45064235Y47922572D01*
X-45055970Y47945671D01*
X-45045480Y47967850D01*
X-45032868Y47988893D01*
X-45018253Y48008599D01*
X-45001777Y48026777D01*
X-44983599Y48043253D01*
X-44963893Y48057868D01*
X-44942850Y48070480D01*
X-44920671Y48080970D01*
X-44897572Y48089235D01*
X-44873773Y48095196D01*
X-44849505Y48098796D01*
X-44825001Y48100000D01*
X-42674999Y48100000D01*
X-42650495Y48098796D01*
X-42650495Y48098796D01*
G37*
D17*
G04 #@! TD*
G04 #@! TO.P,D3,1*
G04 #@! TO.N,+12V*
X-43750000Y47337500D03*
D13*
G04 #@! TO.N,Net-(D2-Pad1)*
G04 #@! TO.C,D3*
G36*
X-42650495Y43423796D02*
X-42626227Y43420196D01*
X-42602428Y43414235D01*
X-42579329Y43405970D01*
X-42557150Y43395480D01*
X-42536107Y43382868D01*
X-42516401Y43368253D01*
X-42498223Y43351777D01*
X-42481747Y43333599D01*
X-42467132Y43313893D01*
X-42454520Y43292850D01*
X-42444030Y43270671D01*
X-42435765Y43247572D01*
X-42429804Y43223773D01*
X-42426204Y43199505D01*
X-42425000Y43175001D01*
X-42425000Y42149999D01*
X-42426204Y42125495D01*
X-42429804Y42101227D01*
X-42435765Y42077428D01*
X-42444030Y42054329D01*
X-42454520Y42032150D01*
X-42467132Y42011107D01*
X-42481747Y41991401D01*
X-42498223Y41973223D01*
X-42516401Y41956747D01*
X-42536107Y41942132D01*
X-42557150Y41929520D01*
X-42579329Y41919030D01*
X-42602428Y41910765D01*
X-42626227Y41904804D01*
X-42650495Y41901204D01*
X-42674999Y41900000D01*
X-44825001Y41900000D01*
X-44849505Y41901204D01*
X-44873773Y41904804D01*
X-44897572Y41910765D01*
X-44920671Y41919030D01*
X-44942850Y41929520D01*
X-44963893Y41942132D01*
X-44983599Y41956747D01*
X-45001777Y41973223D01*
X-45018253Y41991401D01*
X-45032868Y42011107D01*
X-45045480Y42032150D01*
X-45055970Y42054329D01*
X-45064235Y42077428D01*
X-45070196Y42101227D01*
X-45073796Y42125495D01*
X-45075000Y42149999D01*
X-45075000Y43175001D01*
X-45073796Y43199505D01*
X-45070196Y43223773D01*
X-45064235Y43247572D01*
X-45055970Y43270671D01*
X-45045480Y43292850D01*
X-45032868Y43313893D01*
X-45018253Y43333599D01*
X-45001777Y43351777D01*
X-44983599Y43368253D01*
X-44963893Y43382868D01*
X-44942850Y43395480D01*
X-44920671Y43405970D01*
X-44897572Y43414235D01*
X-44873773Y43420196D01*
X-44849505Y43423796D01*
X-44825001Y43425000D01*
X-42674999Y43425000D01*
X-42650495Y43423796D01*
X-42650495Y43423796D01*
G37*
D17*
G04 #@! TD*
G04 #@! TO.P,D3,2*
G04 #@! TO.N,Net-(D2-Pad1)*
X-43750000Y42662500D03*
D18*
G04 #@! TO.P,J4,1*
G04 #@! TO.N,GND*
X-58000000Y45500000D03*
D19*
G04 #@! TO.P,J4,2*
G04 #@! TO.N,/Vin*
X-55460000Y45500000D03*
G04 #@! TD*
D20*
G04 #@! TO.P,D1,1*
G04 #@! TO.N,GND*
X-25159595Y4195750D03*
D21*
G04 #@! TO.P,D1,2*
G04 #@! TO.N,Net-(D1-Pad2)*
X-22619595Y4195750D03*
G04 #@! TD*
D22*
G04 #@! TO.P,D2,1*
G04 #@! TO.N,Net-(D2-Pad1)*
X-36950000Y39750000D03*
G04 #@! TO.P,D2,2*
G04 #@! TO.N,GND*
X-35050000Y39750000D03*
G04 #@! TO.P,D2,3*
G04 #@! TO.N,N/C*
X-36000000Y41750000D03*
G04 #@! TD*
D13*
G04 #@! TO.N,GND*
G04 #@! TO.C,R8*
G36*
X-29850496Y23948796D02*
X-29826227Y23945196D01*
X-29802429Y23939235D01*
X-29779329Y23930970D01*
X-29757151Y23920480D01*
X-29736107Y23907867D01*
X-29716402Y23893253D01*
X-29698223Y23876777D01*
X-29681747Y23858598D01*
X-29667133Y23838893D01*
X-29654520Y23817849D01*
X-29644030Y23795671D01*
X-29635765Y23772571D01*
X-29629804Y23748773D01*
X-29626204Y23724504D01*
X-29625000Y23700000D01*
X-29625000Y22775000D01*
X-29626204Y22750496D01*
X-29629804Y22726227D01*
X-29635765Y22702429D01*
X-29644030Y22679329D01*
X-29654520Y22657151D01*
X-29667133Y22636107D01*
X-29681747Y22616402D01*
X-29698223Y22598223D01*
X-29716402Y22581747D01*
X-29736107Y22567133D01*
X-29757151Y22554520D01*
X-29779329Y22544030D01*
X-29802429Y22535765D01*
X-29826227Y22529804D01*
X-29850496Y22526204D01*
X-29875000Y22525000D01*
X-31125000Y22525000D01*
X-31149504Y22526204D01*
X-31173773Y22529804D01*
X-31197571Y22535765D01*
X-31220671Y22544030D01*
X-31242849Y22554520D01*
X-31263893Y22567133D01*
X-31283598Y22581747D01*
X-31301777Y22598223D01*
X-31318253Y22616402D01*
X-31332867Y22636107D01*
X-31345480Y22657151D01*
X-31355970Y22679329D01*
X-31364235Y22702429D01*
X-31370196Y22726227D01*
X-31373796Y22750496D01*
X-31375000Y22775000D01*
X-31375000Y23700000D01*
X-31373796Y23724504D01*
X-31370196Y23748773D01*
X-31364235Y23772571D01*
X-31355970Y23795671D01*
X-31345480Y23817849D01*
X-31332867Y23838893D01*
X-31318253Y23858598D01*
X-31301777Y23876777D01*
X-31283598Y23893253D01*
X-31263893Y23907867D01*
X-31242849Y23920480D01*
X-31220671Y23930970D01*
X-31197571Y23939235D01*
X-31173773Y23945196D01*
X-31149504Y23948796D01*
X-31125000Y23950000D01*
X-29875000Y23950000D01*
X-29850496Y23948796D01*
X-29850496Y23948796D01*
G37*
D14*
G04 #@! TD*
G04 #@! TO.P,R8,2*
G04 #@! TO.N,GND*
X-30500000Y23237500D03*
D13*
G04 #@! TO.N,/CAN_RST*
G04 #@! TO.C,R8*
G36*
X-29850496Y20973796D02*
X-29826227Y20970196D01*
X-29802429Y20964235D01*
X-29779329Y20955970D01*
X-29757151Y20945480D01*
X-29736107Y20932867D01*
X-29716402Y20918253D01*
X-29698223Y20901777D01*
X-29681747Y20883598D01*
X-29667133Y20863893D01*
X-29654520Y20842849D01*
X-29644030Y20820671D01*
X-29635765Y20797571D01*
X-29629804Y20773773D01*
X-29626204Y20749504D01*
X-29625000Y20725000D01*
X-29625000Y19800000D01*
X-29626204Y19775496D01*
X-29629804Y19751227D01*
X-29635765Y19727429D01*
X-29644030Y19704329D01*
X-29654520Y19682151D01*
X-29667133Y19661107D01*
X-29681747Y19641402D01*
X-29698223Y19623223D01*
X-29716402Y19606747D01*
X-29736107Y19592133D01*
X-29757151Y19579520D01*
X-29779329Y19569030D01*
X-29802429Y19560765D01*
X-29826227Y19554804D01*
X-29850496Y19551204D01*
X-29875000Y19550000D01*
X-31125000Y19550000D01*
X-31149504Y19551204D01*
X-31173773Y19554804D01*
X-31197571Y19560765D01*
X-31220671Y19569030D01*
X-31242849Y19579520D01*
X-31263893Y19592133D01*
X-31283598Y19606747D01*
X-31301777Y19623223D01*
X-31318253Y19641402D01*
X-31332867Y19661107D01*
X-31345480Y19682151D01*
X-31355970Y19704329D01*
X-31364235Y19727429D01*
X-31370196Y19751227D01*
X-31373796Y19775496D01*
X-31375000Y19800000D01*
X-31375000Y20725000D01*
X-31373796Y20749504D01*
X-31370196Y20773773D01*
X-31364235Y20797571D01*
X-31355970Y20820671D01*
X-31345480Y20842849D01*
X-31332867Y20863893D01*
X-31318253Y20883598D01*
X-31301777Y20901777D01*
X-31283598Y20918253D01*
X-31263893Y20932867D01*
X-31242849Y20945480D01*
X-31220671Y20955970D01*
X-31197571Y20964235D01*
X-31173773Y20970196D01*
X-31149504Y20973796D01*
X-31125000Y20975000D01*
X-29875000Y20975000D01*
X-29850496Y20973796D01*
X-29850496Y20973796D01*
G37*
D14*
G04 #@! TD*
G04 #@! TO.P,R8,1*
G04 #@! TO.N,/CAN_RST*
X-30500000Y20262500D03*
D13*
G04 #@! TO.N,/XCDR_RST*
G04 #@! TO.C,R7*
G36*
X-43396496Y30963796D02*
X-43372227Y30960196D01*
X-43348429Y30954235D01*
X-43325329Y30945970D01*
X-43303151Y30935480D01*
X-43282107Y30922867D01*
X-43262402Y30908253D01*
X-43244223Y30891777D01*
X-43227747Y30873598D01*
X-43213133Y30853893D01*
X-43200520Y30832849D01*
X-43190030Y30810671D01*
X-43181765Y30787571D01*
X-43175804Y30763773D01*
X-43172204Y30739504D01*
X-43171000Y30715000D01*
X-43171000Y29790000D01*
X-43172204Y29765496D01*
X-43175804Y29741227D01*
X-43181765Y29717429D01*
X-43190030Y29694329D01*
X-43200520Y29672151D01*
X-43213133Y29651107D01*
X-43227747Y29631402D01*
X-43244223Y29613223D01*
X-43262402Y29596747D01*
X-43282107Y29582133D01*
X-43303151Y29569520D01*
X-43325329Y29559030D01*
X-43348429Y29550765D01*
X-43372227Y29544804D01*
X-43396496Y29541204D01*
X-43421000Y29540000D01*
X-44671000Y29540000D01*
X-44695504Y29541204D01*
X-44719773Y29544804D01*
X-44743571Y29550765D01*
X-44766671Y29559030D01*
X-44788849Y29569520D01*
X-44809893Y29582133D01*
X-44829598Y29596747D01*
X-44847777Y29613223D01*
X-44864253Y29631402D01*
X-44878867Y29651107D01*
X-44891480Y29672151D01*
X-44901970Y29694329D01*
X-44910235Y29717429D01*
X-44916196Y29741227D01*
X-44919796Y29765496D01*
X-44921000Y29790000D01*
X-44921000Y30715000D01*
X-44919796Y30739504D01*
X-44916196Y30763773D01*
X-44910235Y30787571D01*
X-44901970Y30810671D01*
X-44891480Y30832849D01*
X-44878867Y30853893D01*
X-44864253Y30873598D01*
X-44847777Y30891777D01*
X-44829598Y30908253D01*
X-44809893Y30922867D01*
X-44788849Y30935480D01*
X-44766671Y30945970D01*
X-44743571Y30954235D01*
X-44719773Y30960196D01*
X-44695504Y30963796D01*
X-44671000Y30965000D01*
X-43421000Y30965000D01*
X-43396496Y30963796D01*
X-43396496Y30963796D01*
G37*
D14*
G04 #@! TD*
G04 #@! TO.P,R7,1*
G04 #@! TO.N,/XCDR_RST*
X-44046000Y30252500D03*
D13*
G04 #@! TO.N,GND*
G04 #@! TO.C,R7*
G36*
X-43396496Y27988796D02*
X-43372227Y27985196D01*
X-43348429Y27979235D01*
X-43325329Y27970970D01*
X-43303151Y27960480D01*
X-43282107Y27947867D01*
X-43262402Y27933253D01*
X-43244223Y27916777D01*
X-43227747Y27898598D01*
X-43213133Y27878893D01*
X-43200520Y27857849D01*
X-43190030Y27835671D01*
X-43181765Y27812571D01*
X-43175804Y27788773D01*
X-43172204Y27764504D01*
X-43171000Y27740000D01*
X-43171000Y26815000D01*
X-43172204Y26790496D01*
X-43175804Y26766227D01*
X-43181765Y26742429D01*
X-43190030Y26719329D01*
X-43200520Y26697151D01*
X-43213133Y26676107D01*
X-43227747Y26656402D01*
X-43244223Y26638223D01*
X-43262402Y26621747D01*
X-43282107Y26607133D01*
X-43303151Y26594520D01*
X-43325329Y26584030D01*
X-43348429Y26575765D01*
X-43372227Y26569804D01*
X-43396496Y26566204D01*
X-43421000Y26565000D01*
X-44671000Y26565000D01*
X-44695504Y26566204D01*
X-44719773Y26569804D01*
X-44743571Y26575765D01*
X-44766671Y26584030D01*
X-44788849Y26594520D01*
X-44809893Y26607133D01*
X-44829598Y26621747D01*
X-44847777Y26638223D01*
X-44864253Y26656402D01*
X-44878867Y26676107D01*
X-44891480Y26697151D01*
X-44901970Y26719329D01*
X-44910235Y26742429D01*
X-44916196Y26766227D01*
X-44919796Y26790496D01*
X-44921000Y26815000D01*
X-44921000Y27740000D01*
X-44919796Y27764504D01*
X-44916196Y27788773D01*
X-44910235Y27812571D01*
X-44901970Y27835671D01*
X-44891480Y27857849D01*
X-44878867Y27878893D01*
X-44864253Y27898598D01*
X-44847777Y27916777D01*
X-44829598Y27933253D01*
X-44809893Y27947867D01*
X-44788849Y27960480D01*
X-44766671Y27970970D01*
X-44743571Y27979235D01*
X-44719773Y27985196D01*
X-44695504Y27988796D01*
X-44671000Y27990000D01*
X-43421000Y27990000D01*
X-43396496Y27988796D01*
X-43396496Y27988796D01*
G37*
D14*
G04 #@! TD*
G04 #@! TO.P,R7,2*
G04 #@! TO.N,GND*
X-44046000Y27277500D03*
D13*
G04 #@! TO.N,/S3*
G04 #@! TO.C,R6*
G36*
X-52012996Y6373796D02*
X-51988727Y6370196D01*
X-51964929Y6364235D01*
X-51941829Y6355970D01*
X-51919651Y6345480D01*
X-51898607Y6332867D01*
X-51878902Y6318253D01*
X-51860723Y6301777D01*
X-51844247Y6283598D01*
X-51829633Y6263893D01*
X-51817020Y6242849D01*
X-51806530Y6220671D01*
X-51798265Y6197571D01*
X-51792304Y6173773D01*
X-51788704Y6149504D01*
X-51787500Y6125000D01*
X-51787500Y4875000D01*
X-51788704Y4850496D01*
X-51792304Y4826227D01*
X-51798265Y4802429D01*
X-51806530Y4779329D01*
X-51817020Y4757151D01*
X-51829633Y4736107D01*
X-51844247Y4716402D01*
X-51860723Y4698223D01*
X-51878902Y4681747D01*
X-51898607Y4667133D01*
X-51919651Y4654520D01*
X-51941829Y4644030D01*
X-51964929Y4635765D01*
X-51988727Y4629804D01*
X-52012996Y4626204D01*
X-52037500Y4625000D01*
X-52962500Y4625000D01*
X-52987004Y4626204D01*
X-53011273Y4629804D01*
X-53035071Y4635765D01*
X-53058171Y4644030D01*
X-53080349Y4654520D01*
X-53101393Y4667133D01*
X-53121098Y4681747D01*
X-53139277Y4698223D01*
X-53155753Y4716402D01*
X-53170367Y4736107D01*
X-53182980Y4757151D01*
X-53193470Y4779329D01*
X-53201735Y4802429D01*
X-53207696Y4826227D01*
X-53211296Y4850496D01*
X-53212500Y4875000D01*
X-53212500Y6125000D01*
X-53211296Y6149504D01*
X-53207696Y6173773D01*
X-53201735Y6197571D01*
X-53193470Y6220671D01*
X-53182980Y6242849D01*
X-53170367Y6263893D01*
X-53155753Y6283598D01*
X-53139277Y6301777D01*
X-53121098Y6318253D01*
X-53101393Y6332867D01*
X-53080349Y6345480D01*
X-53058171Y6355970D01*
X-53035071Y6364235D01*
X-53011273Y6370196D01*
X-52987004Y6373796D01*
X-52962500Y6375000D01*
X-52037500Y6375000D01*
X-52012996Y6373796D01*
X-52012996Y6373796D01*
G37*
D14*
G04 #@! TD*
G04 #@! TO.P,R6,2*
G04 #@! TO.N,/S3*
X-52500000Y5500000D03*
D13*
G04 #@! TO.N,GND*
G04 #@! TO.C,R6*
G36*
X-54987996Y6373796D02*
X-54963727Y6370196D01*
X-54939929Y6364235D01*
X-54916829Y6355970D01*
X-54894651Y6345480D01*
X-54873607Y6332867D01*
X-54853902Y6318253D01*
X-54835723Y6301777D01*
X-54819247Y6283598D01*
X-54804633Y6263893D01*
X-54792020Y6242849D01*
X-54781530Y6220671D01*
X-54773265Y6197571D01*
X-54767304Y6173773D01*
X-54763704Y6149504D01*
X-54762500Y6125000D01*
X-54762500Y4875000D01*
X-54763704Y4850496D01*
X-54767304Y4826227D01*
X-54773265Y4802429D01*
X-54781530Y4779329D01*
X-54792020Y4757151D01*
X-54804633Y4736107D01*
X-54819247Y4716402D01*
X-54835723Y4698223D01*
X-54853902Y4681747D01*
X-54873607Y4667133D01*
X-54894651Y4654520D01*
X-54916829Y4644030D01*
X-54939929Y4635765D01*
X-54963727Y4629804D01*
X-54987996Y4626204D01*
X-55012500Y4625000D01*
X-55937500Y4625000D01*
X-55962004Y4626204D01*
X-55986273Y4629804D01*
X-56010071Y4635765D01*
X-56033171Y4644030D01*
X-56055349Y4654520D01*
X-56076393Y4667133D01*
X-56096098Y4681747D01*
X-56114277Y4698223D01*
X-56130753Y4716402D01*
X-56145367Y4736107D01*
X-56157980Y4757151D01*
X-56168470Y4779329D01*
X-56176735Y4802429D01*
X-56182696Y4826227D01*
X-56186296Y4850496D01*
X-56187500Y4875000D01*
X-56187500Y6125000D01*
X-56186296Y6149504D01*
X-56182696Y6173773D01*
X-56176735Y6197571D01*
X-56168470Y6220671D01*
X-56157980Y6242849D01*
X-56145367Y6263893D01*
X-56130753Y6283598D01*
X-56114277Y6301777D01*
X-56096098Y6318253D01*
X-56076393Y6332867D01*
X-56055349Y6345480D01*
X-56033171Y6355970D01*
X-56010071Y6364235D01*
X-55986273Y6370196D01*
X-55962004Y6373796D01*
X-55937500Y6375000D01*
X-55012500Y6375000D01*
X-54987996Y6373796D01*
X-54987996Y6373796D01*
G37*
D14*
G04 #@! TD*
G04 #@! TO.P,R6,1*
G04 #@! TO.N,GND*
X-55475000Y5500000D03*
D13*
G04 #@! TO.N,/LED*
G04 #@! TO.C,R3*
G36*
X-24545091Y8873796D02*
X-24520822Y8870196D01*
X-24497024Y8864235D01*
X-24473924Y8855970D01*
X-24451746Y8845480D01*
X-24430702Y8832867D01*
X-24410997Y8818253D01*
X-24392818Y8801777D01*
X-24376342Y8783598D01*
X-24361728Y8763893D01*
X-24349115Y8742849D01*
X-24338625Y8720671D01*
X-24330360Y8697571D01*
X-24324399Y8673773D01*
X-24320799Y8649504D01*
X-24319595Y8625000D01*
X-24319595Y7375000D01*
X-24320799Y7350496D01*
X-24324399Y7326227D01*
X-24330360Y7302429D01*
X-24338625Y7279329D01*
X-24349115Y7257151D01*
X-24361728Y7236107D01*
X-24376342Y7216402D01*
X-24392818Y7198223D01*
X-24410997Y7181747D01*
X-24430702Y7167133D01*
X-24451746Y7154520D01*
X-24473924Y7144030D01*
X-24497024Y7135765D01*
X-24520822Y7129804D01*
X-24545091Y7126204D01*
X-24569595Y7125000D01*
X-25494595Y7125000D01*
X-25519099Y7126204D01*
X-25543368Y7129804D01*
X-25567166Y7135765D01*
X-25590266Y7144030D01*
X-25612444Y7154520D01*
X-25633488Y7167133D01*
X-25653193Y7181747D01*
X-25671372Y7198223D01*
X-25687848Y7216402D01*
X-25702462Y7236107D01*
X-25715075Y7257151D01*
X-25725565Y7279329D01*
X-25733830Y7302429D01*
X-25739791Y7326227D01*
X-25743391Y7350496D01*
X-25744595Y7375000D01*
X-25744595Y8625000D01*
X-25743391Y8649504D01*
X-25739791Y8673773D01*
X-25733830Y8697571D01*
X-25725565Y8720671D01*
X-25715075Y8742849D01*
X-25702462Y8763893D01*
X-25687848Y8783598D01*
X-25671372Y8801777D01*
X-25653193Y8818253D01*
X-25633488Y8832867D01*
X-25612444Y8845480D01*
X-25590266Y8855970D01*
X-25567166Y8864235D01*
X-25543368Y8870196D01*
X-25519099Y8873796D01*
X-25494595Y8875000D01*
X-24569595Y8875000D01*
X-24545091Y8873796D01*
X-24545091Y8873796D01*
G37*
D14*
G04 #@! TD*
G04 #@! TO.P,R3,1*
G04 #@! TO.N,/LED*
X-25032095Y8000000D03*
D13*
G04 #@! TO.N,Net-(D1-Pad2)*
G04 #@! TO.C,R3*
G36*
X-21570091Y8873796D02*
X-21545822Y8870196D01*
X-21522024Y8864235D01*
X-21498924Y8855970D01*
X-21476746Y8845480D01*
X-21455702Y8832867D01*
X-21435997Y8818253D01*
X-21417818Y8801777D01*
X-21401342Y8783598D01*
X-21386728Y8763893D01*
X-21374115Y8742849D01*
X-21363625Y8720671D01*
X-21355360Y8697571D01*
X-21349399Y8673773D01*
X-21345799Y8649504D01*
X-21344595Y8625000D01*
X-21344595Y7375000D01*
X-21345799Y7350496D01*
X-21349399Y7326227D01*
X-21355360Y7302429D01*
X-21363625Y7279329D01*
X-21374115Y7257151D01*
X-21386728Y7236107D01*
X-21401342Y7216402D01*
X-21417818Y7198223D01*
X-21435997Y7181747D01*
X-21455702Y7167133D01*
X-21476746Y7154520D01*
X-21498924Y7144030D01*
X-21522024Y7135765D01*
X-21545822Y7129804D01*
X-21570091Y7126204D01*
X-21594595Y7125000D01*
X-22519595Y7125000D01*
X-22544099Y7126204D01*
X-22568368Y7129804D01*
X-22592166Y7135765D01*
X-22615266Y7144030D01*
X-22637444Y7154520D01*
X-22658488Y7167133D01*
X-22678193Y7181747D01*
X-22696372Y7198223D01*
X-22712848Y7216402D01*
X-22727462Y7236107D01*
X-22740075Y7257151D01*
X-22750565Y7279329D01*
X-22758830Y7302429D01*
X-22764791Y7326227D01*
X-22768391Y7350496D01*
X-22769595Y7375000D01*
X-22769595Y8625000D01*
X-22768391Y8649504D01*
X-22764791Y8673773D01*
X-22758830Y8697571D01*
X-22750565Y8720671D01*
X-22740075Y8742849D01*
X-22727462Y8763893D01*
X-22712848Y8783598D01*
X-22696372Y8801777D01*
X-22678193Y8818253D01*
X-22658488Y8832867D01*
X-22637444Y8845480D01*
X-22615266Y8855970D01*
X-22592166Y8864235D01*
X-22568368Y8870196D01*
X-22544099Y8873796D01*
X-22519595Y8875000D01*
X-21594595Y8875000D01*
X-21570091Y8873796D01*
X-21570091Y8873796D01*
G37*
D14*
G04 #@! TD*
G04 #@! TO.P,R3,2*
G04 #@! TO.N,Net-(D1-Pad2)*
X-22057095Y8000000D03*
D13*
G04 #@! TO.N,GND*
G04 #@! TO.C,C2*
G36*
X-33368496Y27692796D02*
X-33344227Y27689196D01*
X-33320429Y27683235D01*
X-33297329Y27674970D01*
X-33275151Y27664480D01*
X-33254107Y27651867D01*
X-33234402Y27637253D01*
X-33216223Y27620777D01*
X-33199747Y27602598D01*
X-33185133Y27582893D01*
X-33172520Y27561849D01*
X-33162030Y27539671D01*
X-33153765Y27516571D01*
X-33147804Y27492773D01*
X-33144204Y27468504D01*
X-33143000Y27444000D01*
X-33143000Y26519000D01*
X-33144204Y26494496D01*
X-33147804Y26470227D01*
X-33153765Y26446429D01*
X-33162030Y26423329D01*
X-33172520Y26401151D01*
X-33185133Y26380107D01*
X-33199747Y26360402D01*
X-33216223Y26342223D01*
X-33234402Y26325747D01*
X-33254107Y26311133D01*
X-33275151Y26298520D01*
X-33297329Y26288030D01*
X-33320429Y26279765D01*
X-33344227Y26273804D01*
X-33368496Y26270204D01*
X-33393000Y26269000D01*
X-35543000Y26269000D01*
X-35567504Y26270204D01*
X-35591773Y26273804D01*
X-35615571Y26279765D01*
X-35638671Y26288030D01*
X-35660849Y26298520D01*
X-35681893Y26311133D01*
X-35701598Y26325747D01*
X-35719777Y26342223D01*
X-35736253Y26360402D01*
X-35750867Y26380107D01*
X-35763480Y26401151D01*
X-35773970Y26423329D01*
X-35782235Y26446429D01*
X-35788196Y26470227D01*
X-35791796Y26494496D01*
X-35793000Y26519000D01*
X-35793000Y27444000D01*
X-35791796Y27468504D01*
X-35788196Y27492773D01*
X-35782235Y27516571D01*
X-35773970Y27539671D01*
X-35763480Y27561849D01*
X-35750867Y27582893D01*
X-35736253Y27602598D01*
X-35719777Y27620777D01*
X-35701598Y27637253D01*
X-35681893Y27651867D01*
X-35660849Y27664480D01*
X-35638671Y27674970D01*
X-35615571Y27683235D01*
X-35591773Y27689196D01*
X-35567504Y27692796D01*
X-35543000Y27694000D01*
X-33393000Y27694000D01*
X-33368496Y27692796D01*
X-33368496Y27692796D01*
G37*
D14*
G04 #@! TD*
G04 #@! TO.P,C2,1*
G04 #@! TO.N,GND*
X-34468000Y26981500D03*
D13*
G04 #@! TO.N,+5V*
G04 #@! TO.C,C2*
G36*
X-33368496Y24717796D02*
X-33344227Y24714196D01*
X-33320429Y24708235D01*
X-33297329Y24699970D01*
X-33275151Y24689480D01*
X-33254107Y24676867D01*
X-33234402Y24662253D01*
X-33216223Y24645777D01*
X-33199747Y24627598D01*
X-33185133Y24607893D01*
X-33172520Y24586849D01*
X-33162030Y24564671D01*
X-33153765Y24541571D01*
X-33147804Y24517773D01*
X-33144204Y24493504D01*
X-33143000Y24469000D01*
X-33143000Y23544000D01*
X-33144204Y23519496D01*
X-33147804Y23495227D01*
X-33153765Y23471429D01*
X-33162030Y23448329D01*
X-33172520Y23426151D01*
X-33185133Y23405107D01*
X-33199747Y23385402D01*
X-33216223Y23367223D01*
X-33234402Y23350747D01*
X-33254107Y23336133D01*
X-33275151Y23323520D01*
X-33297329Y23313030D01*
X-33320429Y23304765D01*
X-33344227Y23298804D01*
X-33368496Y23295204D01*
X-33393000Y23294000D01*
X-35543000Y23294000D01*
X-35567504Y23295204D01*
X-35591773Y23298804D01*
X-35615571Y23304765D01*
X-35638671Y23313030D01*
X-35660849Y23323520D01*
X-35681893Y23336133D01*
X-35701598Y23350747D01*
X-35719777Y23367223D01*
X-35736253Y23385402D01*
X-35750867Y23405107D01*
X-35763480Y23426151D01*
X-35773970Y23448329D01*
X-35782235Y23471429D01*
X-35788196Y23495227D01*
X-35791796Y23519496D01*
X-35793000Y23544000D01*
X-35793000Y24469000D01*
X-35791796Y24493504D01*
X-35788196Y24517773D01*
X-35782235Y24541571D01*
X-35773970Y24564671D01*
X-35763480Y24586849D01*
X-35750867Y24607893D01*
X-35736253Y24627598D01*
X-35719777Y24645777D01*
X-35701598Y24662253D01*
X-35681893Y24676867D01*
X-35660849Y24689480D01*
X-35638671Y24699970D01*
X-35615571Y24708235D01*
X-35591773Y24714196D01*
X-35567504Y24717796D01*
X-35543000Y24719000D01*
X-33393000Y24719000D01*
X-33368496Y24717796D01*
X-33368496Y24717796D01*
G37*
D14*
G04 #@! TD*
G04 #@! TO.P,C2,2*
G04 #@! TO.N,+5V*
X-34468000Y24006500D03*
D23*
G04 #@! TO.P,Y1,1*
G04 #@! TO.N,Net-(C3-Pad2)*
X-48045000Y26687500D03*
G04 #@! TO.P,Y1,2*
G04 #@! TO.N,Net-(C4-Pad2)*
X-48045000Y14812500D03*
G04 #@! TD*
D13*
G04 #@! TO.N,Net-(C4-Pad2)*
G04 #@! TO.C,C4*
G36*
X-51586496Y17170796D02*
X-51562227Y17167196D01*
X-51538429Y17161235D01*
X-51515329Y17152970D01*
X-51493151Y17142480D01*
X-51472107Y17129867D01*
X-51452402Y17115253D01*
X-51434223Y17098777D01*
X-51417747Y17080598D01*
X-51403133Y17060893D01*
X-51390520Y17039849D01*
X-51380030Y17017671D01*
X-51371765Y16994571D01*
X-51365804Y16970773D01*
X-51362204Y16946504D01*
X-51361000Y16922000D01*
X-51361000Y15997000D01*
X-51362204Y15972496D01*
X-51365804Y15948227D01*
X-51371765Y15924429D01*
X-51380030Y15901329D01*
X-51390520Y15879151D01*
X-51403133Y15858107D01*
X-51417747Y15838402D01*
X-51434223Y15820223D01*
X-51452402Y15803747D01*
X-51472107Y15789133D01*
X-51493151Y15776520D01*
X-51515329Y15766030D01*
X-51538429Y15757765D01*
X-51562227Y15751804D01*
X-51586496Y15748204D01*
X-51611000Y15747000D01*
X-52861000Y15747000D01*
X-52885504Y15748204D01*
X-52909773Y15751804D01*
X-52933571Y15757765D01*
X-52956671Y15766030D01*
X-52978849Y15776520D01*
X-52999893Y15789133D01*
X-53019598Y15803747D01*
X-53037777Y15820223D01*
X-53054253Y15838402D01*
X-53068867Y15858107D01*
X-53081480Y15879151D01*
X-53091970Y15901329D01*
X-53100235Y15924429D01*
X-53106196Y15948227D01*
X-53109796Y15972496D01*
X-53111000Y15997000D01*
X-53111000Y16922000D01*
X-53109796Y16946504D01*
X-53106196Y16970773D01*
X-53100235Y16994571D01*
X-53091970Y17017671D01*
X-53081480Y17039849D01*
X-53068867Y17060893D01*
X-53054253Y17080598D01*
X-53037777Y17098777D01*
X-53019598Y17115253D01*
X-52999893Y17129867D01*
X-52978849Y17142480D01*
X-52956671Y17152970D01*
X-52933571Y17161235D01*
X-52909773Y17167196D01*
X-52885504Y17170796D01*
X-52861000Y17172000D01*
X-51611000Y17172000D01*
X-51586496Y17170796D01*
X-51586496Y17170796D01*
G37*
D14*
G04 #@! TD*
G04 #@! TO.P,C4,2*
G04 #@! TO.N,Net-(C4-Pad2)*
X-52236000Y16459500D03*
D13*
G04 #@! TO.N,GND*
G04 #@! TO.C,C4*
G36*
X-51586496Y20145796D02*
X-51562227Y20142196D01*
X-51538429Y20136235D01*
X-51515329Y20127970D01*
X-51493151Y20117480D01*
X-51472107Y20104867D01*
X-51452402Y20090253D01*
X-51434223Y20073777D01*
X-51417747Y20055598D01*
X-51403133Y20035893D01*
X-51390520Y20014849D01*
X-51380030Y19992671D01*
X-51371765Y19969571D01*
X-51365804Y19945773D01*
X-51362204Y19921504D01*
X-51361000Y19897000D01*
X-51361000Y18972000D01*
X-51362204Y18947496D01*
X-51365804Y18923227D01*
X-51371765Y18899429D01*
X-51380030Y18876329D01*
X-51390520Y18854151D01*
X-51403133Y18833107D01*
X-51417747Y18813402D01*
X-51434223Y18795223D01*
X-51452402Y18778747D01*
X-51472107Y18764133D01*
X-51493151Y18751520D01*
X-51515329Y18741030D01*
X-51538429Y18732765D01*
X-51562227Y18726804D01*
X-51586496Y18723204D01*
X-51611000Y18722000D01*
X-52861000Y18722000D01*
X-52885504Y18723204D01*
X-52909773Y18726804D01*
X-52933571Y18732765D01*
X-52956671Y18741030D01*
X-52978849Y18751520D01*
X-52999893Y18764133D01*
X-53019598Y18778747D01*
X-53037777Y18795223D01*
X-53054253Y18813402D01*
X-53068867Y18833107D01*
X-53081480Y18854151D01*
X-53091970Y18876329D01*
X-53100235Y18899429D01*
X-53106196Y18923227D01*
X-53109796Y18947496D01*
X-53111000Y18972000D01*
X-53111000Y19897000D01*
X-53109796Y19921504D01*
X-53106196Y19945773D01*
X-53100235Y19969571D01*
X-53091970Y19992671D01*
X-53081480Y20014849D01*
X-53068867Y20035893D01*
X-53054253Y20055598D01*
X-53037777Y20073777D01*
X-53019598Y20090253D01*
X-52999893Y20104867D01*
X-52978849Y20117480D01*
X-52956671Y20127970D01*
X-52933571Y20136235D01*
X-52909773Y20142196D01*
X-52885504Y20145796D01*
X-52861000Y20147000D01*
X-51611000Y20147000D01*
X-51586496Y20145796D01*
X-51586496Y20145796D01*
G37*
D14*
G04 #@! TD*
G04 #@! TO.P,C4,1*
G04 #@! TO.N,GND*
X-52236000Y19434500D03*
D13*
G04 #@! TO.N,Net-(C3-Pad2)*
G04 #@! TO.C,C3*
G36*
X-51586496Y25352796D02*
X-51562227Y25349196D01*
X-51538429Y25343235D01*
X-51515329Y25334970D01*
X-51493151Y25324480D01*
X-51472107Y25311867D01*
X-51452402Y25297253D01*
X-51434223Y25280777D01*
X-51417747Y25262598D01*
X-51403133Y25242893D01*
X-51390520Y25221849D01*
X-51380030Y25199671D01*
X-51371765Y25176571D01*
X-51365804Y25152773D01*
X-51362204Y25128504D01*
X-51361000Y25104000D01*
X-51361000Y24179000D01*
X-51362204Y24154496D01*
X-51365804Y24130227D01*
X-51371765Y24106429D01*
X-51380030Y24083329D01*
X-51390520Y24061151D01*
X-51403133Y24040107D01*
X-51417747Y24020402D01*
X-51434223Y24002223D01*
X-51452402Y23985747D01*
X-51472107Y23971133D01*
X-51493151Y23958520D01*
X-51515329Y23948030D01*
X-51538429Y23939765D01*
X-51562227Y23933804D01*
X-51586496Y23930204D01*
X-51611000Y23929000D01*
X-52861000Y23929000D01*
X-52885504Y23930204D01*
X-52909773Y23933804D01*
X-52933571Y23939765D01*
X-52956671Y23948030D01*
X-52978849Y23958520D01*
X-52999893Y23971133D01*
X-53019598Y23985747D01*
X-53037777Y24002223D01*
X-53054253Y24020402D01*
X-53068867Y24040107D01*
X-53081480Y24061151D01*
X-53091970Y24083329D01*
X-53100235Y24106429D01*
X-53106196Y24130227D01*
X-53109796Y24154496D01*
X-53111000Y24179000D01*
X-53111000Y25104000D01*
X-53109796Y25128504D01*
X-53106196Y25152773D01*
X-53100235Y25176571D01*
X-53091970Y25199671D01*
X-53081480Y25221849D01*
X-53068867Y25242893D01*
X-53054253Y25262598D01*
X-53037777Y25280777D01*
X-53019598Y25297253D01*
X-52999893Y25311867D01*
X-52978849Y25324480D01*
X-52956671Y25334970D01*
X-52933571Y25343235D01*
X-52909773Y25349196D01*
X-52885504Y25352796D01*
X-52861000Y25354000D01*
X-51611000Y25354000D01*
X-51586496Y25352796D01*
X-51586496Y25352796D01*
G37*
D14*
G04 #@! TD*
G04 #@! TO.P,C3,2*
G04 #@! TO.N,Net-(C3-Pad2)*
X-52236000Y24641500D03*
D13*
G04 #@! TO.N,GND*
G04 #@! TO.C,C3*
G36*
X-51586496Y22377796D02*
X-51562227Y22374196D01*
X-51538429Y22368235D01*
X-51515329Y22359970D01*
X-51493151Y22349480D01*
X-51472107Y22336867D01*
X-51452402Y22322253D01*
X-51434223Y22305777D01*
X-51417747Y22287598D01*
X-51403133Y22267893D01*
X-51390520Y22246849D01*
X-51380030Y22224671D01*
X-51371765Y22201571D01*
X-51365804Y22177773D01*
X-51362204Y22153504D01*
X-51361000Y22129000D01*
X-51361000Y21204000D01*
X-51362204Y21179496D01*
X-51365804Y21155227D01*
X-51371765Y21131429D01*
X-51380030Y21108329D01*
X-51390520Y21086151D01*
X-51403133Y21065107D01*
X-51417747Y21045402D01*
X-51434223Y21027223D01*
X-51452402Y21010747D01*
X-51472107Y20996133D01*
X-51493151Y20983520D01*
X-51515329Y20973030D01*
X-51538429Y20964765D01*
X-51562227Y20958804D01*
X-51586496Y20955204D01*
X-51611000Y20954000D01*
X-52861000Y20954000D01*
X-52885504Y20955204D01*
X-52909773Y20958804D01*
X-52933571Y20964765D01*
X-52956671Y20973030D01*
X-52978849Y20983520D01*
X-52999893Y20996133D01*
X-53019598Y21010747D01*
X-53037777Y21027223D01*
X-53054253Y21045402D01*
X-53068867Y21065107D01*
X-53081480Y21086151D01*
X-53091970Y21108329D01*
X-53100235Y21131429D01*
X-53106196Y21155227D01*
X-53109796Y21179496D01*
X-53111000Y21204000D01*
X-53111000Y22129000D01*
X-53109796Y22153504D01*
X-53106196Y22177773D01*
X-53100235Y22201571D01*
X-53091970Y22224671D01*
X-53081480Y22246849D01*
X-53068867Y22267893D01*
X-53054253Y22287598D01*
X-53037777Y22305777D01*
X-53019598Y22322253D01*
X-52999893Y22336867D01*
X-52978849Y22349480D01*
X-52956671Y22359970D01*
X-52933571Y22368235D01*
X-52909773Y22374196D01*
X-52885504Y22377796D01*
X-52861000Y22379000D01*
X-51611000Y22379000D01*
X-51586496Y22377796D01*
X-51586496Y22377796D01*
G37*
D14*
G04 #@! TD*
G04 #@! TO.P,C3,1*
G04 #@! TO.N,GND*
X-52236000Y21666500D03*
D13*
G04 #@! TO.N,GND*
G04 #@! TO.C,C1*
G36*
X-54100496Y33973796D02*
X-54076227Y33970196D01*
X-54052429Y33964235D01*
X-54029329Y33955970D01*
X-54007151Y33945480D01*
X-53986107Y33932867D01*
X-53966402Y33918253D01*
X-53948223Y33901777D01*
X-53931747Y33883598D01*
X-53917133Y33863893D01*
X-53904520Y33842849D01*
X-53894030Y33820671D01*
X-53885765Y33797571D01*
X-53879804Y33773773D01*
X-53876204Y33749504D01*
X-53875000Y33725000D01*
X-53875000Y32800000D01*
X-53876204Y32775496D01*
X-53879804Y32751227D01*
X-53885765Y32727429D01*
X-53894030Y32704329D01*
X-53904520Y32682151D01*
X-53917133Y32661107D01*
X-53931747Y32641402D01*
X-53948223Y32623223D01*
X-53966402Y32606747D01*
X-53986107Y32592133D01*
X-54007151Y32579520D01*
X-54029329Y32569030D01*
X-54052429Y32560765D01*
X-54076227Y32554804D01*
X-54100496Y32551204D01*
X-54125000Y32550000D01*
X-55375000Y32550000D01*
X-55399504Y32551204D01*
X-55423773Y32554804D01*
X-55447571Y32560765D01*
X-55470671Y32569030D01*
X-55492849Y32579520D01*
X-55513893Y32592133D01*
X-55533598Y32606747D01*
X-55551777Y32623223D01*
X-55568253Y32641402D01*
X-55582867Y32661107D01*
X-55595480Y32682151D01*
X-55605970Y32704329D01*
X-55614235Y32727429D01*
X-55620196Y32751227D01*
X-55623796Y32775496D01*
X-55625000Y32800000D01*
X-55625000Y33725000D01*
X-55623796Y33749504D01*
X-55620196Y33773773D01*
X-55614235Y33797571D01*
X-55605970Y33820671D01*
X-55595480Y33842849D01*
X-55582867Y33863893D01*
X-55568253Y33883598D01*
X-55551777Y33901777D01*
X-55533598Y33918253D01*
X-55513893Y33932867D01*
X-55492849Y33945480D01*
X-55470671Y33955970D01*
X-55447571Y33964235D01*
X-55423773Y33970196D01*
X-55399504Y33973796D01*
X-55375000Y33975000D01*
X-54125000Y33975000D01*
X-54100496Y33973796D01*
X-54100496Y33973796D01*
G37*
D14*
G04 #@! TD*
G04 #@! TO.P,C1,2*
G04 #@! TO.N,GND*
X-54750000Y33262500D03*
D13*
G04 #@! TO.N,+12V*
G04 #@! TO.C,C1*
G36*
X-54100496Y36948796D02*
X-54076227Y36945196D01*
X-54052429Y36939235D01*
X-54029329Y36930970D01*
X-54007151Y36920480D01*
X-53986107Y36907867D01*
X-53966402Y36893253D01*
X-53948223Y36876777D01*
X-53931747Y36858598D01*
X-53917133Y36838893D01*
X-53904520Y36817849D01*
X-53894030Y36795671D01*
X-53885765Y36772571D01*
X-53879804Y36748773D01*
X-53876204Y36724504D01*
X-53875000Y36700000D01*
X-53875000Y35775000D01*
X-53876204Y35750496D01*
X-53879804Y35726227D01*
X-53885765Y35702429D01*
X-53894030Y35679329D01*
X-53904520Y35657151D01*
X-53917133Y35636107D01*
X-53931747Y35616402D01*
X-53948223Y35598223D01*
X-53966402Y35581747D01*
X-53986107Y35567133D01*
X-54007151Y35554520D01*
X-54029329Y35544030D01*
X-54052429Y35535765D01*
X-54076227Y35529804D01*
X-54100496Y35526204D01*
X-54125000Y35525000D01*
X-55375000Y35525000D01*
X-55399504Y35526204D01*
X-55423773Y35529804D01*
X-55447571Y35535765D01*
X-55470671Y35544030D01*
X-55492849Y35554520D01*
X-55513893Y35567133D01*
X-55533598Y35581747D01*
X-55551777Y35598223D01*
X-55568253Y35616402D01*
X-55582867Y35636107D01*
X-55595480Y35657151D01*
X-55605970Y35679329D01*
X-55614235Y35702429D01*
X-55620196Y35726227D01*
X-55623796Y35750496D01*
X-55625000Y35775000D01*
X-55625000Y36700000D01*
X-55623796Y36724504D01*
X-55620196Y36748773D01*
X-55614235Y36772571D01*
X-55605970Y36795671D01*
X-55595480Y36817849D01*
X-55582867Y36838893D01*
X-55568253Y36858598D01*
X-55551777Y36876777D01*
X-55533598Y36893253D01*
X-55513893Y36907867D01*
X-55492849Y36920480D01*
X-55470671Y36930970D01*
X-55447571Y36939235D01*
X-55423773Y36945196D01*
X-55399504Y36948796D01*
X-55375000Y36950000D01*
X-54125000Y36950000D01*
X-54100496Y36948796D01*
X-54100496Y36948796D01*
G37*
D14*
G04 #@! TD*
G04 #@! TO.P,C1,1*
G04 #@! TO.N,+12V*
X-54750000Y36237500D03*
D24*
G04 #@! TO.P,A1,16*
G04 #@! TO.N,/SCK*
X-2898000Y40322000D03*
G04 #@! TO.P,A1,15*
G04 #@! TO.N,/SO*
X-18138000Y40322000D03*
G04 #@! TO.P,A1,30*
G04 #@! TO.N,+12V*
X-2898000Y4762000D03*
G04 #@! TO.P,A1,14*
G04 #@! TO.N,/SI*
X-18138000Y37782000D03*
G04 #@! TO.P,A1,29*
G04 #@! TO.N,GND*
X-2898000Y7302000D03*
G04 #@! TO.P,A1,13*
G04 #@! TO.N,/CS*
X-18138000Y35242000D03*
G04 #@! TO.P,A1,28*
G04 #@! TO.N,Net-(A1-Pad28)*
X-2898000Y9842000D03*
G04 #@! TO.P,A1,12*
G04 #@! TO.N,/XCDR_RST*
X-18138000Y32702000D03*
G04 #@! TO.P,A1,27*
G04 #@! TO.N,+5V*
X-2898000Y12382000D03*
G04 #@! TO.P,A1,11*
G04 #@! TO.N,Net-(A1-Pad11)*
X-18138000Y30162000D03*
G04 #@! TO.P,A1,26*
G04 #@! TO.N,Net-(A1-Pad26)*
X-2898000Y14922000D03*
G04 #@! TO.P,A1,10*
G04 #@! TO.N,/CAN_RST*
X-18138000Y27622000D03*
G04 #@! TO.P,A1,25*
G04 #@! TO.N,Net-(A1-Pad25)*
X-2898000Y17462000D03*
G04 #@! TO.P,A1,9*
G04 #@! TO.N,/int*
X-18138000Y25082000D03*
G04 #@! TO.P,A1,24*
G04 #@! TO.N,Net-(A1-Pad24)*
X-2898000Y20002000D03*
G04 #@! TO.P,A1,8*
G04 #@! TO.N,/S3*
X-18138000Y22542000D03*
G04 #@! TO.P,A1,23*
G04 #@! TO.N,Net-(A1-Pad23)*
X-2898000Y22542000D03*
G04 #@! TO.P,A1,7*
G04 #@! TO.N,/S2*
X-18138000Y20002000D03*
G04 #@! TO.P,A1,22*
G04 #@! TO.N,Net-(A1-Pad22)*
X-2898000Y25082000D03*
G04 #@! TO.P,A1,6*
G04 #@! TO.N,/S1*
X-18138000Y17462000D03*
G04 #@! TO.P,A1,21*
G04 #@! TO.N,Net-(A1-Pad21)*
X-2898000Y27622000D03*
G04 #@! TO.P,A1,5*
G04 #@! TO.N,/LED*
X-18138000Y14922000D03*
G04 #@! TO.P,A1,20*
G04 #@! TO.N,Net-(A1-Pad20)*
X-2898000Y30162000D03*
G04 #@! TO.P,A1,4*
G04 #@! TO.N,GND*
X-18138000Y12382000D03*
G04 #@! TO.P,A1,19*
G04 #@! TO.N,Net-(A1-Pad19)*
X-2898000Y32702000D03*
G04 #@! TO.P,A1,3*
G04 #@! TO.N,Net-(A1-Pad3)*
X-18138000Y9842000D03*
G04 #@! TO.P,A1,18*
G04 #@! TO.N,Net-(A1-Pad18)*
X-2898000Y35242000D03*
G04 #@! TO.P,A1,2*
G04 #@! TO.N,Net-(A1-Pad2)*
X-18138000Y7302000D03*
G04 #@! TO.P,A1,17*
G04 #@! TO.N,Net-(A1-Pad17)*
X-2898000Y37782000D03*
D25*
G04 #@! TO.P,A1,1*
G04 #@! TO.N,Net-(A1-Pad1)*
X-18138000Y4762000D03*
G04 #@! TD*
D26*
G04 #@! TO.P,U2,18*
G04 #@! TO.N,+5V*
X-34018000Y21574000D03*
G04 #@! TO.P,U2,17*
G04 #@! TO.N,/CAN_RST*
X-34018000Y20304000D03*
G04 #@! TO.P,U2,16*
G04 #@! TO.N,/CS*
X-34018000Y19034000D03*
G04 #@! TO.P,U2,15*
G04 #@! TO.N,/SO*
X-34018000Y17764000D03*
G04 #@! TO.P,U2,14*
G04 #@! TO.N,/SI*
X-34018000Y16494000D03*
G04 #@! TO.P,U2,13*
G04 #@! TO.N,/SCK*
X-34018000Y15224000D03*
G04 #@! TO.P,U2,12*
G04 #@! TO.N,/int*
X-34018000Y13954000D03*
G04 #@! TO.P,U2,11*
G04 #@! TO.N,Net-(U2-Pad11)*
X-34018000Y12684000D03*
G04 #@! TO.P,U2,10*
G04 #@! TO.N,Net-(U2-Pad10)*
X-34018000Y11414000D03*
G04 #@! TO.P,U2,9*
G04 #@! TO.N,GND*
X-43418000Y11414000D03*
G04 #@! TO.P,U2,8*
G04 #@! TO.N,Net-(C4-Pad2)*
X-43418000Y12684000D03*
G04 #@! TO.P,U2,7*
G04 #@! TO.N,Net-(C3-Pad2)*
X-43418000Y13954000D03*
G04 #@! TO.P,U2,6*
G04 #@! TO.N,Net-(U2-Pad6)*
X-43418000Y15224000D03*
G04 #@! TO.P,U2,5*
G04 #@! TO.N,Net-(U2-Pad5)*
X-43418000Y16494000D03*
G04 #@! TO.P,U2,4*
G04 #@! TO.N,Net-(U2-Pad4)*
X-43418000Y17764000D03*
G04 #@! TO.P,U2,3*
G04 #@! TO.N,Net-(U2-Pad3)*
X-43418000Y19034000D03*
G04 #@! TO.P,U2,2*
G04 #@! TO.N,/RXD*
X-43418000Y20304000D03*
G04 #@! TO.P,U2,1*
G04 #@! TO.N,/TXD*
X-43418000Y21574000D03*
G04 #@! TD*
D27*
G04 #@! TO.P,U1,8*
G04 #@! TO.N,/XCDR_RST*
X-41887000Y30449000D03*
G04 #@! TO.P,U1,7*
G04 #@! TO.N,/CANH*
X-40617000Y30449000D03*
G04 #@! TO.P,U1,6*
G04 #@! TO.N,/CANL*
X-39347000Y30449000D03*
G04 #@! TO.P,U1,5*
G04 #@! TO.N,Net-(U1-Pad5)*
X-38077000Y30449000D03*
G04 #@! TO.P,U1,4*
G04 #@! TO.N,/RXD*
X-38077000Y25049000D03*
G04 #@! TO.P,U1,3*
G04 #@! TO.N,+5V*
X-39347000Y25049000D03*
G04 #@! TO.P,U1,2*
G04 #@! TO.N,GND*
X-40617000Y25049000D03*
G04 #@! TO.P,U1,1*
G04 #@! TO.N,/TXD*
X-41887000Y25049000D03*
G04 #@! TD*
D13*
G04 #@! TO.N,/S2*
G04 #@! TO.C,R5*
G36*
X-40775496Y6373796D02*
X-40751227Y6370196D01*
X-40727429Y6364235D01*
X-40704329Y6355970D01*
X-40682151Y6345480D01*
X-40661107Y6332867D01*
X-40641402Y6318253D01*
X-40623223Y6301777D01*
X-40606747Y6283598D01*
X-40592133Y6263893D01*
X-40579520Y6242849D01*
X-40569030Y6220671D01*
X-40560765Y6197571D01*
X-40554804Y6173773D01*
X-40551204Y6149504D01*
X-40550000Y6125000D01*
X-40550000Y4875000D01*
X-40551204Y4850496D01*
X-40554804Y4826227D01*
X-40560765Y4802429D01*
X-40569030Y4779329D01*
X-40579520Y4757151D01*
X-40592133Y4736107D01*
X-40606747Y4716402D01*
X-40623223Y4698223D01*
X-40641402Y4681747D01*
X-40661107Y4667133D01*
X-40682151Y4654520D01*
X-40704329Y4644030D01*
X-40727429Y4635765D01*
X-40751227Y4629804D01*
X-40775496Y4626204D01*
X-40800000Y4625000D01*
X-41725000Y4625000D01*
X-41749504Y4626204D01*
X-41773773Y4629804D01*
X-41797571Y4635765D01*
X-41820671Y4644030D01*
X-41842849Y4654520D01*
X-41863893Y4667133D01*
X-41883598Y4681747D01*
X-41901777Y4698223D01*
X-41918253Y4716402D01*
X-41932867Y4736107D01*
X-41945480Y4757151D01*
X-41955970Y4779329D01*
X-41964235Y4802429D01*
X-41970196Y4826227D01*
X-41973796Y4850496D01*
X-41975000Y4875000D01*
X-41975000Y6125000D01*
X-41973796Y6149504D01*
X-41970196Y6173773D01*
X-41964235Y6197571D01*
X-41955970Y6220671D01*
X-41945480Y6242849D01*
X-41932867Y6263893D01*
X-41918253Y6283598D01*
X-41901777Y6301777D01*
X-41883598Y6318253D01*
X-41863893Y6332867D01*
X-41842849Y6345480D01*
X-41820671Y6355970D01*
X-41797571Y6364235D01*
X-41773773Y6370196D01*
X-41749504Y6373796D01*
X-41725000Y6375000D01*
X-40800000Y6375000D01*
X-40775496Y6373796D01*
X-40775496Y6373796D01*
G37*
D14*
G04 #@! TD*
G04 #@! TO.P,R5,2*
G04 #@! TO.N,/S2*
X-41262500Y5500000D03*
D13*
G04 #@! TO.N,GND*
G04 #@! TO.C,R5*
G36*
X-43750496Y6373796D02*
X-43726227Y6370196D01*
X-43702429Y6364235D01*
X-43679329Y6355970D01*
X-43657151Y6345480D01*
X-43636107Y6332867D01*
X-43616402Y6318253D01*
X-43598223Y6301777D01*
X-43581747Y6283598D01*
X-43567133Y6263893D01*
X-43554520Y6242849D01*
X-43544030Y6220671D01*
X-43535765Y6197571D01*
X-43529804Y6173773D01*
X-43526204Y6149504D01*
X-43525000Y6125000D01*
X-43525000Y4875000D01*
X-43526204Y4850496D01*
X-43529804Y4826227D01*
X-43535765Y4802429D01*
X-43544030Y4779329D01*
X-43554520Y4757151D01*
X-43567133Y4736107D01*
X-43581747Y4716402D01*
X-43598223Y4698223D01*
X-43616402Y4681747D01*
X-43636107Y4667133D01*
X-43657151Y4654520D01*
X-43679329Y4644030D01*
X-43702429Y4635765D01*
X-43726227Y4629804D01*
X-43750496Y4626204D01*
X-43775000Y4625000D01*
X-44700000Y4625000D01*
X-44724504Y4626204D01*
X-44748773Y4629804D01*
X-44772571Y4635765D01*
X-44795671Y4644030D01*
X-44817849Y4654520D01*
X-44838893Y4667133D01*
X-44858598Y4681747D01*
X-44876777Y4698223D01*
X-44893253Y4716402D01*
X-44907867Y4736107D01*
X-44920480Y4757151D01*
X-44930970Y4779329D01*
X-44939235Y4802429D01*
X-44945196Y4826227D01*
X-44948796Y4850496D01*
X-44950000Y4875000D01*
X-44950000Y6125000D01*
X-44948796Y6149504D01*
X-44945196Y6173773D01*
X-44939235Y6197571D01*
X-44930970Y6220671D01*
X-44920480Y6242849D01*
X-44907867Y6263893D01*
X-44893253Y6283598D01*
X-44876777Y6301777D01*
X-44858598Y6318253D01*
X-44838893Y6332867D01*
X-44817849Y6345480D01*
X-44795671Y6355970D01*
X-44772571Y6364235D01*
X-44748773Y6370196D01*
X-44724504Y6373796D01*
X-44700000Y6375000D01*
X-43775000Y6375000D01*
X-43750496Y6373796D01*
X-43750496Y6373796D01*
G37*
D14*
G04 #@! TD*
G04 #@! TO.P,R5,1*
G04 #@! TO.N,GND*
X-44237500Y5500000D03*
D13*
G04 #@! TO.N,/S1*
G04 #@! TO.C,R4*
G36*
X-30525496Y6373796D02*
X-30501227Y6370196D01*
X-30477429Y6364235D01*
X-30454329Y6355970D01*
X-30432151Y6345480D01*
X-30411107Y6332867D01*
X-30391402Y6318253D01*
X-30373223Y6301777D01*
X-30356747Y6283598D01*
X-30342133Y6263893D01*
X-30329520Y6242849D01*
X-30319030Y6220671D01*
X-30310765Y6197571D01*
X-30304804Y6173773D01*
X-30301204Y6149504D01*
X-30300000Y6125000D01*
X-30300000Y4875000D01*
X-30301204Y4850496D01*
X-30304804Y4826227D01*
X-30310765Y4802429D01*
X-30319030Y4779329D01*
X-30329520Y4757151D01*
X-30342133Y4736107D01*
X-30356747Y4716402D01*
X-30373223Y4698223D01*
X-30391402Y4681747D01*
X-30411107Y4667133D01*
X-30432151Y4654520D01*
X-30454329Y4644030D01*
X-30477429Y4635765D01*
X-30501227Y4629804D01*
X-30525496Y4626204D01*
X-30550000Y4625000D01*
X-31475000Y4625000D01*
X-31499504Y4626204D01*
X-31523773Y4629804D01*
X-31547571Y4635765D01*
X-31570671Y4644030D01*
X-31592849Y4654520D01*
X-31613893Y4667133D01*
X-31633598Y4681747D01*
X-31651777Y4698223D01*
X-31668253Y4716402D01*
X-31682867Y4736107D01*
X-31695480Y4757151D01*
X-31705970Y4779329D01*
X-31714235Y4802429D01*
X-31720196Y4826227D01*
X-31723796Y4850496D01*
X-31725000Y4875000D01*
X-31725000Y6125000D01*
X-31723796Y6149504D01*
X-31720196Y6173773D01*
X-31714235Y6197571D01*
X-31705970Y6220671D01*
X-31695480Y6242849D01*
X-31682867Y6263893D01*
X-31668253Y6283598D01*
X-31651777Y6301777D01*
X-31633598Y6318253D01*
X-31613893Y6332867D01*
X-31592849Y6345480D01*
X-31570671Y6355970D01*
X-31547571Y6364235D01*
X-31523773Y6370196D01*
X-31499504Y6373796D01*
X-31475000Y6375000D01*
X-30550000Y6375000D01*
X-30525496Y6373796D01*
X-30525496Y6373796D01*
G37*
D14*
G04 #@! TD*
G04 #@! TO.P,R4,2*
G04 #@! TO.N,/S1*
X-31012500Y5500000D03*
D13*
G04 #@! TO.N,GND*
G04 #@! TO.C,R4*
G36*
X-33500496Y6373796D02*
X-33476227Y6370196D01*
X-33452429Y6364235D01*
X-33429329Y6355970D01*
X-33407151Y6345480D01*
X-33386107Y6332867D01*
X-33366402Y6318253D01*
X-33348223Y6301777D01*
X-33331747Y6283598D01*
X-33317133Y6263893D01*
X-33304520Y6242849D01*
X-33294030Y6220671D01*
X-33285765Y6197571D01*
X-33279804Y6173773D01*
X-33276204Y6149504D01*
X-33275000Y6125000D01*
X-33275000Y4875000D01*
X-33276204Y4850496D01*
X-33279804Y4826227D01*
X-33285765Y4802429D01*
X-33294030Y4779329D01*
X-33304520Y4757151D01*
X-33317133Y4736107D01*
X-33331747Y4716402D01*
X-33348223Y4698223D01*
X-33366402Y4681747D01*
X-33386107Y4667133D01*
X-33407151Y4654520D01*
X-33429329Y4644030D01*
X-33452429Y4635765D01*
X-33476227Y4629804D01*
X-33500496Y4626204D01*
X-33525000Y4625000D01*
X-34450000Y4625000D01*
X-34474504Y4626204D01*
X-34498773Y4629804D01*
X-34522571Y4635765D01*
X-34545671Y4644030D01*
X-34567849Y4654520D01*
X-34588893Y4667133D01*
X-34608598Y4681747D01*
X-34626777Y4698223D01*
X-34643253Y4716402D01*
X-34657867Y4736107D01*
X-34670480Y4757151D01*
X-34680970Y4779329D01*
X-34689235Y4802429D01*
X-34695196Y4826227D01*
X-34698796Y4850496D01*
X-34700000Y4875000D01*
X-34700000Y6125000D01*
X-34698796Y6149504D01*
X-34695196Y6173773D01*
X-34689235Y6197571D01*
X-34680970Y6220671D01*
X-34670480Y6242849D01*
X-34657867Y6263893D01*
X-34643253Y6283598D01*
X-34626777Y6301777D01*
X-34608598Y6318253D01*
X-34588893Y6332867D01*
X-34567849Y6345480D01*
X-34545671Y6355970D01*
X-34522571Y6364235D01*
X-34498773Y6370196D01*
X-34474504Y6373796D01*
X-34450000Y6375000D01*
X-33525000Y6375000D01*
X-33500496Y6373796D01*
X-33500496Y6373796D01*
G37*
D14*
G04 #@! TD*
G04 #@! TO.P,R4,1*
G04 #@! TO.N,GND*
X-33987500Y5500000D03*
D13*
G04 #@! TO.N,Net-(J3-Pad1)*
G04 #@! TO.C,R2*
G36*
X-35750496Y34623796D02*
X-35726227Y34620196D01*
X-35702429Y34614235D01*
X-35679329Y34605970D01*
X-35657151Y34595480D01*
X-35636107Y34582867D01*
X-35616402Y34568253D01*
X-35598223Y34551777D01*
X-35581747Y34533598D01*
X-35567133Y34513893D01*
X-35554520Y34492849D01*
X-35544030Y34470671D01*
X-35535765Y34447571D01*
X-35529804Y34423773D01*
X-35526204Y34399504D01*
X-35525000Y34375000D01*
X-35525000Y33125000D01*
X-35526204Y33100496D01*
X-35529804Y33076227D01*
X-35535765Y33052429D01*
X-35544030Y33029329D01*
X-35554520Y33007151D01*
X-35567133Y32986107D01*
X-35581747Y32966402D01*
X-35598223Y32948223D01*
X-35616402Y32931747D01*
X-35636107Y32917133D01*
X-35657151Y32904520D01*
X-35679329Y32894030D01*
X-35702429Y32885765D01*
X-35726227Y32879804D01*
X-35750496Y32876204D01*
X-35775000Y32875000D01*
X-36700000Y32875000D01*
X-36724504Y32876204D01*
X-36748773Y32879804D01*
X-36772571Y32885765D01*
X-36795671Y32894030D01*
X-36817849Y32904520D01*
X-36838893Y32917133D01*
X-36858598Y32931747D01*
X-36876777Y32948223D01*
X-36893253Y32966402D01*
X-36907867Y32986107D01*
X-36920480Y33007151D01*
X-36930970Y33029329D01*
X-36939235Y33052429D01*
X-36945196Y33076227D01*
X-36948796Y33100496D01*
X-36950000Y33125000D01*
X-36950000Y34375000D01*
X-36948796Y34399504D01*
X-36945196Y34423773D01*
X-36939235Y34447571D01*
X-36930970Y34470671D01*
X-36920480Y34492849D01*
X-36907867Y34513893D01*
X-36893253Y34533598D01*
X-36876777Y34551777D01*
X-36858598Y34568253D01*
X-36838893Y34582867D01*
X-36817849Y34595480D01*
X-36795671Y34605970D01*
X-36772571Y34614235D01*
X-36748773Y34620196D01*
X-36724504Y34623796D01*
X-36700000Y34625000D01*
X-35775000Y34625000D01*
X-35750496Y34623796D01*
X-35750496Y34623796D01*
G37*
D14*
G04 #@! TD*
G04 #@! TO.P,R2,2*
G04 #@! TO.N,Net-(J3-Pad1)*
X-36237500Y33750000D03*
D13*
G04 #@! TO.N,/CANL*
G04 #@! TO.C,R2*
G36*
X-32775496Y34623796D02*
X-32751227Y34620196D01*
X-32727429Y34614235D01*
X-32704329Y34605970D01*
X-32682151Y34595480D01*
X-32661107Y34582867D01*
X-32641402Y34568253D01*
X-32623223Y34551777D01*
X-32606747Y34533598D01*
X-32592133Y34513893D01*
X-32579520Y34492849D01*
X-32569030Y34470671D01*
X-32560765Y34447571D01*
X-32554804Y34423773D01*
X-32551204Y34399504D01*
X-32550000Y34375000D01*
X-32550000Y33125000D01*
X-32551204Y33100496D01*
X-32554804Y33076227D01*
X-32560765Y33052429D01*
X-32569030Y33029329D01*
X-32579520Y33007151D01*
X-32592133Y32986107D01*
X-32606747Y32966402D01*
X-32623223Y32948223D01*
X-32641402Y32931747D01*
X-32661107Y32917133D01*
X-32682151Y32904520D01*
X-32704329Y32894030D01*
X-32727429Y32885765D01*
X-32751227Y32879804D01*
X-32775496Y32876204D01*
X-32800000Y32875000D01*
X-33725000Y32875000D01*
X-33749504Y32876204D01*
X-33773773Y32879804D01*
X-33797571Y32885765D01*
X-33820671Y32894030D01*
X-33842849Y32904520D01*
X-33863893Y32917133D01*
X-33883598Y32931747D01*
X-33901777Y32948223D01*
X-33918253Y32966402D01*
X-33932867Y32986107D01*
X-33945480Y33007151D01*
X-33955970Y33029329D01*
X-33964235Y33052429D01*
X-33970196Y33076227D01*
X-33973796Y33100496D01*
X-33975000Y33125000D01*
X-33975000Y34375000D01*
X-33973796Y34399504D01*
X-33970196Y34423773D01*
X-33964235Y34447571D01*
X-33955970Y34470671D01*
X-33945480Y34492849D01*
X-33932867Y34513893D01*
X-33918253Y34533598D01*
X-33901777Y34551777D01*
X-33883598Y34568253D01*
X-33863893Y34582867D01*
X-33842849Y34595480D01*
X-33820671Y34605970D01*
X-33797571Y34614235D01*
X-33773773Y34620196D01*
X-33749504Y34623796D01*
X-33725000Y34625000D01*
X-32800000Y34625000D01*
X-32775496Y34623796D01*
X-32775496Y34623796D01*
G37*
D14*
G04 #@! TD*
G04 #@! TO.P,R2,1*
G04 #@! TO.N,/CANL*
X-33262500Y33750000D03*
D13*
G04 #@! TO.N,/Vin*
G04 #@! TO.C,R1*
G36*
X-38350496Y37473796D02*
X-38326227Y37470196D01*
X-38302429Y37464235D01*
X-38279329Y37455970D01*
X-38257151Y37445480D01*
X-38236107Y37432867D01*
X-38216402Y37418253D01*
X-38198223Y37401777D01*
X-38181747Y37383598D01*
X-38167133Y37363893D01*
X-38154520Y37342849D01*
X-38144030Y37320671D01*
X-38135765Y37297571D01*
X-38129804Y37273773D01*
X-38126204Y37249504D01*
X-38125000Y37225000D01*
X-38125000Y36300000D01*
X-38126204Y36275496D01*
X-38129804Y36251227D01*
X-38135765Y36227429D01*
X-38144030Y36204329D01*
X-38154520Y36182151D01*
X-38167133Y36161107D01*
X-38181747Y36141402D01*
X-38198223Y36123223D01*
X-38216402Y36106747D01*
X-38236107Y36092133D01*
X-38257151Y36079520D01*
X-38279329Y36069030D01*
X-38302429Y36060765D01*
X-38326227Y36054804D01*
X-38350496Y36051204D01*
X-38375000Y36050000D01*
X-39625000Y36050000D01*
X-39649504Y36051204D01*
X-39673773Y36054804D01*
X-39697571Y36060765D01*
X-39720671Y36069030D01*
X-39742849Y36079520D01*
X-39763893Y36092133D01*
X-39783598Y36106747D01*
X-39801777Y36123223D01*
X-39818253Y36141402D01*
X-39832867Y36161107D01*
X-39845480Y36182151D01*
X-39855970Y36204329D01*
X-39864235Y36227429D01*
X-39870196Y36251227D01*
X-39873796Y36275496D01*
X-39875000Y36300000D01*
X-39875000Y37225000D01*
X-39873796Y37249504D01*
X-39870196Y37273773D01*
X-39864235Y37297571D01*
X-39855970Y37320671D01*
X-39845480Y37342849D01*
X-39832867Y37363893D01*
X-39818253Y37383598D01*
X-39801777Y37401777D01*
X-39783598Y37418253D01*
X-39763893Y37432867D01*
X-39742849Y37445480D01*
X-39720671Y37455970D01*
X-39697571Y37464235D01*
X-39673773Y37470196D01*
X-39649504Y37473796D01*
X-39625000Y37475000D01*
X-38375000Y37475000D01*
X-38350496Y37473796D01*
X-38350496Y37473796D01*
G37*
D14*
G04 #@! TD*
G04 #@! TO.P,R1,2*
G04 #@! TO.N,/Vin*
X-39000000Y36762500D03*
D13*
G04 #@! TO.N,Net-(D2-Pad1)*
G04 #@! TO.C,R1*
G36*
X-38350496Y40448796D02*
X-38326227Y40445196D01*
X-38302429Y40439235D01*
X-38279329Y40430970D01*
X-38257151Y40420480D01*
X-38236107Y40407867D01*
X-38216402Y40393253D01*
X-38198223Y40376777D01*
X-38181747Y40358598D01*
X-38167133Y40338893D01*
X-38154520Y40317849D01*
X-38144030Y40295671D01*
X-38135765Y40272571D01*
X-38129804Y40248773D01*
X-38126204Y40224504D01*
X-38125000Y40200000D01*
X-38125000Y39275000D01*
X-38126204Y39250496D01*
X-38129804Y39226227D01*
X-38135765Y39202429D01*
X-38144030Y39179329D01*
X-38154520Y39157151D01*
X-38167133Y39136107D01*
X-38181747Y39116402D01*
X-38198223Y39098223D01*
X-38216402Y39081747D01*
X-38236107Y39067133D01*
X-38257151Y39054520D01*
X-38279329Y39044030D01*
X-38302429Y39035765D01*
X-38326227Y39029804D01*
X-38350496Y39026204D01*
X-38375000Y39025000D01*
X-39625000Y39025000D01*
X-39649504Y39026204D01*
X-39673773Y39029804D01*
X-39697571Y39035765D01*
X-39720671Y39044030D01*
X-39742849Y39054520D01*
X-39763893Y39067133D01*
X-39783598Y39081747D01*
X-39801777Y39098223D01*
X-39818253Y39116402D01*
X-39832867Y39136107D01*
X-39845480Y39157151D01*
X-39855970Y39179329D01*
X-39864235Y39202429D01*
X-39870196Y39226227D01*
X-39873796Y39250496D01*
X-39875000Y39275000D01*
X-39875000Y40200000D01*
X-39873796Y40224504D01*
X-39870196Y40248773D01*
X-39864235Y40272571D01*
X-39855970Y40295671D01*
X-39845480Y40317849D01*
X-39832867Y40338893D01*
X-39818253Y40358598D01*
X-39801777Y40376777D01*
X-39783598Y40393253D01*
X-39763893Y40407867D01*
X-39742849Y40420480D01*
X-39720671Y40430970D01*
X-39697571Y40439235D01*
X-39673773Y40445196D01*
X-39649504Y40448796D01*
X-39625000Y40450000D01*
X-38375000Y40450000D01*
X-38350496Y40448796D01*
X-38350496Y40448796D01*
G37*
D14*
G04 #@! TD*
G04 #@! TO.P,R1,1*
G04 #@! TO.N,Net-(D2-Pad1)*
X-39000000Y39737500D03*
D28*
G04 #@! TO.N,/Vin*
X-45080761Y32669239D03*
X-30294239Y33794239D03*
G04 #@! TO.N,+5V*
X-38000000Y12250000D03*
X-38250000Y8000000D03*
G04 #@! TO.N,GND*
X-52000000Y33674990D03*
X-52000000Y36750000D03*
G04 #@! TO.N,/XCDR_RST*
X-23250000Y29750000D03*
X-30250000Y29750000D03*
G04 #@! TO.N,/CAN_RST*
X-23000000Y22500000D03*
X-28250000Y21250000D03*
G04 #@! TO.N,/SCK*
X-7750000Y20500000D03*
X-30250000Y15193990D03*
G04 #@! TD*
D29*
G04 #@! TO.N,Net-(D1-Pad2)*
X-22057095Y4758250D02*
X-22619595Y4195750D01*
X-22057095Y8000000D02*
X-22057095Y4758250D01*
G04 #@! TO.N,/Vin*
X-39082537Y36679963D02*
X-39000000Y36762500D01*
X-41920000Y36679963D02*
X-39082537Y36679963D01*
X-55460000Y43944366D02*
X-55460000Y45500000D01*
X-56175010Y43229356D02*
X-55460000Y43944366D01*
X-56175010Y35443622D02*
X-56175010Y43229356D01*
X-55706378Y34974990D02*
X-56175010Y35443622D01*
X-41920000Y36679963D02*
X-43624973Y34974990D01*
X-46250000Y34974990D02*
X-46250000Y33838478D01*
X-43624973Y34974990D02*
X-46250000Y34974990D01*
X-46250000Y33838478D02*
X-45080761Y32669239D01*
X-46250000Y34974990D02*
X-55706378Y34974990D01*
X-30031501Y33794239D02*
X-27145777Y36679963D01*
X-30294239Y33794239D02*
X-30031501Y33794239D01*
G04 #@! TO.N,+5V*
X-34468000Y22024000D02*
X-34018000Y21574000D01*
X-34468000Y24006500D02*
X-34468000Y22024000D01*
X-36499999Y2499999D02*
X-35500000Y1500000D01*
X-37050001Y3050001D02*
X-36499999Y2499999D01*
X-44199999Y3050001D02*
X-37050001Y3050001D01*
X-45750000Y1500000D02*
X-44199999Y3050001D01*
X-51755999Y3050001D02*
X-51705998Y3000000D01*
X-51705998Y3000000D02*
X-47250000Y3000000D01*
X-53244001Y3050001D02*
X-51755999Y3050001D01*
X-53294002Y3000000D02*
X-53244001Y3050001D01*
X-47250000Y3000000D02*
X-45750000Y1500000D01*
X-55500000Y3000000D02*
X-53294002Y3000000D01*
X-57000000Y1500000D02*
X-55500000Y3000000D01*
X-38000000Y20474500D02*
X-34468000Y24006500D01*
X-38000000Y12250000D02*
X-38000000Y12250000D01*
X-38000000Y12250000D02*
X-38000000Y20474500D01*
X-38250000Y8000000D02*
X-35500000Y8000000D01*
X-37111478Y26649978D02*
X-39021022Y26649978D01*
X-39347000Y26324000D02*
X-39347000Y25049000D01*
X-34468000Y24006500D02*
X-37111478Y26649978D01*
X-39021022Y26649978D02*
X-39347000Y26324000D01*
X-29944612Y21574000D02*
X-32518000Y21574000D01*
X-28750000Y22768612D02*
X-29944612Y21574000D01*
X-28750000Y31750000D02*
X-28750000Y22768612D01*
X-20288012Y40211988D02*
X-28750000Y31750000D01*
X-19117376Y42472012D02*
X-20288012Y41301376D01*
X-18527988Y42472012D02*
X-19117376Y42472012D01*
X-15250000Y24734000D02*
X-15250000Y41500000D01*
X-15250000Y41500000D02*
X-16750000Y43000000D01*
X-32518000Y21574000D02*
X-34018000Y21574000D01*
X-18000000Y43000000D02*
X-18527988Y42472012D01*
X-20288012Y41301376D02*
X-20288012Y40211988D01*
X-16750000Y43000000D02*
X-18000000Y43000000D01*
X-2898000Y12382000D02*
X-15250000Y24734000D01*
D30*
G04 #@! TO.N,GND*
X-3179000Y7302000D02*
X-2898000Y7302000D01*
X-3369500Y7302000D02*
X-2898000Y7302000D01*
D29*
X-19269370Y12382000D02*
X-18138000Y12382000D01*
X-19893983Y12382000D02*
X-19269370Y12382000D01*
X-23711723Y8564260D02*
X-19893983Y12382000D01*
X-23711723Y7043622D02*
X-23711723Y8564260D01*
X-25159595Y5595750D02*
X-23711723Y7043622D01*
X-25159595Y4195750D02*
X-25159595Y5595750D01*
X-43418000Y11414000D02*
X-44118000Y11414000D01*
X-52236000Y19434500D02*
X-52236000Y21666500D01*
X-40617000Y26324000D02*
X-40617000Y25049000D01*
X-41570500Y27277500D02*
X-40617000Y26324000D01*
X-44046000Y27277500D02*
X-41570500Y27277500D01*
X-53211000Y19434500D02*
X-52236000Y19434500D01*
X-59172001Y13473499D02*
X-53211000Y19434500D01*
X-30724000Y23237500D02*
X-30500000Y23237500D01*
X-34468000Y26981500D02*
X-30724000Y23237500D01*
X-2988500Y7392500D02*
X-2898000Y7302000D01*
X-6327000Y7392500D02*
X-2988500Y7392500D01*
X-11316500Y12382000D02*
X-6327000Y7392500D01*
X-18138000Y12382000D02*
X-11316500Y12382000D01*
X-57012500Y33262500D02*
X-54750000Y33262500D01*
X-59250000Y42650000D02*
X-59250000Y35500000D01*
X-59250000Y35500000D02*
X-57012500Y33262500D01*
X-58000000Y43900000D02*
X-59250000Y42650000D01*
X-58000000Y45500000D02*
X-58000000Y43900000D01*
X-60000000Y5000000D02*
X-58482250Y3482250D01*
X-60000000Y7293753D02*
X-60000000Y5000000D01*
X-59172001Y8121752D02*
X-60000000Y7293753D01*
X-59172001Y13473499D02*
X-59172001Y8121752D01*
X-46425001Y10324999D02*
X-45336000Y11414000D01*
X-45336000Y11414000D02*
X-43418000Y11414000D01*
X-59172001Y13473499D02*
X-56023501Y10324999D01*
X-54703653Y10278652D02*
X-54750000Y10324999D01*
X-54750000Y10324999D02*
X-46425001Y10324999D01*
X-56023501Y10324999D02*
X-54750000Y10324999D01*
X-57492750Y3482250D02*
X-55475000Y5500000D01*
X-58482250Y3482250D02*
X-57492750Y3482250D01*
X-54703653Y4728653D02*
X-55475000Y5500000D01*
X-54049990Y4074990D02*
X-54703653Y4728653D01*
X-45662510Y4074990D02*
X-54049990Y4074990D01*
X-44237500Y5500000D02*
X-45662510Y4074990D01*
X-33216153Y4728653D02*
X-33987500Y5500000D01*
X-32562490Y4074990D02*
X-33216153Y4728653D01*
X-26680355Y4074990D02*
X-32562490Y4074990D01*
X-26559595Y4195750D02*
X-26680355Y4074990D01*
X-25159595Y4195750D02*
X-26559595Y4195750D01*
X-33987500Y5262500D02*
X-33987500Y5500000D01*
X-35399989Y3850011D02*
X-33987500Y5262500D01*
X-42587511Y3850011D02*
X-35399989Y3850011D01*
X-44237500Y5500000D02*
X-42587511Y3850011D01*
X-54750000Y24180500D02*
X-52236000Y21666500D01*
X-54750000Y33262500D02*
X-54750000Y24180500D01*
X-44817347Y28616349D02*
X-44817347Y28048847D01*
X-45116349Y28616349D02*
X-44817347Y28616349D01*
X-47512500Y33262500D02*
X-46000000Y31750000D01*
X-46000000Y30000000D02*
X-45116349Y28616349D01*
X-44817347Y28048847D02*
X-44046000Y27277500D01*
X-46000000Y31750000D02*
X-46000000Y30000000D01*
X-31485814Y39750000D02*
X-30955777Y39219963D01*
X-35050000Y39750000D02*
X-31485814Y39750000D01*
X-34468000Y26981500D02*
X-35893000Y26981500D01*
X-35893000Y26981500D02*
X-36361489Y27449989D01*
X-36361489Y27449989D02*
X-39491011Y27449989D01*
X-39491011Y27449989D02*
X-40617000Y26324000D01*
X-52000000Y33262500D02*
X-52000000Y33674990D01*
X-54750000Y33262500D02*
X-52000000Y33262500D01*
X-52000000Y33262500D02*
X-47512500Y33262500D01*
X-45730000Y37959963D02*
X-45730000Y39219963D01*
X-46939963Y36750000D02*
X-45730000Y37959963D01*
X-52000000Y36750000D02*
X-46939963Y36750000D01*
G04 #@! TO.N,/TXD*
X-41887000Y23105000D02*
X-43418000Y21574000D01*
X-41887000Y25049000D02*
X-41887000Y23105000D01*
G04 #@! TO.N,/RXD*
X-38077000Y23774000D02*
X-38077000Y25049000D01*
X-41547000Y20304000D02*
X-38077000Y23774000D01*
X-43418000Y20304000D02*
X-41547000Y20304000D01*
G04 #@! TO.N,/CANL*
X-39347000Y30449000D02*
X-39347000Y31244002D01*
X-33262500Y35182488D02*
X-33262500Y33750000D01*
X-39347000Y31724000D02*
X-39347000Y30449000D01*
X-39221001Y31849999D02*
X-39347000Y31724000D01*
X-35162501Y31849999D02*
X-39221001Y31849999D01*
X-33262500Y33750000D02*
X-35162501Y31849999D01*
X-31153252Y35182488D02*
X-29655777Y36679963D01*
X-33262500Y35182488D02*
X-31153252Y35182488D01*
X-43670001Y37439962D02*
X-44430000Y36679963D01*
X-43098803Y37439962D02*
X-43670001Y37439962D01*
X-42513755Y38025010D02*
X-43098803Y37439962D01*
X-38043622Y38025010D02*
X-42513755Y38025010D01*
X-35201100Y35182488D02*
X-38043622Y38025010D01*
X-33262500Y35182488D02*
X-35201100Y35182488D01*
G04 #@! TO.N,/CANH*
X-40617000Y30449000D02*
X-40617000Y31244002D01*
X-42420000Y33380000D02*
X-42040000Y33000000D01*
X-40617000Y31577000D02*
X-40617000Y31244002D01*
X-42040000Y33000000D02*
X-40617000Y31577000D01*
X-45625010Y43624990D02*
X-45625010Y41684973D01*
X-45274990Y43975010D02*
X-45625010Y43624990D01*
X-28385777Y39219963D02*
X-28385777Y40294765D01*
X-41118612Y42750000D02*
X-42343622Y43975010D01*
X-30841012Y42750000D02*
X-41118612Y42750000D01*
X-42343622Y43975010D02*
X-45274990Y43975010D01*
X-28385777Y40294765D02*
X-30841012Y42750000D01*
X-44419999Y40479962D02*
X-43160000Y39219963D01*
X-45625010Y41684973D02*
X-44419999Y40479962D01*
X-25835776Y37744764D02*
X-27310975Y39219963D01*
X-25835776Y36051162D02*
X-25835776Y37744764D01*
X-26516976Y35369962D02*
X-25835776Y36051162D01*
X-33126001Y29123999D02*
X-26880038Y35369962D01*
X-27310975Y39219963D02*
X-28385777Y39219963D01*
X-40566999Y29123999D02*
X-33126001Y29123999D01*
X-40617000Y29174000D02*
X-40566999Y29123999D01*
X-26880038Y35369962D02*
X-26516976Y35369962D01*
X-40617000Y30449000D02*
X-40617000Y29174000D01*
G04 #@! TO.N,Net-(C3-Pad2)*
X-49320000Y24641500D02*
X-48045000Y25916500D01*
X-52236000Y24641500D02*
X-49320000Y24641500D01*
X-48045000Y21479000D02*
X-48045000Y25916500D01*
X-46494999Y19928999D02*
X-48045000Y21479000D01*
X-46494999Y16010997D02*
X-46494999Y19928999D01*
X-44438002Y13954000D02*
X-46494999Y16010997D01*
X-43418000Y13954000D02*
X-44438002Y13954000D01*
G04 #@! TO.N,Net-(C4-Pad2)*
X-49818000Y14041500D02*
X-48045000Y14041500D01*
X-52236000Y16459500D02*
X-49818000Y14041500D01*
X-44918000Y12684000D02*
X-43418000Y12684000D01*
X-45187500Y12684000D02*
X-44918000Y12684000D01*
X-46545000Y14041500D02*
X-45187500Y12684000D01*
X-48045000Y14041500D02*
X-46545000Y14041500D01*
G04 #@! TO.N,/int*
X-29326011Y13893989D02*
X-18937999Y24282001D01*
X-18937999Y24282001D02*
X-18138000Y25082000D01*
X-34018000Y13954000D02*
X-32518000Y13954000D01*
X-32518000Y13954000D02*
X-32457989Y13893989D01*
X-32457989Y13893989D02*
X-29326011Y13893989D01*
G04 #@! TO.N,Net-(D2-Pad1)*
X-36962500Y39737500D02*
X-36950000Y39750000D01*
X-39000000Y39737500D02*
X-36962500Y39737500D01*
X-40825000Y39737500D02*
X-39000000Y39737500D01*
X-43750000Y42662500D02*
X-40825000Y39737500D01*
G04 #@! TO.N,/LED*
X-19269370Y14922000D02*
X-18138000Y14922000D01*
X-25032095Y9159275D02*
X-19269370Y14922000D01*
X-25032095Y8000000D02*
X-25032095Y9159275D01*
G04 #@! TO.N,/S1*
X-19285750Y17462000D02*
X-18138000Y17462000D01*
X-28750000Y7997750D02*
X-19285750Y17462000D01*
X-28752250Y8000000D02*
X-31000000Y8000000D01*
X-28750000Y7997750D02*
X-28752250Y8000000D01*
X-31012500Y7987500D02*
X-31000000Y8000000D01*
X-31012500Y5500000D02*
X-31012500Y7987500D01*
G04 #@! TO.N,/S2*
X-41250000Y5512500D02*
X-41262500Y5500000D01*
X-41250000Y8000000D02*
X-41250000Y5512500D01*
X-39486011Y9763989D02*
X-41250000Y8000000D01*
X-28376011Y9763989D02*
X-39486011Y9763989D01*
X-18138000Y20002000D02*
X-28376011Y9763989D01*
G04 #@! TO.N,/S3*
X-18937999Y21742001D02*
X-18138000Y22542000D01*
X-30116001Y10563999D02*
X-18937999Y21742001D01*
X-45054617Y10563999D02*
X-30116001Y10563999D01*
X-46093627Y9524989D02*
X-45054617Y10563999D01*
X-49560798Y9524989D02*
X-46093627Y9524989D01*
X-51085787Y8000000D02*
X-49560798Y9524989D01*
X-52500000Y8000000D02*
X-51085787Y8000000D01*
X-52500000Y5500000D02*
X-52500000Y8000000D01*
G04 #@! TO.N,/XCDR_RST*
X-42083500Y30252500D02*
X-41887000Y30449000D01*
X-44046000Y30252500D02*
X-42083500Y30252500D01*
X-21090000Y29750000D02*
X-18138000Y32702000D01*
X-23250000Y29750000D02*
X-21090000Y29750000D01*
X-41887000Y30449000D02*
X-41887000Y29174000D01*
X-40963000Y28250000D02*
X-31750000Y28250000D01*
X-31750000Y28250000D02*
X-30999999Y29000001D01*
X-41887000Y29174000D02*
X-40963000Y28250000D01*
X-30999999Y29000001D02*
X-30250000Y29750000D01*
G04 #@! TO.N,/CAN_RST*
X-30547500Y20304000D02*
X-30487500Y20244000D01*
X-34018000Y20304000D02*
X-30547500Y20304000D01*
X-18138000Y27622000D02*
X-23000000Y22760000D01*
X-23000000Y22760000D02*
X-23000000Y22500000D01*
X-29417619Y20262500D02*
X-30500000Y20262500D01*
X-28250000Y21250000D02*
X-29417619Y20262500D01*
G04 #@! TO.N,/CS*
X-17172001Y41672001D02*
X-16500000Y41000000D01*
X-28576008Y18999990D02*
X-26750000Y20825998D01*
X-16500000Y36880000D02*
X-17338001Y36041999D01*
X-34018000Y19034000D02*
X-32518000Y19034000D01*
X-32518000Y19034000D02*
X-32483990Y18999990D01*
X-18786001Y41672001D02*
X-17172001Y41672001D01*
X-32483990Y18999990D02*
X-28576008Y18999990D01*
X-26750000Y20825998D02*
X-26750000Y32618614D01*
X-26750000Y32618614D02*
X-19488001Y39880613D01*
X-19488001Y40970001D02*
X-18786001Y41672001D01*
X-19488001Y39880613D02*
X-19488001Y40970001D01*
X-16500000Y41000000D02*
X-16500000Y36880000D01*
X-17338001Y36041999D02*
X-18138000Y35242000D01*
G04 #@! TO.N,/SO*
X-18138000Y40099228D02*
X-18138000Y40322000D01*
X-25649986Y32587242D02*
X-18138000Y40099228D01*
X-34018000Y17764000D02*
X-28680612Y17764000D01*
X-28680612Y17764000D02*
X-25649986Y20794626D01*
X-25649986Y20794626D02*
X-25649986Y32587242D01*
G04 #@! TO.N,/SI*
X-24750000Y31170000D02*
X-18000000Y37920000D01*
X-24750000Y20500000D02*
X-24750000Y31170000D01*
X-28756000Y16494000D02*
X-24750000Y20500000D01*
X-18000000Y37920000D02*
X-18138000Y37782000D01*
X-34018000Y16494000D02*
X-28756000Y16494000D01*
G04 #@! TO.N,/SCK*
X-3697999Y39522001D02*
X-2898000Y40322000D01*
X-7350001Y35869999D02*
X-3697999Y39522001D01*
X-7350001Y20899999D02*
X-7350001Y35869999D01*
X-7750000Y20500000D02*
X-7350001Y20899999D01*
X-30280010Y15224000D02*
X-30250000Y15193990D01*
X-34018000Y15224000D02*
X-30280010Y15224000D01*
G04 #@! TO.N,+12V*
X-6327000Y4417500D02*
X-3242500Y4417500D01*
D31*
X-54840277Y36327777D02*
X-54750000Y36237500D01*
X-54840277Y40060963D02*
X-54840277Y36327777D01*
X-1000000Y6000000D02*
X-2238000Y4762000D01*
X-2238000Y4762000D02*
X-2898000Y4762000D01*
X-25139778Y47994964D02*
X-22811776Y47994964D01*
X-6744964Y47744964D02*
X-1000000Y42000000D01*
X-22811776Y47994964D02*
X-22561776Y47744964D01*
X-32721776Y47744964D02*
X-25389778Y47744964D01*
X-32971776Y47994964D02*
X-32721776Y47744964D01*
X-54840277Y40060963D02*
X-52000000Y42901240D01*
X-25389778Y47744964D02*
X-25139778Y47994964D01*
X-35299778Y47994964D02*
X-32971776Y47994964D01*
X-35549778Y47744964D02*
X-35299778Y47994964D01*
X-37039776Y47744964D02*
X-35549778Y47744964D01*
X-37289776Y47994964D02*
X-37039776Y47744964D01*
X-1000000Y42000000D02*
X-1000000Y6000000D01*
X-51335001Y46437741D02*
X-51335001Y46733964D01*
X-39867778Y47744964D02*
X-39617778Y47994964D01*
X-52000000Y45772742D02*
X-51335001Y46437741D01*
X-22561776Y47744964D02*
X-6744964Y47744964D01*
X-50074001Y47994964D02*
X-47449776Y47994964D01*
X-52000000Y42901240D02*
X-52000000Y45772742D01*
X-51335001Y46733964D02*
X-50074001Y47994964D01*
X-39617778Y47994964D02*
X-37289776Y47994964D01*
X-47449776Y47994964D02*
X-47199776Y47744964D01*
X-46792312Y47337500D02*
X-43750000Y47337500D01*
X-47449776Y47994964D02*
X-46792312Y47337500D01*
X-41917536Y47744964D02*
X-39867778Y47744964D01*
X-42325000Y47337500D02*
X-41917536Y47744964D01*
X-43750000Y47337500D02*
X-42325000Y47337500D01*
D29*
G04 #@! TO.N,Net-(J3-Pad1)*
X-36987500Y33000000D02*
X-36237500Y33750000D01*
X-39500000Y33000000D02*
X-36987500Y33000000D01*
G04 #@! TD*
D32*
G04 #@! TO.N,GND*
G36*
X-59258000Y47789768D02*
X-59066481Y47327400D01*
X-59047081Y47308000D01*
X-59240830Y47308000D01*
X-59501050Y47200213D01*
X-59700213Y47001050D01*
X-59808000Y46740830D01*
X-59808000Y45777000D01*
X-59631000Y45600000D01*
X-58100000Y45600000D01*
X-58100000Y45620000D01*
X-57900000Y45620000D01*
X-57900000Y45600000D01*
X-57880000Y45600000D01*
X-57880000Y45400000D01*
X-57900000Y45400000D01*
X-57900000Y43869000D01*
X-57723000Y43692000D01*
X-57018057Y43692000D01*
X-57077426Y43603148D01*
X-57151777Y43229356D01*
X-57133009Y43135002D01*
X-57133010Y35537971D01*
X-57151777Y35443622D01*
X-57133010Y35349273D01*
X-57133010Y35349270D01*
X-57077426Y35069830D01*
X-56865689Y34752943D01*
X-56785697Y34699494D01*
X-56450505Y34364301D01*
X-56397057Y34284311D01*
X-56292227Y34214265D01*
X-56333000Y34115830D01*
X-56333000Y33539500D01*
X-56156000Y33362500D01*
X-54850000Y33362500D01*
X-54850000Y33382500D01*
X-54650000Y33382500D01*
X-54650000Y33362500D01*
X-53344000Y33362500D01*
X-53167000Y33539500D01*
X-53167000Y34016990D01*
X-47207999Y34016990D01*
X-47207999Y33932831D01*
X-47226767Y33838478D01*
X-47152416Y33464686D01*
X-47091683Y33373793D01*
X-46940678Y33147799D01*
X-46860689Y33094352D01*
X-46538761Y32772423D01*
X-46538761Y32379225D01*
X-46316794Y31843348D01*
X-45906652Y31433206D01*
X-45460884Y31248563D01*
X-45568891Y31086919D01*
X-45642870Y30715000D01*
X-45642870Y29790000D01*
X-45568891Y29418081D01*
X-45358216Y29102784D01*
X-45042919Y28892109D01*
X-44671000Y28818130D01*
X-43421000Y28818130D01*
X-43049081Y28892109D01*
X-42836014Y29034476D01*
X-42789416Y28800208D01*
X-42750185Y28741495D01*
X-42577678Y28483321D01*
X-42497689Y28429874D01*
X-41707126Y27639311D01*
X-41653679Y27559321D01*
X-41336793Y27347584D01*
X-41057353Y27292000D01*
X-41057349Y27292000D01*
X-40963001Y27273233D01*
X-40868653Y27292000D01*
X-39744213Y27292000D01*
X-39765149Y27260667D01*
X-39957688Y27068128D01*
X-40037679Y27014679D01*
X-40249416Y26697792D01*
X-40282394Y26532000D01*
X-40340000Y26532000D01*
X-40517000Y26355000D01*
X-40517000Y25149000D01*
X-40497000Y25149000D01*
X-40497000Y24949000D01*
X-40517000Y24949000D01*
X-40517000Y23743000D01*
X-40340000Y23566000D01*
X-40176170Y23566000D01*
X-39982085Y23646393D01*
X-39923248Y23607079D01*
X-39652577Y23553239D01*
X-41696130Y21509685D01*
X-41696130Y21874000D01*
X-41707255Y21929929D01*
X-41276310Y22360874D01*
X-41196321Y22414321D01*
X-40984584Y22731207D01*
X-40929000Y23010647D01*
X-40929000Y23010651D01*
X-40910233Y23105000D01*
X-40929000Y23199349D01*
X-40929000Y23566000D01*
X-40894000Y23566000D01*
X-40717000Y23743000D01*
X-40717000Y24949000D01*
X-40737000Y24949000D01*
X-40737000Y25149000D01*
X-40717000Y25149000D01*
X-40717000Y26355000D01*
X-40894000Y26532000D01*
X-41057830Y26532000D01*
X-41251915Y26451607D01*
X-41310752Y26490921D01*
X-41587000Y26545870D01*
X-42187000Y26545870D01*
X-42463000Y26490970D01*
X-42463000Y27000500D01*
X-42640000Y27177500D01*
X-43946000Y27177500D01*
X-43946000Y26034000D01*
X-43769000Y25857000D01*
X-43030170Y25857000D01*
X-42890825Y25914719D01*
X-42908870Y25824000D01*
X-42908870Y24274000D01*
X-42853921Y23997752D01*
X-42844999Y23984400D01*
X-42844999Y23501817D01*
X-43750945Y22595870D01*
X-44418000Y22595870D01*
X-44694248Y22540921D01*
X-44928439Y22384439D01*
X-45084921Y22150248D01*
X-45139870Y21874000D01*
X-45139870Y21274000D01*
X-45084921Y20997752D01*
X-45045664Y20939000D01*
X-45084921Y20880248D01*
X-45139870Y20604000D01*
X-45139870Y20004000D01*
X-45084921Y19727752D01*
X-45045664Y19669000D01*
X-45084921Y19610248D01*
X-45139870Y19334000D01*
X-45139870Y18734000D01*
X-45084921Y18457752D01*
X-45045664Y18399000D01*
X-45084921Y18340248D01*
X-45139870Y18064000D01*
X-45139870Y17464000D01*
X-45084921Y17187752D01*
X-45045664Y17129000D01*
X-45084921Y17070248D01*
X-45139870Y16794000D01*
X-45139870Y16194000D01*
X-45094352Y15965165D01*
X-45536999Y16407812D01*
X-45536999Y19834652D01*
X-45518232Y19929000D01*
X-45536999Y20023348D01*
X-45536999Y20023352D01*
X-45592583Y20302792D01*
X-45804320Y20619678D01*
X-45884309Y20673125D01*
X-47087000Y21875815D01*
X-47087000Y22028130D01*
X-47045000Y22028130D01*
X-46768752Y22083079D01*
X-46534561Y22239561D01*
X-46378079Y22473752D01*
X-46323130Y22750000D01*
X-46323130Y27000500D01*
X-45629000Y27000500D01*
X-45629000Y26424170D01*
X-45521213Y26163950D01*
X-45322050Y25964787D01*
X-45061830Y25857000D01*
X-44323000Y25857000D01*
X-44146000Y26034000D01*
X-44146000Y27177500D01*
X-45452000Y27177500D01*
X-45629000Y27000500D01*
X-46323130Y27000500D01*
X-46323130Y28130830D01*
X-45629000Y28130830D01*
X-45629000Y27554500D01*
X-45452000Y27377500D01*
X-44146000Y27377500D01*
X-44146000Y28521000D01*
X-43946000Y28521000D01*
X-43946000Y27377500D01*
X-42640000Y27377500D01*
X-42463000Y27554500D01*
X-42463000Y28130830D01*
X-42570787Y28391050D01*
X-42769950Y28590213D01*
X-43030170Y28698000D01*
X-43769000Y28698000D01*
X-43946000Y28521000D01*
X-44146000Y28521000D01*
X-44323000Y28698000D01*
X-45061830Y28698000D01*
X-45322050Y28590213D01*
X-45521213Y28391050D01*
X-45629000Y28130830D01*
X-46323130Y28130830D01*
X-46323130Y30625000D01*
X-46378079Y30901248D01*
X-46534561Y31135439D01*
X-46768752Y31291921D01*
X-47045000Y31346870D01*
X-49045000Y31346870D01*
X-49321248Y31291921D01*
X-49555439Y31135439D01*
X-49711921Y30901248D01*
X-49766870Y30625000D01*
X-49766870Y25599500D01*
X-50795683Y25599500D01*
X-50923784Y25791216D01*
X-51239081Y26001891D01*
X-51611000Y26075870D01*
X-52861000Y26075870D01*
X-53232919Y26001891D01*
X-53548216Y25791216D01*
X-53758891Y25475919D01*
X-53832870Y25104000D01*
X-53832870Y24179000D01*
X-53758891Y23807081D01*
X-53548216Y23491784D01*
X-53232919Y23281109D01*
X-52861000Y23207130D01*
X-51611000Y23207130D01*
X-51239081Y23281109D01*
X-50923784Y23491784D01*
X-50795683Y23683500D01*
X-49766870Y23683500D01*
X-49766870Y22750000D01*
X-49711921Y22473752D01*
X-49555439Y22239561D01*
X-49321248Y22083079D01*
X-49045000Y22028130D01*
X-49003000Y22028130D01*
X-49003000Y21573349D01*
X-49021767Y21479000D01*
X-49003000Y21384651D01*
X-49003000Y21384648D01*
X-48947416Y21105208D01*
X-48735679Y20788321D01*
X-48655687Y20734872D01*
X-47452998Y19532182D01*
X-47452998Y19471870D01*
X-49045000Y19471870D01*
X-49321248Y19416921D01*
X-49555439Y19260439D01*
X-49711921Y19026248D01*
X-49766870Y18750000D01*
X-49766870Y15345186D01*
X-50639130Y16217445D01*
X-50639130Y16922000D01*
X-50713109Y17293919D01*
X-50923784Y17609216D01*
X-51239081Y17819891D01*
X-51611000Y17893870D01*
X-52861000Y17893870D01*
X-53232919Y17819891D01*
X-53548216Y17609216D01*
X-53758891Y17293919D01*
X-53832870Y16922000D01*
X-53832870Y15997000D01*
X-53758891Y15625081D01*
X-53548216Y15309784D01*
X-53232919Y15099109D01*
X-52861000Y15025130D01*
X-52156445Y15025130D01*
X-50562126Y13430810D01*
X-50508679Y13350821D01*
X-50191793Y13139084D01*
X-49912353Y13083500D01*
X-49912349Y13083500D01*
X-49818001Y13064733D01*
X-49766870Y13074904D01*
X-49766870Y10875000D01*
X-49711921Y10598752D01*
X-49636984Y10486602D01*
X-49655147Y10482989D01*
X-49655151Y10482989D01*
X-49934591Y10427405D01*
X-50251477Y10215668D01*
X-50304924Y10135679D01*
X-51262563Y9178040D01*
X-51532496Y9447973D01*
X-52160258Y9708000D01*
X-52839742Y9708000D01*
X-53467504Y9447973D01*
X-53947973Y8967504D01*
X-54208000Y8339742D01*
X-54208000Y7660258D01*
X-53947973Y7032496D01*
X-53680949Y6765472D01*
X-53860391Y6496919D01*
X-53934370Y6125000D01*
X-53934370Y4875000D01*
X-53860391Y4503081D01*
X-53649716Y4187784D01*
X-53370949Y4001517D01*
X-53589726Y3958000D01*
X-54522688Y3958000D01*
X-54361450Y4024787D01*
X-54162287Y4223950D01*
X-54054500Y4484170D01*
X-54054500Y5223000D01*
X-54231500Y5400000D01*
X-55375000Y5400000D01*
X-55375000Y5380000D01*
X-55575000Y5380000D01*
X-55575000Y5400000D01*
X-56718500Y5400000D01*
X-56895500Y5223000D01*
X-56895500Y4484170D01*
X-56787713Y4223950D01*
X-56588550Y4024787D01*
X-56328330Y3917000D01*
X-55800474Y3917000D01*
X-55873793Y3902416D01*
X-56190679Y3690679D01*
X-56244126Y3610690D01*
X-56650753Y3204063D01*
X-56660258Y3208000D01*
X-57339742Y3208000D01*
X-57967504Y2947973D01*
X-58447973Y2467504D01*
X-58708000Y1839742D01*
X-58708000Y1160258D01*
X-58551735Y783000D01*
X-60217000Y783000D01*
X-60217000Y8339742D01*
X-58708000Y8339742D01*
X-58708000Y7660258D01*
X-58447973Y7032496D01*
X-57967504Y6552027D01*
X-57339742Y6292000D01*
X-56895500Y6292000D01*
X-56895500Y5777000D01*
X-56718500Y5600000D01*
X-55575000Y5600000D01*
X-55575000Y6906000D01*
X-55375000Y6906000D01*
X-55375000Y5600000D01*
X-54231500Y5600000D01*
X-54054500Y5777000D01*
X-54054500Y6515830D01*
X-54162287Y6776050D01*
X-54361450Y6975213D01*
X-54621670Y7083000D01*
X-55198000Y7083000D01*
X-55375000Y6906000D01*
X-55575000Y6906000D01*
X-55626761Y6957761D01*
X-55552027Y7032496D01*
X-55292000Y7660258D01*
X-55292000Y8339742D01*
X-55552027Y8967504D01*
X-56032496Y9447973D01*
X-56660258Y9708000D01*
X-57339742Y9708000D01*
X-57967504Y9447973D01*
X-58447973Y8967504D01*
X-58708000Y8339742D01*
X-60217000Y8339742D01*
X-60217000Y19157500D01*
X-53819000Y19157500D01*
X-53819000Y18581170D01*
X-53711213Y18320950D01*
X-53512050Y18121787D01*
X-53251830Y18014000D01*
X-52513000Y18014000D01*
X-52336000Y18191000D01*
X-52336000Y19334500D01*
X-52136000Y19334500D01*
X-52136000Y18191000D01*
X-51959000Y18014000D01*
X-51220170Y18014000D01*
X-50959950Y18121787D01*
X-50760787Y18320950D01*
X-50653000Y18581170D01*
X-50653000Y19157500D01*
X-50830000Y19334500D01*
X-52136000Y19334500D01*
X-52336000Y19334500D01*
X-53642000Y19334500D01*
X-53819000Y19157500D01*
X-60217000Y19157500D01*
X-60217000Y21389500D01*
X-53819000Y21389500D01*
X-53819000Y20813170D01*
X-53711213Y20552950D01*
X-53708763Y20550500D01*
X-53711213Y20548050D01*
X-53819000Y20287830D01*
X-53819000Y19711500D01*
X-53642000Y19534500D01*
X-52336000Y19534500D01*
X-52336000Y21566500D01*
X-52136000Y21566500D01*
X-52136000Y19534500D01*
X-50830000Y19534500D01*
X-50653000Y19711500D01*
X-50653000Y20287830D01*
X-50760787Y20548050D01*
X-50763237Y20550500D01*
X-50760787Y20552950D01*
X-50653000Y20813170D01*
X-50653000Y21389500D01*
X-50830000Y21566500D01*
X-52136000Y21566500D01*
X-52336000Y21566500D01*
X-53642000Y21566500D01*
X-53819000Y21389500D01*
X-60217000Y21389500D01*
X-60217000Y22519830D01*
X-53819000Y22519830D01*
X-53819000Y21943500D01*
X-53642000Y21766500D01*
X-52336000Y21766500D01*
X-52336000Y22910000D01*
X-52136000Y22910000D01*
X-52136000Y21766500D01*
X-50830000Y21766500D01*
X-50653000Y21943500D01*
X-50653000Y22519830D01*
X-50760787Y22780050D01*
X-50959950Y22979213D01*
X-51220170Y23087000D01*
X-51959000Y23087000D01*
X-52136000Y22910000D01*
X-52336000Y22910000D01*
X-52513000Y23087000D01*
X-53251830Y23087000D01*
X-53512050Y22979213D01*
X-53711213Y22780050D01*
X-53819000Y22519830D01*
X-60217000Y22519830D01*
X-60217000Y32985500D01*
X-56333000Y32985500D01*
X-56333000Y32409170D01*
X-56225213Y32148950D01*
X-56026050Y31949787D01*
X-55765830Y31842000D01*
X-55027000Y31842000D01*
X-54850000Y32019000D01*
X-54850000Y33162500D01*
X-54650000Y33162500D01*
X-54650000Y32019000D01*
X-54473000Y31842000D01*
X-53734170Y31842000D01*
X-53473950Y31949787D01*
X-53274787Y32148950D01*
X-53167000Y32409170D01*
X-53167000Y32985500D01*
X-53344000Y33162500D01*
X-54650000Y33162500D01*
X-54850000Y33162500D01*
X-56156000Y33162500D01*
X-56333000Y32985500D01*
X-60217000Y32985500D01*
X-60217000Y45223000D01*
X-59808000Y45223000D01*
X-59808000Y44259170D01*
X-59700213Y43998950D01*
X-59501050Y43799787D01*
X-59240830Y43692000D01*
X-58277000Y43692000D01*
X-58100000Y43869000D01*
X-58100000Y45400000D01*
X-59631000Y45400000D01*
X-59808000Y45223000D01*
X-60217000Y45223000D01*
X-60217000Y48217000D01*
X-59258000Y48217000D01*
X-59258000Y47789768D01*
X-59258000Y47789768D01*
G37*
X-59258000Y47789768D02*
X-59066481Y47327400D01*
X-59047081Y47308000D01*
X-59240830Y47308000D01*
X-59501050Y47200213D01*
X-59700213Y47001050D01*
X-59808000Y46740830D01*
X-59808000Y45777000D01*
X-59631000Y45600000D01*
X-58100000Y45600000D01*
X-58100000Y45620000D01*
X-57900000Y45620000D01*
X-57900000Y45600000D01*
X-57880000Y45600000D01*
X-57880000Y45400000D01*
X-57900000Y45400000D01*
X-57900000Y43869000D01*
X-57723000Y43692000D01*
X-57018057Y43692000D01*
X-57077426Y43603148D01*
X-57151777Y43229356D01*
X-57133009Y43135002D01*
X-57133010Y35537971D01*
X-57151777Y35443622D01*
X-57133010Y35349273D01*
X-57133010Y35349270D01*
X-57077426Y35069830D01*
X-56865689Y34752943D01*
X-56785697Y34699494D01*
X-56450505Y34364301D01*
X-56397057Y34284311D01*
X-56292227Y34214265D01*
X-56333000Y34115830D01*
X-56333000Y33539500D01*
X-56156000Y33362500D01*
X-54850000Y33362500D01*
X-54850000Y33382500D01*
X-54650000Y33382500D01*
X-54650000Y33362500D01*
X-53344000Y33362500D01*
X-53167000Y33539500D01*
X-53167000Y34016990D01*
X-47207999Y34016990D01*
X-47207999Y33932831D01*
X-47226767Y33838478D01*
X-47152416Y33464686D01*
X-47091683Y33373793D01*
X-46940678Y33147799D01*
X-46860689Y33094352D01*
X-46538761Y32772423D01*
X-46538761Y32379225D01*
X-46316794Y31843348D01*
X-45906652Y31433206D01*
X-45460884Y31248563D01*
X-45568891Y31086919D01*
X-45642870Y30715000D01*
X-45642870Y29790000D01*
X-45568891Y29418081D01*
X-45358216Y29102784D01*
X-45042919Y28892109D01*
X-44671000Y28818130D01*
X-43421000Y28818130D01*
X-43049081Y28892109D01*
X-42836014Y29034476D01*
X-42789416Y28800208D01*
X-42750185Y28741495D01*
X-42577678Y28483321D01*
X-42497689Y28429874D01*
X-41707126Y27639311D01*
X-41653679Y27559321D01*
X-41336793Y27347584D01*
X-41057353Y27292000D01*
X-41057349Y27292000D01*
X-40963001Y27273233D01*
X-40868653Y27292000D01*
X-39744213Y27292000D01*
X-39765149Y27260667D01*
X-39957688Y27068128D01*
X-40037679Y27014679D01*
X-40249416Y26697792D01*
X-40282394Y26532000D01*
X-40340000Y26532000D01*
X-40517000Y26355000D01*
X-40517000Y25149000D01*
X-40497000Y25149000D01*
X-40497000Y24949000D01*
X-40517000Y24949000D01*
X-40517000Y23743000D01*
X-40340000Y23566000D01*
X-40176170Y23566000D01*
X-39982085Y23646393D01*
X-39923248Y23607079D01*
X-39652577Y23553239D01*
X-41696130Y21509685D01*
X-41696130Y21874000D01*
X-41707255Y21929929D01*
X-41276310Y22360874D01*
X-41196321Y22414321D01*
X-40984584Y22731207D01*
X-40929000Y23010647D01*
X-40929000Y23010651D01*
X-40910233Y23105000D01*
X-40929000Y23199349D01*
X-40929000Y23566000D01*
X-40894000Y23566000D01*
X-40717000Y23743000D01*
X-40717000Y24949000D01*
X-40737000Y24949000D01*
X-40737000Y25149000D01*
X-40717000Y25149000D01*
X-40717000Y26355000D01*
X-40894000Y26532000D01*
X-41057830Y26532000D01*
X-41251915Y26451607D01*
X-41310752Y26490921D01*
X-41587000Y26545870D01*
X-42187000Y26545870D01*
X-42463000Y26490970D01*
X-42463000Y27000500D01*
X-42640000Y27177500D01*
X-43946000Y27177500D01*
X-43946000Y26034000D01*
X-43769000Y25857000D01*
X-43030170Y25857000D01*
X-42890825Y25914719D01*
X-42908870Y25824000D01*
X-42908870Y24274000D01*
X-42853921Y23997752D01*
X-42844999Y23984400D01*
X-42844999Y23501817D01*
X-43750945Y22595870D01*
X-44418000Y22595870D01*
X-44694248Y22540921D01*
X-44928439Y22384439D01*
X-45084921Y22150248D01*
X-45139870Y21874000D01*
X-45139870Y21274000D01*
X-45084921Y20997752D01*
X-45045664Y20939000D01*
X-45084921Y20880248D01*
X-45139870Y20604000D01*
X-45139870Y20004000D01*
X-45084921Y19727752D01*
X-45045664Y19669000D01*
X-45084921Y19610248D01*
X-45139870Y19334000D01*
X-45139870Y18734000D01*
X-45084921Y18457752D01*
X-45045664Y18399000D01*
X-45084921Y18340248D01*
X-45139870Y18064000D01*
X-45139870Y17464000D01*
X-45084921Y17187752D01*
X-45045664Y17129000D01*
X-45084921Y17070248D01*
X-45139870Y16794000D01*
X-45139870Y16194000D01*
X-45094352Y15965165D01*
X-45536999Y16407812D01*
X-45536999Y19834652D01*
X-45518232Y19929000D01*
X-45536999Y20023348D01*
X-45536999Y20023352D01*
X-45592583Y20302792D01*
X-45804320Y20619678D01*
X-45884309Y20673125D01*
X-47087000Y21875815D01*
X-47087000Y22028130D01*
X-47045000Y22028130D01*
X-46768752Y22083079D01*
X-46534561Y22239561D01*
X-46378079Y22473752D01*
X-46323130Y22750000D01*
X-46323130Y27000500D01*
X-45629000Y27000500D01*
X-45629000Y26424170D01*
X-45521213Y26163950D01*
X-45322050Y25964787D01*
X-45061830Y25857000D01*
X-44323000Y25857000D01*
X-44146000Y26034000D01*
X-44146000Y27177500D01*
X-45452000Y27177500D01*
X-45629000Y27000500D01*
X-46323130Y27000500D01*
X-46323130Y28130830D01*
X-45629000Y28130830D01*
X-45629000Y27554500D01*
X-45452000Y27377500D01*
X-44146000Y27377500D01*
X-44146000Y28521000D01*
X-43946000Y28521000D01*
X-43946000Y27377500D01*
X-42640000Y27377500D01*
X-42463000Y27554500D01*
X-42463000Y28130830D01*
X-42570787Y28391050D01*
X-42769950Y28590213D01*
X-43030170Y28698000D01*
X-43769000Y28698000D01*
X-43946000Y28521000D01*
X-44146000Y28521000D01*
X-44323000Y28698000D01*
X-45061830Y28698000D01*
X-45322050Y28590213D01*
X-45521213Y28391050D01*
X-45629000Y28130830D01*
X-46323130Y28130830D01*
X-46323130Y30625000D01*
X-46378079Y30901248D01*
X-46534561Y31135439D01*
X-46768752Y31291921D01*
X-47045000Y31346870D01*
X-49045000Y31346870D01*
X-49321248Y31291921D01*
X-49555439Y31135439D01*
X-49711921Y30901248D01*
X-49766870Y30625000D01*
X-49766870Y25599500D01*
X-50795683Y25599500D01*
X-50923784Y25791216D01*
X-51239081Y26001891D01*
X-51611000Y26075870D01*
X-52861000Y26075870D01*
X-53232919Y26001891D01*
X-53548216Y25791216D01*
X-53758891Y25475919D01*
X-53832870Y25104000D01*
X-53832870Y24179000D01*
X-53758891Y23807081D01*
X-53548216Y23491784D01*
X-53232919Y23281109D01*
X-52861000Y23207130D01*
X-51611000Y23207130D01*
X-51239081Y23281109D01*
X-50923784Y23491784D01*
X-50795683Y23683500D01*
X-49766870Y23683500D01*
X-49766870Y22750000D01*
X-49711921Y22473752D01*
X-49555439Y22239561D01*
X-49321248Y22083079D01*
X-49045000Y22028130D01*
X-49003000Y22028130D01*
X-49003000Y21573349D01*
X-49021767Y21479000D01*
X-49003000Y21384651D01*
X-49003000Y21384648D01*
X-48947416Y21105208D01*
X-48735679Y20788321D01*
X-48655687Y20734872D01*
X-47452998Y19532182D01*
X-47452998Y19471870D01*
X-49045000Y19471870D01*
X-49321248Y19416921D01*
X-49555439Y19260439D01*
X-49711921Y19026248D01*
X-49766870Y18750000D01*
X-49766870Y15345186D01*
X-50639130Y16217445D01*
X-50639130Y16922000D01*
X-50713109Y17293919D01*
X-50923784Y17609216D01*
X-51239081Y17819891D01*
X-51611000Y17893870D01*
X-52861000Y17893870D01*
X-53232919Y17819891D01*
X-53548216Y17609216D01*
X-53758891Y17293919D01*
X-53832870Y16922000D01*
X-53832870Y15997000D01*
X-53758891Y15625081D01*
X-53548216Y15309784D01*
X-53232919Y15099109D01*
X-52861000Y15025130D01*
X-52156445Y15025130D01*
X-50562126Y13430810D01*
X-50508679Y13350821D01*
X-50191793Y13139084D01*
X-49912353Y13083500D01*
X-49912349Y13083500D01*
X-49818001Y13064733D01*
X-49766870Y13074904D01*
X-49766870Y10875000D01*
X-49711921Y10598752D01*
X-49636984Y10486602D01*
X-49655147Y10482989D01*
X-49655151Y10482989D01*
X-49934591Y10427405D01*
X-50251477Y10215668D01*
X-50304924Y10135679D01*
X-51262563Y9178040D01*
X-51532496Y9447973D01*
X-52160258Y9708000D01*
X-52839742Y9708000D01*
X-53467504Y9447973D01*
X-53947973Y8967504D01*
X-54208000Y8339742D01*
X-54208000Y7660258D01*
X-53947973Y7032496D01*
X-53680949Y6765472D01*
X-53860391Y6496919D01*
X-53934370Y6125000D01*
X-53934370Y4875000D01*
X-53860391Y4503081D01*
X-53649716Y4187784D01*
X-53370949Y4001517D01*
X-53589726Y3958000D01*
X-54522688Y3958000D01*
X-54361450Y4024787D01*
X-54162287Y4223950D01*
X-54054500Y4484170D01*
X-54054500Y5223000D01*
X-54231500Y5400000D01*
X-55375000Y5400000D01*
X-55375000Y5380000D01*
X-55575000Y5380000D01*
X-55575000Y5400000D01*
X-56718500Y5400000D01*
X-56895500Y5223000D01*
X-56895500Y4484170D01*
X-56787713Y4223950D01*
X-56588550Y4024787D01*
X-56328330Y3917000D01*
X-55800474Y3917000D01*
X-55873793Y3902416D01*
X-56190679Y3690679D01*
X-56244126Y3610690D01*
X-56650753Y3204063D01*
X-56660258Y3208000D01*
X-57339742Y3208000D01*
X-57967504Y2947973D01*
X-58447973Y2467504D01*
X-58708000Y1839742D01*
X-58708000Y1160258D01*
X-58551735Y783000D01*
X-60217000Y783000D01*
X-60217000Y8339742D01*
X-58708000Y8339742D01*
X-58708000Y7660258D01*
X-58447973Y7032496D01*
X-57967504Y6552027D01*
X-57339742Y6292000D01*
X-56895500Y6292000D01*
X-56895500Y5777000D01*
X-56718500Y5600000D01*
X-55575000Y5600000D01*
X-55575000Y6906000D01*
X-55375000Y6906000D01*
X-55375000Y5600000D01*
X-54231500Y5600000D01*
X-54054500Y5777000D01*
X-54054500Y6515830D01*
X-54162287Y6776050D01*
X-54361450Y6975213D01*
X-54621670Y7083000D01*
X-55198000Y7083000D01*
X-55375000Y6906000D01*
X-55575000Y6906000D01*
X-55626761Y6957761D01*
X-55552027Y7032496D01*
X-55292000Y7660258D01*
X-55292000Y8339742D01*
X-55552027Y8967504D01*
X-56032496Y9447973D01*
X-56660258Y9708000D01*
X-57339742Y9708000D01*
X-57967504Y9447973D01*
X-58447973Y8967504D01*
X-58708000Y8339742D01*
X-60217000Y8339742D01*
X-60217000Y19157500D01*
X-53819000Y19157500D01*
X-53819000Y18581170D01*
X-53711213Y18320950D01*
X-53512050Y18121787D01*
X-53251830Y18014000D01*
X-52513000Y18014000D01*
X-52336000Y18191000D01*
X-52336000Y19334500D01*
X-52136000Y19334500D01*
X-52136000Y18191000D01*
X-51959000Y18014000D01*
X-51220170Y18014000D01*
X-50959950Y18121787D01*
X-50760787Y18320950D01*
X-50653000Y18581170D01*
X-50653000Y19157500D01*
X-50830000Y19334500D01*
X-52136000Y19334500D01*
X-52336000Y19334500D01*
X-53642000Y19334500D01*
X-53819000Y19157500D01*
X-60217000Y19157500D01*
X-60217000Y21389500D01*
X-53819000Y21389500D01*
X-53819000Y20813170D01*
X-53711213Y20552950D01*
X-53708763Y20550500D01*
X-53711213Y20548050D01*
X-53819000Y20287830D01*
X-53819000Y19711500D01*
X-53642000Y19534500D01*
X-52336000Y19534500D01*
X-52336000Y21566500D01*
X-52136000Y21566500D01*
X-52136000Y19534500D01*
X-50830000Y19534500D01*
X-50653000Y19711500D01*
X-50653000Y20287830D01*
X-50760787Y20548050D01*
X-50763237Y20550500D01*
X-50760787Y20552950D01*
X-50653000Y20813170D01*
X-50653000Y21389500D01*
X-50830000Y21566500D01*
X-52136000Y21566500D01*
X-52336000Y21566500D01*
X-53642000Y21566500D01*
X-53819000Y21389500D01*
X-60217000Y21389500D01*
X-60217000Y22519830D01*
X-53819000Y22519830D01*
X-53819000Y21943500D01*
X-53642000Y21766500D01*
X-52336000Y21766500D01*
X-52336000Y22910000D01*
X-52136000Y22910000D01*
X-52136000Y21766500D01*
X-50830000Y21766500D01*
X-50653000Y21943500D01*
X-50653000Y22519830D01*
X-50760787Y22780050D01*
X-50959950Y22979213D01*
X-51220170Y23087000D01*
X-51959000Y23087000D01*
X-52136000Y22910000D01*
X-52336000Y22910000D01*
X-52513000Y23087000D01*
X-53251830Y23087000D01*
X-53512050Y22979213D01*
X-53711213Y22780050D01*
X-53819000Y22519830D01*
X-60217000Y22519830D01*
X-60217000Y32985500D01*
X-56333000Y32985500D01*
X-56333000Y32409170D01*
X-56225213Y32148950D01*
X-56026050Y31949787D01*
X-55765830Y31842000D01*
X-55027000Y31842000D01*
X-54850000Y32019000D01*
X-54850000Y33162500D01*
X-54650000Y33162500D01*
X-54650000Y32019000D01*
X-54473000Y31842000D01*
X-53734170Y31842000D01*
X-53473950Y31949787D01*
X-53274787Y32148950D01*
X-53167000Y32409170D01*
X-53167000Y32985500D01*
X-53344000Y33162500D01*
X-54650000Y33162500D01*
X-54850000Y33162500D01*
X-56156000Y33162500D01*
X-56333000Y32985500D01*
X-60217000Y32985500D01*
X-60217000Y45223000D01*
X-59808000Y45223000D01*
X-59808000Y44259170D01*
X-59700213Y43998950D01*
X-59501050Y43799787D01*
X-59240830Y43692000D01*
X-58277000Y43692000D01*
X-58100000Y43869000D01*
X-58100000Y45400000D01*
X-59631000Y45400000D01*
X-59808000Y45223000D01*
X-60217000Y45223000D01*
X-60217000Y48217000D01*
X-59258000Y48217000D01*
X-59258000Y47789768D01*
G36*
X-16208000Y24828349D02*
X-16226767Y24734000D01*
X-16208000Y24639651D01*
X-16208000Y24639648D01*
X-16152416Y24360208D01*
X-15940679Y24043321D01*
X-15860687Y23989872D01*
X-4405227Y12534411D01*
X-4435543Y12382000D01*
X-4318505Y11793608D01*
X-3985207Y11294793D01*
X-3711638Y11112000D01*
X-3985207Y10929207D01*
X-4318505Y10430392D01*
X-4435543Y9842000D01*
X-4318505Y9253608D01*
X-3985207Y8754793D01*
X-3699538Y8563915D01*
X-3769461Y8532707D01*
X-4174096Y8105531D01*
X-4294000Y7816047D01*
X-4294000Y8245830D01*
X-4401787Y8506050D01*
X-4600950Y8705213D01*
X-4861170Y8813000D01*
X-6050000Y8813000D01*
X-6227000Y8636000D01*
X-6227000Y7492500D01*
X-4471000Y7492500D01*
X-4352885Y7610615D01*
X-4225238Y7402000D01*
X-2998000Y7402000D01*
X-2998000Y7422000D01*
X-2798000Y7422000D01*
X-2798000Y7402000D01*
X-2778000Y7402000D01*
X-2778000Y7202000D01*
X-2798000Y7202000D01*
X-2798000Y7182000D01*
X-2998000Y7182000D01*
X-2998000Y7202000D01*
X-4225238Y7202000D01*
X-4294000Y7089622D01*
X-4294000Y7115500D01*
X-4471000Y7292500D01*
X-6227000Y7292500D01*
X-6227000Y6149000D01*
X-6050000Y5972000D01*
X-4861170Y5972000D01*
X-4600950Y6079787D01*
X-4401787Y6278950D01*
X-4294000Y6539170D01*
X-4294000Y6787953D01*
X-4174096Y6498469D01*
X-3769461Y6071293D01*
X-3699538Y6040085D01*
X-3985207Y5849207D01*
X-4301728Y5375500D01*
X-4436683Y5375500D01*
X-4564784Y5567216D01*
X-4880081Y5777891D01*
X-5252000Y5851870D01*
X-7402000Y5851870D01*
X-7773919Y5777891D01*
X-8089216Y5567216D01*
X-8299891Y5251919D01*
X-8373870Y4880000D01*
X-8373870Y3955000D01*
X-8299891Y3583081D01*
X-8089216Y3267784D01*
X-7773919Y3057109D01*
X-7402000Y2983130D01*
X-5252000Y2983130D01*
X-4880081Y3057109D01*
X-4564784Y3267784D01*
X-4436683Y3459500D01*
X-3662999Y3459500D01*
X-3486392Y3341495D01*
X-3046523Y3254000D01*
X-2749477Y3254000D01*
X-2309608Y3341495D01*
X-1937549Y3590098D01*
X-1766662Y3624089D01*
X-1367081Y3891081D01*
X-1299685Y3991946D01*
X-783000Y4508631D01*
X-783000Y783000D01*
X-29448265Y783000D01*
X-29292000Y1160258D01*
X-29292000Y1839742D01*
X-29552027Y2467504D01*
X-30032496Y2947973D01*
X-30660258Y3208000D01*
X-31339742Y3208000D01*
X-31967504Y2947973D01*
X-32447973Y2467504D01*
X-32708000Y1839742D01*
X-32708000Y1160258D01*
X-32551735Y783000D01*
X-33948265Y783000D01*
X-33792000Y1160258D01*
X-33792000Y1839742D01*
X-34052027Y2467504D01*
X-34532496Y2947973D01*
X-35160258Y3208000D01*
X-35839742Y3208000D01*
X-35849248Y3204063D01*
X-36305873Y3660688D01*
X-36359322Y3740680D01*
X-36676208Y3952417D01*
X-36955648Y4008001D01*
X-36955652Y4008001D01*
X-37050001Y4026768D01*
X-37144350Y4008001D01*
X-40381848Y4008001D01*
X-40112784Y4187784D01*
X-39902109Y4503081D01*
X-39828130Y4875000D01*
X-39828130Y5223000D01*
X-35408000Y5223000D01*
X-35408000Y4484170D01*
X-35300213Y4223950D01*
X-35101050Y4024787D01*
X-34840830Y3917000D01*
X-34264500Y3917000D01*
X-34087500Y4094000D01*
X-34087500Y5400000D01*
X-33887500Y5400000D01*
X-33887500Y4094000D01*
X-33710500Y3917000D01*
X-33134170Y3917000D01*
X-32873950Y4024787D01*
X-32674787Y4223950D01*
X-32567000Y4484170D01*
X-32567000Y5223000D01*
X-32744000Y5400000D01*
X-33887500Y5400000D01*
X-34087500Y5400000D01*
X-35231000Y5400000D01*
X-35408000Y5223000D01*
X-39828130Y5223000D01*
X-39828130Y6125000D01*
X-39902109Y6496919D01*
X-40076544Y6757979D01*
X-39802027Y7032496D01*
X-39614701Y7484742D01*
X-39486033Y7174109D01*
X-39075891Y6763967D01*
X-38540014Y6542000D01*
X-37959986Y6542000D01*
X-37424109Y6763967D01*
X-37146076Y7042000D01*
X-36951910Y7042000D01*
X-36947973Y7032496D01*
X-36467504Y6552027D01*
X-35839742Y6292000D01*
X-35408000Y6292000D01*
X-35408000Y5777000D01*
X-35231000Y5600000D01*
X-34087500Y5600000D01*
X-34087500Y6906000D01*
X-33887500Y6906000D01*
X-33887500Y5600000D01*
X-32744000Y5600000D01*
X-32567000Y5777000D01*
X-32567000Y6515830D01*
X-32674787Y6776050D01*
X-32873950Y6975213D01*
X-33134170Y7083000D01*
X-33710500Y7083000D01*
X-33887500Y6906000D01*
X-34087500Y6906000D01*
X-34133011Y6951511D01*
X-34052027Y7032496D01*
X-33792000Y7660258D01*
X-33792000Y8339742D01*
X-33985125Y8805989D01*
X-32514875Y8805989D01*
X-32708000Y8339742D01*
X-32708000Y7660258D01*
X-32447973Y7032496D01*
X-32188442Y6772965D01*
X-32372891Y6496919D01*
X-32446870Y6125000D01*
X-32446870Y4875000D01*
X-32372891Y4503081D01*
X-32162216Y4187784D01*
X-31846919Y3977109D01*
X-31475000Y3903130D01*
X-30550000Y3903130D01*
X-30471473Y3918750D01*
X-26767595Y3918750D01*
X-26767595Y3154920D01*
X-26659808Y2894700D01*
X-26460645Y2695537D01*
X-26200425Y2587750D01*
X-25436595Y2587750D01*
X-25259595Y2764750D01*
X-25259595Y4095750D01*
X-26590595Y4095750D01*
X-26767595Y3918750D01*
X-30471473Y3918750D01*
X-30178081Y3977109D01*
X-29862784Y4187784D01*
X-29652109Y4503081D01*
X-29578130Y4875000D01*
X-29578130Y5236580D01*
X-26767595Y5236580D01*
X-26767595Y4472750D01*
X-26590595Y4295750D01*
X-25259595Y4295750D01*
X-25259595Y5626750D01*
X-25059595Y5626750D01*
X-25059595Y4295750D01*
X-25039595Y4295750D01*
X-25039595Y4095750D01*
X-25059595Y4095750D01*
X-25059595Y2764750D01*
X-24882595Y2587750D01*
X-24118765Y2587750D01*
X-23858545Y2695537D01*
X-23659382Y2894700D01*
X-23639822Y2941921D01*
X-23530454Y2832553D01*
X-22939446Y2587750D01*
X-22299744Y2587750D01*
X-21708736Y2832553D01*
X-21256398Y3284891D01*
X-21011595Y3875899D01*
X-21011595Y4515601D01*
X-21090637Y4706425D01*
X-21080328Y4758249D01*
X-21099095Y4852597D01*
X-21099095Y6559683D01*
X-20907379Y6687784D01*
X-20696704Y7003081D01*
X-20622725Y7375000D01*
X-20622725Y8625000D01*
X-20696704Y8996919D01*
X-20907379Y9312216D01*
X-21222676Y9522891D01*
X-21594595Y9596870D01*
X-22519595Y9596870D01*
X-22891514Y9522891D01*
X-23206811Y9312216D01*
X-23417486Y8996919D01*
X-23491465Y8625000D01*
X-23491465Y7375000D01*
X-23417486Y7003081D01*
X-23206811Y6687784D01*
X-23015095Y6559683D01*
X-23015094Y5772416D01*
X-23530454Y5558947D01*
X-23639822Y5449579D01*
X-23659382Y5496800D01*
X-23858545Y5695963D01*
X-24118765Y5803750D01*
X-24882595Y5803750D01*
X-25059595Y5626750D01*
X-25259595Y5626750D01*
X-25436595Y5803750D01*
X-26200425Y5803750D01*
X-26460645Y5695963D01*
X-26659808Y5496800D01*
X-26767595Y5236580D01*
X-29578130Y5236580D01*
X-29578130Y6125000D01*
X-29652109Y6496919D01*
X-29826544Y6757979D01*
X-29552027Y7032496D01*
X-29548090Y7042000D01*
X-28855661Y7042000D01*
X-28750000Y7020983D01*
X-28376208Y7095334D01*
X-28059321Y7307071D01*
X-28005872Y7387063D01*
X-26385378Y9007556D01*
X-26392486Y8996919D01*
X-26466465Y8625000D01*
X-26466465Y7375000D01*
X-26392486Y7003081D01*
X-26181811Y6687784D01*
X-25866514Y6477109D01*
X-25494595Y6403130D01*
X-24569595Y6403130D01*
X-24197676Y6477109D01*
X-23882379Y6687784D01*
X-23671704Y7003081D01*
X-23597725Y7375000D01*
X-23597725Y8625000D01*
X-23671704Y8996919D01*
X-23738968Y9097587D01*
X-22994555Y9842000D01*
X-19675543Y9842000D01*
X-19558505Y9253608D01*
X-19225207Y8754793D01*
X-18951638Y8572000D01*
X-19225207Y8389207D01*
X-19558505Y7890392D01*
X-19675543Y7302000D01*
X-19558505Y6713608D01*
X-19228351Y6219498D01*
X-19448439Y6072439D01*
X-19604921Y5838248D01*
X-19659870Y5562000D01*
X-19659870Y3962000D01*
X-19604921Y3685752D01*
X-19448439Y3451561D01*
X-19214248Y3295079D01*
X-18938000Y3240130D01*
X-17338000Y3240130D01*
X-17061752Y3295079D01*
X-16827561Y3451561D01*
X-16671079Y3685752D01*
X-16616130Y3962000D01*
X-16616130Y5562000D01*
X-16671079Y5838248D01*
X-16827561Y6072439D01*
X-17047649Y6219498D01*
X-16717495Y6713608D01*
X-16637555Y7115500D01*
X-8360000Y7115500D01*
X-8360000Y6539170D01*
X-8252213Y6278950D01*
X-8053050Y6079787D01*
X-7792830Y5972000D01*
X-6604000Y5972000D01*
X-6427000Y6149000D01*
X-6427000Y7292500D01*
X-8183000Y7292500D01*
X-8360000Y7115500D01*
X-16637555Y7115500D01*
X-16600457Y7302000D01*
X-16717495Y7890392D01*
X-16954991Y8245830D01*
X-8360000Y8245830D01*
X-8360000Y7669500D01*
X-8183000Y7492500D01*
X-6427000Y7492500D01*
X-6427000Y8636000D01*
X-6604000Y8813000D01*
X-7792830Y8813000D01*
X-8053050Y8705213D01*
X-8252213Y8506050D01*
X-8360000Y8245830D01*
X-16954991Y8245830D01*
X-17050793Y8389207D01*
X-17324362Y8572000D01*
X-17050793Y8754793D01*
X-16717495Y9253608D01*
X-16600457Y9842000D01*
X-16717495Y10430392D01*
X-17050793Y10929207D01*
X-17336462Y11120085D01*
X-17266539Y11151293D01*
X-16861904Y11578469D01*
X-16667488Y12047847D01*
X-16810762Y12282000D01*
X-18038000Y12282000D01*
X-18038000Y12262000D01*
X-18238000Y12262000D01*
X-18238000Y12282000D01*
X-19465238Y12282000D01*
X-19608512Y12047847D01*
X-19414096Y11578469D01*
X-19009461Y11151293D01*
X-18939538Y11120085D01*
X-19225207Y10929207D01*
X-19558505Y10430392D01*
X-19675543Y9842000D01*
X-22994555Y9842000D01*
X-19091261Y13745293D01*
X-18939538Y13643915D01*
X-19009461Y13612707D01*
X-19414096Y13185531D01*
X-19608512Y12716153D01*
X-19465238Y12482000D01*
X-18238000Y12482000D01*
X-18238000Y12502000D01*
X-18038000Y12502000D01*
X-18038000Y12482000D01*
X-16810762Y12482000D01*
X-16667488Y12716153D01*
X-16861904Y13185531D01*
X-17266539Y13612707D01*
X-17336462Y13643915D01*
X-17050793Y13834793D01*
X-16717495Y14333608D01*
X-16600457Y14922000D01*
X-16717495Y15510392D01*
X-17050793Y16009207D01*
X-17324362Y16192000D01*
X-17050793Y16374793D01*
X-16717495Y16873608D01*
X-16600457Y17462000D01*
X-16717495Y18050392D01*
X-17050793Y18549207D01*
X-17324362Y18732000D01*
X-17050793Y18914793D01*
X-16717495Y19413608D01*
X-16600457Y20002000D01*
X-16717495Y20590392D01*
X-17050793Y21089207D01*
X-17324362Y21272000D01*
X-17050793Y21454793D01*
X-16717495Y21953608D01*
X-16600457Y22542000D01*
X-16717495Y23130392D01*
X-17050793Y23629207D01*
X-17324362Y23812000D01*
X-17050793Y23994793D01*
X-16717495Y24493608D01*
X-16600457Y25082000D01*
X-16717495Y25670392D01*
X-17050793Y26169207D01*
X-17324362Y26352000D01*
X-17050793Y26534793D01*
X-16717495Y27033608D01*
X-16600457Y27622000D01*
X-16717495Y28210392D01*
X-17050793Y28709207D01*
X-17324362Y28892000D01*
X-17050793Y29074793D01*
X-16717495Y29573608D01*
X-16600457Y30162000D01*
X-16717495Y30750392D01*
X-17050793Y31249207D01*
X-17324362Y31432000D01*
X-17050793Y31614793D01*
X-16717495Y32113608D01*
X-16600457Y32702000D01*
X-16717495Y33290392D01*
X-17050793Y33789207D01*
X-17324362Y33972000D01*
X-17050793Y34154793D01*
X-16717495Y34653608D01*
X-16600457Y35242000D01*
X-16630773Y35394411D01*
X-16593876Y35431308D01*
X-16593874Y35431311D01*
X-16207999Y35817185D01*
X-16208000Y24828349D01*
X-16208000Y24828349D01*
G37*
X-16208000Y24828349D02*
X-16226767Y24734000D01*
X-16208000Y24639651D01*
X-16208000Y24639648D01*
X-16152416Y24360208D01*
X-15940679Y24043321D01*
X-15860687Y23989872D01*
X-4405227Y12534411D01*
X-4435543Y12382000D01*
X-4318505Y11793608D01*
X-3985207Y11294793D01*
X-3711638Y11112000D01*
X-3985207Y10929207D01*
X-4318505Y10430392D01*
X-4435543Y9842000D01*
X-4318505Y9253608D01*
X-3985207Y8754793D01*
X-3699538Y8563915D01*
X-3769461Y8532707D01*
X-4174096Y8105531D01*
X-4294000Y7816047D01*
X-4294000Y8245830D01*
X-4401787Y8506050D01*
X-4600950Y8705213D01*
X-4861170Y8813000D01*
X-6050000Y8813000D01*
X-6227000Y8636000D01*
X-6227000Y7492500D01*
X-4471000Y7492500D01*
X-4352885Y7610615D01*
X-4225238Y7402000D01*
X-2998000Y7402000D01*
X-2998000Y7422000D01*
X-2798000Y7422000D01*
X-2798000Y7402000D01*
X-2778000Y7402000D01*
X-2778000Y7202000D01*
X-2798000Y7202000D01*
X-2798000Y7182000D01*
X-2998000Y7182000D01*
X-2998000Y7202000D01*
X-4225238Y7202000D01*
X-4294000Y7089622D01*
X-4294000Y7115500D01*
X-4471000Y7292500D01*
X-6227000Y7292500D01*
X-6227000Y6149000D01*
X-6050000Y5972000D01*
X-4861170Y5972000D01*
X-4600950Y6079787D01*
X-4401787Y6278950D01*
X-4294000Y6539170D01*
X-4294000Y6787953D01*
X-4174096Y6498469D01*
X-3769461Y6071293D01*
X-3699538Y6040085D01*
X-3985207Y5849207D01*
X-4301728Y5375500D01*
X-4436683Y5375500D01*
X-4564784Y5567216D01*
X-4880081Y5777891D01*
X-5252000Y5851870D01*
X-7402000Y5851870D01*
X-7773919Y5777891D01*
X-8089216Y5567216D01*
X-8299891Y5251919D01*
X-8373870Y4880000D01*
X-8373870Y3955000D01*
X-8299891Y3583081D01*
X-8089216Y3267784D01*
X-7773919Y3057109D01*
X-7402000Y2983130D01*
X-5252000Y2983130D01*
X-4880081Y3057109D01*
X-4564784Y3267784D01*
X-4436683Y3459500D01*
X-3662999Y3459500D01*
X-3486392Y3341495D01*
X-3046523Y3254000D01*
X-2749477Y3254000D01*
X-2309608Y3341495D01*
X-1937549Y3590098D01*
X-1766662Y3624089D01*
X-1367081Y3891081D01*
X-1299685Y3991946D01*
X-783000Y4508631D01*
X-783000Y783000D01*
X-29448265Y783000D01*
X-29292000Y1160258D01*
X-29292000Y1839742D01*
X-29552027Y2467504D01*
X-30032496Y2947973D01*
X-30660258Y3208000D01*
X-31339742Y3208000D01*
X-31967504Y2947973D01*
X-32447973Y2467504D01*
X-32708000Y1839742D01*
X-32708000Y1160258D01*
X-32551735Y783000D01*
X-33948265Y783000D01*
X-33792000Y1160258D01*
X-33792000Y1839742D01*
X-34052027Y2467504D01*
X-34532496Y2947973D01*
X-35160258Y3208000D01*
X-35839742Y3208000D01*
X-35849248Y3204063D01*
X-36305873Y3660688D01*
X-36359322Y3740680D01*
X-36676208Y3952417D01*
X-36955648Y4008001D01*
X-36955652Y4008001D01*
X-37050001Y4026768D01*
X-37144350Y4008001D01*
X-40381848Y4008001D01*
X-40112784Y4187784D01*
X-39902109Y4503081D01*
X-39828130Y4875000D01*
X-39828130Y5223000D01*
X-35408000Y5223000D01*
X-35408000Y4484170D01*
X-35300213Y4223950D01*
X-35101050Y4024787D01*
X-34840830Y3917000D01*
X-34264500Y3917000D01*
X-34087500Y4094000D01*
X-34087500Y5400000D01*
X-33887500Y5400000D01*
X-33887500Y4094000D01*
X-33710500Y3917000D01*
X-33134170Y3917000D01*
X-32873950Y4024787D01*
X-32674787Y4223950D01*
X-32567000Y4484170D01*
X-32567000Y5223000D01*
X-32744000Y5400000D01*
X-33887500Y5400000D01*
X-34087500Y5400000D01*
X-35231000Y5400000D01*
X-35408000Y5223000D01*
X-39828130Y5223000D01*
X-39828130Y6125000D01*
X-39902109Y6496919D01*
X-40076544Y6757979D01*
X-39802027Y7032496D01*
X-39614701Y7484742D01*
X-39486033Y7174109D01*
X-39075891Y6763967D01*
X-38540014Y6542000D01*
X-37959986Y6542000D01*
X-37424109Y6763967D01*
X-37146076Y7042000D01*
X-36951910Y7042000D01*
X-36947973Y7032496D01*
X-36467504Y6552027D01*
X-35839742Y6292000D01*
X-35408000Y6292000D01*
X-35408000Y5777000D01*
X-35231000Y5600000D01*
X-34087500Y5600000D01*
X-34087500Y6906000D01*
X-33887500Y6906000D01*
X-33887500Y5600000D01*
X-32744000Y5600000D01*
X-32567000Y5777000D01*
X-32567000Y6515830D01*
X-32674787Y6776050D01*
X-32873950Y6975213D01*
X-33134170Y7083000D01*
X-33710500Y7083000D01*
X-33887500Y6906000D01*
X-34087500Y6906000D01*
X-34133011Y6951511D01*
X-34052027Y7032496D01*
X-33792000Y7660258D01*
X-33792000Y8339742D01*
X-33985125Y8805989D01*
X-32514875Y8805989D01*
X-32708000Y8339742D01*
X-32708000Y7660258D01*
X-32447973Y7032496D01*
X-32188442Y6772965D01*
X-32372891Y6496919D01*
X-32446870Y6125000D01*
X-32446870Y4875000D01*
X-32372891Y4503081D01*
X-32162216Y4187784D01*
X-31846919Y3977109D01*
X-31475000Y3903130D01*
X-30550000Y3903130D01*
X-30471473Y3918750D01*
X-26767595Y3918750D01*
X-26767595Y3154920D01*
X-26659808Y2894700D01*
X-26460645Y2695537D01*
X-26200425Y2587750D01*
X-25436595Y2587750D01*
X-25259595Y2764750D01*
X-25259595Y4095750D01*
X-26590595Y4095750D01*
X-26767595Y3918750D01*
X-30471473Y3918750D01*
X-30178081Y3977109D01*
X-29862784Y4187784D01*
X-29652109Y4503081D01*
X-29578130Y4875000D01*
X-29578130Y5236580D01*
X-26767595Y5236580D01*
X-26767595Y4472750D01*
X-26590595Y4295750D01*
X-25259595Y4295750D01*
X-25259595Y5626750D01*
X-25059595Y5626750D01*
X-25059595Y4295750D01*
X-25039595Y4295750D01*
X-25039595Y4095750D01*
X-25059595Y4095750D01*
X-25059595Y2764750D01*
X-24882595Y2587750D01*
X-24118765Y2587750D01*
X-23858545Y2695537D01*
X-23659382Y2894700D01*
X-23639822Y2941921D01*
X-23530454Y2832553D01*
X-22939446Y2587750D01*
X-22299744Y2587750D01*
X-21708736Y2832553D01*
X-21256398Y3284891D01*
X-21011595Y3875899D01*
X-21011595Y4515601D01*
X-21090637Y4706425D01*
X-21080328Y4758249D01*
X-21099095Y4852597D01*
X-21099095Y6559683D01*
X-20907379Y6687784D01*
X-20696704Y7003081D01*
X-20622725Y7375000D01*
X-20622725Y8625000D01*
X-20696704Y8996919D01*
X-20907379Y9312216D01*
X-21222676Y9522891D01*
X-21594595Y9596870D01*
X-22519595Y9596870D01*
X-22891514Y9522891D01*
X-23206811Y9312216D01*
X-23417486Y8996919D01*
X-23491465Y8625000D01*
X-23491465Y7375000D01*
X-23417486Y7003081D01*
X-23206811Y6687784D01*
X-23015095Y6559683D01*
X-23015094Y5772416D01*
X-23530454Y5558947D01*
X-23639822Y5449579D01*
X-23659382Y5496800D01*
X-23858545Y5695963D01*
X-24118765Y5803750D01*
X-24882595Y5803750D01*
X-25059595Y5626750D01*
X-25259595Y5626750D01*
X-25436595Y5803750D01*
X-26200425Y5803750D01*
X-26460645Y5695963D01*
X-26659808Y5496800D01*
X-26767595Y5236580D01*
X-29578130Y5236580D01*
X-29578130Y6125000D01*
X-29652109Y6496919D01*
X-29826544Y6757979D01*
X-29552027Y7032496D01*
X-29548090Y7042000D01*
X-28855661Y7042000D01*
X-28750000Y7020983D01*
X-28376208Y7095334D01*
X-28059321Y7307071D01*
X-28005872Y7387063D01*
X-26385378Y9007556D01*
X-26392486Y8996919D01*
X-26466465Y8625000D01*
X-26466465Y7375000D01*
X-26392486Y7003081D01*
X-26181811Y6687784D01*
X-25866514Y6477109D01*
X-25494595Y6403130D01*
X-24569595Y6403130D01*
X-24197676Y6477109D01*
X-23882379Y6687784D01*
X-23671704Y7003081D01*
X-23597725Y7375000D01*
X-23597725Y8625000D01*
X-23671704Y8996919D01*
X-23738968Y9097587D01*
X-22994555Y9842000D01*
X-19675543Y9842000D01*
X-19558505Y9253608D01*
X-19225207Y8754793D01*
X-18951638Y8572000D01*
X-19225207Y8389207D01*
X-19558505Y7890392D01*
X-19675543Y7302000D01*
X-19558505Y6713608D01*
X-19228351Y6219498D01*
X-19448439Y6072439D01*
X-19604921Y5838248D01*
X-19659870Y5562000D01*
X-19659870Y3962000D01*
X-19604921Y3685752D01*
X-19448439Y3451561D01*
X-19214248Y3295079D01*
X-18938000Y3240130D01*
X-17338000Y3240130D01*
X-17061752Y3295079D01*
X-16827561Y3451561D01*
X-16671079Y3685752D01*
X-16616130Y3962000D01*
X-16616130Y5562000D01*
X-16671079Y5838248D01*
X-16827561Y6072439D01*
X-17047649Y6219498D01*
X-16717495Y6713608D01*
X-16637555Y7115500D01*
X-8360000Y7115500D01*
X-8360000Y6539170D01*
X-8252213Y6278950D01*
X-8053050Y6079787D01*
X-7792830Y5972000D01*
X-6604000Y5972000D01*
X-6427000Y6149000D01*
X-6427000Y7292500D01*
X-8183000Y7292500D01*
X-8360000Y7115500D01*
X-16637555Y7115500D01*
X-16600457Y7302000D01*
X-16717495Y7890392D01*
X-16954991Y8245830D01*
X-8360000Y8245830D01*
X-8360000Y7669500D01*
X-8183000Y7492500D01*
X-6427000Y7492500D01*
X-6427000Y8636000D01*
X-6604000Y8813000D01*
X-7792830Y8813000D01*
X-8053050Y8705213D01*
X-8252213Y8506050D01*
X-8360000Y8245830D01*
X-16954991Y8245830D01*
X-17050793Y8389207D01*
X-17324362Y8572000D01*
X-17050793Y8754793D01*
X-16717495Y9253608D01*
X-16600457Y9842000D01*
X-16717495Y10430392D01*
X-17050793Y10929207D01*
X-17336462Y11120085D01*
X-17266539Y11151293D01*
X-16861904Y11578469D01*
X-16667488Y12047847D01*
X-16810762Y12282000D01*
X-18038000Y12282000D01*
X-18038000Y12262000D01*
X-18238000Y12262000D01*
X-18238000Y12282000D01*
X-19465238Y12282000D01*
X-19608512Y12047847D01*
X-19414096Y11578469D01*
X-19009461Y11151293D01*
X-18939538Y11120085D01*
X-19225207Y10929207D01*
X-19558505Y10430392D01*
X-19675543Y9842000D01*
X-22994555Y9842000D01*
X-19091261Y13745293D01*
X-18939538Y13643915D01*
X-19009461Y13612707D01*
X-19414096Y13185531D01*
X-19608512Y12716153D01*
X-19465238Y12482000D01*
X-18238000Y12482000D01*
X-18238000Y12502000D01*
X-18038000Y12502000D01*
X-18038000Y12482000D01*
X-16810762Y12482000D01*
X-16667488Y12716153D01*
X-16861904Y13185531D01*
X-17266539Y13612707D01*
X-17336462Y13643915D01*
X-17050793Y13834793D01*
X-16717495Y14333608D01*
X-16600457Y14922000D01*
X-16717495Y15510392D01*
X-17050793Y16009207D01*
X-17324362Y16192000D01*
X-17050793Y16374793D01*
X-16717495Y16873608D01*
X-16600457Y17462000D01*
X-16717495Y18050392D01*
X-17050793Y18549207D01*
X-17324362Y18732000D01*
X-17050793Y18914793D01*
X-16717495Y19413608D01*
X-16600457Y20002000D01*
X-16717495Y20590392D01*
X-17050793Y21089207D01*
X-17324362Y21272000D01*
X-17050793Y21454793D01*
X-16717495Y21953608D01*
X-16600457Y22542000D01*
X-16717495Y23130392D01*
X-17050793Y23629207D01*
X-17324362Y23812000D01*
X-17050793Y23994793D01*
X-16717495Y24493608D01*
X-16600457Y25082000D01*
X-16717495Y25670392D01*
X-17050793Y26169207D01*
X-17324362Y26352000D01*
X-17050793Y26534793D01*
X-16717495Y27033608D01*
X-16600457Y27622000D01*
X-16717495Y28210392D01*
X-17050793Y28709207D01*
X-17324362Y28892000D01*
X-17050793Y29074793D01*
X-16717495Y29573608D01*
X-16600457Y30162000D01*
X-16717495Y30750392D01*
X-17050793Y31249207D01*
X-17324362Y31432000D01*
X-17050793Y31614793D01*
X-16717495Y32113608D01*
X-16600457Y32702000D01*
X-16717495Y33290392D01*
X-17050793Y33789207D01*
X-17324362Y33972000D01*
X-17050793Y34154793D01*
X-16717495Y34653608D01*
X-16600457Y35242000D01*
X-16630773Y35394411D01*
X-16593876Y35431308D01*
X-16593874Y35431311D01*
X-16207999Y35817185D01*
X-16208000Y24828349D01*
G36*
X-42217504Y9447973D02*
X-42697973Y8967504D01*
X-42958000Y8339742D01*
X-42958000Y7660258D01*
X-42697973Y7032496D01*
X-42438442Y6772965D01*
X-42622891Y6496919D01*
X-42696870Y6125000D01*
X-42696870Y4875000D01*
X-42622891Y4503081D01*
X-42412216Y4187784D01*
X-42143152Y4008001D01*
X-43164475Y4008001D01*
X-43123950Y4024787D01*
X-42924787Y4223950D01*
X-42817000Y4484170D01*
X-42817000Y5223000D01*
X-42994000Y5400000D01*
X-44137500Y5400000D01*
X-44137500Y5380000D01*
X-44337500Y5380000D01*
X-44337500Y5400000D01*
X-45481000Y5400000D01*
X-45658000Y5223000D01*
X-45658000Y4484170D01*
X-45550213Y4223950D01*
X-45351050Y4024787D01*
X-45090830Y3917000D01*
X-44626797Y3917000D01*
X-44890678Y3740680D01*
X-44944125Y3660691D01*
X-45400753Y3204063D01*
X-45410258Y3208000D01*
X-46089742Y3208000D01*
X-46099247Y3204063D01*
X-46505872Y3610687D01*
X-46559321Y3690679D01*
X-46876207Y3902416D01*
X-47155647Y3958000D01*
X-47155651Y3958000D01*
X-47250000Y3976767D01*
X-47344349Y3958000D01*
X-51410274Y3958000D01*
X-51629051Y4001517D01*
X-51350284Y4187784D01*
X-51139609Y4503081D01*
X-51065630Y4875000D01*
X-51065630Y6125000D01*
X-51139609Y6496919D01*
X-51319051Y6765472D01*
X-51055207Y7029316D01*
X-50991438Y7042000D01*
X-50991434Y7042000D01*
X-50711994Y7097584D01*
X-50395108Y7309321D01*
X-50341659Y7389313D01*
X-49163982Y8566989D01*
X-47363871Y8566989D01*
X-47458000Y8339742D01*
X-47458000Y7660258D01*
X-47197973Y7032496D01*
X-46717504Y6552027D01*
X-46089742Y6292000D01*
X-45658000Y6292000D01*
X-45658000Y5777000D01*
X-45481000Y5600000D01*
X-44337500Y5600000D01*
X-44337500Y6906000D01*
X-44137500Y6906000D01*
X-44137500Y5600000D01*
X-42994000Y5600000D01*
X-42817000Y5777000D01*
X-42817000Y6515830D01*
X-42924787Y6776050D01*
X-43123950Y6975213D01*
X-43384170Y7083000D01*
X-43960500Y7083000D01*
X-44137500Y6906000D01*
X-44337500Y6906000D01*
X-44383011Y6951511D01*
X-44302027Y7032496D01*
X-44042000Y7660258D01*
X-44042000Y8339742D01*
X-44302027Y8967504D01*
X-44782496Y9447973D01*
X-44806065Y9457736D01*
X-44657801Y9605999D01*
X-41835995Y9605999D01*
X-42217504Y9447973D01*
X-42217504Y9447973D01*
G37*
X-42217504Y9447973D02*
X-42697973Y8967504D01*
X-42958000Y8339742D01*
X-42958000Y7660258D01*
X-42697973Y7032496D01*
X-42438442Y6772965D01*
X-42622891Y6496919D01*
X-42696870Y6125000D01*
X-42696870Y4875000D01*
X-42622891Y4503081D01*
X-42412216Y4187784D01*
X-42143152Y4008001D01*
X-43164475Y4008001D01*
X-43123950Y4024787D01*
X-42924787Y4223950D01*
X-42817000Y4484170D01*
X-42817000Y5223000D01*
X-42994000Y5400000D01*
X-44137500Y5400000D01*
X-44137500Y5380000D01*
X-44337500Y5380000D01*
X-44337500Y5400000D01*
X-45481000Y5400000D01*
X-45658000Y5223000D01*
X-45658000Y4484170D01*
X-45550213Y4223950D01*
X-45351050Y4024787D01*
X-45090830Y3917000D01*
X-44626797Y3917000D01*
X-44890678Y3740680D01*
X-44944125Y3660691D01*
X-45400753Y3204063D01*
X-45410258Y3208000D01*
X-46089742Y3208000D01*
X-46099247Y3204063D01*
X-46505872Y3610687D01*
X-46559321Y3690679D01*
X-46876207Y3902416D01*
X-47155647Y3958000D01*
X-47155651Y3958000D01*
X-47250000Y3976767D01*
X-47344349Y3958000D01*
X-51410274Y3958000D01*
X-51629051Y4001517D01*
X-51350284Y4187784D01*
X-51139609Y4503081D01*
X-51065630Y4875000D01*
X-51065630Y6125000D01*
X-51139609Y6496919D01*
X-51319051Y6765472D01*
X-51055207Y7029316D01*
X-50991438Y7042000D01*
X-50991434Y7042000D01*
X-50711994Y7097584D01*
X-50395108Y7309321D01*
X-50341659Y7389313D01*
X-49163982Y8566989D01*
X-47363871Y8566989D01*
X-47458000Y8339742D01*
X-47458000Y7660258D01*
X-47197973Y7032496D01*
X-46717504Y6552027D01*
X-46089742Y6292000D01*
X-45658000Y6292000D01*
X-45658000Y5777000D01*
X-45481000Y5600000D01*
X-44337500Y5600000D01*
X-44337500Y6906000D01*
X-44137500Y6906000D01*
X-44137500Y5600000D01*
X-42994000Y5600000D01*
X-42817000Y5777000D01*
X-42817000Y6515830D01*
X-42924787Y6776050D01*
X-43123950Y6975213D01*
X-43384170Y7083000D01*
X-43960500Y7083000D01*
X-44137500Y6906000D01*
X-44337500Y6906000D01*
X-44383011Y6951511D01*
X-44302027Y7032496D01*
X-44042000Y7660258D01*
X-44042000Y8339742D01*
X-44302027Y8967504D01*
X-44782496Y9447973D01*
X-44806065Y9457736D01*
X-44657801Y9605999D01*
X-41835995Y9605999D01*
X-42217504Y9447973D01*
G36*
X-45931625Y12073308D02*
X-45878179Y11993321D01*
X-45798193Y11939876D01*
X-45798191Y11939874D01*
X-45579288Y11793608D01*
X-45561293Y11781584D01*
X-45281853Y11726000D01*
X-45281849Y11726000D01*
X-45187500Y11707233D01*
X-45126000Y11719466D01*
X-45126000Y11691000D01*
X-44956999Y11521999D01*
X-44960269Y11521999D01*
X-45054618Y11540766D01*
X-45148967Y11521999D01*
X-45148970Y11521999D01*
X-45428410Y11466415D01*
X-45745296Y11254678D01*
X-45798743Y11174689D01*
X-46384925Y10588507D01*
X-46378079Y10598752D01*
X-46323130Y10875000D01*
X-46323130Y12464814D01*
X-45931625Y12073308D01*
X-45931625Y12073308D01*
G37*
X-45931625Y12073308D02*
X-45878179Y11993321D01*
X-45798193Y11939876D01*
X-45798191Y11939874D01*
X-45579288Y11793608D01*
X-45561293Y11781584D01*
X-45281853Y11726000D01*
X-45281849Y11726000D01*
X-45187500Y11707233D01*
X-45126000Y11719466D01*
X-45126000Y11691000D01*
X-44956999Y11521999D01*
X-44960269Y11521999D01*
X-45054618Y11540766D01*
X-45148967Y11521999D01*
X-45148970Y11521999D01*
X-45428410Y11466415D01*
X-45745296Y11254678D01*
X-45798743Y11174689D01*
X-46384925Y10588507D01*
X-46378079Y10598752D01*
X-46323130Y10875000D01*
X-46323130Y12464814D01*
X-45931625Y12073308D01*
G36*
X-43318000Y11521999D02*
X-43518000Y11521999D01*
X-43518000Y11534000D01*
X-43318000Y11534000D01*
X-43318000Y11521999D01*
X-43318000Y11521999D01*
G37*
X-43318000Y11521999D02*
X-43518000Y11521999D01*
X-43518000Y11534000D01*
X-43318000Y11534000D01*
X-43318000Y11521999D01*
G36*
X-29707999Y24658000D02*
X-30223000Y24658000D01*
X-30400000Y24481000D01*
X-30400000Y23337500D01*
X-30380000Y23337500D01*
X-30380000Y23137500D01*
X-30400000Y23137500D01*
X-30400000Y23117500D01*
X-30600000Y23117500D01*
X-30600000Y23137500D01*
X-31906000Y23137500D01*
X-32083000Y22960500D01*
X-32083000Y22532000D01*
X-32728401Y22532000D01*
X-32741752Y22540921D01*
X-33018000Y22595870D01*
X-33273650Y22595870D01*
X-33021081Y22646109D01*
X-32705784Y22856784D01*
X-32495109Y23172081D01*
X-32421130Y23544000D01*
X-32421130Y24090830D01*
X-32083000Y24090830D01*
X-32083000Y23514500D01*
X-31906000Y23337500D01*
X-30600000Y23337500D01*
X-30600000Y24481000D01*
X-30777000Y24658000D01*
X-31515830Y24658000D01*
X-31776050Y24550213D01*
X-31975213Y24351050D01*
X-32083000Y24090830D01*
X-32421130Y24090830D01*
X-32421130Y24469000D01*
X-32495109Y24840919D01*
X-32705784Y25156216D01*
X-33021081Y25366891D01*
X-33393000Y25440870D01*
X-34547554Y25440870D01*
X-34706342Y25599658D01*
X-34568000Y25738000D01*
X-34568000Y26881500D01*
X-34368000Y26881500D01*
X-34368000Y25738000D01*
X-34191000Y25561000D01*
X-33002170Y25561000D01*
X-32741950Y25668787D01*
X-32542787Y25867950D01*
X-32435000Y26128170D01*
X-32435000Y26704500D01*
X-32612000Y26881500D01*
X-34368000Y26881500D01*
X-34568000Y26881500D01*
X-34588000Y26881500D01*
X-34588000Y27081500D01*
X-34568000Y27081500D01*
X-34568000Y27101500D01*
X-34368000Y27101500D01*
X-34368000Y27081500D01*
X-32612000Y27081500D01*
X-32435000Y27258500D01*
X-32435000Y27292000D01*
X-31844349Y27292000D01*
X-31750000Y27273233D01*
X-31655651Y27292000D01*
X-31655647Y27292000D01*
X-31376207Y27347584D01*
X-31059321Y27559321D01*
X-31005872Y27639312D01*
X-30353183Y28292000D01*
X-29959986Y28292000D01*
X-29708000Y28396376D01*
X-29707999Y24658000D01*
X-29707999Y24658000D01*
G37*
X-29707999Y24658000D02*
X-30223000Y24658000D01*
X-30400000Y24481000D01*
X-30400000Y23337500D01*
X-30380000Y23337500D01*
X-30380000Y23137500D01*
X-30400000Y23137500D01*
X-30400000Y23117500D01*
X-30600000Y23117500D01*
X-30600000Y23137500D01*
X-31906000Y23137500D01*
X-32083000Y22960500D01*
X-32083000Y22532000D01*
X-32728401Y22532000D01*
X-32741752Y22540921D01*
X-33018000Y22595870D01*
X-33273650Y22595870D01*
X-33021081Y22646109D01*
X-32705784Y22856784D01*
X-32495109Y23172081D01*
X-32421130Y23544000D01*
X-32421130Y24090830D01*
X-32083000Y24090830D01*
X-32083000Y23514500D01*
X-31906000Y23337500D01*
X-30600000Y23337500D01*
X-30600000Y24481000D01*
X-30777000Y24658000D01*
X-31515830Y24658000D01*
X-31776050Y24550213D01*
X-31975213Y24351050D01*
X-32083000Y24090830D01*
X-32421130Y24090830D01*
X-32421130Y24469000D01*
X-32495109Y24840919D01*
X-32705784Y25156216D01*
X-33021081Y25366891D01*
X-33393000Y25440870D01*
X-34547554Y25440870D01*
X-34706342Y25599658D01*
X-34568000Y25738000D01*
X-34568000Y26881500D01*
X-34368000Y26881500D01*
X-34368000Y25738000D01*
X-34191000Y25561000D01*
X-33002170Y25561000D01*
X-32741950Y25668787D01*
X-32542787Y25867950D01*
X-32435000Y26128170D01*
X-32435000Y26704500D01*
X-32612000Y26881500D01*
X-34368000Y26881500D01*
X-34568000Y26881500D01*
X-34588000Y26881500D01*
X-34588000Y27081500D01*
X-34568000Y27081500D01*
X-34568000Y27101500D01*
X-34368000Y27101500D01*
X-34368000Y27081500D01*
X-32612000Y27081500D01*
X-32435000Y27258500D01*
X-32435000Y27292000D01*
X-31844349Y27292000D01*
X-31750000Y27273233D01*
X-31655651Y27292000D01*
X-31655647Y27292000D01*
X-31376207Y27347584D01*
X-31059321Y27559321D01*
X-31005872Y27639312D01*
X-30353183Y28292000D01*
X-29959986Y28292000D01*
X-29708000Y28396376D01*
X-29707999Y24658000D01*
G36*
X-41083000Y46034026D02*
X-41083000Y45105900D01*
X-40727822Y44248425D01*
X-40187397Y43708000D01*
X-40721796Y43708000D01*
X-41599494Y44585697D01*
X-41652943Y44665689D01*
X-41969829Y44877426D01*
X-42249269Y44933010D01*
X-42249273Y44933010D01*
X-42343622Y44951777D01*
X-42437971Y44933010D01*
X-45180642Y44933010D01*
X-45274991Y44951777D01*
X-45369340Y44933010D01*
X-45369343Y44933010D01*
X-45648783Y44877426D01*
X-45965669Y44665689D01*
X-46019118Y44585697D01*
X-46235697Y44369118D01*
X-46315689Y44315669D01*
X-46527426Y43998782D01*
X-46583010Y43719342D01*
X-46583010Y43719339D01*
X-46601777Y43624990D01*
X-46583010Y43530640D01*
X-46583009Y41779327D01*
X-46601777Y41684973D01*
X-46527426Y41311181D01*
X-46469231Y41224087D01*
X-46315688Y40994294D01*
X-46235699Y40940847D01*
X-45830002Y40535149D01*
X-45830002Y40510965D01*
X-46007000Y40687963D01*
X-46630830Y40687963D01*
X-46891050Y40580176D01*
X-47090213Y40381013D01*
X-47198000Y40120793D01*
X-47198000Y39496963D01*
X-47021000Y39319963D01*
X-45830000Y39319963D01*
X-45830000Y39339963D01*
X-45630000Y39339963D01*
X-45630000Y39319963D01*
X-45610000Y39319963D01*
X-45610000Y39119963D01*
X-45630000Y39119963D01*
X-45630000Y37928963D01*
X-45453000Y37751963D01*
X-45434065Y37751963D01*
X-45674510Y37511518D01*
X-45898000Y36971966D01*
X-45898000Y36387960D01*
X-45709545Y35932990D01*
X-46155647Y35932990D01*
X-46250000Y35951758D01*
X-46344353Y35932990D01*
X-53153130Y35932990D01*
X-53153130Y36700000D01*
X-53227109Y37071919D01*
X-53437784Y37387216D01*
X-53632277Y37517172D01*
X-53632277Y38942963D01*
X-47198000Y38942963D01*
X-47198000Y38319133D01*
X-47090213Y38058913D01*
X-46891050Y37859750D01*
X-46630830Y37751963D01*
X-46007000Y37751963D01*
X-45830000Y37928963D01*
X-45830000Y39119963D01*
X-47021000Y39119963D01*
X-47198000Y38942963D01*
X-53632277Y38942963D01*
X-53632277Y39560594D01*
X-51229943Y41962928D01*
X-51129081Y42030321D01*
X-51056256Y42139310D01*
X-50930886Y42326940D01*
X-50862089Y42429902D01*
X-50792000Y42782263D01*
X-50792000Y42782267D01*
X-50768335Y42901239D01*
X-50792000Y43020211D01*
X-50792000Y44152603D01*
X-50231538Y43592141D01*
X-49374063Y43236963D01*
X-48445937Y43236963D01*
X-47588462Y43592141D01*
X-46932178Y44248425D01*
X-46577000Y45105900D01*
X-46577000Y46034026D01*
X-46616547Y46129500D01*
X-45499818Y46129500D01*
X-45196919Y45927109D01*
X-44825001Y45853130D01*
X-42674999Y45853130D01*
X-42303081Y45927109D01*
X-41987784Y46137784D01*
X-41960716Y46178295D01*
X-41853662Y46199589D01*
X-41454081Y46466581D01*
X-41407052Y46536964D01*
X-40874676Y46536964D01*
X-41083000Y46034026D01*
X-41083000Y46034026D01*
G37*
X-41083000Y46034026D02*
X-41083000Y45105900D01*
X-40727822Y44248425D01*
X-40187397Y43708000D01*
X-40721796Y43708000D01*
X-41599494Y44585697D01*
X-41652943Y44665689D01*
X-41969829Y44877426D01*
X-42249269Y44933010D01*
X-42249273Y44933010D01*
X-42343622Y44951777D01*
X-42437971Y44933010D01*
X-45180642Y44933010D01*
X-45274991Y44951777D01*
X-45369340Y44933010D01*
X-45369343Y44933010D01*
X-45648783Y44877426D01*
X-45965669Y44665689D01*
X-46019118Y44585697D01*
X-46235697Y44369118D01*
X-46315689Y44315669D01*
X-46527426Y43998782D01*
X-46583010Y43719342D01*
X-46583010Y43719339D01*
X-46601777Y43624990D01*
X-46583010Y43530640D01*
X-46583009Y41779327D01*
X-46601777Y41684973D01*
X-46527426Y41311181D01*
X-46469231Y41224087D01*
X-46315688Y40994294D01*
X-46235699Y40940847D01*
X-45830002Y40535149D01*
X-45830002Y40510965D01*
X-46007000Y40687963D01*
X-46630830Y40687963D01*
X-46891050Y40580176D01*
X-47090213Y40381013D01*
X-47198000Y40120793D01*
X-47198000Y39496963D01*
X-47021000Y39319963D01*
X-45830000Y39319963D01*
X-45830000Y39339963D01*
X-45630000Y39339963D01*
X-45630000Y39319963D01*
X-45610000Y39319963D01*
X-45610000Y39119963D01*
X-45630000Y39119963D01*
X-45630000Y37928963D01*
X-45453000Y37751963D01*
X-45434065Y37751963D01*
X-45674510Y37511518D01*
X-45898000Y36971966D01*
X-45898000Y36387960D01*
X-45709545Y35932990D01*
X-46155647Y35932990D01*
X-46250000Y35951758D01*
X-46344353Y35932990D01*
X-53153130Y35932990D01*
X-53153130Y36700000D01*
X-53227109Y37071919D01*
X-53437784Y37387216D01*
X-53632277Y37517172D01*
X-53632277Y38942963D01*
X-47198000Y38942963D01*
X-47198000Y38319133D01*
X-47090213Y38058913D01*
X-46891050Y37859750D01*
X-46630830Y37751963D01*
X-46007000Y37751963D01*
X-45830000Y37928963D01*
X-45830000Y39119963D01*
X-47021000Y39119963D01*
X-47198000Y38942963D01*
X-53632277Y38942963D01*
X-53632277Y39560594D01*
X-51229943Y41962928D01*
X-51129081Y42030321D01*
X-51056256Y42139310D01*
X-50930886Y42326940D01*
X-50862089Y42429902D01*
X-50792000Y42782263D01*
X-50792000Y42782267D01*
X-50768335Y42901239D01*
X-50792000Y43020211D01*
X-50792000Y44152603D01*
X-50231538Y43592141D01*
X-49374063Y43236963D01*
X-48445937Y43236963D01*
X-47588462Y43592141D01*
X-46932178Y44248425D01*
X-46577000Y45105900D01*
X-46577000Y46034026D01*
X-46616547Y46129500D01*
X-45499818Y46129500D01*
X-45196919Y45927109D01*
X-44825001Y45853130D01*
X-42674999Y45853130D01*
X-42303081Y45927109D01*
X-41987784Y46137784D01*
X-41960716Y46178295D01*
X-41853662Y46199589D01*
X-41454081Y46466581D01*
X-41407052Y46536964D01*
X-40874676Y46536964D01*
X-41083000Y46034026D01*
G36*
X-30133791Y40687963D02*
X-30678777Y40687963D01*
X-30855777Y40510963D01*
X-30855777Y39319963D01*
X-30835777Y39319963D01*
X-30835777Y39119963D01*
X-30855777Y39119963D01*
X-30855777Y37928963D01*
X-30678777Y37751963D01*
X-30659842Y37751963D01*
X-30900287Y37511518D01*
X-31123777Y36971966D01*
X-31123777Y36566778D01*
X-31550067Y36140488D01*
X-33168147Y36140488D01*
X-33262500Y36159256D01*
X-33356853Y36140488D01*
X-34804284Y36140488D01*
X-37241927Y38578130D01*
X-36550000Y38578130D01*
X-36273752Y38633079D01*
X-36039561Y38789561D01*
X-36000012Y38848749D01*
X-35851050Y38699787D01*
X-35590830Y38592000D01*
X-35327000Y38592000D01*
X-35150000Y38769000D01*
X-35150000Y39650000D01*
X-34950000Y39650000D01*
X-34950000Y38769000D01*
X-34773000Y38592000D01*
X-34509170Y38592000D01*
X-34248950Y38699787D01*
X-34049787Y38898950D01*
X-34031557Y38942963D01*
X-32423777Y38942963D01*
X-32423777Y38319133D01*
X-32315990Y38058913D01*
X-32116827Y37859750D01*
X-31856607Y37751963D01*
X-31232777Y37751963D01*
X-31055777Y37928963D01*
X-31055777Y39119963D01*
X-32246777Y39119963D01*
X-32423777Y38942963D01*
X-34031557Y38942963D01*
X-33942000Y39159170D01*
X-33942000Y39473000D01*
X-34119000Y39650000D01*
X-34950000Y39650000D01*
X-35150000Y39650000D01*
X-35170000Y39650000D01*
X-35170000Y39850000D01*
X-35150000Y39850000D01*
X-35150000Y39870000D01*
X-34950000Y39870000D01*
X-34950000Y39850000D01*
X-34119000Y39850000D01*
X-33942000Y40027000D01*
X-33942000Y40120793D01*
X-32423777Y40120793D01*
X-32423777Y39496963D01*
X-32246777Y39319963D01*
X-31055777Y39319963D01*
X-31055777Y40510963D01*
X-31232777Y40687963D01*
X-31856607Y40687963D01*
X-32116827Y40580176D01*
X-32315990Y40381013D01*
X-32423777Y40120793D01*
X-33942000Y40120793D01*
X-33942000Y40340830D01*
X-34049787Y40601050D01*
X-34248950Y40800213D01*
X-34509170Y40908000D01*
X-34773000Y40908000D01*
X-34949998Y40731002D01*
X-34949998Y40908000D01*
X-35010422Y40908000D01*
X-34933079Y41023752D01*
X-34878130Y41300000D01*
X-34878130Y41792000D01*
X-31237827Y41792000D01*
X-30133791Y40687963D01*
X-30133791Y40687963D01*
G37*
X-30133791Y40687963D02*
X-30678777Y40687963D01*
X-30855777Y40510963D01*
X-30855777Y39319963D01*
X-30835777Y39319963D01*
X-30835777Y39119963D01*
X-30855777Y39119963D01*
X-30855777Y37928963D01*
X-30678777Y37751963D01*
X-30659842Y37751963D01*
X-30900287Y37511518D01*
X-31123777Y36971966D01*
X-31123777Y36566778D01*
X-31550067Y36140488D01*
X-33168147Y36140488D01*
X-33262500Y36159256D01*
X-33356853Y36140488D01*
X-34804284Y36140488D01*
X-37241927Y38578130D01*
X-36550000Y38578130D01*
X-36273752Y38633079D01*
X-36039561Y38789561D01*
X-36000012Y38848749D01*
X-35851050Y38699787D01*
X-35590830Y38592000D01*
X-35327000Y38592000D01*
X-35150000Y38769000D01*
X-35150000Y39650000D01*
X-34950000Y39650000D01*
X-34950000Y38769000D01*
X-34773000Y38592000D01*
X-34509170Y38592000D01*
X-34248950Y38699787D01*
X-34049787Y38898950D01*
X-34031557Y38942963D01*
X-32423777Y38942963D01*
X-32423777Y38319133D01*
X-32315990Y38058913D01*
X-32116827Y37859750D01*
X-31856607Y37751963D01*
X-31232777Y37751963D01*
X-31055777Y37928963D01*
X-31055777Y39119963D01*
X-32246777Y39119963D01*
X-32423777Y38942963D01*
X-34031557Y38942963D01*
X-33942000Y39159170D01*
X-33942000Y39473000D01*
X-34119000Y39650000D01*
X-34950000Y39650000D01*
X-35150000Y39650000D01*
X-35170000Y39650000D01*
X-35170000Y39850000D01*
X-35150000Y39850000D01*
X-35150000Y39870000D01*
X-34950000Y39870000D01*
X-34950000Y39850000D01*
X-34119000Y39850000D01*
X-33942000Y40027000D01*
X-33942000Y40120793D01*
X-32423777Y40120793D01*
X-32423777Y39496963D01*
X-32246777Y39319963D01*
X-31055777Y39319963D01*
X-31055777Y40510963D01*
X-31232777Y40687963D01*
X-31856607Y40687963D01*
X-32116827Y40580176D01*
X-32315990Y40381013D01*
X-32423777Y40120793D01*
X-33942000Y40120793D01*
X-33942000Y40340830D01*
X-34049787Y40601050D01*
X-34248950Y40800213D01*
X-34509170Y40908000D01*
X-34773000Y40908000D01*
X-34949998Y40731002D01*
X-34949998Y40908000D01*
X-35010422Y40908000D01*
X-34933079Y41023752D01*
X-34878130Y41300000D01*
X-34878130Y41792000D01*
X-31237827Y41792000D01*
X-30133791Y40687963D01*
G04 #@! TD*
M02*
