M48
;DRILL file {KiCad 5.0.2-bee76a0~70~ubuntu18.10.1} date Fri 18 Jan 2019 06:06:07 PM CST
;FORMAT={-:-/ absolute / metric / decimal}
FMAT,2
METRIC,TZ
T1C0.760
T2C0.800
T3C0.900
T4C1.000
T5C1.100
T6C1.100
T7C3.250
%
G90
G05
T1
X-45.73Y39.22
X-44.43Y36.68
X-43.16Y39.22
X-41.92Y36.68
X-30.956Y39.22
X-29.656Y36.68
X-28.386Y39.22
X-27.146Y36.68
T2
X-52.Y36.75
X-52.Y33.45
X-45.456Y31.846
X-32.3Y31.8
X-30.25Y29.75
X-30.25Y15.194
X-28.25Y21.25
X-23.25Y29.75
X-23.Y22.5
X-7.75Y20.5
X-18.138Y40.322
X-18.138Y37.782
X-18.138Y35.242
X-18.138Y32.702
X-18.138Y30.162
X-18.138Y27.622
X-18.138Y25.082
X-18.138Y22.542
X-18.138Y20.002
X-18.138Y17.462
X-18.138Y14.922
X-18.138Y12.382
X-18.138Y9.842
X-18.138Y7.302
X-18.138Y4.762
X-2.898Y40.322
X-2.898Y37.782
X-2.898Y35.242
X-2.898Y32.702
X-2.898Y30.162
X-2.898Y27.622
X-2.898Y25.082
X-2.898Y22.542
X-2.898Y20.002
X-2.898Y17.462
X-2.898Y14.922
X-2.898Y12.382
X-2.898Y9.842
X-2.898Y7.302
X-2.898Y4.762
T3
X-25.16Y4.196
X-22.62Y4.196
T4
X-42.04Y33.25
X-39.5Y33.25
T5
X-58.Y45.5
X-55.46Y45.5
X-45.75Y8.
X-45.75Y1.5
X-41.25Y8.
X-41.25Y1.5
X-35.5Y8.
X-35.5Y1.5
X-31.Y8.
X-31.Y1.5
X-57.Y8.
X-57.Y1.5
X-52.5Y8.
X-52.5Y1.5
T6
X-58.Y48.04
X-55.46Y48.04
T7
X-48.91Y45.57
X-38.75Y45.57
X-34.136Y45.57
X-23.976Y45.57
T0
M30
