G04 #@! TF.GenerationSoftware,KiCad,Pcbnew,5.0.2-bee76a0~70~ubuntu18.10.1*
G04 #@! TF.CreationDate,2019-01-18T18:06:10-06:00*
G04 #@! TF.ProjectId,Demo,44656d6f-2e6b-4696-9361-645f70636258,rev?*
G04 #@! TF.SameCoordinates,PXaf79e00PY7cee6c0*
G04 #@! TF.FileFunction,Copper,L1,Top*
G04 #@! TF.FilePolarity,Positive*
%FSLAX46Y46*%
G04 Gerber Fmt 4.6, Leading zero omitted, Abs format (unit mm)*
G04 Created by KiCad (PCBNEW 5.0.2-bee76a0~70~ubuntu18.10.1) date Fri 18 Jan 2019 06:06:10 PM CST*
%MOMM*%
%LPD*%
G01*
G04 APERTURE LIST*
G04 #@! TA.AperFunction,SMDPad,CuDef*
%ADD10R,3.500000X1.800000*%
G04 #@! TD*
G04 #@! TA.AperFunction,ComponentPad*
%ADD11C,1.520000*%
G04 #@! TD*
G04 #@! TA.AperFunction,ComponentPad*
%ADD12R,1.520000X1.520000*%
G04 #@! TD*
G04 #@! TA.AperFunction,ComponentPad*
%ADD13C,2.000000*%
G04 #@! TD*
G04 #@! TA.AperFunction,Conductor*
%ADD14C,0.100000*%
G04 #@! TD*
G04 #@! TA.AperFunction,SMDPad,CuDef*
%ADD15C,1.425000*%
G04 #@! TD*
G04 #@! TA.AperFunction,ComponentPad*
%ADD16R,1.700000X1.700000*%
G04 #@! TD*
G04 #@! TA.AperFunction,ComponentPad*
%ADD17O,1.700000X1.700000*%
G04 #@! TD*
G04 #@! TA.AperFunction,ComponentPad*
%ADD18R,2.200000X2.200000*%
G04 #@! TD*
G04 #@! TA.AperFunction,ComponentPad*
%ADD19C,2.200000*%
G04 #@! TD*
G04 #@! TA.AperFunction,ComponentPad*
%ADD20R,1.800000X1.800000*%
G04 #@! TD*
G04 #@! TA.AperFunction,ComponentPad*
%ADD21C,1.800000*%
G04 #@! TD*
G04 #@! TA.AperFunction,SMDPad,CuDef*
%ADD22R,0.800000X0.900000*%
G04 #@! TD*
G04 #@! TA.AperFunction,SMDPad,CuDef*
%ADD23R,2.000000X7.875000*%
G04 #@! TD*
G04 #@! TA.AperFunction,ComponentPad*
%ADD24O,1.600000X1.600000*%
G04 #@! TD*
G04 #@! TA.AperFunction,ComponentPad*
%ADD25R,1.600000X1.600000*%
G04 #@! TD*
G04 #@! TA.AperFunction,SMDPad,CuDef*
%ADD26R,2.000000X0.600000*%
G04 #@! TD*
G04 #@! TA.AperFunction,SMDPad,CuDef*
%ADD27R,0.600000X1.550000*%
G04 #@! TD*
G04 #@! TA.AperFunction,ViaPad*
%ADD28C,1.500000*%
G04 #@! TD*
G04 #@! TA.AperFunction,Conductor*
%ADD29C,0.500000*%
G04 #@! TD*
G04 #@! TA.AperFunction,Conductor*
%ADD30C,0.750000*%
G04 #@! TD*
G04 #@! TA.AperFunction,Conductor*
%ADD31C,1.000000*%
G04 #@! TD*
G04 #@! TA.AperFunction,Conductor*
%ADD32C,0.200000*%
G04 #@! TD*
G04 APERTURE END LIST*
D10*
G04 #@! TO.P,D3,1*
G04 #@! TO.N,+12V*
X-47000000Y42000000D03*
G04 #@! TO.P,D3,2*
G04 #@! TO.N,Net-(D2-Pad1)*
X-42000000Y42000000D03*
G04 #@! TD*
D11*
G04 #@! TO.P,J2,4*
G04 #@! TO.N,/Vin*
X-27145777Y36679963D03*
G04 #@! TO.P,J2,3*
G04 #@! TO.N,/CANH*
X-28385777Y39219963D03*
G04 #@! TO.P,J2,2*
G04 #@! TO.N,/CANL*
X-29655777Y36679963D03*
D12*
G04 #@! TO.P,J2,1*
G04 #@! TO.N,GND*
X-30955777Y39219963D03*
G04 #@! TD*
G04 #@! TO.P,J1,1*
G04 #@! TO.N,GND*
X-45730000Y39219963D03*
D11*
G04 #@! TO.P,J1,2*
G04 #@! TO.N,/CANL*
X-44430000Y36679963D03*
G04 #@! TO.P,J1,3*
G04 #@! TO.N,/CANH*
X-43160000Y39219963D03*
G04 #@! TO.P,J1,4*
G04 #@! TO.N,/Vin*
X-41920000Y36679963D03*
G04 #@! TD*
D13*
G04 #@! TO.P,SW3,2*
G04 #@! TO.N,+5V*
X-57000000Y1500000D03*
G04 #@! TO.P,SW3,1*
G04 #@! TO.N,/S3*
X-52500000Y1500000D03*
G04 #@! TO.P,SW3,2*
G04 #@! TO.N,+5V*
X-57000000Y8000000D03*
G04 #@! TO.P,SW3,1*
G04 #@! TO.N,/S3*
X-52500000Y8000000D03*
G04 #@! TD*
G04 #@! TO.P,SW2,1*
G04 #@! TO.N,/S2*
X-41250000Y8000000D03*
G04 #@! TO.P,SW2,2*
G04 #@! TO.N,+5V*
X-45750000Y8000000D03*
G04 #@! TO.P,SW2,1*
G04 #@! TO.N,/S2*
X-41250000Y1500000D03*
G04 #@! TO.P,SW2,2*
G04 #@! TO.N,+5V*
X-45750000Y1500000D03*
G04 #@! TD*
G04 #@! TO.P,SW1,2*
G04 #@! TO.N,+5V*
X-35500000Y1500000D03*
G04 #@! TO.P,SW1,1*
G04 #@! TO.N,/S1*
X-31000000Y1500000D03*
G04 #@! TO.P,SW1,2*
G04 #@! TO.N,+5V*
X-35500000Y8000000D03*
G04 #@! TO.P,SW1,1*
G04 #@! TO.N,/S1*
X-31000000Y8000000D03*
G04 #@! TD*
D14*
G04 #@! TO.N,GND*
G04 #@! TO.C,C5*
G36*
X-5227496Y8103796D02*
X-5203227Y8100196D01*
X-5179429Y8094235D01*
X-5156329Y8085970D01*
X-5134151Y8075480D01*
X-5113107Y8062867D01*
X-5093402Y8048253D01*
X-5075223Y8031777D01*
X-5058747Y8013598D01*
X-5044133Y7993893D01*
X-5031520Y7972849D01*
X-5021030Y7950671D01*
X-5012765Y7927571D01*
X-5006804Y7903773D01*
X-5003204Y7879504D01*
X-5002000Y7855000D01*
X-5002000Y6930000D01*
X-5003204Y6905496D01*
X-5006804Y6881227D01*
X-5012765Y6857429D01*
X-5021030Y6834329D01*
X-5031520Y6812151D01*
X-5044133Y6791107D01*
X-5058747Y6771402D01*
X-5075223Y6753223D01*
X-5093402Y6736747D01*
X-5113107Y6722133D01*
X-5134151Y6709520D01*
X-5156329Y6699030D01*
X-5179429Y6690765D01*
X-5203227Y6684804D01*
X-5227496Y6681204D01*
X-5252000Y6680000D01*
X-7402000Y6680000D01*
X-7426504Y6681204D01*
X-7450773Y6684804D01*
X-7474571Y6690765D01*
X-7497671Y6699030D01*
X-7519849Y6709520D01*
X-7540893Y6722133D01*
X-7560598Y6736747D01*
X-7578777Y6753223D01*
X-7595253Y6771402D01*
X-7609867Y6791107D01*
X-7622480Y6812151D01*
X-7632970Y6834329D01*
X-7641235Y6857429D01*
X-7647196Y6881227D01*
X-7650796Y6905496D01*
X-7652000Y6930000D01*
X-7652000Y7855000D01*
X-7650796Y7879504D01*
X-7647196Y7903773D01*
X-7641235Y7927571D01*
X-7632970Y7950671D01*
X-7622480Y7972849D01*
X-7609867Y7993893D01*
X-7595253Y8013598D01*
X-7578777Y8031777D01*
X-7560598Y8048253D01*
X-7540893Y8062867D01*
X-7519849Y8075480D01*
X-7497671Y8085970D01*
X-7474571Y8094235D01*
X-7450773Y8100196D01*
X-7426504Y8103796D01*
X-7402000Y8105000D01*
X-5252000Y8105000D01*
X-5227496Y8103796D01*
X-5227496Y8103796D01*
G37*
D15*
G04 #@! TD*
G04 #@! TO.P,C5,1*
G04 #@! TO.N,GND*
X-6327000Y7392500D03*
D14*
G04 #@! TO.N,+12V*
G04 #@! TO.C,C5*
G36*
X-5227496Y5128796D02*
X-5203227Y5125196D01*
X-5179429Y5119235D01*
X-5156329Y5110970D01*
X-5134151Y5100480D01*
X-5113107Y5087867D01*
X-5093402Y5073253D01*
X-5075223Y5056777D01*
X-5058747Y5038598D01*
X-5044133Y5018893D01*
X-5031520Y4997849D01*
X-5021030Y4975671D01*
X-5012765Y4952571D01*
X-5006804Y4928773D01*
X-5003204Y4904504D01*
X-5002000Y4880000D01*
X-5002000Y3955000D01*
X-5003204Y3930496D01*
X-5006804Y3906227D01*
X-5012765Y3882429D01*
X-5021030Y3859329D01*
X-5031520Y3837151D01*
X-5044133Y3816107D01*
X-5058747Y3796402D01*
X-5075223Y3778223D01*
X-5093402Y3761747D01*
X-5113107Y3747133D01*
X-5134151Y3734520D01*
X-5156329Y3724030D01*
X-5179429Y3715765D01*
X-5203227Y3709804D01*
X-5227496Y3706204D01*
X-5252000Y3705000D01*
X-7402000Y3705000D01*
X-7426504Y3706204D01*
X-7450773Y3709804D01*
X-7474571Y3715765D01*
X-7497671Y3724030D01*
X-7519849Y3734520D01*
X-7540893Y3747133D01*
X-7560598Y3761747D01*
X-7578777Y3778223D01*
X-7595253Y3796402D01*
X-7609867Y3816107D01*
X-7622480Y3837151D01*
X-7632970Y3859329D01*
X-7641235Y3882429D01*
X-7647196Y3906227D01*
X-7650796Y3930496D01*
X-7652000Y3955000D01*
X-7652000Y4880000D01*
X-7650796Y4904504D01*
X-7647196Y4928773D01*
X-7641235Y4952571D01*
X-7632970Y4975671D01*
X-7622480Y4997849D01*
X-7609867Y5018893D01*
X-7595253Y5038598D01*
X-7578777Y5056777D01*
X-7560598Y5073253D01*
X-7540893Y5087867D01*
X-7519849Y5100480D01*
X-7497671Y5110970D01*
X-7474571Y5119235D01*
X-7450773Y5125196D01*
X-7426504Y5128796D01*
X-7402000Y5130000D01*
X-5252000Y5130000D01*
X-5227496Y5128796D01*
X-5227496Y5128796D01*
G37*
D15*
G04 #@! TD*
G04 #@! TO.P,C5,2*
G04 #@! TO.N,+12V*
X-6327000Y4417500D03*
D16*
G04 #@! TO.P,J3,1*
G04 #@! TO.N,Net-(J3-Pad1)*
X-39500000Y33250000D03*
D17*
G04 #@! TO.P,J3,2*
G04 #@! TO.N,/CANH*
X-42040000Y33250000D03*
G04 #@! TD*
D18*
G04 #@! TO.P,J4,1*
G04 #@! TO.N,GND*
X-58000000Y45500000D03*
D19*
G04 #@! TO.P,J4,2*
G04 #@! TO.N,/Vin*
X-55460000Y45500000D03*
G04 #@! TD*
D20*
G04 #@! TO.P,D1,1*
G04 #@! TO.N,GND*
X-25159595Y4195750D03*
D21*
G04 #@! TO.P,D1,2*
G04 #@! TO.N,Net-(D1-Pad2)*
X-22619595Y4195750D03*
G04 #@! TD*
D22*
G04 #@! TO.P,D2,1*
G04 #@! TO.N,Net-(D2-Pad1)*
X-37050000Y40200000D03*
G04 #@! TO.P,D2,2*
G04 #@! TO.N,GND*
X-35150000Y40200000D03*
G04 #@! TO.P,D2,3*
G04 #@! TO.N,N/C*
X-36100000Y42200000D03*
G04 #@! TD*
D14*
G04 #@! TO.N,GND*
G04 #@! TO.C,R8*
G36*
X-29850496Y23948796D02*
X-29826227Y23945196D01*
X-29802429Y23939235D01*
X-29779329Y23930970D01*
X-29757151Y23920480D01*
X-29736107Y23907867D01*
X-29716402Y23893253D01*
X-29698223Y23876777D01*
X-29681747Y23858598D01*
X-29667133Y23838893D01*
X-29654520Y23817849D01*
X-29644030Y23795671D01*
X-29635765Y23772571D01*
X-29629804Y23748773D01*
X-29626204Y23724504D01*
X-29625000Y23700000D01*
X-29625000Y22775000D01*
X-29626204Y22750496D01*
X-29629804Y22726227D01*
X-29635765Y22702429D01*
X-29644030Y22679329D01*
X-29654520Y22657151D01*
X-29667133Y22636107D01*
X-29681747Y22616402D01*
X-29698223Y22598223D01*
X-29716402Y22581747D01*
X-29736107Y22567133D01*
X-29757151Y22554520D01*
X-29779329Y22544030D01*
X-29802429Y22535765D01*
X-29826227Y22529804D01*
X-29850496Y22526204D01*
X-29875000Y22525000D01*
X-31125000Y22525000D01*
X-31149504Y22526204D01*
X-31173773Y22529804D01*
X-31197571Y22535765D01*
X-31220671Y22544030D01*
X-31242849Y22554520D01*
X-31263893Y22567133D01*
X-31283598Y22581747D01*
X-31301777Y22598223D01*
X-31318253Y22616402D01*
X-31332867Y22636107D01*
X-31345480Y22657151D01*
X-31355970Y22679329D01*
X-31364235Y22702429D01*
X-31370196Y22726227D01*
X-31373796Y22750496D01*
X-31375000Y22775000D01*
X-31375000Y23700000D01*
X-31373796Y23724504D01*
X-31370196Y23748773D01*
X-31364235Y23772571D01*
X-31355970Y23795671D01*
X-31345480Y23817849D01*
X-31332867Y23838893D01*
X-31318253Y23858598D01*
X-31301777Y23876777D01*
X-31283598Y23893253D01*
X-31263893Y23907867D01*
X-31242849Y23920480D01*
X-31220671Y23930970D01*
X-31197571Y23939235D01*
X-31173773Y23945196D01*
X-31149504Y23948796D01*
X-31125000Y23950000D01*
X-29875000Y23950000D01*
X-29850496Y23948796D01*
X-29850496Y23948796D01*
G37*
D15*
G04 #@! TD*
G04 #@! TO.P,R8,2*
G04 #@! TO.N,GND*
X-30500000Y23237500D03*
D14*
G04 #@! TO.N,/CAN_RST*
G04 #@! TO.C,R8*
G36*
X-29850496Y20973796D02*
X-29826227Y20970196D01*
X-29802429Y20964235D01*
X-29779329Y20955970D01*
X-29757151Y20945480D01*
X-29736107Y20932867D01*
X-29716402Y20918253D01*
X-29698223Y20901777D01*
X-29681747Y20883598D01*
X-29667133Y20863893D01*
X-29654520Y20842849D01*
X-29644030Y20820671D01*
X-29635765Y20797571D01*
X-29629804Y20773773D01*
X-29626204Y20749504D01*
X-29625000Y20725000D01*
X-29625000Y19800000D01*
X-29626204Y19775496D01*
X-29629804Y19751227D01*
X-29635765Y19727429D01*
X-29644030Y19704329D01*
X-29654520Y19682151D01*
X-29667133Y19661107D01*
X-29681747Y19641402D01*
X-29698223Y19623223D01*
X-29716402Y19606747D01*
X-29736107Y19592133D01*
X-29757151Y19579520D01*
X-29779329Y19569030D01*
X-29802429Y19560765D01*
X-29826227Y19554804D01*
X-29850496Y19551204D01*
X-29875000Y19550000D01*
X-31125000Y19550000D01*
X-31149504Y19551204D01*
X-31173773Y19554804D01*
X-31197571Y19560765D01*
X-31220671Y19569030D01*
X-31242849Y19579520D01*
X-31263893Y19592133D01*
X-31283598Y19606747D01*
X-31301777Y19623223D01*
X-31318253Y19641402D01*
X-31332867Y19661107D01*
X-31345480Y19682151D01*
X-31355970Y19704329D01*
X-31364235Y19727429D01*
X-31370196Y19751227D01*
X-31373796Y19775496D01*
X-31375000Y19800000D01*
X-31375000Y20725000D01*
X-31373796Y20749504D01*
X-31370196Y20773773D01*
X-31364235Y20797571D01*
X-31355970Y20820671D01*
X-31345480Y20842849D01*
X-31332867Y20863893D01*
X-31318253Y20883598D01*
X-31301777Y20901777D01*
X-31283598Y20918253D01*
X-31263893Y20932867D01*
X-31242849Y20945480D01*
X-31220671Y20955970D01*
X-31197571Y20964235D01*
X-31173773Y20970196D01*
X-31149504Y20973796D01*
X-31125000Y20975000D01*
X-29875000Y20975000D01*
X-29850496Y20973796D01*
X-29850496Y20973796D01*
G37*
D15*
G04 #@! TD*
G04 #@! TO.P,R8,1*
G04 #@! TO.N,/CAN_RST*
X-30500000Y20262500D03*
D14*
G04 #@! TO.N,/XCDR_RST*
G04 #@! TO.C,R7*
G36*
X-43396496Y30963796D02*
X-43372227Y30960196D01*
X-43348429Y30954235D01*
X-43325329Y30945970D01*
X-43303151Y30935480D01*
X-43282107Y30922867D01*
X-43262402Y30908253D01*
X-43244223Y30891777D01*
X-43227747Y30873598D01*
X-43213133Y30853893D01*
X-43200520Y30832849D01*
X-43190030Y30810671D01*
X-43181765Y30787571D01*
X-43175804Y30763773D01*
X-43172204Y30739504D01*
X-43171000Y30715000D01*
X-43171000Y29790000D01*
X-43172204Y29765496D01*
X-43175804Y29741227D01*
X-43181765Y29717429D01*
X-43190030Y29694329D01*
X-43200520Y29672151D01*
X-43213133Y29651107D01*
X-43227747Y29631402D01*
X-43244223Y29613223D01*
X-43262402Y29596747D01*
X-43282107Y29582133D01*
X-43303151Y29569520D01*
X-43325329Y29559030D01*
X-43348429Y29550765D01*
X-43372227Y29544804D01*
X-43396496Y29541204D01*
X-43421000Y29540000D01*
X-44671000Y29540000D01*
X-44695504Y29541204D01*
X-44719773Y29544804D01*
X-44743571Y29550765D01*
X-44766671Y29559030D01*
X-44788849Y29569520D01*
X-44809893Y29582133D01*
X-44829598Y29596747D01*
X-44847777Y29613223D01*
X-44864253Y29631402D01*
X-44878867Y29651107D01*
X-44891480Y29672151D01*
X-44901970Y29694329D01*
X-44910235Y29717429D01*
X-44916196Y29741227D01*
X-44919796Y29765496D01*
X-44921000Y29790000D01*
X-44921000Y30715000D01*
X-44919796Y30739504D01*
X-44916196Y30763773D01*
X-44910235Y30787571D01*
X-44901970Y30810671D01*
X-44891480Y30832849D01*
X-44878867Y30853893D01*
X-44864253Y30873598D01*
X-44847777Y30891777D01*
X-44829598Y30908253D01*
X-44809893Y30922867D01*
X-44788849Y30935480D01*
X-44766671Y30945970D01*
X-44743571Y30954235D01*
X-44719773Y30960196D01*
X-44695504Y30963796D01*
X-44671000Y30965000D01*
X-43421000Y30965000D01*
X-43396496Y30963796D01*
X-43396496Y30963796D01*
G37*
D15*
G04 #@! TD*
G04 #@! TO.P,R7,1*
G04 #@! TO.N,/XCDR_RST*
X-44046000Y30252500D03*
D14*
G04 #@! TO.N,GND*
G04 #@! TO.C,R7*
G36*
X-43396496Y27988796D02*
X-43372227Y27985196D01*
X-43348429Y27979235D01*
X-43325329Y27970970D01*
X-43303151Y27960480D01*
X-43282107Y27947867D01*
X-43262402Y27933253D01*
X-43244223Y27916777D01*
X-43227747Y27898598D01*
X-43213133Y27878893D01*
X-43200520Y27857849D01*
X-43190030Y27835671D01*
X-43181765Y27812571D01*
X-43175804Y27788773D01*
X-43172204Y27764504D01*
X-43171000Y27740000D01*
X-43171000Y26815000D01*
X-43172204Y26790496D01*
X-43175804Y26766227D01*
X-43181765Y26742429D01*
X-43190030Y26719329D01*
X-43200520Y26697151D01*
X-43213133Y26676107D01*
X-43227747Y26656402D01*
X-43244223Y26638223D01*
X-43262402Y26621747D01*
X-43282107Y26607133D01*
X-43303151Y26594520D01*
X-43325329Y26584030D01*
X-43348429Y26575765D01*
X-43372227Y26569804D01*
X-43396496Y26566204D01*
X-43421000Y26565000D01*
X-44671000Y26565000D01*
X-44695504Y26566204D01*
X-44719773Y26569804D01*
X-44743571Y26575765D01*
X-44766671Y26584030D01*
X-44788849Y26594520D01*
X-44809893Y26607133D01*
X-44829598Y26621747D01*
X-44847777Y26638223D01*
X-44864253Y26656402D01*
X-44878867Y26676107D01*
X-44891480Y26697151D01*
X-44901970Y26719329D01*
X-44910235Y26742429D01*
X-44916196Y26766227D01*
X-44919796Y26790496D01*
X-44921000Y26815000D01*
X-44921000Y27740000D01*
X-44919796Y27764504D01*
X-44916196Y27788773D01*
X-44910235Y27812571D01*
X-44901970Y27835671D01*
X-44891480Y27857849D01*
X-44878867Y27878893D01*
X-44864253Y27898598D01*
X-44847777Y27916777D01*
X-44829598Y27933253D01*
X-44809893Y27947867D01*
X-44788849Y27960480D01*
X-44766671Y27970970D01*
X-44743571Y27979235D01*
X-44719773Y27985196D01*
X-44695504Y27988796D01*
X-44671000Y27990000D01*
X-43421000Y27990000D01*
X-43396496Y27988796D01*
X-43396496Y27988796D01*
G37*
D15*
G04 #@! TD*
G04 #@! TO.P,R7,2*
G04 #@! TO.N,GND*
X-44046000Y27277500D03*
D14*
G04 #@! TO.N,/S3*
G04 #@! TO.C,R6*
G36*
X-52012996Y6373796D02*
X-51988727Y6370196D01*
X-51964929Y6364235D01*
X-51941829Y6355970D01*
X-51919651Y6345480D01*
X-51898607Y6332867D01*
X-51878902Y6318253D01*
X-51860723Y6301777D01*
X-51844247Y6283598D01*
X-51829633Y6263893D01*
X-51817020Y6242849D01*
X-51806530Y6220671D01*
X-51798265Y6197571D01*
X-51792304Y6173773D01*
X-51788704Y6149504D01*
X-51787500Y6125000D01*
X-51787500Y4875000D01*
X-51788704Y4850496D01*
X-51792304Y4826227D01*
X-51798265Y4802429D01*
X-51806530Y4779329D01*
X-51817020Y4757151D01*
X-51829633Y4736107D01*
X-51844247Y4716402D01*
X-51860723Y4698223D01*
X-51878902Y4681747D01*
X-51898607Y4667133D01*
X-51919651Y4654520D01*
X-51941829Y4644030D01*
X-51964929Y4635765D01*
X-51988727Y4629804D01*
X-52012996Y4626204D01*
X-52037500Y4625000D01*
X-52962500Y4625000D01*
X-52987004Y4626204D01*
X-53011273Y4629804D01*
X-53035071Y4635765D01*
X-53058171Y4644030D01*
X-53080349Y4654520D01*
X-53101393Y4667133D01*
X-53121098Y4681747D01*
X-53139277Y4698223D01*
X-53155753Y4716402D01*
X-53170367Y4736107D01*
X-53182980Y4757151D01*
X-53193470Y4779329D01*
X-53201735Y4802429D01*
X-53207696Y4826227D01*
X-53211296Y4850496D01*
X-53212500Y4875000D01*
X-53212500Y6125000D01*
X-53211296Y6149504D01*
X-53207696Y6173773D01*
X-53201735Y6197571D01*
X-53193470Y6220671D01*
X-53182980Y6242849D01*
X-53170367Y6263893D01*
X-53155753Y6283598D01*
X-53139277Y6301777D01*
X-53121098Y6318253D01*
X-53101393Y6332867D01*
X-53080349Y6345480D01*
X-53058171Y6355970D01*
X-53035071Y6364235D01*
X-53011273Y6370196D01*
X-52987004Y6373796D01*
X-52962500Y6375000D01*
X-52037500Y6375000D01*
X-52012996Y6373796D01*
X-52012996Y6373796D01*
G37*
D15*
G04 #@! TD*
G04 #@! TO.P,R6,2*
G04 #@! TO.N,/S3*
X-52500000Y5500000D03*
D14*
G04 #@! TO.N,GND*
G04 #@! TO.C,R6*
G36*
X-54987996Y6373796D02*
X-54963727Y6370196D01*
X-54939929Y6364235D01*
X-54916829Y6355970D01*
X-54894651Y6345480D01*
X-54873607Y6332867D01*
X-54853902Y6318253D01*
X-54835723Y6301777D01*
X-54819247Y6283598D01*
X-54804633Y6263893D01*
X-54792020Y6242849D01*
X-54781530Y6220671D01*
X-54773265Y6197571D01*
X-54767304Y6173773D01*
X-54763704Y6149504D01*
X-54762500Y6125000D01*
X-54762500Y4875000D01*
X-54763704Y4850496D01*
X-54767304Y4826227D01*
X-54773265Y4802429D01*
X-54781530Y4779329D01*
X-54792020Y4757151D01*
X-54804633Y4736107D01*
X-54819247Y4716402D01*
X-54835723Y4698223D01*
X-54853902Y4681747D01*
X-54873607Y4667133D01*
X-54894651Y4654520D01*
X-54916829Y4644030D01*
X-54939929Y4635765D01*
X-54963727Y4629804D01*
X-54987996Y4626204D01*
X-55012500Y4625000D01*
X-55937500Y4625000D01*
X-55962004Y4626204D01*
X-55986273Y4629804D01*
X-56010071Y4635765D01*
X-56033171Y4644030D01*
X-56055349Y4654520D01*
X-56076393Y4667133D01*
X-56096098Y4681747D01*
X-56114277Y4698223D01*
X-56130753Y4716402D01*
X-56145367Y4736107D01*
X-56157980Y4757151D01*
X-56168470Y4779329D01*
X-56176735Y4802429D01*
X-56182696Y4826227D01*
X-56186296Y4850496D01*
X-56187500Y4875000D01*
X-56187500Y6125000D01*
X-56186296Y6149504D01*
X-56182696Y6173773D01*
X-56176735Y6197571D01*
X-56168470Y6220671D01*
X-56157980Y6242849D01*
X-56145367Y6263893D01*
X-56130753Y6283598D01*
X-56114277Y6301777D01*
X-56096098Y6318253D01*
X-56076393Y6332867D01*
X-56055349Y6345480D01*
X-56033171Y6355970D01*
X-56010071Y6364235D01*
X-55986273Y6370196D01*
X-55962004Y6373796D01*
X-55937500Y6375000D01*
X-55012500Y6375000D01*
X-54987996Y6373796D01*
X-54987996Y6373796D01*
G37*
D15*
G04 #@! TD*
G04 #@! TO.P,R6,1*
G04 #@! TO.N,GND*
X-55475000Y5500000D03*
D14*
G04 #@! TO.N,/LED*
G04 #@! TO.C,R3*
G36*
X-24545091Y8873796D02*
X-24520822Y8870196D01*
X-24497024Y8864235D01*
X-24473924Y8855970D01*
X-24451746Y8845480D01*
X-24430702Y8832867D01*
X-24410997Y8818253D01*
X-24392818Y8801777D01*
X-24376342Y8783598D01*
X-24361728Y8763893D01*
X-24349115Y8742849D01*
X-24338625Y8720671D01*
X-24330360Y8697571D01*
X-24324399Y8673773D01*
X-24320799Y8649504D01*
X-24319595Y8625000D01*
X-24319595Y7375000D01*
X-24320799Y7350496D01*
X-24324399Y7326227D01*
X-24330360Y7302429D01*
X-24338625Y7279329D01*
X-24349115Y7257151D01*
X-24361728Y7236107D01*
X-24376342Y7216402D01*
X-24392818Y7198223D01*
X-24410997Y7181747D01*
X-24430702Y7167133D01*
X-24451746Y7154520D01*
X-24473924Y7144030D01*
X-24497024Y7135765D01*
X-24520822Y7129804D01*
X-24545091Y7126204D01*
X-24569595Y7125000D01*
X-25494595Y7125000D01*
X-25519099Y7126204D01*
X-25543368Y7129804D01*
X-25567166Y7135765D01*
X-25590266Y7144030D01*
X-25612444Y7154520D01*
X-25633488Y7167133D01*
X-25653193Y7181747D01*
X-25671372Y7198223D01*
X-25687848Y7216402D01*
X-25702462Y7236107D01*
X-25715075Y7257151D01*
X-25725565Y7279329D01*
X-25733830Y7302429D01*
X-25739791Y7326227D01*
X-25743391Y7350496D01*
X-25744595Y7375000D01*
X-25744595Y8625000D01*
X-25743391Y8649504D01*
X-25739791Y8673773D01*
X-25733830Y8697571D01*
X-25725565Y8720671D01*
X-25715075Y8742849D01*
X-25702462Y8763893D01*
X-25687848Y8783598D01*
X-25671372Y8801777D01*
X-25653193Y8818253D01*
X-25633488Y8832867D01*
X-25612444Y8845480D01*
X-25590266Y8855970D01*
X-25567166Y8864235D01*
X-25543368Y8870196D01*
X-25519099Y8873796D01*
X-25494595Y8875000D01*
X-24569595Y8875000D01*
X-24545091Y8873796D01*
X-24545091Y8873796D01*
G37*
D15*
G04 #@! TD*
G04 #@! TO.P,R3,1*
G04 #@! TO.N,/LED*
X-25032095Y8000000D03*
D14*
G04 #@! TO.N,Net-(D1-Pad2)*
G04 #@! TO.C,R3*
G36*
X-21570091Y8873796D02*
X-21545822Y8870196D01*
X-21522024Y8864235D01*
X-21498924Y8855970D01*
X-21476746Y8845480D01*
X-21455702Y8832867D01*
X-21435997Y8818253D01*
X-21417818Y8801777D01*
X-21401342Y8783598D01*
X-21386728Y8763893D01*
X-21374115Y8742849D01*
X-21363625Y8720671D01*
X-21355360Y8697571D01*
X-21349399Y8673773D01*
X-21345799Y8649504D01*
X-21344595Y8625000D01*
X-21344595Y7375000D01*
X-21345799Y7350496D01*
X-21349399Y7326227D01*
X-21355360Y7302429D01*
X-21363625Y7279329D01*
X-21374115Y7257151D01*
X-21386728Y7236107D01*
X-21401342Y7216402D01*
X-21417818Y7198223D01*
X-21435997Y7181747D01*
X-21455702Y7167133D01*
X-21476746Y7154520D01*
X-21498924Y7144030D01*
X-21522024Y7135765D01*
X-21545822Y7129804D01*
X-21570091Y7126204D01*
X-21594595Y7125000D01*
X-22519595Y7125000D01*
X-22544099Y7126204D01*
X-22568368Y7129804D01*
X-22592166Y7135765D01*
X-22615266Y7144030D01*
X-22637444Y7154520D01*
X-22658488Y7167133D01*
X-22678193Y7181747D01*
X-22696372Y7198223D01*
X-22712848Y7216402D01*
X-22727462Y7236107D01*
X-22740075Y7257151D01*
X-22750565Y7279329D01*
X-22758830Y7302429D01*
X-22764791Y7326227D01*
X-22768391Y7350496D01*
X-22769595Y7375000D01*
X-22769595Y8625000D01*
X-22768391Y8649504D01*
X-22764791Y8673773D01*
X-22758830Y8697571D01*
X-22750565Y8720671D01*
X-22740075Y8742849D01*
X-22727462Y8763893D01*
X-22712848Y8783598D01*
X-22696372Y8801777D01*
X-22678193Y8818253D01*
X-22658488Y8832867D01*
X-22637444Y8845480D01*
X-22615266Y8855970D01*
X-22592166Y8864235D01*
X-22568368Y8870196D01*
X-22544099Y8873796D01*
X-22519595Y8875000D01*
X-21594595Y8875000D01*
X-21570091Y8873796D01*
X-21570091Y8873796D01*
G37*
D15*
G04 #@! TD*
G04 #@! TO.P,R3,2*
G04 #@! TO.N,Net-(D1-Pad2)*
X-22057095Y8000000D03*
D14*
G04 #@! TO.N,GND*
G04 #@! TO.C,C2*
G36*
X-33368496Y27692796D02*
X-33344227Y27689196D01*
X-33320429Y27683235D01*
X-33297329Y27674970D01*
X-33275151Y27664480D01*
X-33254107Y27651867D01*
X-33234402Y27637253D01*
X-33216223Y27620777D01*
X-33199747Y27602598D01*
X-33185133Y27582893D01*
X-33172520Y27561849D01*
X-33162030Y27539671D01*
X-33153765Y27516571D01*
X-33147804Y27492773D01*
X-33144204Y27468504D01*
X-33143000Y27444000D01*
X-33143000Y26519000D01*
X-33144204Y26494496D01*
X-33147804Y26470227D01*
X-33153765Y26446429D01*
X-33162030Y26423329D01*
X-33172520Y26401151D01*
X-33185133Y26380107D01*
X-33199747Y26360402D01*
X-33216223Y26342223D01*
X-33234402Y26325747D01*
X-33254107Y26311133D01*
X-33275151Y26298520D01*
X-33297329Y26288030D01*
X-33320429Y26279765D01*
X-33344227Y26273804D01*
X-33368496Y26270204D01*
X-33393000Y26269000D01*
X-35543000Y26269000D01*
X-35567504Y26270204D01*
X-35591773Y26273804D01*
X-35615571Y26279765D01*
X-35638671Y26288030D01*
X-35660849Y26298520D01*
X-35681893Y26311133D01*
X-35701598Y26325747D01*
X-35719777Y26342223D01*
X-35736253Y26360402D01*
X-35750867Y26380107D01*
X-35763480Y26401151D01*
X-35773970Y26423329D01*
X-35782235Y26446429D01*
X-35788196Y26470227D01*
X-35791796Y26494496D01*
X-35793000Y26519000D01*
X-35793000Y27444000D01*
X-35791796Y27468504D01*
X-35788196Y27492773D01*
X-35782235Y27516571D01*
X-35773970Y27539671D01*
X-35763480Y27561849D01*
X-35750867Y27582893D01*
X-35736253Y27602598D01*
X-35719777Y27620777D01*
X-35701598Y27637253D01*
X-35681893Y27651867D01*
X-35660849Y27664480D01*
X-35638671Y27674970D01*
X-35615571Y27683235D01*
X-35591773Y27689196D01*
X-35567504Y27692796D01*
X-35543000Y27694000D01*
X-33393000Y27694000D01*
X-33368496Y27692796D01*
X-33368496Y27692796D01*
G37*
D15*
G04 #@! TD*
G04 #@! TO.P,C2,1*
G04 #@! TO.N,GND*
X-34468000Y26981500D03*
D14*
G04 #@! TO.N,+5V*
G04 #@! TO.C,C2*
G36*
X-33368496Y24717796D02*
X-33344227Y24714196D01*
X-33320429Y24708235D01*
X-33297329Y24699970D01*
X-33275151Y24689480D01*
X-33254107Y24676867D01*
X-33234402Y24662253D01*
X-33216223Y24645777D01*
X-33199747Y24627598D01*
X-33185133Y24607893D01*
X-33172520Y24586849D01*
X-33162030Y24564671D01*
X-33153765Y24541571D01*
X-33147804Y24517773D01*
X-33144204Y24493504D01*
X-33143000Y24469000D01*
X-33143000Y23544000D01*
X-33144204Y23519496D01*
X-33147804Y23495227D01*
X-33153765Y23471429D01*
X-33162030Y23448329D01*
X-33172520Y23426151D01*
X-33185133Y23405107D01*
X-33199747Y23385402D01*
X-33216223Y23367223D01*
X-33234402Y23350747D01*
X-33254107Y23336133D01*
X-33275151Y23323520D01*
X-33297329Y23313030D01*
X-33320429Y23304765D01*
X-33344227Y23298804D01*
X-33368496Y23295204D01*
X-33393000Y23294000D01*
X-35543000Y23294000D01*
X-35567504Y23295204D01*
X-35591773Y23298804D01*
X-35615571Y23304765D01*
X-35638671Y23313030D01*
X-35660849Y23323520D01*
X-35681893Y23336133D01*
X-35701598Y23350747D01*
X-35719777Y23367223D01*
X-35736253Y23385402D01*
X-35750867Y23405107D01*
X-35763480Y23426151D01*
X-35773970Y23448329D01*
X-35782235Y23471429D01*
X-35788196Y23495227D01*
X-35791796Y23519496D01*
X-35793000Y23544000D01*
X-35793000Y24469000D01*
X-35791796Y24493504D01*
X-35788196Y24517773D01*
X-35782235Y24541571D01*
X-35773970Y24564671D01*
X-35763480Y24586849D01*
X-35750867Y24607893D01*
X-35736253Y24627598D01*
X-35719777Y24645777D01*
X-35701598Y24662253D01*
X-35681893Y24676867D01*
X-35660849Y24689480D01*
X-35638671Y24699970D01*
X-35615571Y24708235D01*
X-35591773Y24714196D01*
X-35567504Y24717796D01*
X-35543000Y24719000D01*
X-33393000Y24719000D01*
X-33368496Y24717796D01*
X-33368496Y24717796D01*
G37*
D15*
G04 #@! TD*
G04 #@! TO.P,C2,2*
G04 #@! TO.N,+5V*
X-34468000Y24006500D03*
D23*
G04 #@! TO.P,Y1,1*
G04 #@! TO.N,Net-(C3-Pad2)*
X-50745000Y27787500D03*
G04 #@! TO.P,Y1,2*
G04 #@! TO.N,Net-(C4-Pad2)*
X-50745000Y15912500D03*
G04 #@! TD*
D14*
G04 #@! TO.N,Net-(C4-Pad2)*
G04 #@! TO.C,C4*
G36*
X-54286496Y18270796D02*
X-54262227Y18267196D01*
X-54238429Y18261235D01*
X-54215329Y18252970D01*
X-54193151Y18242480D01*
X-54172107Y18229867D01*
X-54152402Y18215253D01*
X-54134223Y18198777D01*
X-54117747Y18180598D01*
X-54103133Y18160893D01*
X-54090520Y18139849D01*
X-54080030Y18117671D01*
X-54071765Y18094571D01*
X-54065804Y18070773D01*
X-54062204Y18046504D01*
X-54061000Y18022000D01*
X-54061000Y17097000D01*
X-54062204Y17072496D01*
X-54065804Y17048227D01*
X-54071765Y17024429D01*
X-54080030Y17001329D01*
X-54090520Y16979151D01*
X-54103133Y16958107D01*
X-54117747Y16938402D01*
X-54134223Y16920223D01*
X-54152402Y16903747D01*
X-54172107Y16889133D01*
X-54193151Y16876520D01*
X-54215329Y16866030D01*
X-54238429Y16857765D01*
X-54262227Y16851804D01*
X-54286496Y16848204D01*
X-54311000Y16847000D01*
X-55561000Y16847000D01*
X-55585504Y16848204D01*
X-55609773Y16851804D01*
X-55633571Y16857765D01*
X-55656671Y16866030D01*
X-55678849Y16876520D01*
X-55699893Y16889133D01*
X-55719598Y16903747D01*
X-55737777Y16920223D01*
X-55754253Y16938402D01*
X-55768867Y16958107D01*
X-55781480Y16979151D01*
X-55791970Y17001329D01*
X-55800235Y17024429D01*
X-55806196Y17048227D01*
X-55809796Y17072496D01*
X-55811000Y17097000D01*
X-55811000Y18022000D01*
X-55809796Y18046504D01*
X-55806196Y18070773D01*
X-55800235Y18094571D01*
X-55791970Y18117671D01*
X-55781480Y18139849D01*
X-55768867Y18160893D01*
X-55754253Y18180598D01*
X-55737777Y18198777D01*
X-55719598Y18215253D01*
X-55699893Y18229867D01*
X-55678849Y18242480D01*
X-55656671Y18252970D01*
X-55633571Y18261235D01*
X-55609773Y18267196D01*
X-55585504Y18270796D01*
X-55561000Y18272000D01*
X-54311000Y18272000D01*
X-54286496Y18270796D01*
X-54286496Y18270796D01*
G37*
D15*
G04 #@! TD*
G04 #@! TO.P,C4,2*
G04 #@! TO.N,Net-(C4-Pad2)*
X-54936000Y17559500D03*
D14*
G04 #@! TO.N,GND*
G04 #@! TO.C,C4*
G36*
X-54286496Y21245796D02*
X-54262227Y21242196D01*
X-54238429Y21236235D01*
X-54215329Y21227970D01*
X-54193151Y21217480D01*
X-54172107Y21204867D01*
X-54152402Y21190253D01*
X-54134223Y21173777D01*
X-54117747Y21155598D01*
X-54103133Y21135893D01*
X-54090520Y21114849D01*
X-54080030Y21092671D01*
X-54071765Y21069571D01*
X-54065804Y21045773D01*
X-54062204Y21021504D01*
X-54061000Y20997000D01*
X-54061000Y20072000D01*
X-54062204Y20047496D01*
X-54065804Y20023227D01*
X-54071765Y19999429D01*
X-54080030Y19976329D01*
X-54090520Y19954151D01*
X-54103133Y19933107D01*
X-54117747Y19913402D01*
X-54134223Y19895223D01*
X-54152402Y19878747D01*
X-54172107Y19864133D01*
X-54193151Y19851520D01*
X-54215329Y19841030D01*
X-54238429Y19832765D01*
X-54262227Y19826804D01*
X-54286496Y19823204D01*
X-54311000Y19822000D01*
X-55561000Y19822000D01*
X-55585504Y19823204D01*
X-55609773Y19826804D01*
X-55633571Y19832765D01*
X-55656671Y19841030D01*
X-55678849Y19851520D01*
X-55699893Y19864133D01*
X-55719598Y19878747D01*
X-55737777Y19895223D01*
X-55754253Y19913402D01*
X-55768867Y19933107D01*
X-55781480Y19954151D01*
X-55791970Y19976329D01*
X-55800235Y19999429D01*
X-55806196Y20023227D01*
X-55809796Y20047496D01*
X-55811000Y20072000D01*
X-55811000Y20997000D01*
X-55809796Y21021504D01*
X-55806196Y21045773D01*
X-55800235Y21069571D01*
X-55791970Y21092671D01*
X-55781480Y21114849D01*
X-55768867Y21135893D01*
X-55754253Y21155598D01*
X-55737777Y21173777D01*
X-55719598Y21190253D01*
X-55699893Y21204867D01*
X-55678849Y21217480D01*
X-55656671Y21227970D01*
X-55633571Y21236235D01*
X-55609773Y21242196D01*
X-55585504Y21245796D01*
X-55561000Y21247000D01*
X-54311000Y21247000D01*
X-54286496Y21245796D01*
X-54286496Y21245796D01*
G37*
D15*
G04 #@! TD*
G04 #@! TO.P,C4,1*
G04 #@! TO.N,GND*
X-54936000Y20534500D03*
D14*
G04 #@! TO.N,Net-(C3-Pad2)*
G04 #@! TO.C,C3*
G36*
X-54286496Y26452796D02*
X-54262227Y26449196D01*
X-54238429Y26443235D01*
X-54215329Y26434970D01*
X-54193151Y26424480D01*
X-54172107Y26411867D01*
X-54152402Y26397253D01*
X-54134223Y26380777D01*
X-54117747Y26362598D01*
X-54103133Y26342893D01*
X-54090520Y26321849D01*
X-54080030Y26299671D01*
X-54071765Y26276571D01*
X-54065804Y26252773D01*
X-54062204Y26228504D01*
X-54061000Y26204000D01*
X-54061000Y25279000D01*
X-54062204Y25254496D01*
X-54065804Y25230227D01*
X-54071765Y25206429D01*
X-54080030Y25183329D01*
X-54090520Y25161151D01*
X-54103133Y25140107D01*
X-54117747Y25120402D01*
X-54134223Y25102223D01*
X-54152402Y25085747D01*
X-54172107Y25071133D01*
X-54193151Y25058520D01*
X-54215329Y25048030D01*
X-54238429Y25039765D01*
X-54262227Y25033804D01*
X-54286496Y25030204D01*
X-54311000Y25029000D01*
X-55561000Y25029000D01*
X-55585504Y25030204D01*
X-55609773Y25033804D01*
X-55633571Y25039765D01*
X-55656671Y25048030D01*
X-55678849Y25058520D01*
X-55699893Y25071133D01*
X-55719598Y25085747D01*
X-55737777Y25102223D01*
X-55754253Y25120402D01*
X-55768867Y25140107D01*
X-55781480Y25161151D01*
X-55791970Y25183329D01*
X-55800235Y25206429D01*
X-55806196Y25230227D01*
X-55809796Y25254496D01*
X-55811000Y25279000D01*
X-55811000Y26204000D01*
X-55809796Y26228504D01*
X-55806196Y26252773D01*
X-55800235Y26276571D01*
X-55791970Y26299671D01*
X-55781480Y26321849D01*
X-55768867Y26342893D01*
X-55754253Y26362598D01*
X-55737777Y26380777D01*
X-55719598Y26397253D01*
X-55699893Y26411867D01*
X-55678849Y26424480D01*
X-55656671Y26434970D01*
X-55633571Y26443235D01*
X-55609773Y26449196D01*
X-55585504Y26452796D01*
X-55561000Y26454000D01*
X-54311000Y26454000D01*
X-54286496Y26452796D01*
X-54286496Y26452796D01*
G37*
D15*
G04 #@! TD*
G04 #@! TO.P,C3,2*
G04 #@! TO.N,Net-(C3-Pad2)*
X-54936000Y25741500D03*
D14*
G04 #@! TO.N,GND*
G04 #@! TO.C,C3*
G36*
X-54286496Y23477796D02*
X-54262227Y23474196D01*
X-54238429Y23468235D01*
X-54215329Y23459970D01*
X-54193151Y23449480D01*
X-54172107Y23436867D01*
X-54152402Y23422253D01*
X-54134223Y23405777D01*
X-54117747Y23387598D01*
X-54103133Y23367893D01*
X-54090520Y23346849D01*
X-54080030Y23324671D01*
X-54071765Y23301571D01*
X-54065804Y23277773D01*
X-54062204Y23253504D01*
X-54061000Y23229000D01*
X-54061000Y22304000D01*
X-54062204Y22279496D01*
X-54065804Y22255227D01*
X-54071765Y22231429D01*
X-54080030Y22208329D01*
X-54090520Y22186151D01*
X-54103133Y22165107D01*
X-54117747Y22145402D01*
X-54134223Y22127223D01*
X-54152402Y22110747D01*
X-54172107Y22096133D01*
X-54193151Y22083520D01*
X-54215329Y22073030D01*
X-54238429Y22064765D01*
X-54262227Y22058804D01*
X-54286496Y22055204D01*
X-54311000Y22054000D01*
X-55561000Y22054000D01*
X-55585504Y22055204D01*
X-55609773Y22058804D01*
X-55633571Y22064765D01*
X-55656671Y22073030D01*
X-55678849Y22083520D01*
X-55699893Y22096133D01*
X-55719598Y22110747D01*
X-55737777Y22127223D01*
X-55754253Y22145402D01*
X-55768867Y22165107D01*
X-55781480Y22186151D01*
X-55791970Y22208329D01*
X-55800235Y22231429D01*
X-55806196Y22255227D01*
X-55809796Y22279496D01*
X-55811000Y22304000D01*
X-55811000Y23229000D01*
X-55809796Y23253504D01*
X-55806196Y23277773D01*
X-55800235Y23301571D01*
X-55791970Y23324671D01*
X-55781480Y23346849D01*
X-55768867Y23367893D01*
X-55754253Y23387598D01*
X-55737777Y23405777D01*
X-55719598Y23422253D01*
X-55699893Y23436867D01*
X-55678849Y23449480D01*
X-55656671Y23459970D01*
X-55633571Y23468235D01*
X-55609773Y23474196D01*
X-55585504Y23477796D01*
X-55561000Y23479000D01*
X-54311000Y23479000D01*
X-54286496Y23477796D01*
X-54286496Y23477796D01*
G37*
D15*
G04 #@! TD*
G04 #@! TO.P,C3,1*
G04 #@! TO.N,GND*
X-54936000Y22766500D03*
D14*
G04 #@! TO.N,GND*
G04 #@! TO.C,C1*
G36*
X-54100496Y33973796D02*
X-54076227Y33970196D01*
X-54052429Y33964235D01*
X-54029329Y33955970D01*
X-54007151Y33945480D01*
X-53986107Y33932867D01*
X-53966402Y33918253D01*
X-53948223Y33901777D01*
X-53931747Y33883598D01*
X-53917133Y33863893D01*
X-53904520Y33842849D01*
X-53894030Y33820671D01*
X-53885765Y33797571D01*
X-53879804Y33773773D01*
X-53876204Y33749504D01*
X-53875000Y33725000D01*
X-53875000Y32800000D01*
X-53876204Y32775496D01*
X-53879804Y32751227D01*
X-53885765Y32727429D01*
X-53894030Y32704329D01*
X-53904520Y32682151D01*
X-53917133Y32661107D01*
X-53931747Y32641402D01*
X-53948223Y32623223D01*
X-53966402Y32606747D01*
X-53986107Y32592133D01*
X-54007151Y32579520D01*
X-54029329Y32569030D01*
X-54052429Y32560765D01*
X-54076227Y32554804D01*
X-54100496Y32551204D01*
X-54125000Y32550000D01*
X-55375000Y32550000D01*
X-55399504Y32551204D01*
X-55423773Y32554804D01*
X-55447571Y32560765D01*
X-55470671Y32569030D01*
X-55492849Y32579520D01*
X-55513893Y32592133D01*
X-55533598Y32606747D01*
X-55551777Y32623223D01*
X-55568253Y32641402D01*
X-55582867Y32661107D01*
X-55595480Y32682151D01*
X-55605970Y32704329D01*
X-55614235Y32727429D01*
X-55620196Y32751227D01*
X-55623796Y32775496D01*
X-55625000Y32800000D01*
X-55625000Y33725000D01*
X-55623796Y33749504D01*
X-55620196Y33773773D01*
X-55614235Y33797571D01*
X-55605970Y33820671D01*
X-55595480Y33842849D01*
X-55582867Y33863893D01*
X-55568253Y33883598D01*
X-55551777Y33901777D01*
X-55533598Y33918253D01*
X-55513893Y33932867D01*
X-55492849Y33945480D01*
X-55470671Y33955970D01*
X-55447571Y33964235D01*
X-55423773Y33970196D01*
X-55399504Y33973796D01*
X-55375000Y33975000D01*
X-54125000Y33975000D01*
X-54100496Y33973796D01*
X-54100496Y33973796D01*
G37*
D15*
G04 #@! TD*
G04 #@! TO.P,C1,2*
G04 #@! TO.N,GND*
X-54750000Y33262500D03*
D14*
G04 #@! TO.N,+12V*
G04 #@! TO.C,C1*
G36*
X-54100496Y36948796D02*
X-54076227Y36945196D01*
X-54052429Y36939235D01*
X-54029329Y36930970D01*
X-54007151Y36920480D01*
X-53986107Y36907867D01*
X-53966402Y36893253D01*
X-53948223Y36876777D01*
X-53931747Y36858598D01*
X-53917133Y36838893D01*
X-53904520Y36817849D01*
X-53894030Y36795671D01*
X-53885765Y36772571D01*
X-53879804Y36748773D01*
X-53876204Y36724504D01*
X-53875000Y36700000D01*
X-53875000Y35775000D01*
X-53876204Y35750496D01*
X-53879804Y35726227D01*
X-53885765Y35702429D01*
X-53894030Y35679329D01*
X-53904520Y35657151D01*
X-53917133Y35636107D01*
X-53931747Y35616402D01*
X-53948223Y35598223D01*
X-53966402Y35581747D01*
X-53986107Y35567133D01*
X-54007151Y35554520D01*
X-54029329Y35544030D01*
X-54052429Y35535765D01*
X-54076227Y35529804D01*
X-54100496Y35526204D01*
X-54125000Y35525000D01*
X-55375000Y35525000D01*
X-55399504Y35526204D01*
X-55423773Y35529804D01*
X-55447571Y35535765D01*
X-55470671Y35544030D01*
X-55492849Y35554520D01*
X-55513893Y35567133D01*
X-55533598Y35581747D01*
X-55551777Y35598223D01*
X-55568253Y35616402D01*
X-55582867Y35636107D01*
X-55595480Y35657151D01*
X-55605970Y35679329D01*
X-55614235Y35702429D01*
X-55620196Y35726227D01*
X-55623796Y35750496D01*
X-55625000Y35775000D01*
X-55625000Y36700000D01*
X-55623796Y36724504D01*
X-55620196Y36748773D01*
X-55614235Y36772571D01*
X-55605970Y36795671D01*
X-55595480Y36817849D01*
X-55582867Y36838893D01*
X-55568253Y36858598D01*
X-55551777Y36876777D01*
X-55533598Y36893253D01*
X-55513893Y36907867D01*
X-55492849Y36920480D01*
X-55470671Y36930970D01*
X-55447571Y36939235D01*
X-55423773Y36945196D01*
X-55399504Y36948796D01*
X-55375000Y36950000D01*
X-54125000Y36950000D01*
X-54100496Y36948796D01*
X-54100496Y36948796D01*
G37*
D15*
G04 #@! TD*
G04 #@! TO.P,C1,1*
G04 #@! TO.N,+12V*
X-54750000Y36237500D03*
D24*
G04 #@! TO.P,A1,16*
G04 #@! TO.N,/SCK*
X-2898000Y40322000D03*
G04 #@! TO.P,A1,15*
G04 #@! TO.N,/SO*
X-18138000Y40322000D03*
G04 #@! TO.P,A1,30*
G04 #@! TO.N,+12V*
X-2898000Y4762000D03*
G04 #@! TO.P,A1,14*
G04 #@! TO.N,/SI*
X-18138000Y37782000D03*
G04 #@! TO.P,A1,29*
G04 #@! TO.N,GND*
X-2898000Y7302000D03*
G04 #@! TO.P,A1,13*
G04 #@! TO.N,/CS*
X-18138000Y35242000D03*
G04 #@! TO.P,A1,28*
G04 #@! TO.N,Net-(A1-Pad28)*
X-2898000Y9842000D03*
G04 #@! TO.P,A1,12*
G04 #@! TO.N,/XCDR_RST*
X-18138000Y32702000D03*
G04 #@! TO.P,A1,27*
G04 #@! TO.N,+5V*
X-2898000Y12382000D03*
G04 #@! TO.P,A1,11*
G04 #@! TO.N,Net-(A1-Pad11)*
X-18138000Y30162000D03*
G04 #@! TO.P,A1,26*
G04 #@! TO.N,Net-(A1-Pad26)*
X-2898000Y14922000D03*
G04 #@! TO.P,A1,10*
G04 #@! TO.N,/CAN_RST*
X-18138000Y27622000D03*
G04 #@! TO.P,A1,25*
G04 #@! TO.N,Net-(A1-Pad25)*
X-2898000Y17462000D03*
G04 #@! TO.P,A1,9*
G04 #@! TO.N,/int*
X-18138000Y25082000D03*
G04 #@! TO.P,A1,24*
G04 #@! TO.N,Net-(A1-Pad24)*
X-2898000Y20002000D03*
G04 #@! TO.P,A1,8*
G04 #@! TO.N,/S3*
X-18138000Y22542000D03*
G04 #@! TO.P,A1,23*
G04 #@! TO.N,Net-(A1-Pad23)*
X-2898000Y22542000D03*
G04 #@! TO.P,A1,7*
G04 #@! TO.N,/S2*
X-18138000Y20002000D03*
G04 #@! TO.P,A1,22*
G04 #@! TO.N,Net-(A1-Pad22)*
X-2898000Y25082000D03*
G04 #@! TO.P,A1,6*
G04 #@! TO.N,/S1*
X-18138000Y17462000D03*
G04 #@! TO.P,A1,21*
G04 #@! TO.N,Net-(A1-Pad21)*
X-2898000Y27622000D03*
G04 #@! TO.P,A1,5*
G04 #@! TO.N,/LED*
X-18138000Y14922000D03*
G04 #@! TO.P,A1,20*
G04 #@! TO.N,Net-(A1-Pad20)*
X-2898000Y30162000D03*
G04 #@! TO.P,A1,4*
G04 #@! TO.N,GND*
X-18138000Y12382000D03*
G04 #@! TO.P,A1,19*
G04 #@! TO.N,Net-(A1-Pad19)*
X-2898000Y32702000D03*
G04 #@! TO.P,A1,3*
G04 #@! TO.N,Net-(A1-Pad3)*
X-18138000Y9842000D03*
G04 #@! TO.P,A1,18*
G04 #@! TO.N,Net-(A1-Pad18)*
X-2898000Y35242000D03*
G04 #@! TO.P,A1,2*
G04 #@! TO.N,Net-(A1-Pad2)*
X-18138000Y7302000D03*
G04 #@! TO.P,A1,17*
G04 #@! TO.N,Net-(A1-Pad17)*
X-2898000Y37782000D03*
D25*
G04 #@! TO.P,A1,1*
G04 #@! TO.N,Net-(A1-Pad1)*
X-18138000Y4762000D03*
G04 #@! TD*
D26*
G04 #@! TO.P,U2,18*
G04 #@! TO.N,+5V*
X-34018000Y21574000D03*
G04 #@! TO.P,U2,17*
G04 #@! TO.N,/CAN_RST*
X-34018000Y20304000D03*
G04 #@! TO.P,U2,16*
G04 #@! TO.N,/CS*
X-34018000Y19034000D03*
G04 #@! TO.P,U2,15*
G04 #@! TO.N,/SO*
X-34018000Y17764000D03*
G04 #@! TO.P,U2,14*
G04 #@! TO.N,/SI*
X-34018000Y16494000D03*
G04 #@! TO.P,U2,13*
G04 #@! TO.N,/SCK*
X-34018000Y15224000D03*
G04 #@! TO.P,U2,12*
G04 #@! TO.N,/int*
X-34018000Y13954000D03*
G04 #@! TO.P,U2,11*
G04 #@! TO.N,Net-(U2-Pad11)*
X-34018000Y12684000D03*
G04 #@! TO.P,U2,10*
G04 #@! TO.N,Net-(U2-Pad10)*
X-34018000Y11414000D03*
G04 #@! TO.P,U2,9*
G04 #@! TO.N,GND*
X-43418000Y11414000D03*
G04 #@! TO.P,U2,8*
G04 #@! TO.N,Net-(C4-Pad2)*
X-43418000Y12684000D03*
G04 #@! TO.P,U2,7*
G04 #@! TO.N,Net-(C3-Pad2)*
X-43418000Y13954000D03*
G04 #@! TO.P,U2,6*
G04 #@! TO.N,Net-(U2-Pad6)*
X-43418000Y15224000D03*
G04 #@! TO.P,U2,5*
G04 #@! TO.N,Net-(U2-Pad5)*
X-43418000Y16494000D03*
G04 #@! TO.P,U2,4*
G04 #@! TO.N,Net-(U2-Pad4)*
X-43418000Y17764000D03*
G04 #@! TO.P,U2,3*
G04 #@! TO.N,Net-(U2-Pad3)*
X-43418000Y19034000D03*
G04 #@! TO.P,U2,2*
G04 #@! TO.N,/RXD*
X-43418000Y20304000D03*
G04 #@! TO.P,U2,1*
G04 #@! TO.N,/TXD*
X-43418000Y21574000D03*
G04 #@! TD*
D27*
G04 #@! TO.P,U1,8*
G04 #@! TO.N,/XCDR_RST*
X-41887000Y30449000D03*
G04 #@! TO.P,U1,7*
G04 #@! TO.N,/CANH*
X-40617000Y30449000D03*
G04 #@! TO.P,U1,6*
G04 #@! TO.N,/CANL*
X-39347000Y30449000D03*
G04 #@! TO.P,U1,5*
G04 #@! TO.N,Net-(U1-Pad5)*
X-38077000Y30449000D03*
G04 #@! TO.P,U1,4*
G04 #@! TO.N,/RXD*
X-38077000Y25049000D03*
G04 #@! TO.P,U1,3*
G04 #@! TO.N,+5V*
X-39347000Y25049000D03*
G04 #@! TO.P,U1,2*
G04 #@! TO.N,GND*
X-40617000Y25049000D03*
G04 #@! TO.P,U1,1*
G04 #@! TO.N,/TXD*
X-41887000Y25049000D03*
G04 #@! TD*
D14*
G04 #@! TO.N,/S2*
G04 #@! TO.C,R5*
G36*
X-40775496Y6373796D02*
X-40751227Y6370196D01*
X-40727429Y6364235D01*
X-40704329Y6355970D01*
X-40682151Y6345480D01*
X-40661107Y6332867D01*
X-40641402Y6318253D01*
X-40623223Y6301777D01*
X-40606747Y6283598D01*
X-40592133Y6263893D01*
X-40579520Y6242849D01*
X-40569030Y6220671D01*
X-40560765Y6197571D01*
X-40554804Y6173773D01*
X-40551204Y6149504D01*
X-40550000Y6125000D01*
X-40550000Y4875000D01*
X-40551204Y4850496D01*
X-40554804Y4826227D01*
X-40560765Y4802429D01*
X-40569030Y4779329D01*
X-40579520Y4757151D01*
X-40592133Y4736107D01*
X-40606747Y4716402D01*
X-40623223Y4698223D01*
X-40641402Y4681747D01*
X-40661107Y4667133D01*
X-40682151Y4654520D01*
X-40704329Y4644030D01*
X-40727429Y4635765D01*
X-40751227Y4629804D01*
X-40775496Y4626204D01*
X-40800000Y4625000D01*
X-41725000Y4625000D01*
X-41749504Y4626204D01*
X-41773773Y4629804D01*
X-41797571Y4635765D01*
X-41820671Y4644030D01*
X-41842849Y4654520D01*
X-41863893Y4667133D01*
X-41883598Y4681747D01*
X-41901777Y4698223D01*
X-41918253Y4716402D01*
X-41932867Y4736107D01*
X-41945480Y4757151D01*
X-41955970Y4779329D01*
X-41964235Y4802429D01*
X-41970196Y4826227D01*
X-41973796Y4850496D01*
X-41975000Y4875000D01*
X-41975000Y6125000D01*
X-41973796Y6149504D01*
X-41970196Y6173773D01*
X-41964235Y6197571D01*
X-41955970Y6220671D01*
X-41945480Y6242849D01*
X-41932867Y6263893D01*
X-41918253Y6283598D01*
X-41901777Y6301777D01*
X-41883598Y6318253D01*
X-41863893Y6332867D01*
X-41842849Y6345480D01*
X-41820671Y6355970D01*
X-41797571Y6364235D01*
X-41773773Y6370196D01*
X-41749504Y6373796D01*
X-41725000Y6375000D01*
X-40800000Y6375000D01*
X-40775496Y6373796D01*
X-40775496Y6373796D01*
G37*
D15*
G04 #@! TD*
G04 #@! TO.P,R5,2*
G04 #@! TO.N,/S2*
X-41262500Y5500000D03*
D14*
G04 #@! TO.N,GND*
G04 #@! TO.C,R5*
G36*
X-43750496Y6373796D02*
X-43726227Y6370196D01*
X-43702429Y6364235D01*
X-43679329Y6355970D01*
X-43657151Y6345480D01*
X-43636107Y6332867D01*
X-43616402Y6318253D01*
X-43598223Y6301777D01*
X-43581747Y6283598D01*
X-43567133Y6263893D01*
X-43554520Y6242849D01*
X-43544030Y6220671D01*
X-43535765Y6197571D01*
X-43529804Y6173773D01*
X-43526204Y6149504D01*
X-43525000Y6125000D01*
X-43525000Y4875000D01*
X-43526204Y4850496D01*
X-43529804Y4826227D01*
X-43535765Y4802429D01*
X-43544030Y4779329D01*
X-43554520Y4757151D01*
X-43567133Y4736107D01*
X-43581747Y4716402D01*
X-43598223Y4698223D01*
X-43616402Y4681747D01*
X-43636107Y4667133D01*
X-43657151Y4654520D01*
X-43679329Y4644030D01*
X-43702429Y4635765D01*
X-43726227Y4629804D01*
X-43750496Y4626204D01*
X-43775000Y4625000D01*
X-44700000Y4625000D01*
X-44724504Y4626204D01*
X-44748773Y4629804D01*
X-44772571Y4635765D01*
X-44795671Y4644030D01*
X-44817849Y4654520D01*
X-44838893Y4667133D01*
X-44858598Y4681747D01*
X-44876777Y4698223D01*
X-44893253Y4716402D01*
X-44907867Y4736107D01*
X-44920480Y4757151D01*
X-44930970Y4779329D01*
X-44939235Y4802429D01*
X-44945196Y4826227D01*
X-44948796Y4850496D01*
X-44950000Y4875000D01*
X-44950000Y6125000D01*
X-44948796Y6149504D01*
X-44945196Y6173773D01*
X-44939235Y6197571D01*
X-44930970Y6220671D01*
X-44920480Y6242849D01*
X-44907867Y6263893D01*
X-44893253Y6283598D01*
X-44876777Y6301777D01*
X-44858598Y6318253D01*
X-44838893Y6332867D01*
X-44817849Y6345480D01*
X-44795671Y6355970D01*
X-44772571Y6364235D01*
X-44748773Y6370196D01*
X-44724504Y6373796D01*
X-44700000Y6375000D01*
X-43775000Y6375000D01*
X-43750496Y6373796D01*
X-43750496Y6373796D01*
G37*
D15*
G04 #@! TD*
G04 #@! TO.P,R5,1*
G04 #@! TO.N,GND*
X-44237500Y5500000D03*
D14*
G04 #@! TO.N,/S1*
G04 #@! TO.C,R4*
G36*
X-30525496Y6373796D02*
X-30501227Y6370196D01*
X-30477429Y6364235D01*
X-30454329Y6355970D01*
X-30432151Y6345480D01*
X-30411107Y6332867D01*
X-30391402Y6318253D01*
X-30373223Y6301777D01*
X-30356747Y6283598D01*
X-30342133Y6263893D01*
X-30329520Y6242849D01*
X-30319030Y6220671D01*
X-30310765Y6197571D01*
X-30304804Y6173773D01*
X-30301204Y6149504D01*
X-30300000Y6125000D01*
X-30300000Y4875000D01*
X-30301204Y4850496D01*
X-30304804Y4826227D01*
X-30310765Y4802429D01*
X-30319030Y4779329D01*
X-30329520Y4757151D01*
X-30342133Y4736107D01*
X-30356747Y4716402D01*
X-30373223Y4698223D01*
X-30391402Y4681747D01*
X-30411107Y4667133D01*
X-30432151Y4654520D01*
X-30454329Y4644030D01*
X-30477429Y4635765D01*
X-30501227Y4629804D01*
X-30525496Y4626204D01*
X-30550000Y4625000D01*
X-31475000Y4625000D01*
X-31499504Y4626204D01*
X-31523773Y4629804D01*
X-31547571Y4635765D01*
X-31570671Y4644030D01*
X-31592849Y4654520D01*
X-31613893Y4667133D01*
X-31633598Y4681747D01*
X-31651777Y4698223D01*
X-31668253Y4716402D01*
X-31682867Y4736107D01*
X-31695480Y4757151D01*
X-31705970Y4779329D01*
X-31714235Y4802429D01*
X-31720196Y4826227D01*
X-31723796Y4850496D01*
X-31725000Y4875000D01*
X-31725000Y6125000D01*
X-31723796Y6149504D01*
X-31720196Y6173773D01*
X-31714235Y6197571D01*
X-31705970Y6220671D01*
X-31695480Y6242849D01*
X-31682867Y6263893D01*
X-31668253Y6283598D01*
X-31651777Y6301777D01*
X-31633598Y6318253D01*
X-31613893Y6332867D01*
X-31592849Y6345480D01*
X-31570671Y6355970D01*
X-31547571Y6364235D01*
X-31523773Y6370196D01*
X-31499504Y6373796D01*
X-31475000Y6375000D01*
X-30550000Y6375000D01*
X-30525496Y6373796D01*
X-30525496Y6373796D01*
G37*
D15*
G04 #@! TD*
G04 #@! TO.P,R4,2*
G04 #@! TO.N,/S1*
X-31012500Y5500000D03*
D14*
G04 #@! TO.N,GND*
G04 #@! TO.C,R4*
G36*
X-33500496Y6373796D02*
X-33476227Y6370196D01*
X-33452429Y6364235D01*
X-33429329Y6355970D01*
X-33407151Y6345480D01*
X-33386107Y6332867D01*
X-33366402Y6318253D01*
X-33348223Y6301777D01*
X-33331747Y6283598D01*
X-33317133Y6263893D01*
X-33304520Y6242849D01*
X-33294030Y6220671D01*
X-33285765Y6197571D01*
X-33279804Y6173773D01*
X-33276204Y6149504D01*
X-33275000Y6125000D01*
X-33275000Y4875000D01*
X-33276204Y4850496D01*
X-33279804Y4826227D01*
X-33285765Y4802429D01*
X-33294030Y4779329D01*
X-33304520Y4757151D01*
X-33317133Y4736107D01*
X-33331747Y4716402D01*
X-33348223Y4698223D01*
X-33366402Y4681747D01*
X-33386107Y4667133D01*
X-33407151Y4654520D01*
X-33429329Y4644030D01*
X-33452429Y4635765D01*
X-33476227Y4629804D01*
X-33500496Y4626204D01*
X-33525000Y4625000D01*
X-34450000Y4625000D01*
X-34474504Y4626204D01*
X-34498773Y4629804D01*
X-34522571Y4635765D01*
X-34545671Y4644030D01*
X-34567849Y4654520D01*
X-34588893Y4667133D01*
X-34608598Y4681747D01*
X-34626777Y4698223D01*
X-34643253Y4716402D01*
X-34657867Y4736107D01*
X-34670480Y4757151D01*
X-34680970Y4779329D01*
X-34689235Y4802429D01*
X-34695196Y4826227D01*
X-34698796Y4850496D01*
X-34700000Y4875000D01*
X-34700000Y6125000D01*
X-34698796Y6149504D01*
X-34695196Y6173773D01*
X-34689235Y6197571D01*
X-34680970Y6220671D01*
X-34670480Y6242849D01*
X-34657867Y6263893D01*
X-34643253Y6283598D01*
X-34626777Y6301777D01*
X-34608598Y6318253D01*
X-34588893Y6332867D01*
X-34567849Y6345480D01*
X-34545671Y6355970D01*
X-34522571Y6364235D01*
X-34498773Y6370196D01*
X-34474504Y6373796D01*
X-34450000Y6375000D01*
X-33525000Y6375000D01*
X-33500496Y6373796D01*
X-33500496Y6373796D01*
G37*
D15*
G04 #@! TD*
G04 #@! TO.P,R4,1*
G04 #@! TO.N,GND*
X-33987500Y5500000D03*
D14*
G04 #@! TO.N,Net-(J3-Pad1)*
G04 #@! TO.C,R2*
G36*
X-35750496Y34623796D02*
X-35726227Y34620196D01*
X-35702429Y34614235D01*
X-35679329Y34605970D01*
X-35657151Y34595480D01*
X-35636107Y34582867D01*
X-35616402Y34568253D01*
X-35598223Y34551777D01*
X-35581747Y34533598D01*
X-35567133Y34513893D01*
X-35554520Y34492849D01*
X-35544030Y34470671D01*
X-35535765Y34447571D01*
X-35529804Y34423773D01*
X-35526204Y34399504D01*
X-35525000Y34375000D01*
X-35525000Y33125000D01*
X-35526204Y33100496D01*
X-35529804Y33076227D01*
X-35535765Y33052429D01*
X-35544030Y33029329D01*
X-35554520Y33007151D01*
X-35567133Y32986107D01*
X-35581747Y32966402D01*
X-35598223Y32948223D01*
X-35616402Y32931747D01*
X-35636107Y32917133D01*
X-35657151Y32904520D01*
X-35679329Y32894030D01*
X-35702429Y32885765D01*
X-35726227Y32879804D01*
X-35750496Y32876204D01*
X-35775000Y32875000D01*
X-36700000Y32875000D01*
X-36724504Y32876204D01*
X-36748773Y32879804D01*
X-36772571Y32885765D01*
X-36795671Y32894030D01*
X-36817849Y32904520D01*
X-36838893Y32917133D01*
X-36858598Y32931747D01*
X-36876777Y32948223D01*
X-36893253Y32966402D01*
X-36907867Y32986107D01*
X-36920480Y33007151D01*
X-36930970Y33029329D01*
X-36939235Y33052429D01*
X-36945196Y33076227D01*
X-36948796Y33100496D01*
X-36950000Y33125000D01*
X-36950000Y34375000D01*
X-36948796Y34399504D01*
X-36945196Y34423773D01*
X-36939235Y34447571D01*
X-36930970Y34470671D01*
X-36920480Y34492849D01*
X-36907867Y34513893D01*
X-36893253Y34533598D01*
X-36876777Y34551777D01*
X-36858598Y34568253D01*
X-36838893Y34582867D01*
X-36817849Y34595480D01*
X-36795671Y34605970D01*
X-36772571Y34614235D01*
X-36748773Y34620196D01*
X-36724504Y34623796D01*
X-36700000Y34625000D01*
X-35775000Y34625000D01*
X-35750496Y34623796D01*
X-35750496Y34623796D01*
G37*
D15*
G04 #@! TD*
G04 #@! TO.P,R2,2*
G04 #@! TO.N,Net-(J3-Pad1)*
X-36237500Y33750000D03*
D14*
G04 #@! TO.N,/CANL*
G04 #@! TO.C,R2*
G36*
X-32775496Y34623796D02*
X-32751227Y34620196D01*
X-32727429Y34614235D01*
X-32704329Y34605970D01*
X-32682151Y34595480D01*
X-32661107Y34582867D01*
X-32641402Y34568253D01*
X-32623223Y34551777D01*
X-32606747Y34533598D01*
X-32592133Y34513893D01*
X-32579520Y34492849D01*
X-32569030Y34470671D01*
X-32560765Y34447571D01*
X-32554804Y34423773D01*
X-32551204Y34399504D01*
X-32550000Y34375000D01*
X-32550000Y33125000D01*
X-32551204Y33100496D01*
X-32554804Y33076227D01*
X-32560765Y33052429D01*
X-32569030Y33029329D01*
X-32579520Y33007151D01*
X-32592133Y32986107D01*
X-32606747Y32966402D01*
X-32623223Y32948223D01*
X-32641402Y32931747D01*
X-32661107Y32917133D01*
X-32682151Y32904520D01*
X-32704329Y32894030D01*
X-32727429Y32885765D01*
X-32751227Y32879804D01*
X-32775496Y32876204D01*
X-32800000Y32875000D01*
X-33725000Y32875000D01*
X-33749504Y32876204D01*
X-33773773Y32879804D01*
X-33797571Y32885765D01*
X-33820671Y32894030D01*
X-33842849Y32904520D01*
X-33863893Y32917133D01*
X-33883598Y32931747D01*
X-33901777Y32948223D01*
X-33918253Y32966402D01*
X-33932867Y32986107D01*
X-33945480Y33007151D01*
X-33955970Y33029329D01*
X-33964235Y33052429D01*
X-33970196Y33076227D01*
X-33973796Y33100496D01*
X-33975000Y33125000D01*
X-33975000Y34375000D01*
X-33973796Y34399504D01*
X-33970196Y34423773D01*
X-33964235Y34447571D01*
X-33955970Y34470671D01*
X-33945480Y34492849D01*
X-33932867Y34513893D01*
X-33918253Y34533598D01*
X-33901777Y34551777D01*
X-33883598Y34568253D01*
X-33863893Y34582867D01*
X-33842849Y34595480D01*
X-33820671Y34605970D01*
X-33797571Y34614235D01*
X-33773773Y34620196D01*
X-33749504Y34623796D01*
X-33725000Y34625000D01*
X-32800000Y34625000D01*
X-32775496Y34623796D01*
X-32775496Y34623796D01*
G37*
D15*
G04 #@! TD*
G04 #@! TO.P,R2,1*
G04 #@! TO.N,/CANL*
X-33262500Y33750000D03*
D14*
G04 #@! TO.N,/Vin*
G04 #@! TO.C,R1*
G36*
X-38350496Y37473796D02*
X-38326227Y37470196D01*
X-38302429Y37464235D01*
X-38279329Y37455970D01*
X-38257151Y37445480D01*
X-38236107Y37432867D01*
X-38216402Y37418253D01*
X-38198223Y37401777D01*
X-38181747Y37383598D01*
X-38167133Y37363893D01*
X-38154520Y37342849D01*
X-38144030Y37320671D01*
X-38135765Y37297571D01*
X-38129804Y37273773D01*
X-38126204Y37249504D01*
X-38125000Y37225000D01*
X-38125000Y36300000D01*
X-38126204Y36275496D01*
X-38129804Y36251227D01*
X-38135765Y36227429D01*
X-38144030Y36204329D01*
X-38154520Y36182151D01*
X-38167133Y36161107D01*
X-38181747Y36141402D01*
X-38198223Y36123223D01*
X-38216402Y36106747D01*
X-38236107Y36092133D01*
X-38257151Y36079520D01*
X-38279329Y36069030D01*
X-38302429Y36060765D01*
X-38326227Y36054804D01*
X-38350496Y36051204D01*
X-38375000Y36050000D01*
X-39625000Y36050000D01*
X-39649504Y36051204D01*
X-39673773Y36054804D01*
X-39697571Y36060765D01*
X-39720671Y36069030D01*
X-39742849Y36079520D01*
X-39763893Y36092133D01*
X-39783598Y36106747D01*
X-39801777Y36123223D01*
X-39818253Y36141402D01*
X-39832867Y36161107D01*
X-39845480Y36182151D01*
X-39855970Y36204329D01*
X-39864235Y36227429D01*
X-39870196Y36251227D01*
X-39873796Y36275496D01*
X-39875000Y36300000D01*
X-39875000Y37225000D01*
X-39873796Y37249504D01*
X-39870196Y37273773D01*
X-39864235Y37297571D01*
X-39855970Y37320671D01*
X-39845480Y37342849D01*
X-39832867Y37363893D01*
X-39818253Y37383598D01*
X-39801777Y37401777D01*
X-39783598Y37418253D01*
X-39763893Y37432867D01*
X-39742849Y37445480D01*
X-39720671Y37455970D01*
X-39697571Y37464235D01*
X-39673773Y37470196D01*
X-39649504Y37473796D01*
X-39625000Y37475000D01*
X-38375000Y37475000D01*
X-38350496Y37473796D01*
X-38350496Y37473796D01*
G37*
D15*
G04 #@! TD*
G04 #@! TO.P,R1,2*
G04 #@! TO.N,/Vin*
X-39000000Y36762500D03*
D14*
G04 #@! TO.N,Net-(D2-Pad1)*
G04 #@! TO.C,R1*
G36*
X-38350496Y40448796D02*
X-38326227Y40445196D01*
X-38302429Y40439235D01*
X-38279329Y40430970D01*
X-38257151Y40420480D01*
X-38236107Y40407867D01*
X-38216402Y40393253D01*
X-38198223Y40376777D01*
X-38181747Y40358598D01*
X-38167133Y40338893D01*
X-38154520Y40317849D01*
X-38144030Y40295671D01*
X-38135765Y40272571D01*
X-38129804Y40248773D01*
X-38126204Y40224504D01*
X-38125000Y40200000D01*
X-38125000Y39275000D01*
X-38126204Y39250496D01*
X-38129804Y39226227D01*
X-38135765Y39202429D01*
X-38144030Y39179329D01*
X-38154520Y39157151D01*
X-38167133Y39136107D01*
X-38181747Y39116402D01*
X-38198223Y39098223D01*
X-38216402Y39081747D01*
X-38236107Y39067133D01*
X-38257151Y39054520D01*
X-38279329Y39044030D01*
X-38302429Y39035765D01*
X-38326227Y39029804D01*
X-38350496Y39026204D01*
X-38375000Y39025000D01*
X-39625000Y39025000D01*
X-39649504Y39026204D01*
X-39673773Y39029804D01*
X-39697571Y39035765D01*
X-39720671Y39044030D01*
X-39742849Y39054520D01*
X-39763893Y39067133D01*
X-39783598Y39081747D01*
X-39801777Y39098223D01*
X-39818253Y39116402D01*
X-39832867Y39136107D01*
X-39845480Y39157151D01*
X-39855970Y39179329D01*
X-39864235Y39202429D01*
X-39870196Y39226227D01*
X-39873796Y39250496D01*
X-39875000Y39275000D01*
X-39875000Y40200000D01*
X-39873796Y40224504D01*
X-39870196Y40248773D01*
X-39864235Y40272571D01*
X-39855970Y40295671D01*
X-39845480Y40317849D01*
X-39832867Y40338893D01*
X-39818253Y40358598D01*
X-39801777Y40376777D01*
X-39783598Y40393253D01*
X-39763893Y40407867D01*
X-39742849Y40420480D01*
X-39720671Y40430970D01*
X-39697571Y40439235D01*
X-39673773Y40445196D01*
X-39649504Y40448796D01*
X-39625000Y40450000D01*
X-38375000Y40450000D01*
X-38350496Y40448796D01*
X-38350496Y40448796D01*
G37*
D15*
G04 #@! TD*
G04 #@! TO.P,R1,1*
G04 #@! TO.N,Net-(D2-Pad1)*
X-39000000Y39737500D03*
D28*
G04 #@! TO.N,/Vin*
X-32300000Y31799998D03*
X-45455709Y31845964D03*
G04 #@! TO.N,GND*
X-52000000Y36750000D03*
X-52000000Y33449990D03*
G04 #@! TO.N,/XCDR_RST*
X-23250000Y29750000D03*
X-30250000Y29750000D03*
G04 #@! TO.N,/CAN_RST*
X-23000000Y22500000D03*
X-28250000Y21250000D03*
G04 #@! TO.N,/SCK*
X-7750000Y20500000D03*
X-30250000Y15193990D03*
G04 #@! TD*
D29*
G04 #@! TO.N,Net-(D1-Pad2)*
X-22057095Y4758250D02*
X-22619595Y4195750D01*
X-22057095Y8000000D02*
X-22057095Y4758250D01*
G04 #@! TO.N,/Vin*
X-39082537Y36679963D02*
X-39000000Y36762500D01*
X-41920000Y36679963D02*
X-39082537Y36679963D01*
X-55460000Y43944366D02*
X-55460000Y45500000D01*
X-56175010Y35443622D02*
X-56175010Y43229356D01*
X-56175010Y43229356D02*
X-55460000Y43944366D01*
X-46474990Y34750000D02*
X-55481388Y34750000D01*
X-55481388Y34750000D02*
X-56175010Y35443622D01*
X-46250000Y34974990D02*
X-46474990Y34750000D01*
X-43624973Y34974990D02*
X-46250000Y34974990D01*
X-41920000Y36679963D02*
X-43624973Y34974990D01*
X-32025742Y31799998D02*
X-32300000Y31799998D01*
X-27145777Y36679963D02*
X-32025742Y31799998D01*
X-46205708Y32595963D02*
X-45455709Y31845964D01*
X-46250000Y32640255D02*
X-46205708Y32595963D01*
X-46250000Y34974990D02*
X-46250000Y32640255D01*
G04 #@! TO.N,+5V*
X-34468000Y22024000D02*
X-34018000Y21574000D01*
X-34468000Y24006500D02*
X-34468000Y22024000D01*
X-36499999Y2499999D02*
X-35500000Y1500000D01*
X-37050001Y3050001D02*
X-36499999Y2499999D01*
X-44199999Y3050001D02*
X-37050001Y3050001D01*
X-45750000Y1500000D02*
X-44199999Y3050001D01*
X-51755999Y3050001D02*
X-51705998Y3000000D01*
X-51705998Y3000000D02*
X-47250000Y3000000D01*
X-53244001Y3050001D02*
X-51755999Y3050001D01*
X-53294002Y3000000D02*
X-53244001Y3050001D01*
X-47250000Y3000000D02*
X-45750000Y1500000D01*
X-55500000Y3000000D02*
X-53294002Y3000000D01*
X-57000000Y1500000D02*
X-55500000Y3000000D01*
X-37111478Y26649978D02*
X-39021022Y26649978D01*
X-39347000Y26324000D02*
X-39347000Y25049000D01*
X-34468000Y24006500D02*
X-37111478Y26649978D01*
X-39021022Y26649978D02*
X-39347000Y26324000D01*
X-38000000Y13900000D02*
X-38000000Y20474500D01*
X-38000000Y20474500D02*
X-34468000Y24006500D01*
X-41500000Y10400000D02*
X-38000000Y13900000D01*
X-57000000Y8000000D02*
X-54600000Y10400000D01*
X-54600000Y10400000D02*
X-41500000Y10400000D01*
X-28750000Y22768612D02*
X-29944612Y21574000D01*
X-29944612Y21574000D02*
X-32518000Y21574000D01*
X-28750000Y31750000D02*
X-28750000Y22768612D01*
X-21200000Y39300000D02*
X-28750000Y31750000D01*
X-4882000Y12382000D02*
X-15250000Y22750000D01*
X-2898000Y12382000D02*
X-4882000Y12382000D01*
X-21200000Y40731386D02*
X-21200000Y39300000D01*
X-15250000Y22750000D02*
X-15250000Y41500000D01*
X-16550000Y42800000D02*
X-19131386Y42800000D01*
X-32518000Y21574000D02*
X-34018000Y21574000D01*
X-15250000Y41500000D02*
X-16550000Y42800000D01*
X-19131386Y42800000D02*
X-21200000Y40731386D01*
D30*
G04 #@! TO.N,GND*
X-3179000Y7302000D02*
X-2898000Y7302000D01*
X-3369500Y7302000D02*
X-2898000Y7302000D01*
D29*
X-19269370Y12382000D02*
X-18138000Y12382000D01*
X-19893983Y12382000D02*
X-19269370Y12382000D01*
X-23711723Y8564260D02*
X-19893983Y12382000D01*
X-23711723Y7043622D02*
X-23711723Y8564260D01*
X-25159595Y5595750D02*
X-23711723Y7043622D01*
X-25159595Y4195750D02*
X-25159595Y5595750D01*
X-43418000Y11414000D02*
X-44118000Y11414000D01*
X-30724000Y23237500D02*
X-30500000Y23237500D01*
X-34468000Y26981500D02*
X-30724000Y23237500D01*
X-2988500Y7392500D02*
X-2898000Y7302000D01*
X-6327000Y7392500D02*
X-2988500Y7392500D01*
X-11316500Y12382000D02*
X-6327000Y7392500D01*
X-18138000Y12382000D02*
X-11316500Y12382000D01*
X-54703653Y4728653D02*
X-55475000Y5500000D01*
X-54049990Y4074990D02*
X-54703653Y4728653D01*
X-45662510Y4074990D02*
X-54049990Y4074990D01*
X-44237500Y5500000D02*
X-45662510Y4074990D01*
X-33216153Y4728653D02*
X-33987500Y5500000D01*
X-32562490Y4074990D02*
X-33216153Y4728653D01*
X-26680355Y4074990D02*
X-32562490Y4074990D01*
X-26559595Y4195750D02*
X-26680355Y4074990D01*
X-25159595Y4195750D02*
X-26559595Y4195750D01*
X-33987500Y5262500D02*
X-33987500Y5500000D01*
X-35399989Y3850011D02*
X-33987500Y5262500D01*
X-42587511Y3850011D02*
X-35399989Y3850011D01*
X-44237500Y5500000D02*
X-42587511Y3850011D01*
X-34468000Y26981500D02*
X-35893000Y26981500D01*
X-35893000Y26981500D02*
X-36361489Y27449989D01*
X-36361489Y27449989D02*
X-39491011Y27449989D01*
X-54750000Y33262500D02*
X-52000000Y33262500D01*
X-45730000Y37959963D02*
X-45730000Y39219963D01*
X-46939963Y36750000D02*
X-45730000Y37959963D01*
X-52000000Y36750000D02*
X-46939963Y36750000D01*
X-52000000Y33262500D02*
X-52000000Y33449990D01*
X-52000000Y33262500D02*
X-48692498Y33262500D01*
X-44817347Y28048847D02*
X-44046000Y27277500D01*
X-55911000Y20534500D02*
X-54936000Y20534500D01*
X-48692498Y33262500D02*
X-46494999Y31065001D01*
X-46494999Y31065001D02*
X-46494999Y29726499D01*
X-46494999Y29726499D02*
X-44817347Y28048847D01*
X-44046000Y27277500D02*
X-41570500Y27277500D01*
X-41570500Y27277500D02*
X-40617000Y26324000D01*
X-40617000Y26324000D02*
X-40617000Y25049000D01*
X-39491011Y27449989D02*
X-40617000Y26324000D01*
G04 #@! TO.N,/TXD*
X-41887000Y23105000D02*
X-43418000Y21574000D01*
X-41887000Y25049000D02*
X-41887000Y23105000D01*
G04 #@! TO.N,/RXD*
X-38077000Y23774000D02*
X-38077000Y25049000D01*
X-41547000Y20304000D02*
X-38077000Y23774000D01*
X-43418000Y20304000D02*
X-41547000Y20304000D01*
G04 #@! TO.N,/CANL*
X-39347000Y30449000D02*
X-39347000Y31244002D01*
X-33262500Y35182488D02*
X-33262500Y33750000D01*
X-31153252Y35182488D02*
X-29655777Y36679963D01*
X-33262500Y35182488D02*
X-31153252Y35182488D01*
X-39000000Y31849999D02*
X-39347000Y31502999D01*
X-39347000Y31502999D02*
X-39347000Y30449000D01*
X-33262500Y33750000D02*
X-35162501Y31849999D01*
X-35162501Y31849999D02*
X-39000000Y31849999D01*
X-35201100Y35182488D02*
X-38043622Y38025010D01*
X-33262500Y35182488D02*
X-35201100Y35182488D01*
X-43098803Y37439962D02*
X-43670001Y37439962D01*
X-38043622Y38025010D02*
X-42513755Y38025010D01*
X-43670001Y37439962D02*
X-44430000Y36679963D01*
X-42513755Y38025010D02*
X-43098803Y37439962D01*
G04 #@! TO.N,/CANH*
X-40617000Y30449000D02*
X-40617000Y31244002D01*
X-42420000Y33380000D02*
X-42040000Y33000000D01*
X-40617000Y31577000D02*
X-40617000Y31244002D01*
X-42040000Y33000000D02*
X-40617000Y31577000D01*
X-44190001Y43450001D02*
X-44500000Y43140002D01*
X-39609998Y43250000D02*
X-39809999Y43450001D01*
X-31341012Y43250000D02*
X-39609998Y43250000D01*
X-28385777Y39219963D02*
X-28385777Y40294765D01*
X-39809999Y43450001D02*
X-44190001Y43450001D01*
X-28385777Y40294765D02*
X-31341012Y43250000D01*
X-44500000Y43140002D02*
X-44500000Y40559963D01*
X-44500000Y40559963D02*
X-43160000Y39219963D01*
X-27310975Y39219963D02*
X-28385777Y39219963D01*
X-40617000Y29174000D02*
X-40566999Y29123999D01*
X-40617000Y30449000D02*
X-40617000Y29174000D01*
X-32762939Y29123999D02*
X-25700000Y36186938D01*
X-40566999Y29123999D02*
X-32762939Y29123999D01*
X-25700000Y36186938D02*
X-25700000Y37608988D01*
X-25700000Y37608988D02*
X-27310975Y39219963D01*
G04 #@! TO.N,Net-(C3-Pad2)*
X-52020000Y25741500D02*
X-50745000Y27016500D01*
X-54936000Y25741500D02*
X-52020000Y25741500D01*
X-47200000Y25742500D02*
X-49245000Y27787500D01*
X-47200000Y16100000D02*
X-47200000Y25742500D01*
X-43418000Y13954000D02*
X-45054000Y13954000D01*
X-49245000Y27787500D02*
X-50745000Y27787500D01*
X-45054000Y13954000D02*
X-47200000Y16100000D01*
G04 #@! TO.N,Net-(C4-Pad2)*
X-52518000Y15141500D02*
X-50745000Y15141500D01*
X-54936000Y17559500D02*
X-52518000Y15141500D01*
X-49512500Y15912500D02*
X-50745000Y15912500D01*
X-43418000Y12684000D02*
X-46284000Y12684000D01*
X-46284000Y12684000D02*
X-49512500Y15912500D01*
G04 #@! TO.N,/int*
X-29326011Y13893989D02*
X-18937999Y24282001D01*
X-18937999Y24282001D02*
X-18138000Y25082000D01*
X-34018000Y13954000D02*
X-32518000Y13954000D01*
X-32518000Y13954000D02*
X-32457989Y13893989D01*
X-32457989Y13893989D02*
X-29326011Y13893989D01*
G04 #@! TO.N,Net-(D2-Pad1)*
X-41512500Y42250000D02*
X-39000000Y39737500D01*
X-42000000Y42250000D02*
X-41512500Y42250000D01*
X-39000000Y39737500D02*
X-37050000Y40200000D01*
G04 #@! TO.N,/LED*
X-19269370Y14922000D02*
X-18138000Y14922000D01*
X-25032095Y9159275D02*
X-19269370Y14922000D01*
X-25032095Y8000000D02*
X-25032095Y9159275D01*
G04 #@! TO.N,/S1*
X-19285750Y17462000D02*
X-18138000Y17462000D01*
X-28750000Y7997750D02*
X-19285750Y17462000D01*
X-28752250Y8000000D02*
X-31000000Y8000000D01*
X-28750000Y7997750D02*
X-28752250Y8000000D01*
X-31012500Y7987500D02*
X-31000000Y8000000D01*
X-31012500Y5500000D02*
X-31012500Y7987500D01*
G04 #@! TO.N,/S2*
X-41250000Y5512500D02*
X-41262500Y5500000D01*
X-41250000Y8000000D02*
X-41250000Y5512500D01*
X-34755999Y9550001D02*
X-36244001Y9550001D01*
X-36244001Y9550001D02*
X-36794003Y8999999D01*
X-36794003Y8999999D02*
X-40250001Y8999999D01*
X-40250001Y8999999D02*
X-41250000Y8000000D01*
X-31744001Y9550001D02*
X-31794013Y9499989D01*
X-34705987Y9499989D02*
X-34755999Y9550001D01*
X-31794013Y9499989D02*
X-34705987Y9499989D01*
X-18138000Y20002000D02*
X-28589999Y9550001D01*
X-28589999Y9550001D02*
X-31744001Y9550001D01*
G04 #@! TO.N,/S3*
X-52500000Y5500000D02*
X-52500000Y8000000D01*
X-18937999Y21742001D02*
X-18138000Y22542000D01*
X-30329988Y10350012D02*
X-18937999Y21742001D01*
X-32125388Y10300000D02*
X-32075376Y10350012D01*
X-34374612Y10300000D02*
X-32125388Y10300000D01*
X-34424624Y10350012D02*
X-34374612Y10300000D01*
X-52500000Y8000000D02*
X-48044002Y8000000D01*
X-32075376Y10350012D02*
X-30329988Y10350012D01*
X-41994001Y9550001D02*
X-40831383Y9550001D01*
X-40831383Y9550001D02*
X-40581375Y9800009D01*
X-48044002Y8000000D02*
X-46494001Y9550001D01*
X-46494001Y9550001D02*
X-45005999Y9550001D01*
X-45005999Y9550001D02*
X-44980987Y9524989D01*
X-44980987Y9524989D02*
X-42019013Y9524989D01*
X-37125379Y9800009D02*
X-36575376Y10350012D01*
X-42019013Y9524989D02*
X-41994001Y9550001D01*
X-40581375Y9800009D02*
X-37125379Y9800009D01*
X-36575376Y10350012D02*
X-34424624Y10350012D01*
G04 #@! TO.N,/XCDR_RST*
X-42083500Y30252500D02*
X-41887000Y30449000D01*
X-44046000Y30252500D02*
X-42083500Y30252500D01*
X-21090000Y29750000D02*
X-18138000Y32702000D01*
X-23250000Y29750000D02*
X-21090000Y29750000D01*
X-41887000Y30449000D02*
X-41887000Y29174000D01*
X-40963000Y28250000D02*
X-31750000Y28250000D01*
X-31750000Y28250000D02*
X-30999999Y29000001D01*
X-41887000Y29174000D02*
X-40963000Y28250000D01*
X-30999999Y29000001D02*
X-30250000Y29750000D01*
G04 #@! TO.N,/CAN_RST*
X-30547500Y20304000D02*
X-30487500Y20244000D01*
X-34018000Y20304000D02*
X-30547500Y20304000D01*
X-18138000Y27622000D02*
X-23000000Y22760000D01*
X-23000000Y22760000D02*
X-23000000Y22500000D01*
X-29417619Y20262500D02*
X-30500000Y20262500D01*
X-28250000Y21250000D02*
X-29417619Y20262500D01*
G04 #@! TO.N,/CS*
X-26750000Y20825998D02*
X-26750000Y32618614D01*
X-28576008Y18999990D02*
X-26750000Y20825998D01*
X-32483990Y18999990D02*
X-28576008Y18999990D01*
X-34018000Y19034000D02*
X-32518000Y19034000D01*
X-26750000Y32618614D02*
X-19488001Y39880613D01*
X-32518000Y19034000D02*
X-32483990Y18999990D01*
X-19488001Y41311999D02*
X-18800000Y42000000D01*
X-19488001Y39880613D02*
X-19488001Y41311999D01*
X-18800000Y42000000D02*
X-17200000Y42000000D01*
X-17200000Y42000000D02*
X-16500000Y41300000D01*
X-17338001Y36041999D02*
X-18138000Y35242000D01*
X-16500000Y41300000D02*
X-16500000Y36880000D01*
X-16500000Y36880000D02*
X-17338001Y36041999D01*
G04 #@! TO.N,/SO*
X-18138000Y40099228D02*
X-18138000Y40322000D01*
X-25649986Y32587242D02*
X-18138000Y40099228D01*
X-34018000Y17764000D02*
X-28680612Y17764000D01*
X-28680612Y17764000D02*
X-25649986Y20794626D01*
X-25649986Y20794626D02*
X-25649986Y32587242D01*
G04 #@! TO.N,/SI*
X-24750000Y31170000D02*
X-18000000Y37920000D01*
X-24750000Y20500000D02*
X-24750000Y31170000D01*
X-28756000Y16494000D02*
X-24750000Y20500000D01*
X-18000000Y37920000D02*
X-18138000Y37782000D01*
X-34018000Y16494000D02*
X-28756000Y16494000D01*
G04 #@! TO.N,/SCK*
X-3697999Y39522001D02*
X-2898000Y40322000D01*
X-7350001Y35869999D02*
X-3697999Y39522001D01*
X-7350001Y20899999D02*
X-7350001Y35869999D01*
X-7750000Y20500000D02*
X-7350001Y20899999D01*
X-30280010Y15224000D02*
X-30250000Y15193990D01*
X-34018000Y15224000D02*
X-30280010Y15224000D01*
G04 #@! TO.N,+12V*
X-6327000Y4417500D02*
X-3242500Y4417500D01*
D31*
X-54840277Y36327777D02*
X-54750000Y36237500D01*
X-54840277Y40060963D02*
X-54840277Y36327777D01*
X-54840277Y40060963D02*
X-52000000Y42901240D01*
D29*
X-51348760Y42250000D02*
X-47000000Y42250000D01*
X-52000000Y42901240D02*
X-51348760Y42250000D01*
D31*
X-2238000Y4762000D02*
X-2898000Y4762000D01*
X-52000000Y46068965D02*
X-50074001Y47994964D01*
X-52000000Y42901240D02*
X-52000000Y46068965D01*
X-50074001Y47994964D02*
X-6994964Y47994964D01*
X-6994964Y47994964D02*
X-1000000Y42000000D01*
X-1000000Y42000000D02*
X-1000000Y6000000D01*
X-1000000Y6000000D02*
X-2238000Y4762000D01*
D29*
G04 #@! TO.N,Net-(J3-Pad1)*
X-36987500Y33000000D02*
X-36237500Y33750000D01*
X-39500000Y33000000D02*
X-36987500Y33000000D01*
G04 #@! TD*
D32*
G04 #@! TO.N,GND*
G36*
X-58950000Y48228967D02*
X-58950000Y47851033D01*
X-58805371Y47501868D01*
X-58538132Y47234629D01*
X-58473844Y47208000D01*
X-59220939Y47208000D01*
X-59444405Y47115437D01*
X-59615438Y46944404D01*
X-59708000Y46720938D01*
X-59708000Y45852000D01*
X-59556000Y45700000D01*
X-58200000Y45700000D01*
X-58200000Y45720000D01*
X-57800000Y45720000D01*
X-57800000Y45700000D01*
X-57780000Y45700000D01*
X-57780000Y45300000D01*
X-57800000Y45300000D01*
X-57800000Y43944000D01*
X-57648000Y43792000D01*
X-56779061Y43792000D01*
X-56555595Y43884563D01*
X-56384562Y44055596D01*
X-56312029Y44230708D01*
X-56309682Y44228361D01*
X-56158051Y44165553D01*
X-56589358Y43734245D01*
X-56643633Y43697980D01*
X-56745875Y43544963D01*
X-56787295Y43482973D01*
X-56837744Y43229356D01*
X-56825009Y43165335D01*
X-56825010Y35507638D01*
X-56837744Y35443622D01*
X-56825010Y35379606D01*
X-56825010Y35379605D01*
X-56787296Y35190006D01*
X-56643634Y34974998D01*
X-56589356Y34938731D01*
X-56055234Y34404608D01*
X-56140437Y34319405D01*
X-56233000Y34095939D01*
X-56233000Y33614500D01*
X-56081000Y33462500D01*
X-54950000Y33462500D01*
X-54950000Y33482500D01*
X-54550000Y33482500D01*
X-54550000Y33462500D01*
X-53419000Y33462500D01*
X-53267000Y33614500D01*
X-53267000Y34095939D01*
X-53268682Y34100000D01*
X-46900000Y34100000D01*
X-46899999Y32704276D01*
X-46912734Y32640255D01*
X-46874888Y32449998D01*
X-46862285Y32386638D01*
X-46718623Y32171631D01*
X-46664350Y32135367D01*
X-46620058Y32091075D01*
X-46605119Y32076137D01*
X-46605709Y32074713D01*
X-46605709Y31617215D01*
X-46430632Y31194541D01*
X-46107132Y30871041D01*
X-45684458Y30695964D01*
X-45328836Y30695964D01*
X-45328836Y29790000D01*
X-45278761Y29538257D01*
X-45136160Y29324840D01*
X-44922743Y29182239D01*
X-44671000Y29132164D01*
X-43421000Y29132164D01*
X-43169257Y29182239D01*
X-42955840Y29324840D01*
X-42813239Y29538257D01*
X-42800460Y29602500D01*
X-42580614Y29602500D01*
X-42563791Y29517928D01*
X-42536999Y29477831D01*
X-42536999Y29238021D01*
X-42549734Y29174000D01*
X-42521413Y29031625D01*
X-42499285Y28920383D01*
X-42355623Y28705376D01*
X-42301348Y28669111D01*
X-41467888Y27835649D01*
X-41431624Y27781376D01*
X-41216617Y27637714D01*
X-41027018Y27600000D01*
X-41027017Y27600000D01*
X-40963001Y27587266D01*
X-40898984Y27600000D01*
X-36401000Y27600000D01*
X-36401000Y27333500D01*
X-36249000Y27181500D01*
X-34668000Y27181500D01*
X-34668000Y27201500D01*
X-34268000Y27201500D01*
X-34268000Y27181500D01*
X-32687000Y27181500D01*
X-32535000Y27333500D01*
X-32535000Y27600000D01*
X-31814016Y27600000D01*
X-31750000Y27587266D01*
X-31685984Y27600000D01*
X-31685982Y27600000D01*
X-31496383Y27637714D01*
X-31281376Y27781376D01*
X-31245109Y27835654D01*
X-30495112Y28585649D01*
X-30495108Y28585654D01*
X-30480173Y28600590D01*
X-30478749Y28600000D01*
X-30021251Y28600000D01*
X-29598577Y28775077D01*
X-29400000Y28973654D01*
X-29399999Y24514896D01*
X-29504062Y24558000D01*
X-30148000Y24558000D01*
X-30300000Y24406000D01*
X-30300000Y23437500D01*
X-30280000Y23437500D01*
X-30280000Y23037500D01*
X-30300000Y23037500D01*
X-30300000Y23017500D01*
X-30700000Y23017500D01*
X-30700000Y23037500D01*
X-31831000Y23037500D01*
X-31983000Y22885500D01*
X-31983000Y22404061D01*
X-31908416Y22224000D01*
X-32821832Y22224000D01*
X-32861928Y22250791D01*
X-33018000Y22281836D01*
X-33806599Y22281836D01*
X-33818000Y22293237D01*
X-33818000Y22886164D01*
X-33393000Y22886164D01*
X-33141257Y22936239D01*
X-32927840Y23078840D01*
X-32785239Y23292257D01*
X-32735164Y23544000D01*
X-32735164Y24070939D01*
X-31983000Y24070939D01*
X-31983000Y23589500D01*
X-31831000Y23437500D01*
X-30700000Y23437500D01*
X-30700000Y24406000D01*
X-30852000Y24558000D01*
X-31495938Y24558000D01*
X-31719404Y24465438D01*
X-31890437Y24294405D01*
X-31983000Y24070939D01*
X-32735164Y24070939D01*
X-32735164Y24469000D01*
X-32785239Y24720743D01*
X-32927840Y24934160D01*
X-33141257Y25076761D01*
X-33393000Y25126836D01*
X-34669098Y25126836D01*
X-35203262Y25661000D01*
X-34820000Y25661000D01*
X-34668000Y25813000D01*
X-34668000Y26781500D01*
X-34268000Y26781500D01*
X-34268000Y25813000D01*
X-34116000Y25661000D01*
X-33022062Y25661000D01*
X-32798596Y25753562D01*
X-32627563Y25924595D01*
X-32535000Y26148061D01*
X-32535000Y26629500D01*
X-32687000Y26781500D01*
X-34268000Y26781500D01*
X-34668000Y26781500D01*
X-36249000Y26781500D01*
X-36286381Y26744119D01*
X-36606587Y27064324D01*
X-36642854Y27118602D01*
X-36857861Y27262264D01*
X-37047460Y27299978D01*
X-37047462Y27299978D01*
X-37111478Y27312712D01*
X-37175494Y27299978D01*
X-38957004Y27299978D01*
X-39021022Y27312712D01*
X-39085040Y27299978D01*
X-39274639Y27262264D01*
X-39489646Y27118602D01*
X-39525912Y27064326D01*
X-39761346Y26828891D01*
X-39815624Y26792624D01*
X-39959286Y26577616D01*
X-39983528Y26455743D01*
X-40004070Y26352475D01*
X-40196062Y26432000D01*
X-40315000Y26432000D01*
X-40467000Y26280000D01*
X-40467000Y25249000D01*
X-40397000Y25249000D01*
X-40397000Y24849000D01*
X-40467000Y24849000D01*
X-40467000Y23818000D01*
X-40315000Y23666000D01*
X-40196062Y23666000D01*
X-39972596Y23758562D01*
X-39821581Y23909577D01*
X-39803072Y23897209D01*
X-39647000Y23866164D01*
X-39047000Y23866164D01*
X-38890928Y23897209D01*
X-38836987Y23933251D01*
X-41816237Y20954000D01*
X-42176933Y20954000D01*
X-42129616Y20985616D01*
X-42041209Y21117928D01*
X-42010164Y21274000D01*
X-42010164Y21874000D01*
X-42041209Y22030072D01*
X-42041802Y22030960D01*
X-41472652Y22600111D01*
X-41418376Y22636376D01*
X-41274714Y22851383D01*
X-41237000Y23040982D01*
X-41237000Y23040983D01*
X-41224266Y23105000D01*
X-41237000Y23169016D01*
X-41237000Y23748454D01*
X-41037938Y23666000D01*
X-40919000Y23666000D01*
X-40767000Y23818000D01*
X-40767000Y24849000D01*
X-40837000Y24849000D01*
X-40837000Y25249000D01*
X-40767000Y25249000D01*
X-40767000Y26280000D01*
X-40919000Y26432000D01*
X-41037938Y26432000D01*
X-41261404Y26339438D01*
X-41412419Y26188423D01*
X-41430928Y26200791D01*
X-41587000Y26231836D01*
X-42187000Y26231836D01*
X-42343072Y26200791D01*
X-42475384Y26112384D01*
X-42563791Y25980072D01*
X-42594836Y25824000D01*
X-42594836Y24274000D01*
X-42563791Y24117928D01*
X-42537000Y24077831D01*
X-42536999Y23374239D01*
X-43629401Y22281836D01*
X-44418000Y22281836D01*
X-44574072Y22250791D01*
X-44706384Y22162384D01*
X-44794791Y22030072D01*
X-44825836Y21874000D01*
X-44825836Y21274000D01*
X-44794791Y21117928D01*
X-44706384Y20985616D01*
X-44636617Y20939000D01*
X-44706384Y20892384D01*
X-44794791Y20760072D01*
X-44825836Y20604000D01*
X-44825836Y20004000D01*
X-44794791Y19847928D01*
X-44706384Y19715616D01*
X-44636617Y19669000D01*
X-44706384Y19622384D01*
X-44794791Y19490072D01*
X-44825836Y19334000D01*
X-44825836Y18734000D01*
X-44794791Y18577928D01*
X-44706384Y18445616D01*
X-44636617Y18399000D01*
X-44706384Y18352384D01*
X-44794791Y18220072D01*
X-44825836Y18064000D01*
X-44825836Y17464000D01*
X-44794791Y17307928D01*
X-44706384Y17175616D01*
X-44636617Y17129000D01*
X-44706384Y17082384D01*
X-44794791Y16950072D01*
X-44825836Y16794000D01*
X-44825836Y16194000D01*
X-44794791Y16037928D01*
X-44706384Y15905616D01*
X-44636617Y15859000D01*
X-44706384Y15812384D01*
X-44794791Y15680072D01*
X-44825836Y15524000D01*
X-44825836Y14924000D01*
X-44794791Y14767928D01*
X-44706384Y14635616D01*
X-44659067Y14604000D01*
X-44784761Y14604000D01*
X-46550000Y16369237D01*
X-46550000Y25678482D01*
X-46537266Y25742500D01*
X-46587714Y25996118D01*
X-46695113Y26156852D01*
X-46731376Y26211124D01*
X-46785649Y26247388D01*
X-47463761Y26925500D01*
X-45529000Y26925500D01*
X-45529000Y26444061D01*
X-45436437Y26220595D01*
X-45265404Y26049562D01*
X-45041938Y25957000D01*
X-44398000Y25957000D01*
X-44246000Y26109000D01*
X-44246000Y27077500D01*
X-43846000Y27077500D01*
X-43846000Y26109000D01*
X-43694000Y25957000D01*
X-43050062Y25957000D01*
X-42826596Y26049562D01*
X-42655563Y26220595D01*
X-42563000Y26444061D01*
X-42563000Y26925500D01*
X-42715000Y27077500D01*
X-43846000Y27077500D01*
X-44246000Y27077500D01*
X-45377000Y27077500D01*
X-45529000Y26925500D01*
X-47463761Y26925500D01*
X-48649201Y28110939D01*
X-45529000Y28110939D01*
X-45529000Y27629500D01*
X-45377000Y27477500D01*
X-44246000Y27477500D01*
X-44246000Y28446000D01*
X-43846000Y28446000D01*
X-43846000Y27477500D01*
X-42715000Y27477500D01*
X-42563000Y27629500D01*
X-42563000Y28110939D01*
X-42655563Y28334405D01*
X-42826596Y28505438D01*
X-43050062Y28598000D01*
X-43694000Y28598000D01*
X-43846000Y28446000D01*
X-44246000Y28446000D01*
X-44398000Y28598000D01*
X-45041938Y28598000D01*
X-45265404Y28505438D01*
X-45436437Y28334405D01*
X-45529000Y28110939D01*
X-48649201Y28110939D01*
X-48740109Y28201846D01*
X-48776376Y28256124D01*
X-48991383Y28399786D01*
X-49180982Y28437500D01*
X-49180984Y28437500D01*
X-49245000Y28450234D01*
X-49309016Y28437500D01*
X-49337164Y28437500D01*
X-49337164Y31725000D01*
X-49368209Y31881072D01*
X-49456616Y32013384D01*
X-49588928Y32101791D01*
X-49745000Y32132836D01*
X-51745000Y32132836D01*
X-51901072Y32101791D01*
X-52033384Y32013384D01*
X-52121791Y31881072D01*
X-52152836Y31725000D01*
X-52152836Y26527902D01*
X-52289237Y26391500D01*
X-53690460Y26391500D01*
X-53703239Y26455743D01*
X-53845840Y26669160D01*
X-54059257Y26811761D01*
X-54311000Y26861836D01*
X-55561000Y26861836D01*
X-55812743Y26811761D01*
X-56026160Y26669160D01*
X-56168761Y26455743D01*
X-56218836Y26204000D01*
X-56218836Y25279000D01*
X-56168761Y25027257D01*
X-56026160Y24813840D01*
X-55812743Y24671239D01*
X-55561000Y24621164D01*
X-54311000Y24621164D01*
X-54059257Y24671239D01*
X-53845840Y24813840D01*
X-53703239Y25027257D01*
X-53690460Y25091500D01*
X-52152836Y25091500D01*
X-52152836Y23850000D01*
X-52121791Y23693928D01*
X-52033384Y23561616D01*
X-51901072Y23473209D01*
X-51745000Y23442164D01*
X-49745000Y23442164D01*
X-49588928Y23473209D01*
X-49456616Y23561616D01*
X-49368209Y23693928D01*
X-49337164Y23850000D01*
X-49337164Y26960427D01*
X-47849999Y25473260D01*
X-47850000Y16164016D01*
X-47862734Y16100000D01*
X-47850000Y16035984D01*
X-47850000Y16035983D01*
X-47812286Y15846384D01*
X-47668624Y15631376D01*
X-47614346Y15595109D01*
X-45558888Y13539649D01*
X-45522624Y13485376D01*
X-45307617Y13341714D01*
X-45268837Y13334000D01*
X-46014761Y13334000D01*
X-49007609Y16326846D01*
X-49043876Y16381124D01*
X-49258883Y16524786D01*
X-49337164Y16540357D01*
X-49337164Y19850000D01*
X-49368209Y20006072D01*
X-49456616Y20138384D01*
X-49588928Y20226791D01*
X-49745000Y20257836D01*
X-51745000Y20257836D01*
X-51901072Y20226791D01*
X-52033384Y20138384D01*
X-52121791Y20006072D01*
X-52152836Y19850000D01*
X-52152836Y15791500D01*
X-52248761Y15791500D01*
X-53653164Y17195902D01*
X-53653164Y18022000D01*
X-53703239Y18273743D01*
X-53845840Y18487160D01*
X-54059257Y18629761D01*
X-54311000Y18679836D01*
X-55561000Y18679836D01*
X-55812743Y18629761D01*
X-56026160Y18487160D01*
X-56168761Y18273743D01*
X-56218836Y18022000D01*
X-56218836Y17097000D01*
X-56168761Y16845257D01*
X-56026160Y16631840D01*
X-55812743Y16489239D01*
X-55561000Y16439164D01*
X-54734902Y16439164D01*
X-53022887Y14727149D01*
X-52986624Y14672876D01*
X-52771617Y14529214D01*
X-52582018Y14491500D01*
X-52582017Y14491500D01*
X-52518001Y14478766D01*
X-52453984Y14491500D01*
X-52152836Y14491500D01*
X-52152836Y11975000D01*
X-52121791Y11818928D01*
X-52033384Y11686616D01*
X-51901072Y11598209D01*
X-51745000Y11567164D01*
X-49745000Y11567164D01*
X-49588928Y11598209D01*
X-49456616Y11686616D01*
X-49368209Y11818928D01*
X-49337164Y11975000D01*
X-49337164Y14817927D01*
X-46788887Y12269649D01*
X-46752624Y12215376D01*
X-46537617Y12071714D01*
X-46348018Y12034000D01*
X-46348017Y12034000D01*
X-46284001Y12021266D01*
X-46219985Y12034000D01*
X-44943546Y12034000D01*
X-45026000Y11834938D01*
X-45026000Y11716000D01*
X-44874000Y11564000D01*
X-43618000Y11564000D01*
X-43618000Y11634000D01*
X-43218000Y11634000D01*
X-43218000Y11564000D01*
X-41962000Y11564000D01*
X-41810000Y11716000D01*
X-41810000Y11834938D01*
X-41902562Y12058404D01*
X-42053577Y12209419D01*
X-42041209Y12227928D01*
X-42010164Y12384000D01*
X-42010164Y12984000D01*
X-42041209Y13140072D01*
X-42129616Y13272384D01*
X-42199383Y13319000D01*
X-42129616Y13365616D01*
X-42041209Y13497928D01*
X-42010164Y13654000D01*
X-42010164Y14254000D01*
X-42041209Y14410072D01*
X-42129616Y14542384D01*
X-42199383Y14589000D01*
X-42129616Y14635616D01*
X-42041209Y14767928D01*
X-42010164Y14924000D01*
X-42010164Y15524000D01*
X-42041209Y15680072D01*
X-42129616Y15812384D01*
X-42199383Y15859000D01*
X-42129616Y15905616D01*
X-42041209Y16037928D01*
X-42010164Y16194000D01*
X-42010164Y16794000D01*
X-42041209Y16950072D01*
X-42129616Y17082384D01*
X-42199383Y17129000D01*
X-42129616Y17175616D01*
X-42041209Y17307928D01*
X-42010164Y17464000D01*
X-42010164Y18064000D01*
X-42041209Y18220072D01*
X-42129616Y18352384D01*
X-42199383Y18399000D01*
X-42129616Y18445616D01*
X-42041209Y18577928D01*
X-42010164Y18734000D01*
X-42010164Y19334000D01*
X-42041209Y19490072D01*
X-42129616Y19622384D01*
X-42176933Y19654000D01*
X-41611016Y19654000D01*
X-41547000Y19641266D01*
X-41482984Y19654000D01*
X-41482982Y19654000D01*
X-41293383Y19691714D01*
X-41078376Y19835376D01*
X-41042109Y19889654D01*
X-37662651Y23269111D01*
X-37608376Y23305376D01*
X-37464714Y23520383D01*
X-37427000Y23709982D01*
X-37427000Y23709983D01*
X-37414266Y23773999D01*
X-37427000Y23838016D01*
X-37427000Y24077832D01*
X-37400209Y24117928D01*
X-37369164Y24274000D01*
X-37369164Y25824000D01*
X-37400209Y25980072D01*
X-37413510Y25999978D01*
X-37380715Y25999978D01*
X-36131022Y24750284D01*
X-36150761Y24720743D01*
X-36200836Y24469000D01*
X-36200836Y23544000D01*
X-36150761Y23292257D01*
X-36131022Y23262716D01*
X-38414348Y20979389D01*
X-38468623Y20943124D01*
X-38608020Y20734500D01*
X-38612285Y20728117D01*
X-38662734Y20474500D01*
X-38649999Y20410479D01*
X-38650000Y14169239D01*
X-41769237Y11050000D01*
X-41810000Y11050000D01*
X-41810000Y11112000D01*
X-41962000Y11264000D01*
X-43218000Y11264000D01*
X-43218000Y11194000D01*
X-43618000Y11194000D01*
X-43618000Y11264000D01*
X-44874000Y11264000D01*
X-45026000Y11112000D01*
X-45026000Y11050000D01*
X-54535982Y11050000D01*
X-54600000Y11062734D01*
X-54664018Y11050000D01*
X-54853617Y11012286D01*
X-55068624Y10868624D01*
X-55104887Y10814351D01*
X-56578486Y9340752D01*
X-56721523Y9400000D01*
X-57278477Y9400000D01*
X-57793037Y9186863D01*
X-58186863Y8793037D01*
X-58400000Y8278477D01*
X-58400000Y7721523D01*
X-58186863Y7206963D01*
X-57793037Y6813137D01*
X-57278477Y6600000D01*
X-56752396Y6600000D01*
X-56795500Y6495938D01*
X-56795500Y5852000D01*
X-56643500Y5700000D01*
X-55675000Y5700000D01*
X-55675000Y6831000D01*
X-55275000Y6831000D01*
X-55275000Y5700000D01*
X-54306500Y5700000D01*
X-54154500Y5852000D01*
X-54154500Y6495938D01*
X-54247062Y6719404D01*
X-54418095Y6890437D01*
X-54641561Y6983000D01*
X-55123000Y6983000D01*
X-55275000Y6831000D01*
X-55675000Y6831000D01*
X-55827000Y6983000D01*
X-56037100Y6983000D01*
X-55813137Y7206963D01*
X-55600000Y7721523D01*
X-55600000Y8278477D01*
X-55659248Y8421514D01*
X-54330761Y9750000D01*
X-47213241Y9750000D01*
X-48313239Y8650000D01*
X-51253889Y8650000D01*
X-51313137Y8793037D01*
X-51706963Y9186863D01*
X-52221523Y9400000D01*
X-52778477Y9400000D01*
X-53293037Y9186863D01*
X-53686863Y8793037D01*
X-53900000Y8278477D01*
X-53900000Y7721523D01*
X-53686863Y7206963D01*
X-53293037Y6813137D01*
X-53149999Y6753889D01*
X-53150000Y6745540D01*
X-53214243Y6732761D01*
X-53427660Y6590160D01*
X-53570261Y6376743D01*
X-53620336Y6125000D01*
X-53620336Y4875000D01*
X-53570261Y4623257D01*
X-53427660Y4409840D01*
X-53214243Y4267239D01*
X-52962500Y4217164D01*
X-52037500Y4217164D01*
X-51785757Y4267239D01*
X-51572340Y4409840D01*
X-51429739Y4623257D01*
X-51379664Y4875000D01*
X-51379664Y5148000D01*
X-45558000Y5148000D01*
X-45558000Y4504062D01*
X-45465438Y4280596D01*
X-45294405Y4109563D01*
X-45070939Y4017000D01*
X-44589500Y4017000D01*
X-44437500Y4169000D01*
X-44437500Y5300000D01*
X-44037500Y5300000D01*
X-44037500Y4169000D01*
X-43885500Y4017000D01*
X-43404061Y4017000D01*
X-43180595Y4109563D01*
X-43009562Y4280596D01*
X-42917000Y4504062D01*
X-42917000Y5148000D01*
X-43069000Y5300000D01*
X-44037500Y5300000D01*
X-44437500Y5300000D01*
X-45406000Y5300000D01*
X-45558000Y5148000D01*
X-51379664Y5148000D01*
X-51379664Y6125000D01*
X-51429739Y6376743D01*
X-51572340Y6590160D01*
X-51785757Y6732761D01*
X-51850000Y6745540D01*
X-51850000Y6753889D01*
X-51706963Y6813137D01*
X-51313137Y7206963D01*
X-51253889Y7350000D01*
X-48108018Y7350000D01*
X-48044002Y7337266D01*
X-47979986Y7350000D01*
X-47979984Y7350000D01*
X-47790385Y7387714D01*
X-47575378Y7531376D01*
X-47539111Y7585654D01*
X-47150000Y7974764D01*
X-47150000Y7721523D01*
X-46936863Y7206963D01*
X-46543037Y6813137D01*
X-46028477Y6600000D01*
X-45514896Y6600000D01*
X-45558000Y6495938D01*
X-45558000Y5852000D01*
X-45406000Y5700000D01*
X-44437500Y5700000D01*
X-44437500Y6831000D01*
X-44037500Y6831000D01*
X-44037500Y5700000D01*
X-43069000Y5700000D01*
X-42917000Y5852000D01*
X-42917000Y6495938D01*
X-43009562Y6719404D01*
X-43180595Y6890437D01*
X-43404061Y6983000D01*
X-43885500Y6983000D01*
X-44037500Y6831000D01*
X-44437500Y6831000D01*
X-44589500Y6983000D01*
X-44787100Y6983000D01*
X-44563137Y7206963D01*
X-44350000Y7721523D01*
X-44350000Y8278477D01*
X-44563137Y8793037D01*
X-44645089Y8874989D01*
X-42354911Y8874989D01*
X-42436863Y8793037D01*
X-42650000Y8278477D01*
X-42650000Y7721523D01*
X-42436863Y7206963D01*
X-42043037Y6813137D01*
X-41899999Y6753889D01*
X-41899999Y6748026D01*
X-41976743Y6732761D01*
X-42190160Y6590160D01*
X-42332761Y6376743D01*
X-42382836Y6125000D01*
X-42382836Y4875000D01*
X-42332761Y4623257D01*
X-42190160Y4409840D01*
X-41976743Y4267239D01*
X-41725000Y4217164D01*
X-40800000Y4217164D01*
X-40548257Y4267239D01*
X-40334840Y4409840D01*
X-40192239Y4623257D01*
X-40142164Y4875000D01*
X-40142164Y5148000D01*
X-35308000Y5148000D01*
X-35308000Y4504062D01*
X-35215438Y4280596D01*
X-35044405Y4109563D01*
X-34820939Y4017000D01*
X-34339500Y4017000D01*
X-34187500Y4169000D01*
X-34187500Y5300000D01*
X-33787500Y5300000D01*
X-33787500Y4169000D01*
X-33635500Y4017000D01*
X-33154061Y4017000D01*
X-32930595Y4109563D01*
X-32759562Y4280596D01*
X-32667000Y4504062D01*
X-32667000Y5148000D01*
X-32819000Y5300000D01*
X-33787500Y5300000D01*
X-34187500Y5300000D01*
X-35156000Y5300000D01*
X-35308000Y5148000D01*
X-40142164Y5148000D01*
X-40142164Y6125000D01*
X-40192239Y6376743D01*
X-40334840Y6590160D01*
X-40548257Y6732761D01*
X-40600000Y6743053D01*
X-40600000Y6753889D01*
X-40456963Y6813137D01*
X-40063137Y7206963D01*
X-39850000Y7721523D01*
X-39850000Y8278477D01*
X-39879625Y8349999D01*
X-36870375Y8349999D01*
X-36900000Y8278477D01*
X-36900000Y7721523D01*
X-36686863Y7206963D01*
X-36293037Y6813137D01*
X-35778477Y6600000D01*
X-35264896Y6600000D01*
X-35308000Y6495938D01*
X-35308000Y5852000D01*
X-35156000Y5700000D01*
X-34187500Y5700000D01*
X-34187500Y6831000D01*
X-33787500Y6831000D01*
X-33787500Y5700000D01*
X-32819000Y5700000D01*
X-32667000Y5852000D01*
X-32667000Y6495938D01*
X-32759562Y6719404D01*
X-32930595Y6890437D01*
X-33154061Y6983000D01*
X-33635500Y6983000D01*
X-33787500Y6831000D01*
X-34187500Y6831000D01*
X-34339500Y6983000D01*
X-34537100Y6983000D01*
X-34313137Y7206963D01*
X-34100000Y7721523D01*
X-34100000Y8278477D01*
X-34313137Y8793037D01*
X-34370089Y8849989D01*
X-32129911Y8849989D01*
X-32186863Y8793037D01*
X-32400000Y8278477D01*
X-32400000Y7721523D01*
X-32186863Y7206963D01*
X-31793037Y6813137D01*
X-31662499Y6759067D01*
X-31662499Y6745540D01*
X-31726743Y6732761D01*
X-31940160Y6590160D01*
X-32082761Y6376743D01*
X-32132836Y6125000D01*
X-32132836Y4875000D01*
X-32082761Y4623257D01*
X-31940160Y4409840D01*
X-31726743Y4267239D01*
X-31475000Y4217164D01*
X-30550000Y4217164D01*
X-30298257Y4267239D01*
X-30084840Y4409840D01*
X-29942239Y4623257D01*
X-29892164Y4875000D01*
X-29892164Y5216688D01*
X-26667595Y5216688D01*
X-26667595Y4547750D01*
X-26515595Y4395750D01*
X-25359595Y4395750D01*
X-25359595Y5551750D01*
X-24959595Y5551750D01*
X-24959595Y4395750D01*
X-24939595Y4395750D01*
X-24939595Y3995750D01*
X-24959595Y3995750D01*
X-24959595Y2839750D01*
X-24807595Y2687750D01*
X-24138656Y2687750D01*
X-23915190Y2780313D01*
X-23744157Y2951346D01*
X-23651595Y3174812D01*
X-23651595Y3389272D01*
X-23355986Y3093663D01*
X-22878181Y2895750D01*
X-22361009Y2895750D01*
X-21883204Y3093663D01*
X-21517508Y3459359D01*
X-21319595Y3937164D01*
X-21319595Y4454336D01*
X-21410945Y4674875D01*
X-21407095Y4694232D01*
X-21407095Y4694233D01*
X-21394361Y4758249D01*
X-21407095Y4822266D01*
X-21407095Y5562000D01*
X-19345836Y5562000D01*
X-19345836Y3962000D01*
X-19314791Y3805928D01*
X-19226384Y3673616D01*
X-19094072Y3585209D01*
X-18938000Y3554164D01*
X-17338000Y3554164D01*
X-17181928Y3585209D01*
X-17049616Y3673616D01*
X-16961209Y3805928D01*
X-16930164Y3962000D01*
X-16930164Y5562000D01*
X-16961209Y5718072D01*
X-17049616Y5850384D01*
X-17181928Y5938791D01*
X-17338000Y5969836D01*
X-18938000Y5969836D01*
X-19094072Y5938791D01*
X-19226384Y5850384D01*
X-19314791Y5718072D01*
X-19345836Y5562000D01*
X-21407095Y5562000D01*
X-21407095Y6754460D01*
X-21342852Y6767239D01*
X-21129435Y6909840D01*
X-20986834Y7123257D01*
X-20951280Y7302000D01*
X-19361509Y7302000D01*
X-19268375Y6833783D01*
X-19003152Y6436848D01*
X-18606217Y6171625D01*
X-18256188Y6102000D01*
X-18019812Y6102000D01*
X-17669783Y6171625D01*
X-17272848Y6436848D01*
X-17007625Y6833783D01*
X-16966507Y7040500D01*
X-8260000Y7040500D01*
X-8260000Y6559061D01*
X-8167437Y6335595D01*
X-7996404Y6164562D01*
X-7772938Y6072000D01*
X-6679000Y6072000D01*
X-6527000Y6224000D01*
X-6527000Y7192500D01*
X-6127000Y7192500D01*
X-6127000Y6224000D01*
X-5975000Y6072000D01*
X-4881062Y6072000D01*
X-4657596Y6164562D01*
X-4486563Y6335595D01*
X-4394000Y6559061D01*
X-4394000Y7040500D01*
X-4546000Y7192500D01*
X-6127000Y7192500D01*
X-6527000Y7192500D01*
X-8108000Y7192500D01*
X-8260000Y7040500D01*
X-16966507Y7040500D01*
X-16914491Y7302000D01*
X-17007625Y7770217D01*
X-17272848Y8167152D01*
X-17360829Y8225939D01*
X-8260000Y8225939D01*
X-8260000Y7744500D01*
X-8108000Y7592500D01*
X-6527000Y7592500D01*
X-6527000Y8561000D01*
X-6127000Y8561000D01*
X-6127000Y7592500D01*
X-4546000Y7592500D01*
X-4394000Y7744500D01*
X-4394000Y8225939D01*
X-4486563Y8449405D01*
X-4657596Y8620438D01*
X-4881062Y8713000D01*
X-5975000Y8713000D01*
X-6127000Y8561000D01*
X-6527000Y8561000D01*
X-6679000Y8713000D01*
X-7772938Y8713000D01*
X-7996404Y8620438D01*
X-8167437Y8449405D01*
X-8260000Y8225939D01*
X-17360829Y8225939D01*
X-17669783Y8432375D01*
X-18019812Y8502000D01*
X-18256188Y8502000D01*
X-18606217Y8432375D01*
X-19003152Y8167152D01*
X-19268375Y7770217D01*
X-19361509Y7302000D01*
X-20951280Y7302000D01*
X-20936759Y7375000D01*
X-20936759Y8625000D01*
X-20986834Y8876743D01*
X-21129435Y9090160D01*
X-21342852Y9232761D01*
X-21594595Y9282836D01*
X-22519595Y9282836D01*
X-22771338Y9232761D01*
X-22984755Y9090160D01*
X-23127356Y8876743D01*
X-23177431Y8625000D01*
X-23177431Y7375000D01*
X-23127356Y7123257D01*
X-22984755Y6909840D01*
X-22771338Y6767239D01*
X-22707095Y6754460D01*
X-22707094Y5495750D01*
X-22878181Y5495750D01*
X-23355986Y5297837D01*
X-23651595Y5002228D01*
X-23651595Y5216688D01*
X-23744157Y5440154D01*
X-23915190Y5611187D01*
X-24138656Y5703750D01*
X-24807595Y5703750D01*
X-24959595Y5551750D01*
X-25359595Y5551750D01*
X-25511595Y5703750D01*
X-26180534Y5703750D01*
X-26404000Y5611187D01*
X-26575033Y5440154D01*
X-26667595Y5216688D01*
X-29892164Y5216688D01*
X-29892164Y6125000D01*
X-29942239Y6376743D01*
X-30084840Y6590160D01*
X-30298257Y6732761D01*
X-30362500Y6745540D01*
X-30362500Y6748712D01*
X-30206963Y6813137D01*
X-29813137Y7206963D01*
X-29753889Y7350000D01*
X-28825328Y7350000D01*
X-28750000Y7335016D01*
X-28496383Y7385465D01*
X-28335649Y7492864D01*
X-28281377Y7529127D01*
X-28245113Y7583400D01*
X-27203513Y8625000D01*
X-26152431Y8625000D01*
X-26152431Y7375000D01*
X-26102356Y7123257D01*
X-25959755Y6909840D01*
X-25746338Y6767239D01*
X-25494595Y6717164D01*
X-24569595Y6717164D01*
X-24317852Y6767239D01*
X-24104435Y6909840D01*
X-23961834Y7123257D01*
X-23911759Y7375000D01*
X-23911759Y8625000D01*
X-23961834Y8876743D01*
X-24104435Y9090160D01*
X-24150915Y9121217D01*
X-21305696Y11966436D01*
X-19483277Y11966436D01*
X-19383115Y11724584D01*
X-19036754Y11298142D01*
X-18553566Y11036707D01*
X-18338002Y11140260D01*
X-18338002Y11025726D01*
X-18606217Y10972375D01*
X-19003152Y10707152D01*
X-19268375Y10310217D01*
X-19361509Y9842000D01*
X-19268375Y9373783D01*
X-19003152Y8976848D01*
X-18606217Y8711625D01*
X-18256188Y8642000D01*
X-18019812Y8642000D01*
X-17669783Y8711625D01*
X-17272848Y8976848D01*
X-17007625Y9373783D01*
X-16914491Y9842000D01*
X-17007625Y10310217D01*
X-17272848Y10707152D01*
X-17669783Y10972375D01*
X-17937998Y11025726D01*
X-17937998Y11140260D01*
X-17722434Y11036707D01*
X-17239246Y11298142D01*
X-16892885Y11724584D01*
X-16792723Y11966436D01*
X-16898026Y12182000D01*
X-17938000Y12182000D01*
X-17938000Y12162000D01*
X-18338000Y12162000D01*
X-18338000Y12182000D01*
X-19377974Y12182000D01*
X-19483277Y11966436D01*
X-21305696Y11966436D01*
X-19088120Y14184011D01*
X-19003152Y14056848D01*
X-18606217Y13791625D01*
X-18338002Y13738274D01*
X-18338002Y13623740D01*
X-18553566Y13727293D01*
X-19036754Y13465858D01*
X-19383115Y13039416D01*
X-19483277Y12797564D01*
X-19377974Y12582000D01*
X-18338000Y12582000D01*
X-18338000Y12602000D01*
X-17938000Y12602000D01*
X-17938000Y12582000D01*
X-16898026Y12582000D01*
X-16792723Y12797564D01*
X-16892885Y13039416D01*
X-17239246Y13465858D01*
X-17722434Y13727293D01*
X-17937998Y13623740D01*
X-17937998Y13738274D01*
X-17669783Y13791625D01*
X-17272848Y14056848D01*
X-17007625Y14453783D01*
X-16914491Y14922000D01*
X-17007625Y15390217D01*
X-17272848Y15787152D01*
X-17669783Y16052375D01*
X-18019812Y16122000D01*
X-18256188Y16122000D01*
X-18606217Y16052375D01*
X-19003152Y15787152D01*
X-19146912Y15572000D01*
X-19205354Y15572000D01*
X-19269370Y15584734D01*
X-19333387Y15572000D01*
X-19333388Y15572000D01*
X-19522987Y15534286D01*
X-19737994Y15390624D01*
X-19774257Y15336352D01*
X-25446443Y9664164D01*
X-25500718Y9627899D01*
X-25643406Y9414350D01*
X-25644380Y9412892D01*
X-25677487Y9246456D01*
X-25746338Y9232761D01*
X-25959755Y9090160D01*
X-26102356Y8876743D01*
X-26152431Y8625000D01*
X-27203513Y8625000D01*
X-19094681Y16733830D01*
X-19003152Y16596848D01*
X-18606217Y16331625D01*
X-18256188Y16262000D01*
X-18019812Y16262000D01*
X-17669783Y16331625D01*
X-17272848Y16596848D01*
X-17007625Y16993783D01*
X-16914491Y17462000D01*
X-17007625Y17930217D01*
X-17272848Y18327152D01*
X-17669783Y18592375D01*
X-18019812Y18662000D01*
X-18256188Y18662000D01*
X-18606217Y18592375D01*
X-18673027Y18547734D01*
X-18391789Y18828973D01*
X-18256188Y18802000D01*
X-18019812Y18802000D01*
X-17669783Y18871625D01*
X-17272848Y19136848D01*
X-17007625Y19533783D01*
X-16914491Y20002000D01*
X-17007625Y20470217D01*
X-17272848Y20867152D01*
X-17669783Y21132375D01*
X-18019812Y21202000D01*
X-18256188Y21202000D01*
X-18606217Y21132375D01*
X-18673027Y21087734D01*
X-18433113Y21327648D01*
X-18433109Y21327653D01*
X-18391790Y21368973D01*
X-18256188Y21342000D01*
X-18019812Y21342000D01*
X-17669783Y21411625D01*
X-17272848Y21676848D01*
X-17007625Y22073783D01*
X-16914491Y22542000D01*
X-17007625Y23010217D01*
X-17272848Y23407152D01*
X-17669783Y23672375D01*
X-18019812Y23742000D01*
X-18256188Y23742000D01*
X-18606217Y23672375D01*
X-18673027Y23627734D01*
X-18433113Y23867648D01*
X-18433109Y23867653D01*
X-18391790Y23908973D01*
X-18256188Y23882000D01*
X-18019812Y23882000D01*
X-17669783Y23951625D01*
X-17272848Y24216848D01*
X-17007625Y24613783D01*
X-16914491Y25082000D01*
X-17007625Y25550217D01*
X-17272848Y25947152D01*
X-17669783Y26212375D01*
X-18019812Y26282000D01*
X-18256188Y26282000D01*
X-18606217Y26212375D01*
X-18673028Y26167733D01*
X-18391789Y26448973D01*
X-18256188Y26422000D01*
X-18019812Y26422000D01*
X-17669783Y26491625D01*
X-17272848Y26756848D01*
X-17007625Y27153783D01*
X-16914491Y27622000D01*
X-17007625Y28090217D01*
X-17272848Y28487152D01*
X-17669783Y28752375D01*
X-18019812Y28822000D01*
X-18256188Y28822000D01*
X-18606217Y28752375D01*
X-19003152Y28487152D01*
X-19268375Y28090217D01*
X-19361509Y27622000D01*
X-19311027Y27368211D01*
X-23029237Y23650000D01*
X-23228749Y23650000D01*
X-23651423Y23474923D01*
X-23974923Y23151423D01*
X-24100000Y22849460D01*
X-24100000Y28973654D01*
X-23901423Y28775077D01*
X-23478749Y28600000D01*
X-23021251Y28600000D01*
X-22598577Y28775077D01*
X-22275077Y29098577D01*
X-22274488Y29100000D01*
X-21154016Y29100000D01*
X-21090000Y29087266D01*
X-21025984Y29100000D01*
X-21025982Y29100000D01*
X-20836383Y29137714D01*
X-20621376Y29281376D01*
X-20585109Y29335654D01*
X-19223732Y30697030D01*
X-19268375Y30630217D01*
X-19361509Y30162000D01*
X-19268375Y29693783D01*
X-19003152Y29296848D01*
X-18606217Y29031625D01*
X-18256188Y28962000D01*
X-18019812Y28962000D01*
X-17669783Y29031625D01*
X-17272848Y29296848D01*
X-17007625Y29693783D01*
X-16914491Y30162000D01*
X-17007625Y30630217D01*
X-17272848Y31027152D01*
X-17669783Y31292375D01*
X-18019812Y31362000D01*
X-18256188Y31362000D01*
X-18606217Y31292375D01*
X-18673029Y31247733D01*
X-18391789Y31528973D01*
X-18256188Y31502000D01*
X-18019812Y31502000D01*
X-17669783Y31571625D01*
X-17272848Y31836848D01*
X-17007625Y32233783D01*
X-16914491Y32702000D01*
X-17007625Y33170217D01*
X-17272848Y33567152D01*
X-17669783Y33832375D01*
X-18019812Y33902000D01*
X-18256188Y33902000D01*
X-18606217Y33832375D01*
X-19003152Y33567152D01*
X-19268375Y33170217D01*
X-19361509Y32702000D01*
X-19311027Y32448211D01*
X-21359237Y30400000D01*
X-22274488Y30400000D01*
X-22275077Y30401423D01*
X-22598577Y30724923D01*
X-23021251Y30900000D01*
X-23478749Y30900000D01*
X-23901423Y30724923D01*
X-24100000Y30526346D01*
X-24100000Y30900763D01*
X-19223733Y35777028D01*
X-19268375Y35710217D01*
X-19361509Y35242000D01*
X-19268375Y34773783D01*
X-19003152Y34376848D01*
X-18606217Y34111625D01*
X-18256188Y34042000D01*
X-18019812Y34042000D01*
X-17669783Y34111625D01*
X-17272848Y34376848D01*
X-17007625Y34773783D01*
X-16914491Y35242000D01*
X-16964973Y35495789D01*
X-16833115Y35627646D01*
X-16833111Y35627651D01*
X-16085649Y36375112D01*
X-16031376Y36411376D01*
X-15899999Y36607997D01*
X-15900000Y22814016D01*
X-15912734Y22750000D01*
X-15900000Y22685984D01*
X-15900000Y22685983D01*
X-15862286Y22496384D01*
X-15718624Y22281376D01*
X-15664346Y22245109D01*
X-5386889Y11967651D01*
X-5350624Y11913376D01*
X-5135617Y11769714D01*
X-4946018Y11732000D01*
X-4946017Y11732000D01*
X-4882001Y11719266D01*
X-4817984Y11732000D01*
X-3906912Y11732000D01*
X-3763152Y11516848D01*
X-3366217Y11251625D01*
X-3016188Y11182000D01*
X-2779812Y11182000D01*
X-2429783Y11251625D01*
X-2032848Y11516848D01*
X-1899999Y11715671D01*
X-1899999Y10508329D01*
X-2032848Y10707152D01*
X-2429783Y10972375D01*
X-2779812Y11042000D01*
X-3016188Y11042000D01*
X-3366217Y10972375D01*
X-3763152Y10707152D01*
X-4028375Y10310217D01*
X-4121509Y9842000D01*
X-4028375Y9373783D01*
X-3763152Y8976848D01*
X-3366217Y8711625D01*
X-3098002Y8658274D01*
X-3098002Y8543740D01*
X-3313566Y8647293D01*
X-3796754Y8385858D01*
X-4143115Y7959416D01*
X-4243277Y7717564D01*
X-4137974Y7502000D01*
X-3098000Y7502000D01*
X-3098000Y7522000D01*
X-2698000Y7522000D01*
X-2698000Y7502000D01*
X-2678000Y7502000D01*
X-2678000Y7102000D01*
X-2698000Y7102000D01*
X-2698000Y7082000D01*
X-3098000Y7082000D01*
X-3098000Y7102000D01*
X-4137974Y7102000D01*
X-4243277Y6886436D01*
X-4143115Y6644584D01*
X-3796754Y6218142D01*
X-3313566Y5956707D01*
X-3098002Y6060260D01*
X-3098002Y5945726D01*
X-3366217Y5892375D01*
X-3763152Y5627152D01*
X-4028375Y5230217D01*
X-4060741Y5067500D01*
X-4631460Y5067500D01*
X-4644239Y5131743D01*
X-4786840Y5345160D01*
X-5000257Y5487761D01*
X-5252000Y5537836D01*
X-7402000Y5537836D01*
X-7653743Y5487761D01*
X-7867160Y5345160D01*
X-8009761Y5131743D01*
X-8059836Y4880000D01*
X-8059836Y3955000D01*
X-8009761Y3703257D01*
X-7867160Y3489840D01*
X-7653743Y3347239D01*
X-7402000Y3297164D01*
X-5252000Y3297164D01*
X-5000257Y3347239D01*
X-4786840Y3489840D01*
X-4644239Y3703257D01*
X-4631460Y3767500D01*
X-3569569Y3767500D01*
X-3366217Y3631625D01*
X-3016188Y3562000D01*
X-2779812Y3562000D01*
X-2429783Y3631625D01*
X-2057722Y3880228D01*
X-1886837Y3914219D01*
X-1589136Y4113136D01*
X-1538922Y4188287D01*
X-475000Y5252207D01*
X-475000Y475000D01*
X-30045100Y475000D01*
X-29813137Y706963D01*
X-29600000Y1221523D01*
X-29600000Y1778477D01*
X-29813137Y2293037D01*
X-30206963Y2686863D01*
X-30721523Y2900000D01*
X-31278477Y2900000D01*
X-31793037Y2686863D01*
X-32186863Y2293037D01*
X-32400000Y1778477D01*
X-32400000Y1221523D01*
X-32186863Y706963D01*
X-31954900Y475000D01*
X-34545100Y475000D01*
X-34313137Y706963D01*
X-34100000Y1221523D01*
X-34100000Y1778477D01*
X-34313137Y2293037D01*
X-34706963Y2686863D01*
X-35221523Y2900000D01*
X-35778477Y2900000D01*
X-35921515Y2840752D01*
X-35995109Y2914346D01*
X-35995113Y2914352D01*
X-36545110Y3464347D01*
X-36581377Y3518625D01*
X-36796384Y3662287D01*
X-36985983Y3700001D01*
X-36985985Y3700001D01*
X-37050001Y3712735D01*
X-37114017Y3700001D01*
X-44135984Y3700001D01*
X-44200000Y3712735D01*
X-44264016Y3700001D01*
X-44264017Y3700001D01*
X-44453616Y3662287D01*
X-44668623Y3518625D01*
X-44704887Y3464352D01*
X-45328486Y2840752D01*
X-45471523Y2900000D01*
X-46028477Y2900000D01*
X-46171514Y2840752D01*
X-46745109Y3414346D01*
X-46781376Y3468624D01*
X-46996383Y3612286D01*
X-47185982Y3650000D01*
X-47185984Y3650000D01*
X-47250000Y3662734D01*
X-47314016Y3650000D01*
X-51483993Y3650000D01*
X-51502382Y3662287D01*
X-51691981Y3700001D01*
X-51691983Y3700001D01*
X-51755999Y3712735D01*
X-51820015Y3700001D01*
X-53179985Y3700001D01*
X-53244002Y3712735D01*
X-53308018Y3700001D01*
X-53308019Y3700001D01*
X-53497618Y3662287D01*
X-53516007Y3650000D01*
X-55435984Y3650000D01*
X-55500001Y3662734D01*
X-55564017Y3650000D01*
X-55564018Y3650000D01*
X-55753617Y3612286D01*
X-55968624Y3468624D01*
X-56004888Y3414351D01*
X-56578486Y2840752D01*
X-56721523Y2900000D01*
X-57278477Y2900000D01*
X-57793037Y2686863D01*
X-58186863Y2293037D01*
X-58400000Y1778477D01*
X-58400000Y1221523D01*
X-58186863Y706963D01*
X-57954900Y475000D01*
X-60525000Y475000D01*
X-60525000Y3843750D01*
X-26667595Y3843750D01*
X-26667595Y3174812D01*
X-26575033Y2951346D01*
X-26404000Y2780313D01*
X-26180534Y2687750D01*
X-25511595Y2687750D01*
X-25359595Y2839750D01*
X-25359595Y3995750D01*
X-26515595Y3995750D01*
X-26667595Y3843750D01*
X-60525000Y3843750D01*
X-60525000Y5148000D01*
X-56795500Y5148000D01*
X-56795500Y4504062D01*
X-56702938Y4280596D01*
X-56531905Y4109563D01*
X-56308439Y4017000D01*
X-55827000Y4017000D01*
X-55675000Y4169000D01*
X-55675000Y5300000D01*
X-55275000Y5300000D01*
X-55275000Y4169000D01*
X-55123000Y4017000D01*
X-54641561Y4017000D01*
X-54418095Y4109563D01*
X-54247062Y4280596D01*
X-54154500Y4504062D01*
X-54154500Y5148000D01*
X-54306500Y5300000D01*
X-55275000Y5300000D01*
X-55675000Y5300000D01*
X-56643500Y5300000D01*
X-56795500Y5148000D01*
X-60525000Y5148000D01*
X-60525000Y20182500D01*
X-56419000Y20182500D01*
X-56419000Y19701061D01*
X-56326437Y19477595D01*
X-56155404Y19306562D01*
X-55931938Y19214000D01*
X-55288000Y19214000D01*
X-55136000Y19366000D01*
X-55136000Y20334500D01*
X-54736000Y20334500D01*
X-54736000Y19366000D01*
X-54584000Y19214000D01*
X-53940062Y19214000D01*
X-53716596Y19306562D01*
X-53545563Y19477595D01*
X-53453000Y19701061D01*
X-53453000Y20182500D01*
X-53605000Y20334500D01*
X-54736000Y20334500D01*
X-55136000Y20334500D01*
X-56267000Y20334500D01*
X-56419000Y20182500D01*
X-60525000Y20182500D01*
X-60525000Y22414500D01*
X-56419000Y22414500D01*
X-56419000Y21933061D01*
X-56326437Y21709595D01*
X-56267342Y21650500D01*
X-56326437Y21591405D01*
X-56419000Y21367939D01*
X-56419000Y20886500D01*
X-56267000Y20734500D01*
X-55136000Y20734500D01*
X-55136000Y22566500D01*
X-54736000Y22566500D01*
X-54736000Y20734500D01*
X-53605000Y20734500D01*
X-53453000Y20886500D01*
X-53453000Y21367939D01*
X-53545563Y21591405D01*
X-53604658Y21650500D01*
X-53545563Y21709595D01*
X-53453000Y21933061D01*
X-53453000Y22414500D01*
X-53605000Y22566500D01*
X-54736000Y22566500D01*
X-55136000Y22566500D01*
X-56267000Y22566500D01*
X-56419000Y22414500D01*
X-60525000Y22414500D01*
X-60525000Y23599939D01*
X-56419000Y23599939D01*
X-56419000Y23118500D01*
X-56267000Y22966500D01*
X-55136000Y22966500D01*
X-55136000Y23935000D01*
X-54736000Y23935000D01*
X-54736000Y22966500D01*
X-53605000Y22966500D01*
X-53453000Y23118500D01*
X-53453000Y23599939D01*
X-53545563Y23823405D01*
X-53716596Y23994438D01*
X-53940062Y24087000D01*
X-54584000Y24087000D01*
X-54736000Y23935000D01*
X-55136000Y23935000D01*
X-55288000Y24087000D01*
X-55931938Y24087000D01*
X-56155404Y23994438D01*
X-56326437Y23823405D01*
X-56419000Y23599939D01*
X-60525000Y23599939D01*
X-60525000Y32910500D01*
X-56233000Y32910500D01*
X-56233000Y32429061D01*
X-56140437Y32205595D01*
X-55969404Y32034562D01*
X-55745938Y31942000D01*
X-55102000Y31942000D01*
X-54950000Y32094000D01*
X-54950000Y33062500D01*
X-54550000Y33062500D01*
X-54550000Y32094000D01*
X-54398000Y31942000D01*
X-53754062Y31942000D01*
X-53530596Y32034562D01*
X-53359563Y32205595D01*
X-53267000Y32429061D01*
X-53267000Y32910500D01*
X-53419000Y33062500D01*
X-54550000Y33062500D01*
X-54950000Y33062500D01*
X-56081000Y33062500D01*
X-56233000Y32910500D01*
X-60525000Y32910500D01*
X-60525000Y45148000D01*
X-59708000Y45148000D01*
X-59708000Y44279062D01*
X-59615438Y44055596D01*
X-59444405Y43884563D01*
X-59220939Y43792000D01*
X-58352000Y43792000D01*
X-58200000Y43944000D01*
X-58200000Y45300000D01*
X-59556000Y45300000D01*
X-59708000Y45148000D01*
X-60525000Y45148000D01*
X-60525000Y48525000D01*
X-58827379Y48525000D01*
X-58950000Y48228967D01*
X-58950000Y48228967D01*
G37*
X-58950000Y48228967D02*
X-58950000Y47851033D01*
X-58805371Y47501868D01*
X-58538132Y47234629D01*
X-58473844Y47208000D01*
X-59220939Y47208000D01*
X-59444405Y47115437D01*
X-59615438Y46944404D01*
X-59708000Y46720938D01*
X-59708000Y45852000D01*
X-59556000Y45700000D01*
X-58200000Y45700000D01*
X-58200000Y45720000D01*
X-57800000Y45720000D01*
X-57800000Y45700000D01*
X-57780000Y45700000D01*
X-57780000Y45300000D01*
X-57800000Y45300000D01*
X-57800000Y43944000D01*
X-57648000Y43792000D01*
X-56779061Y43792000D01*
X-56555595Y43884563D01*
X-56384562Y44055596D01*
X-56312029Y44230708D01*
X-56309682Y44228361D01*
X-56158051Y44165553D01*
X-56589358Y43734245D01*
X-56643633Y43697980D01*
X-56745875Y43544963D01*
X-56787295Y43482973D01*
X-56837744Y43229356D01*
X-56825009Y43165335D01*
X-56825010Y35507638D01*
X-56837744Y35443622D01*
X-56825010Y35379606D01*
X-56825010Y35379605D01*
X-56787296Y35190006D01*
X-56643634Y34974998D01*
X-56589356Y34938731D01*
X-56055234Y34404608D01*
X-56140437Y34319405D01*
X-56233000Y34095939D01*
X-56233000Y33614500D01*
X-56081000Y33462500D01*
X-54950000Y33462500D01*
X-54950000Y33482500D01*
X-54550000Y33482500D01*
X-54550000Y33462500D01*
X-53419000Y33462500D01*
X-53267000Y33614500D01*
X-53267000Y34095939D01*
X-53268682Y34100000D01*
X-46900000Y34100000D01*
X-46899999Y32704276D01*
X-46912734Y32640255D01*
X-46874888Y32449998D01*
X-46862285Y32386638D01*
X-46718623Y32171631D01*
X-46664350Y32135367D01*
X-46620058Y32091075D01*
X-46605119Y32076137D01*
X-46605709Y32074713D01*
X-46605709Y31617215D01*
X-46430632Y31194541D01*
X-46107132Y30871041D01*
X-45684458Y30695964D01*
X-45328836Y30695964D01*
X-45328836Y29790000D01*
X-45278761Y29538257D01*
X-45136160Y29324840D01*
X-44922743Y29182239D01*
X-44671000Y29132164D01*
X-43421000Y29132164D01*
X-43169257Y29182239D01*
X-42955840Y29324840D01*
X-42813239Y29538257D01*
X-42800460Y29602500D01*
X-42580614Y29602500D01*
X-42563791Y29517928D01*
X-42536999Y29477831D01*
X-42536999Y29238021D01*
X-42549734Y29174000D01*
X-42521413Y29031625D01*
X-42499285Y28920383D01*
X-42355623Y28705376D01*
X-42301348Y28669111D01*
X-41467888Y27835649D01*
X-41431624Y27781376D01*
X-41216617Y27637714D01*
X-41027018Y27600000D01*
X-41027017Y27600000D01*
X-40963001Y27587266D01*
X-40898984Y27600000D01*
X-36401000Y27600000D01*
X-36401000Y27333500D01*
X-36249000Y27181500D01*
X-34668000Y27181500D01*
X-34668000Y27201500D01*
X-34268000Y27201500D01*
X-34268000Y27181500D01*
X-32687000Y27181500D01*
X-32535000Y27333500D01*
X-32535000Y27600000D01*
X-31814016Y27600000D01*
X-31750000Y27587266D01*
X-31685984Y27600000D01*
X-31685982Y27600000D01*
X-31496383Y27637714D01*
X-31281376Y27781376D01*
X-31245109Y27835654D01*
X-30495112Y28585649D01*
X-30495108Y28585654D01*
X-30480173Y28600590D01*
X-30478749Y28600000D01*
X-30021251Y28600000D01*
X-29598577Y28775077D01*
X-29400000Y28973654D01*
X-29399999Y24514896D01*
X-29504062Y24558000D01*
X-30148000Y24558000D01*
X-30300000Y24406000D01*
X-30300000Y23437500D01*
X-30280000Y23437500D01*
X-30280000Y23037500D01*
X-30300000Y23037500D01*
X-30300000Y23017500D01*
X-30700000Y23017500D01*
X-30700000Y23037500D01*
X-31831000Y23037500D01*
X-31983000Y22885500D01*
X-31983000Y22404061D01*
X-31908416Y22224000D01*
X-32821832Y22224000D01*
X-32861928Y22250791D01*
X-33018000Y22281836D01*
X-33806599Y22281836D01*
X-33818000Y22293237D01*
X-33818000Y22886164D01*
X-33393000Y22886164D01*
X-33141257Y22936239D01*
X-32927840Y23078840D01*
X-32785239Y23292257D01*
X-32735164Y23544000D01*
X-32735164Y24070939D01*
X-31983000Y24070939D01*
X-31983000Y23589500D01*
X-31831000Y23437500D01*
X-30700000Y23437500D01*
X-30700000Y24406000D01*
X-30852000Y24558000D01*
X-31495938Y24558000D01*
X-31719404Y24465438D01*
X-31890437Y24294405D01*
X-31983000Y24070939D01*
X-32735164Y24070939D01*
X-32735164Y24469000D01*
X-32785239Y24720743D01*
X-32927840Y24934160D01*
X-33141257Y25076761D01*
X-33393000Y25126836D01*
X-34669098Y25126836D01*
X-35203262Y25661000D01*
X-34820000Y25661000D01*
X-34668000Y25813000D01*
X-34668000Y26781500D01*
X-34268000Y26781500D01*
X-34268000Y25813000D01*
X-34116000Y25661000D01*
X-33022062Y25661000D01*
X-32798596Y25753562D01*
X-32627563Y25924595D01*
X-32535000Y26148061D01*
X-32535000Y26629500D01*
X-32687000Y26781500D01*
X-34268000Y26781500D01*
X-34668000Y26781500D01*
X-36249000Y26781500D01*
X-36286381Y26744119D01*
X-36606587Y27064324D01*
X-36642854Y27118602D01*
X-36857861Y27262264D01*
X-37047460Y27299978D01*
X-37047462Y27299978D01*
X-37111478Y27312712D01*
X-37175494Y27299978D01*
X-38957004Y27299978D01*
X-39021022Y27312712D01*
X-39085040Y27299978D01*
X-39274639Y27262264D01*
X-39489646Y27118602D01*
X-39525912Y27064326D01*
X-39761346Y26828891D01*
X-39815624Y26792624D01*
X-39959286Y26577616D01*
X-39983528Y26455743D01*
X-40004070Y26352475D01*
X-40196062Y26432000D01*
X-40315000Y26432000D01*
X-40467000Y26280000D01*
X-40467000Y25249000D01*
X-40397000Y25249000D01*
X-40397000Y24849000D01*
X-40467000Y24849000D01*
X-40467000Y23818000D01*
X-40315000Y23666000D01*
X-40196062Y23666000D01*
X-39972596Y23758562D01*
X-39821581Y23909577D01*
X-39803072Y23897209D01*
X-39647000Y23866164D01*
X-39047000Y23866164D01*
X-38890928Y23897209D01*
X-38836987Y23933251D01*
X-41816237Y20954000D01*
X-42176933Y20954000D01*
X-42129616Y20985616D01*
X-42041209Y21117928D01*
X-42010164Y21274000D01*
X-42010164Y21874000D01*
X-42041209Y22030072D01*
X-42041802Y22030960D01*
X-41472652Y22600111D01*
X-41418376Y22636376D01*
X-41274714Y22851383D01*
X-41237000Y23040982D01*
X-41237000Y23040983D01*
X-41224266Y23105000D01*
X-41237000Y23169016D01*
X-41237000Y23748454D01*
X-41037938Y23666000D01*
X-40919000Y23666000D01*
X-40767000Y23818000D01*
X-40767000Y24849000D01*
X-40837000Y24849000D01*
X-40837000Y25249000D01*
X-40767000Y25249000D01*
X-40767000Y26280000D01*
X-40919000Y26432000D01*
X-41037938Y26432000D01*
X-41261404Y26339438D01*
X-41412419Y26188423D01*
X-41430928Y26200791D01*
X-41587000Y26231836D01*
X-42187000Y26231836D01*
X-42343072Y26200791D01*
X-42475384Y26112384D01*
X-42563791Y25980072D01*
X-42594836Y25824000D01*
X-42594836Y24274000D01*
X-42563791Y24117928D01*
X-42537000Y24077831D01*
X-42536999Y23374239D01*
X-43629401Y22281836D01*
X-44418000Y22281836D01*
X-44574072Y22250791D01*
X-44706384Y22162384D01*
X-44794791Y22030072D01*
X-44825836Y21874000D01*
X-44825836Y21274000D01*
X-44794791Y21117928D01*
X-44706384Y20985616D01*
X-44636617Y20939000D01*
X-44706384Y20892384D01*
X-44794791Y20760072D01*
X-44825836Y20604000D01*
X-44825836Y20004000D01*
X-44794791Y19847928D01*
X-44706384Y19715616D01*
X-44636617Y19669000D01*
X-44706384Y19622384D01*
X-44794791Y19490072D01*
X-44825836Y19334000D01*
X-44825836Y18734000D01*
X-44794791Y18577928D01*
X-44706384Y18445616D01*
X-44636617Y18399000D01*
X-44706384Y18352384D01*
X-44794791Y18220072D01*
X-44825836Y18064000D01*
X-44825836Y17464000D01*
X-44794791Y17307928D01*
X-44706384Y17175616D01*
X-44636617Y17129000D01*
X-44706384Y17082384D01*
X-44794791Y16950072D01*
X-44825836Y16794000D01*
X-44825836Y16194000D01*
X-44794791Y16037928D01*
X-44706384Y15905616D01*
X-44636617Y15859000D01*
X-44706384Y15812384D01*
X-44794791Y15680072D01*
X-44825836Y15524000D01*
X-44825836Y14924000D01*
X-44794791Y14767928D01*
X-44706384Y14635616D01*
X-44659067Y14604000D01*
X-44784761Y14604000D01*
X-46550000Y16369237D01*
X-46550000Y25678482D01*
X-46537266Y25742500D01*
X-46587714Y25996118D01*
X-46695113Y26156852D01*
X-46731376Y26211124D01*
X-46785649Y26247388D01*
X-47463761Y26925500D01*
X-45529000Y26925500D01*
X-45529000Y26444061D01*
X-45436437Y26220595D01*
X-45265404Y26049562D01*
X-45041938Y25957000D01*
X-44398000Y25957000D01*
X-44246000Y26109000D01*
X-44246000Y27077500D01*
X-43846000Y27077500D01*
X-43846000Y26109000D01*
X-43694000Y25957000D01*
X-43050062Y25957000D01*
X-42826596Y26049562D01*
X-42655563Y26220595D01*
X-42563000Y26444061D01*
X-42563000Y26925500D01*
X-42715000Y27077500D01*
X-43846000Y27077500D01*
X-44246000Y27077500D01*
X-45377000Y27077500D01*
X-45529000Y26925500D01*
X-47463761Y26925500D01*
X-48649201Y28110939D01*
X-45529000Y28110939D01*
X-45529000Y27629500D01*
X-45377000Y27477500D01*
X-44246000Y27477500D01*
X-44246000Y28446000D01*
X-43846000Y28446000D01*
X-43846000Y27477500D01*
X-42715000Y27477500D01*
X-42563000Y27629500D01*
X-42563000Y28110939D01*
X-42655563Y28334405D01*
X-42826596Y28505438D01*
X-43050062Y28598000D01*
X-43694000Y28598000D01*
X-43846000Y28446000D01*
X-44246000Y28446000D01*
X-44398000Y28598000D01*
X-45041938Y28598000D01*
X-45265404Y28505438D01*
X-45436437Y28334405D01*
X-45529000Y28110939D01*
X-48649201Y28110939D01*
X-48740109Y28201846D01*
X-48776376Y28256124D01*
X-48991383Y28399786D01*
X-49180982Y28437500D01*
X-49180984Y28437500D01*
X-49245000Y28450234D01*
X-49309016Y28437500D01*
X-49337164Y28437500D01*
X-49337164Y31725000D01*
X-49368209Y31881072D01*
X-49456616Y32013384D01*
X-49588928Y32101791D01*
X-49745000Y32132836D01*
X-51745000Y32132836D01*
X-51901072Y32101791D01*
X-52033384Y32013384D01*
X-52121791Y31881072D01*
X-52152836Y31725000D01*
X-52152836Y26527902D01*
X-52289237Y26391500D01*
X-53690460Y26391500D01*
X-53703239Y26455743D01*
X-53845840Y26669160D01*
X-54059257Y26811761D01*
X-54311000Y26861836D01*
X-55561000Y26861836D01*
X-55812743Y26811761D01*
X-56026160Y26669160D01*
X-56168761Y26455743D01*
X-56218836Y26204000D01*
X-56218836Y25279000D01*
X-56168761Y25027257D01*
X-56026160Y24813840D01*
X-55812743Y24671239D01*
X-55561000Y24621164D01*
X-54311000Y24621164D01*
X-54059257Y24671239D01*
X-53845840Y24813840D01*
X-53703239Y25027257D01*
X-53690460Y25091500D01*
X-52152836Y25091500D01*
X-52152836Y23850000D01*
X-52121791Y23693928D01*
X-52033384Y23561616D01*
X-51901072Y23473209D01*
X-51745000Y23442164D01*
X-49745000Y23442164D01*
X-49588928Y23473209D01*
X-49456616Y23561616D01*
X-49368209Y23693928D01*
X-49337164Y23850000D01*
X-49337164Y26960427D01*
X-47849999Y25473260D01*
X-47850000Y16164016D01*
X-47862734Y16100000D01*
X-47850000Y16035984D01*
X-47850000Y16035983D01*
X-47812286Y15846384D01*
X-47668624Y15631376D01*
X-47614346Y15595109D01*
X-45558888Y13539649D01*
X-45522624Y13485376D01*
X-45307617Y13341714D01*
X-45268837Y13334000D01*
X-46014761Y13334000D01*
X-49007609Y16326846D01*
X-49043876Y16381124D01*
X-49258883Y16524786D01*
X-49337164Y16540357D01*
X-49337164Y19850000D01*
X-49368209Y20006072D01*
X-49456616Y20138384D01*
X-49588928Y20226791D01*
X-49745000Y20257836D01*
X-51745000Y20257836D01*
X-51901072Y20226791D01*
X-52033384Y20138384D01*
X-52121791Y20006072D01*
X-52152836Y19850000D01*
X-52152836Y15791500D01*
X-52248761Y15791500D01*
X-53653164Y17195902D01*
X-53653164Y18022000D01*
X-53703239Y18273743D01*
X-53845840Y18487160D01*
X-54059257Y18629761D01*
X-54311000Y18679836D01*
X-55561000Y18679836D01*
X-55812743Y18629761D01*
X-56026160Y18487160D01*
X-56168761Y18273743D01*
X-56218836Y18022000D01*
X-56218836Y17097000D01*
X-56168761Y16845257D01*
X-56026160Y16631840D01*
X-55812743Y16489239D01*
X-55561000Y16439164D01*
X-54734902Y16439164D01*
X-53022887Y14727149D01*
X-52986624Y14672876D01*
X-52771617Y14529214D01*
X-52582018Y14491500D01*
X-52582017Y14491500D01*
X-52518001Y14478766D01*
X-52453984Y14491500D01*
X-52152836Y14491500D01*
X-52152836Y11975000D01*
X-52121791Y11818928D01*
X-52033384Y11686616D01*
X-51901072Y11598209D01*
X-51745000Y11567164D01*
X-49745000Y11567164D01*
X-49588928Y11598209D01*
X-49456616Y11686616D01*
X-49368209Y11818928D01*
X-49337164Y11975000D01*
X-49337164Y14817927D01*
X-46788887Y12269649D01*
X-46752624Y12215376D01*
X-46537617Y12071714D01*
X-46348018Y12034000D01*
X-46348017Y12034000D01*
X-46284001Y12021266D01*
X-46219985Y12034000D01*
X-44943546Y12034000D01*
X-45026000Y11834938D01*
X-45026000Y11716000D01*
X-44874000Y11564000D01*
X-43618000Y11564000D01*
X-43618000Y11634000D01*
X-43218000Y11634000D01*
X-43218000Y11564000D01*
X-41962000Y11564000D01*
X-41810000Y11716000D01*
X-41810000Y11834938D01*
X-41902562Y12058404D01*
X-42053577Y12209419D01*
X-42041209Y12227928D01*
X-42010164Y12384000D01*
X-42010164Y12984000D01*
X-42041209Y13140072D01*
X-42129616Y13272384D01*
X-42199383Y13319000D01*
X-42129616Y13365616D01*
X-42041209Y13497928D01*
X-42010164Y13654000D01*
X-42010164Y14254000D01*
X-42041209Y14410072D01*
X-42129616Y14542384D01*
X-42199383Y14589000D01*
X-42129616Y14635616D01*
X-42041209Y14767928D01*
X-42010164Y14924000D01*
X-42010164Y15524000D01*
X-42041209Y15680072D01*
X-42129616Y15812384D01*
X-42199383Y15859000D01*
X-42129616Y15905616D01*
X-42041209Y16037928D01*
X-42010164Y16194000D01*
X-42010164Y16794000D01*
X-42041209Y16950072D01*
X-42129616Y17082384D01*
X-42199383Y17129000D01*
X-42129616Y17175616D01*
X-42041209Y17307928D01*
X-42010164Y17464000D01*
X-42010164Y18064000D01*
X-42041209Y18220072D01*
X-42129616Y18352384D01*
X-42199383Y18399000D01*
X-42129616Y18445616D01*
X-42041209Y18577928D01*
X-42010164Y18734000D01*
X-42010164Y19334000D01*
X-42041209Y19490072D01*
X-42129616Y19622384D01*
X-42176933Y19654000D01*
X-41611016Y19654000D01*
X-41547000Y19641266D01*
X-41482984Y19654000D01*
X-41482982Y19654000D01*
X-41293383Y19691714D01*
X-41078376Y19835376D01*
X-41042109Y19889654D01*
X-37662651Y23269111D01*
X-37608376Y23305376D01*
X-37464714Y23520383D01*
X-37427000Y23709982D01*
X-37427000Y23709983D01*
X-37414266Y23773999D01*
X-37427000Y23838016D01*
X-37427000Y24077832D01*
X-37400209Y24117928D01*
X-37369164Y24274000D01*
X-37369164Y25824000D01*
X-37400209Y25980072D01*
X-37413510Y25999978D01*
X-37380715Y25999978D01*
X-36131022Y24750284D01*
X-36150761Y24720743D01*
X-36200836Y24469000D01*
X-36200836Y23544000D01*
X-36150761Y23292257D01*
X-36131022Y23262716D01*
X-38414348Y20979389D01*
X-38468623Y20943124D01*
X-38608020Y20734500D01*
X-38612285Y20728117D01*
X-38662734Y20474500D01*
X-38649999Y20410479D01*
X-38650000Y14169239D01*
X-41769237Y11050000D01*
X-41810000Y11050000D01*
X-41810000Y11112000D01*
X-41962000Y11264000D01*
X-43218000Y11264000D01*
X-43218000Y11194000D01*
X-43618000Y11194000D01*
X-43618000Y11264000D01*
X-44874000Y11264000D01*
X-45026000Y11112000D01*
X-45026000Y11050000D01*
X-54535982Y11050000D01*
X-54600000Y11062734D01*
X-54664018Y11050000D01*
X-54853617Y11012286D01*
X-55068624Y10868624D01*
X-55104887Y10814351D01*
X-56578486Y9340752D01*
X-56721523Y9400000D01*
X-57278477Y9400000D01*
X-57793037Y9186863D01*
X-58186863Y8793037D01*
X-58400000Y8278477D01*
X-58400000Y7721523D01*
X-58186863Y7206963D01*
X-57793037Y6813137D01*
X-57278477Y6600000D01*
X-56752396Y6600000D01*
X-56795500Y6495938D01*
X-56795500Y5852000D01*
X-56643500Y5700000D01*
X-55675000Y5700000D01*
X-55675000Y6831000D01*
X-55275000Y6831000D01*
X-55275000Y5700000D01*
X-54306500Y5700000D01*
X-54154500Y5852000D01*
X-54154500Y6495938D01*
X-54247062Y6719404D01*
X-54418095Y6890437D01*
X-54641561Y6983000D01*
X-55123000Y6983000D01*
X-55275000Y6831000D01*
X-55675000Y6831000D01*
X-55827000Y6983000D01*
X-56037100Y6983000D01*
X-55813137Y7206963D01*
X-55600000Y7721523D01*
X-55600000Y8278477D01*
X-55659248Y8421514D01*
X-54330761Y9750000D01*
X-47213241Y9750000D01*
X-48313239Y8650000D01*
X-51253889Y8650000D01*
X-51313137Y8793037D01*
X-51706963Y9186863D01*
X-52221523Y9400000D01*
X-52778477Y9400000D01*
X-53293037Y9186863D01*
X-53686863Y8793037D01*
X-53900000Y8278477D01*
X-53900000Y7721523D01*
X-53686863Y7206963D01*
X-53293037Y6813137D01*
X-53149999Y6753889D01*
X-53150000Y6745540D01*
X-53214243Y6732761D01*
X-53427660Y6590160D01*
X-53570261Y6376743D01*
X-53620336Y6125000D01*
X-53620336Y4875000D01*
X-53570261Y4623257D01*
X-53427660Y4409840D01*
X-53214243Y4267239D01*
X-52962500Y4217164D01*
X-52037500Y4217164D01*
X-51785757Y4267239D01*
X-51572340Y4409840D01*
X-51429739Y4623257D01*
X-51379664Y4875000D01*
X-51379664Y5148000D01*
X-45558000Y5148000D01*
X-45558000Y4504062D01*
X-45465438Y4280596D01*
X-45294405Y4109563D01*
X-45070939Y4017000D01*
X-44589500Y4017000D01*
X-44437500Y4169000D01*
X-44437500Y5300000D01*
X-44037500Y5300000D01*
X-44037500Y4169000D01*
X-43885500Y4017000D01*
X-43404061Y4017000D01*
X-43180595Y4109563D01*
X-43009562Y4280596D01*
X-42917000Y4504062D01*
X-42917000Y5148000D01*
X-43069000Y5300000D01*
X-44037500Y5300000D01*
X-44437500Y5300000D01*
X-45406000Y5300000D01*
X-45558000Y5148000D01*
X-51379664Y5148000D01*
X-51379664Y6125000D01*
X-51429739Y6376743D01*
X-51572340Y6590160D01*
X-51785757Y6732761D01*
X-51850000Y6745540D01*
X-51850000Y6753889D01*
X-51706963Y6813137D01*
X-51313137Y7206963D01*
X-51253889Y7350000D01*
X-48108018Y7350000D01*
X-48044002Y7337266D01*
X-47979986Y7350000D01*
X-47979984Y7350000D01*
X-47790385Y7387714D01*
X-47575378Y7531376D01*
X-47539111Y7585654D01*
X-47150000Y7974764D01*
X-47150000Y7721523D01*
X-46936863Y7206963D01*
X-46543037Y6813137D01*
X-46028477Y6600000D01*
X-45514896Y6600000D01*
X-45558000Y6495938D01*
X-45558000Y5852000D01*
X-45406000Y5700000D01*
X-44437500Y5700000D01*
X-44437500Y6831000D01*
X-44037500Y6831000D01*
X-44037500Y5700000D01*
X-43069000Y5700000D01*
X-42917000Y5852000D01*
X-42917000Y6495938D01*
X-43009562Y6719404D01*
X-43180595Y6890437D01*
X-43404061Y6983000D01*
X-43885500Y6983000D01*
X-44037500Y6831000D01*
X-44437500Y6831000D01*
X-44589500Y6983000D01*
X-44787100Y6983000D01*
X-44563137Y7206963D01*
X-44350000Y7721523D01*
X-44350000Y8278477D01*
X-44563137Y8793037D01*
X-44645089Y8874989D01*
X-42354911Y8874989D01*
X-42436863Y8793037D01*
X-42650000Y8278477D01*
X-42650000Y7721523D01*
X-42436863Y7206963D01*
X-42043037Y6813137D01*
X-41899999Y6753889D01*
X-41899999Y6748026D01*
X-41976743Y6732761D01*
X-42190160Y6590160D01*
X-42332761Y6376743D01*
X-42382836Y6125000D01*
X-42382836Y4875000D01*
X-42332761Y4623257D01*
X-42190160Y4409840D01*
X-41976743Y4267239D01*
X-41725000Y4217164D01*
X-40800000Y4217164D01*
X-40548257Y4267239D01*
X-40334840Y4409840D01*
X-40192239Y4623257D01*
X-40142164Y4875000D01*
X-40142164Y5148000D01*
X-35308000Y5148000D01*
X-35308000Y4504062D01*
X-35215438Y4280596D01*
X-35044405Y4109563D01*
X-34820939Y4017000D01*
X-34339500Y4017000D01*
X-34187500Y4169000D01*
X-34187500Y5300000D01*
X-33787500Y5300000D01*
X-33787500Y4169000D01*
X-33635500Y4017000D01*
X-33154061Y4017000D01*
X-32930595Y4109563D01*
X-32759562Y4280596D01*
X-32667000Y4504062D01*
X-32667000Y5148000D01*
X-32819000Y5300000D01*
X-33787500Y5300000D01*
X-34187500Y5300000D01*
X-35156000Y5300000D01*
X-35308000Y5148000D01*
X-40142164Y5148000D01*
X-40142164Y6125000D01*
X-40192239Y6376743D01*
X-40334840Y6590160D01*
X-40548257Y6732761D01*
X-40600000Y6743053D01*
X-40600000Y6753889D01*
X-40456963Y6813137D01*
X-40063137Y7206963D01*
X-39850000Y7721523D01*
X-39850000Y8278477D01*
X-39879625Y8349999D01*
X-36870375Y8349999D01*
X-36900000Y8278477D01*
X-36900000Y7721523D01*
X-36686863Y7206963D01*
X-36293037Y6813137D01*
X-35778477Y6600000D01*
X-35264896Y6600000D01*
X-35308000Y6495938D01*
X-35308000Y5852000D01*
X-35156000Y5700000D01*
X-34187500Y5700000D01*
X-34187500Y6831000D01*
X-33787500Y6831000D01*
X-33787500Y5700000D01*
X-32819000Y5700000D01*
X-32667000Y5852000D01*
X-32667000Y6495938D01*
X-32759562Y6719404D01*
X-32930595Y6890437D01*
X-33154061Y6983000D01*
X-33635500Y6983000D01*
X-33787500Y6831000D01*
X-34187500Y6831000D01*
X-34339500Y6983000D01*
X-34537100Y6983000D01*
X-34313137Y7206963D01*
X-34100000Y7721523D01*
X-34100000Y8278477D01*
X-34313137Y8793037D01*
X-34370089Y8849989D01*
X-32129911Y8849989D01*
X-32186863Y8793037D01*
X-32400000Y8278477D01*
X-32400000Y7721523D01*
X-32186863Y7206963D01*
X-31793037Y6813137D01*
X-31662499Y6759067D01*
X-31662499Y6745540D01*
X-31726743Y6732761D01*
X-31940160Y6590160D01*
X-32082761Y6376743D01*
X-32132836Y6125000D01*
X-32132836Y4875000D01*
X-32082761Y4623257D01*
X-31940160Y4409840D01*
X-31726743Y4267239D01*
X-31475000Y4217164D01*
X-30550000Y4217164D01*
X-30298257Y4267239D01*
X-30084840Y4409840D01*
X-29942239Y4623257D01*
X-29892164Y4875000D01*
X-29892164Y5216688D01*
X-26667595Y5216688D01*
X-26667595Y4547750D01*
X-26515595Y4395750D01*
X-25359595Y4395750D01*
X-25359595Y5551750D01*
X-24959595Y5551750D01*
X-24959595Y4395750D01*
X-24939595Y4395750D01*
X-24939595Y3995750D01*
X-24959595Y3995750D01*
X-24959595Y2839750D01*
X-24807595Y2687750D01*
X-24138656Y2687750D01*
X-23915190Y2780313D01*
X-23744157Y2951346D01*
X-23651595Y3174812D01*
X-23651595Y3389272D01*
X-23355986Y3093663D01*
X-22878181Y2895750D01*
X-22361009Y2895750D01*
X-21883204Y3093663D01*
X-21517508Y3459359D01*
X-21319595Y3937164D01*
X-21319595Y4454336D01*
X-21410945Y4674875D01*
X-21407095Y4694232D01*
X-21407095Y4694233D01*
X-21394361Y4758249D01*
X-21407095Y4822266D01*
X-21407095Y5562000D01*
X-19345836Y5562000D01*
X-19345836Y3962000D01*
X-19314791Y3805928D01*
X-19226384Y3673616D01*
X-19094072Y3585209D01*
X-18938000Y3554164D01*
X-17338000Y3554164D01*
X-17181928Y3585209D01*
X-17049616Y3673616D01*
X-16961209Y3805928D01*
X-16930164Y3962000D01*
X-16930164Y5562000D01*
X-16961209Y5718072D01*
X-17049616Y5850384D01*
X-17181928Y5938791D01*
X-17338000Y5969836D01*
X-18938000Y5969836D01*
X-19094072Y5938791D01*
X-19226384Y5850384D01*
X-19314791Y5718072D01*
X-19345836Y5562000D01*
X-21407095Y5562000D01*
X-21407095Y6754460D01*
X-21342852Y6767239D01*
X-21129435Y6909840D01*
X-20986834Y7123257D01*
X-20951280Y7302000D01*
X-19361509Y7302000D01*
X-19268375Y6833783D01*
X-19003152Y6436848D01*
X-18606217Y6171625D01*
X-18256188Y6102000D01*
X-18019812Y6102000D01*
X-17669783Y6171625D01*
X-17272848Y6436848D01*
X-17007625Y6833783D01*
X-16966507Y7040500D01*
X-8260000Y7040500D01*
X-8260000Y6559061D01*
X-8167437Y6335595D01*
X-7996404Y6164562D01*
X-7772938Y6072000D01*
X-6679000Y6072000D01*
X-6527000Y6224000D01*
X-6527000Y7192500D01*
X-6127000Y7192500D01*
X-6127000Y6224000D01*
X-5975000Y6072000D01*
X-4881062Y6072000D01*
X-4657596Y6164562D01*
X-4486563Y6335595D01*
X-4394000Y6559061D01*
X-4394000Y7040500D01*
X-4546000Y7192500D01*
X-6127000Y7192500D01*
X-6527000Y7192500D01*
X-8108000Y7192500D01*
X-8260000Y7040500D01*
X-16966507Y7040500D01*
X-16914491Y7302000D01*
X-17007625Y7770217D01*
X-17272848Y8167152D01*
X-17360829Y8225939D01*
X-8260000Y8225939D01*
X-8260000Y7744500D01*
X-8108000Y7592500D01*
X-6527000Y7592500D01*
X-6527000Y8561000D01*
X-6127000Y8561000D01*
X-6127000Y7592500D01*
X-4546000Y7592500D01*
X-4394000Y7744500D01*
X-4394000Y8225939D01*
X-4486563Y8449405D01*
X-4657596Y8620438D01*
X-4881062Y8713000D01*
X-5975000Y8713000D01*
X-6127000Y8561000D01*
X-6527000Y8561000D01*
X-6679000Y8713000D01*
X-7772938Y8713000D01*
X-7996404Y8620438D01*
X-8167437Y8449405D01*
X-8260000Y8225939D01*
X-17360829Y8225939D01*
X-17669783Y8432375D01*
X-18019812Y8502000D01*
X-18256188Y8502000D01*
X-18606217Y8432375D01*
X-19003152Y8167152D01*
X-19268375Y7770217D01*
X-19361509Y7302000D01*
X-20951280Y7302000D01*
X-20936759Y7375000D01*
X-20936759Y8625000D01*
X-20986834Y8876743D01*
X-21129435Y9090160D01*
X-21342852Y9232761D01*
X-21594595Y9282836D01*
X-22519595Y9282836D01*
X-22771338Y9232761D01*
X-22984755Y9090160D01*
X-23127356Y8876743D01*
X-23177431Y8625000D01*
X-23177431Y7375000D01*
X-23127356Y7123257D01*
X-22984755Y6909840D01*
X-22771338Y6767239D01*
X-22707095Y6754460D01*
X-22707094Y5495750D01*
X-22878181Y5495750D01*
X-23355986Y5297837D01*
X-23651595Y5002228D01*
X-23651595Y5216688D01*
X-23744157Y5440154D01*
X-23915190Y5611187D01*
X-24138656Y5703750D01*
X-24807595Y5703750D01*
X-24959595Y5551750D01*
X-25359595Y5551750D01*
X-25511595Y5703750D01*
X-26180534Y5703750D01*
X-26404000Y5611187D01*
X-26575033Y5440154D01*
X-26667595Y5216688D01*
X-29892164Y5216688D01*
X-29892164Y6125000D01*
X-29942239Y6376743D01*
X-30084840Y6590160D01*
X-30298257Y6732761D01*
X-30362500Y6745540D01*
X-30362500Y6748712D01*
X-30206963Y6813137D01*
X-29813137Y7206963D01*
X-29753889Y7350000D01*
X-28825328Y7350000D01*
X-28750000Y7335016D01*
X-28496383Y7385465D01*
X-28335649Y7492864D01*
X-28281377Y7529127D01*
X-28245113Y7583400D01*
X-27203513Y8625000D01*
X-26152431Y8625000D01*
X-26152431Y7375000D01*
X-26102356Y7123257D01*
X-25959755Y6909840D01*
X-25746338Y6767239D01*
X-25494595Y6717164D01*
X-24569595Y6717164D01*
X-24317852Y6767239D01*
X-24104435Y6909840D01*
X-23961834Y7123257D01*
X-23911759Y7375000D01*
X-23911759Y8625000D01*
X-23961834Y8876743D01*
X-24104435Y9090160D01*
X-24150915Y9121217D01*
X-21305696Y11966436D01*
X-19483277Y11966436D01*
X-19383115Y11724584D01*
X-19036754Y11298142D01*
X-18553566Y11036707D01*
X-18338002Y11140260D01*
X-18338002Y11025726D01*
X-18606217Y10972375D01*
X-19003152Y10707152D01*
X-19268375Y10310217D01*
X-19361509Y9842000D01*
X-19268375Y9373783D01*
X-19003152Y8976848D01*
X-18606217Y8711625D01*
X-18256188Y8642000D01*
X-18019812Y8642000D01*
X-17669783Y8711625D01*
X-17272848Y8976848D01*
X-17007625Y9373783D01*
X-16914491Y9842000D01*
X-17007625Y10310217D01*
X-17272848Y10707152D01*
X-17669783Y10972375D01*
X-17937998Y11025726D01*
X-17937998Y11140260D01*
X-17722434Y11036707D01*
X-17239246Y11298142D01*
X-16892885Y11724584D01*
X-16792723Y11966436D01*
X-16898026Y12182000D01*
X-17938000Y12182000D01*
X-17938000Y12162000D01*
X-18338000Y12162000D01*
X-18338000Y12182000D01*
X-19377974Y12182000D01*
X-19483277Y11966436D01*
X-21305696Y11966436D01*
X-19088120Y14184011D01*
X-19003152Y14056848D01*
X-18606217Y13791625D01*
X-18338002Y13738274D01*
X-18338002Y13623740D01*
X-18553566Y13727293D01*
X-19036754Y13465858D01*
X-19383115Y13039416D01*
X-19483277Y12797564D01*
X-19377974Y12582000D01*
X-18338000Y12582000D01*
X-18338000Y12602000D01*
X-17938000Y12602000D01*
X-17938000Y12582000D01*
X-16898026Y12582000D01*
X-16792723Y12797564D01*
X-16892885Y13039416D01*
X-17239246Y13465858D01*
X-17722434Y13727293D01*
X-17937998Y13623740D01*
X-17937998Y13738274D01*
X-17669783Y13791625D01*
X-17272848Y14056848D01*
X-17007625Y14453783D01*
X-16914491Y14922000D01*
X-17007625Y15390217D01*
X-17272848Y15787152D01*
X-17669783Y16052375D01*
X-18019812Y16122000D01*
X-18256188Y16122000D01*
X-18606217Y16052375D01*
X-19003152Y15787152D01*
X-19146912Y15572000D01*
X-19205354Y15572000D01*
X-19269370Y15584734D01*
X-19333387Y15572000D01*
X-19333388Y15572000D01*
X-19522987Y15534286D01*
X-19737994Y15390624D01*
X-19774257Y15336352D01*
X-25446443Y9664164D01*
X-25500718Y9627899D01*
X-25643406Y9414350D01*
X-25644380Y9412892D01*
X-25677487Y9246456D01*
X-25746338Y9232761D01*
X-25959755Y9090160D01*
X-26102356Y8876743D01*
X-26152431Y8625000D01*
X-27203513Y8625000D01*
X-19094681Y16733830D01*
X-19003152Y16596848D01*
X-18606217Y16331625D01*
X-18256188Y16262000D01*
X-18019812Y16262000D01*
X-17669783Y16331625D01*
X-17272848Y16596848D01*
X-17007625Y16993783D01*
X-16914491Y17462000D01*
X-17007625Y17930217D01*
X-17272848Y18327152D01*
X-17669783Y18592375D01*
X-18019812Y18662000D01*
X-18256188Y18662000D01*
X-18606217Y18592375D01*
X-18673027Y18547734D01*
X-18391789Y18828973D01*
X-18256188Y18802000D01*
X-18019812Y18802000D01*
X-17669783Y18871625D01*
X-17272848Y19136848D01*
X-17007625Y19533783D01*
X-16914491Y20002000D01*
X-17007625Y20470217D01*
X-17272848Y20867152D01*
X-17669783Y21132375D01*
X-18019812Y21202000D01*
X-18256188Y21202000D01*
X-18606217Y21132375D01*
X-18673027Y21087734D01*
X-18433113Y21327648D01*
X-18433109Y21327653D01*
X-18391790Y21368973D01*
X-18256188Y21342000D01*
X-18019812Y21342000D01*
X-17669783Y21411625D01*
X-17272848Y21676848D01*
X-17007625Y22073783D01*
X-16914491Y22542000D01*
X-17007625Y23010217D01*
X-17272848Y23407152D01*
X-17669783Y23672375D01*
X-18019812Y23742000D01*
X-18256188Y23742000D01*
X-18606217Y23672375D01*
X-18673027Y23627734D01*
X-18433113Y23867648D01*
X-18433109Y23867653D01*
X-18391790Y23908973D01*
X-18256188Y23882000D01*
X-18019812Y23882000D01*
X-17669783Y23951625D01*
X-17272848Y24216848D01*
X-17007625Y24613783D01*
X-16914491Y25082000D01*
X-17007625Y25550217D01*
X-17272848Y25947152D01*
X-17669783Y26212375D01*
X-18019812Y26282000D01*
X-18256188Y26282000D01*
X-18606217Y26212375D01*
X-18673028Y26167733D01*
X-18391789Y26448973D01*
X-18256188Y26422000D01*
X-18019812Y26422000D01*
X-17669783Y26491625D01*
X-17272848Y26756848D01*
X-17007625Y27153783D01*
X-16914491Y27622000D01*
X-17007625Y28090217D01*
X-17272848Y28487152D01*
X-17669783Y28752375D01*
X-18019812Y28822000D01*
X-18256188Y28822000D01*
X-18606217Y28752375D01*
X-19003152Y28487152D01*
X-19268375Y28090217D01*
X-19361509Y27622000D01*
X-19311027Y27368211D01*
X-23029237Y23650000D01*
X-23228749Y23650000D01*
X-23651423Y23474923D01*
X-23974923Y23151423D01*
X-24100000Y22849460D01*
X-24100000Y28973654D01*
X-23901423Y28775077D01*
X-23478749Y28600000D01*
X-23021251Y28600000D01*
X-22598577Y28775077D01*
X-22275077Y29098577D01*
X-22274488Y29100000D01*
X-21154016Y29100000D01*
X-21090000Y29087266D01*
X-21025984Y29100000D01*
X-21025982Y29100000D01*
X-20836383Y29137714D01*
X-20621376Y29281376D01*
X-20585109Y29335654D01*
X-19223732Y30697030D01*
X-19268375Y30630217D01*
X-19361509Y30162000D01*
X-19268375Y29693783D01*
X-19003152Y29296848D01*
X-18606217Y29031625D01*
X-18256188Y28962000D01*
X-18019812Y28962000D01*
X-17669783Y29031625D01*
X-17272848Y29296848D01*
X-17007625Y29693783D01*
X-16914491Y30162000D01*
X-17007625Y30630217D01*
X-17272848Y31027152D01*
X-17669783Y31292375D01*
X-18019812Y31362000D01*
X-18256188Y31362000D01*
X-18606217Y31292375D01*
X-18673029Y31247733D01*
X-18391789Y31528973D01*
X-18256188Y31502000D01*
X-18019812Y31502000D01*
X-17669783Y31571625D01*
X-17272848Y31836848D01*
X-17007625Y32233783D01*
X-16914491Y32702000D01*
X-17007625Y33170217D01*
X-17272848Y33567152D01*
X-17669783Y33832375D01*
X-18019812Y33902000D01*
X-18256188Y33902000D01*
X-18606217Y33832375D01*
X-19003152Y33567152D01*
X-19268375Y33170217D01*
X-19361509Y32702000D01*
X-19311027Y32448211D01*
X-21359237Y30400000D01*
X-22274488Y30400000D01*
X-22275077Y30401423D01*
X-22598577Y30724923D01*
X-23021251Y30900000D01*
X-23478749Y30900000D01*
X-23901423Y30724923D01*
X-24100000Y30526346D01*
X-24100000Y30900763D01*
X-19223733Y35777028D01*
X-19268375Y35710217D01*
X-19361509Y35242000D01*
X-19268375Y34773783D01*
X-19003152Y34376848D01*
X-18606217Y34111625D01*
X-18256188Y34042000D01*
X-18019812Y34042000D01*
X-17669783Y34111625D01*
X-17272848Y34376848D01*
X-17007625Y34773783D01*
X-16914491Y35242000D01*
X-16964973Y35495789D01*
X-16833115Y35627646D01*
X-16833111Y35627651D01*
X-16085649Y36375112D01*
X-16031376Y36411376D01*
X-15899999Y36607997D01*
X-15900000Y22814016D01*
X-15912734Y22750000D01*
X-15900000Y22685984D01*
X-15900000Y22685983D01*
X-15862286Y22496384D01*
X-15718624Y22281376D01*
X-15664346Y22245109D01*
X-5386889Y11967651D01*
X-5350624Y11913376D01*
X-5135617Y11769714D01*
X-4946018Y11732000D01*
X-4946017Y11732000D01*
X-4882001Y11719266D01*
X-4817984Y11732000D01*
X-3906912Y11732000D01*
X-3763152Y11516848D01*
X-3366217Y11251625D01*
X-3016188Y11182000D01*
X-2779812Y11182000D01*
X-2429783Y11251625D01*
X-2032848Y11516848D01*
X-1899999Y11715671D01*
X-1899999Y10508329D01*
X-2032848Y10707152D01*
X-2429783Y10972375D01*
X-2779812Y11042000D01*
X-3016188Y11042000D01*
X-3366217Y10972375D01*
X-3763152Y10707152D01*
X-4028375Y10310217D01*
X-4121509Y9842000D01*
X-4028375Y9373783D01*
X-3763152Y8976848D01*
X-3366217Y8711625D01*
X-3098002Y8658274D01*
X-3098002Y8543740D01*
X-3313566Y8647293D01*
X-3796754Y8385858D01*
X-4143115Y7959416D01*
X-4243277Y7717564D01*
X-4137974Y7502000D01*
X-3098000Y7502000D01*
X-3098000Y7522000D01*
X-2698000Y7522000D01*
X-2698000Y7502000D01*
X-2678000Y7502000D01*
X-2678000Y7102000D01*
X-2698000Y7102000D01*
X-2698000Y7082000D01*
X-3098000Y7082000D01*
X-3098000Y7102000D01*
X-4137974Y7102000D01*
X-4243277Y6886436D01*
X-4143115Y6644584D01*
X-3796754Y6218142D01*
X-3313566Y5956707D01*
X-3098002Y6060260D01*
X-3098002Y5945726D01*
X-3366217Y5892375D01*
X-3763152Y5627152D01*
X-4028375Y5230217D01*
X-4060741Y5067500D01*
X-4631460Y5067500D01*
X-4644239Y5131743D01*
X-4786840Y5345160D01*
X-5000257Y5487761D01*
X-5252000Y5537836D01*
X-7402000Y5537836D01*
X-7653743Y5487761D01*
X-7867160Y5345160D01*
X-8009761Y5131743D01*
X-8059836Y4880000D01*
X-8059836Y3955000D01*
X-8009761Y3703257D01*
X-7867160Y3489840D01*
X-7653743Y3347239D01*
X-7402000Y3297164D01*
X-5252000Y3297164D01*
X-5000257Y3347239D01*
X-4786840Y3489840D01*
X-4644239Y3703257D01*
X-4631460Y3767500D01*
X-3569569Y3767500D01*
X-3366217Y3631625D01*
X-3016188Y3562000D01*
X-2779812Y3562000D01*
X-2429783Y3631625D01*
X-2057722Y3880228D01*
X-1886837Y3914219D01*
X-1589136Y4113136D01*
X-1538922Y4188287D01*
X-475000Y5252207D01*
X-475000Y475000D01*
X-30045100Y475000D01*
X-29813137Y706963D01*
X-29600000Y1221523D01*
X-29600000Y1778477D01*
X-29813137Y2293037D01*
X-30206963Y2686863D01*
X-30721523Y2900000D01*
X-31278477Y2900000D01*
X-31793037Y2686863D01*
X-32186863Y2293037D01*
X-32400000Y1778477D01*
X-32400000Y1221523D01*
X-32186863Y706963D01*
X-31954900Y475000D01*
X-34545100Y475000D01*
X-34313137Y706963D01*
X-34100000Y1221523D01*
X-34100000Y1778477D01*
X-34313137Y2293037D01*
X-34706963Y2686863D01*
X-35221523Y2900000D01*
X-35778477Y2900000D01*
X-35921515Y2840752D01*
X-35995109Y2914346D01*
X-35995113Y2914352D01*
X-36545110Y3464347D01*
X-36581377Y3518625D01*
X-36796384Y3662287D01*
X-36985983Y3700001D01*
X-36985985Y3700001D01*
X-37050001Y3712735D01*
X-37114017Y3700001D01*
X-44135984Y3700001D01*
X-44200000Y3712735D01*
X-44264016Y3700001D01*
X-44264017Y3700001D01*
X-44453616Y3662287D01*
X-44668623Y3518625D01*
X-44704887Y3464352D01*
X-45328486Y2840752D01*
X-45471523Y2900000D01*
X-46028477Y2900000D01*
X-46171514Y2840752D01*
X-46745109Y3414346D01*
X-46781376Y3468624D01*
X-46996383Y3612286D01*
X-47185982Y3650000D01*
X-47185984Y3650000D01*
X-47250000Y3662734D01*
X-47314016Y3650000D01*
X-51483993Y3650000D01*
X-51502382Y3662287D01*
X-51691981Y3700001D01*
X-51691983Y3700001D01*
X-51755999Y3712735D01*
X-51820015Y3700001D01*
X-53179985Y3700001D01*
X-53244002Y3712735D01*
X-53308018Y3700001D01*
X-53308019Y3700001D01*
X-53497618Y3662287D01*
X-53516007Y3650000D01*
X-55435984Y3650000D01*
X-55500001Y3662734D01*
X-55564017Y3650000D01*
X-55564018Y3650000D01*
X-55753617Y3612286D01*
X-55968624Y3468624D01*
X-56004888Y3414351D01*
X-56578486Y2840752D01*
X-56721523Y2900000D01*
X-57278477Y2900000D01*
X-57793037Y2686863D01*
X-58186863Y2293037D01*
X-58400000Y1778477D01*
X-58400000Y1221523D01*
X-58186863Y706963D01*
X-57954900Y475000D01*
X-60525000Y475000D01*
X-60525000Y3843750D01*
X-26667595Y3843750D01*
X-26667595Y3174812D01*
X-26575033Y2951346D01*
X-26404000Y2780313D01*
X-26180534Y2687750D01*
X-25511595Y2687750D01*
X-25359595Y2839750D01*
X-25359595Y3995750D01*
X-26515595Y3995750D01*
X-26667595Y3843750D01*
X-60525000Y3843750D01*
X-60525000Y5148000D01*
X-56795500Y5148000D01*
X-56795500Y4504062D01*
X-56702938Y4280596D01*
X-56531905Y4109563D01*
X-56308439Y4017000D01*
X-55827000Y4017000D01*
X-55675000Y4169000D01*
X-55675000Y5300000D01*
X-55275000Y5300000D01*
X-55275000Y4169000D01*
X-55123000Y4017000D01*
X-54641561Y4017000D01*
X-54418095Y4109563D01*
X-54247062Y4280596D01*
X-54154500Y4504062D01*
X-54154500Y5148000D01*
X-54306500Y5300000D01*
X-55275000Y5300000D01*
X-55675000Y5300000D01*
X-56643500Y5300000D01*
X-56795500Y5148000D01*
X-60525000Y5148000D01*
X-60525000Y20182500D01*
X-56419000Y20182500D01*
X-56419000Y19701061D01*
X-56326437Y19477595D01*
X-56155404Y19306562D01*
X-55931938Y19214000D01*
X-55288000Y19214000D01*
X-55136000Y19366000D01*
X-55136000Y20334500D01*
X-54736000Y20334500D01*
X-54736000Y19366000D01*
X-54584000Y19214000D01*
X-53940062Y19214000D01*
X-53716596Y19306562D01*
X-53545563Y19477595D01*
X-53453000Y19701061D01*
X-53453000Y20182500D01*
X-53605000Y20334500D01*
X-54736000Y20334500D01*
X-55136000Y20334500D01*
X-56267000Y20334500D01*
X-56419000Y20182500D01*
X-60525000Y20182500D01*
X-60525000Y22414500D01*
X-56419000Y22414500D01*
X-56419000Y21933061D01*
X-56326437Y21709595D01*
X-56267342Y21650500D01*
X-56326437Y21591405D01*
X-56419000Y21367939D01*
X-56419000Y20886500D01*
X-56267000Y20734500D01*
X-55136000Y20734500D01*
X-55136000Y22566500D01*
X-54736000Y22566500D01*
X-54736000Y20734500D01*
X-53605000Y20734500D01*
X-53453000Y20886500D01*
X-53453000Y21367939D01*
X-53545563Y21591405D01*
X-53604658Y21650500D01*
X-53545563Y21709595D01*
X-53453000Y21933061D01*
X-53453000Y22414500D01*
X-53605000Y22566500D01*
X-54736000Y22566500D01*
X-55136000Y22566500D01*
X-56267000Y22566500D01*
X-56419000Y22414500D01*
X-60525000Y22414500D01*
X-60525000Y23599939D01*
X-56419000Y23599939D01*
X-56419000Y23118500D01*
X-56267000Y22966500D01*
X-55136000Y22966500D01*
X-55136000Y23935000D01*
X-54736000Y23935000D01*
X-54736000Y22966500D01*
X-53605000Y22966500D01*
X-53453000Y23118500D01*
X-53453000Y23599939D01*
X-53545563Y23823405D01*
X-53716596Y23994438D01*
X-53940062Y24087000D01*
X-54584000Y24087000D01*
X-54736000Y23935000D01*
X-55136000Y23935000D01*
X-55288000Y24087000D01*
X-55931938Y24087000D01*
X-56155404Y23994438D01*
X-56326437Y23823405D01*
X-56419000Y23599939D01*
X-60525000Y23599939D01*
X-60525000Y32910500D01*
X-56233000Y32910500D01*
X-56233000Y32429061D01*
X-56140437Y32205595D01*
X-55969404Y32034562D01*
X-55745938Y31942000D01*
X-55102000Y31942000D01*
X-54950000Y32094000D01*
X-54950000Y33062500D01*
X-54550000Y33062500D01*
X-54550000Y32094000D01*
X-54398000Y31942000D01*
X-53754062Y31942000D01*
X-53530596Y32034562D01*
X-53359563Y32205595D01*
X-53267000Y32429061D01*
X-53267000Y32910500D01*
X-53419000Y33062500D01*
X-54550000Y33062500D01*
X-54950000Y33062500D01*
X-56081000Y33062500D01*
X-56233000Y32910500D01*
X-60525000Y32910500D01*
X-60525000Y45148000D01*
X-59708000Y45148000D01*
X-59708000Y44279062D01*
X-59615438Y44055596D01*
X-59444405Y43884563D01*
X-59220939Y43792000D01*
X-58352000Y43792000D01*
X-58200000Y43944000D01*
X-58200000Y45300000D01*
X-59556000Y45300000D01*
X-59708000Y45148000D01*
X-60525000Y45148000D01*
X-60525000Y48525000D01*
X-58827379Y48525000D01*
X-58950000Y48228967D01*
G36*
X-51817384Y41781376D02*
X-51602377Y41637714D01*
X-51412778Y41600000D01*
X-51412777Y41600000D01*
X-51348761Y41587266D01*
X-51284745Y41600000D01*
X-49157836Y41600000D01*
X-49157836Y41100000D01*
X-49126791Y40943928D01*
X-49038384Y40811616D01*
X-48906072Y40723209D01*
X-48750000Y40692164D01*
X-45250000Y40692164D01*
X-45149999Y40712056D01*
X-45149999Y40623984D01*
X-45157164Y40587963D01*
X-45378000Y40587963D01*
X-45530000Y40435963D01*
X-45530000Y39419963D01*
X-44514000Y39419963D01*
X-44396619Y39537344D01*
X-44317064Y39457789D01*
X-44320000Y39450701D01*
X-44320000Y38989225D01*
X-44143401Y38562876D01*
X-43817087Y38236562D01*
X-43463162Y38089962D01*
X-43605985Y38089962D01*
X-43670001Y38102696D01*
X-43734018Y38089962D01*
X-43734019Y38089962D01*
X-43923618Y38052248D01*
X-44138625Y37908586D01*
X-44174889Y37854313D01*
X-44192174Y37837027D01*
X-44199262Y37839963D01*
X-44660738Y37839963D01*
X-45087087Y37663364D01*
X-45413401Y37337050D01*
X-45590000Y36910701D01*
X-45590000Y36449225D01*
X-45413401Y36022876D01*
X-45087087Y35696562D01*
X-44914296Y35624990D01*
X-46185983Y35624990D01*
X-46250000Y35637724D01*
X-46314018Y35624990D01*
X-46503617Y35587276D01*
X-46718624Y35443614D01*
X-46747766Y35400000D01*
X-53599597Y35400000D01*
X-53517239Y35523257D01*
X-53467164Y35775000D01*
X-53467164Y36700000D01*
X-53517239Y36951743D01*
X-53659840Y37165160D01*
X-53873257Y37307761D01*
X-53940277Y37321092D01*
X-53940277Y38867963D01*
X-47098000Y38867963D01*
X-47098000Y38339025D01*
X-47005438Y38115559D01*
X-46834405Y37944526D01*
X-46610939Y37851963D01*
X-46082000Y37851963D01*
X-45930000Y38003963D01*
X-45930000Y39019963D01*
X-45530000Y39019963D01*
X-45530000Y38003963D01*
X-45378000Y37851963D01*
X-44849061Y37851963D01*
X-44625595Y37944526D01*
X-44454562Y38115559D01*
X-44362000Y38339025D01*
X-44362000Y38867963D01*
X-44514000Y39019963D01*
X-45530000Y39019963D01*
X-45930000Y39019963D01*
X-46946000Y39019963D01*
X-47098000Y38867963D01*
X-53940277Y38867963D01*
X-53940277Y39688172D01*
X-53527548Y40100901D01*
X-47098000Y40100901D01*
X-47098000Y39571963D01*
X-46946000Y39419963D01*
X-45930000Y39419963D01*
X-45930000Y40435963D01*
X-46082000Y40587963D01*
X-46610939Y40587963D01*
X-46834405Y40495400D01*
X-47005438Y40324367D01*
X-47098000Y40100901D01*
X-53527548Y40100901D01*
X-51829275Y41799173D01*
X-51817384Y41781376D01*
X-51817384Y41781376D01*
G37*
X-51817384Y41781376D02*
X-51602377Y41637714D01*
X-51412778Y41600000D01*
X-51412777Y41600000D01*
X-51348761Y41587266D01*
X-51284745Y41600000D01*
X-49157836Y41600000D01*
X-49157836Y41100000D01*
X-49126791Y40943928D01*
X-49038384Y40811616D01*
X-48906072Y40723209D01*
X-48750000Y40692164D01*
X-45250000Y40692164D01*
X-45149999Y40712056D01*
X-45149999Y40623984D01*
X-45157164Y40587963D01*
X-45378000Y40587963D01*
X-45530000Y40435963D01*
X-45530000Y39419963D01*
X-44514000Y39419963D01*
X-44396619Y39537344D01*
X-44317064Y39457789D01*
X-44320000Y39450701D01*
X-44320000Y38989225D01*
X-44143401Y38562876D01*
X-43817087Y38236562D01*
X-43463162Y38089962D01*
X-43605985Y38089962D01*
X-43670001Y38102696D01*
X-43734018Y38089962D01*
X-43734019Y38089962D01*
X-43923618Y38052248D01*
X-44138625Y37908586D01*
X-44174889Y37854313D01*
X-44192174Y37837027D01*
X-44199262Y37839963D01*
X-44660738Y37839963D01*
X-45087087Y37663364D01*
X-45413401Y37337050D01*
X-45590000Y36910701D01*
X-45590000Y36449225D01*
X-45413401Y36022876D01*
X-45087087Y35696562D01*
X-44914296Y35624990D01*
X-46185983Y35624990D01*
X-46250000Y35637724D01*
X-46314018Y35624990D01*
X-46503617Y35587276D01*
X-46718624Y35443614D01*
X-46747766Y35400000D01*
X-53599597Y35400000D01*
X-53517239Y35523257D01*
X-53467164Y35775000D01*
X-53467164Y36700000D01*
X-53517239Y36951743D01*
X-53659840Y37165160D01*
X-53873257Y37307761D01*
X-53940277Y37321092D01*
X-53940277Y38867963D01*
X-47098000Y38867963D01*
X-47098000Y38339025D01*
X-47005438Y38115559D01*
X-46834405Y37944526D01*
X-46610939Y37851963D01*
X-46082000Y37851963D01*
X-45930000Y38003963D01*
X-45930000Y39019963D01*
X-45530000Y39019963D01*
X-45530000Y38003963D01*
X-45378000Y37851963D01*
X-44849061Y37851963D01*
X-44625595Y37944526D01*
X-44454562Y38115559D01*
X-44362000Y38339025D01*
X-44362000Y38867963D01*
X-44514000Y39019963D01*
X-45530000Y39019963D01*
X-45930000Y39019963D01*
X-46946000Y39019963D01*
X-47098000Y38867963D01*
X-53940277Y38867963D01*
X-53940277Y39688172D01*
X-53527548Y40100901D01*
X-47098000Y40100901D01*
X-47098000Y39571963D01*
X-46946000Y39419963D01*
X-45930000Y39419963D01*
X-45930000Y40435963D01*
X-46082000Y40587963D01*
X-46610939Y40587963D01*
X-46834405Y40495400D01*
X-47005438Y40324367D01*
X-47098000Y40100901D01*
X-53527548Y40100901D01*
X-51829275Y41799173D01*
X-51817384Y41781376D01*
G36*
X-39674016Y42600000D02*
X-39674015Y42600000D01*
X-39609999Y42587266D01*
X-39545982Y42600000D01*
X-36907836Y42600000D01*
X-36907836Y41750000D01*
X-36876791Y41593928D01*
X-36788384Y41461616D01*
X-36656072Y41373209D01*
X-36500000Y41342164D01*
X-35700000Y41342164D01*
X-35543928Y41373209D01*
X-35411616Y41461616D01*
X-35323209Y41593928D01*
X-35292164Y41750000D01*
X-35292164Y42600000D01*
X-31610249Y42600000D01*
X-29128239Y40117989D01*
X-29369178Y39877050D01*
X-29545777Y39450701D01*
X-29545777Y38989225D01*
X-29369178Y38562876D01*
X-29042864Y38236562D01*
X-28616515Y38059963D01*
X-28155039Y38059963D01*
X-27728690Y38236562D01*
X-27487751Y38477501D01*
X-26804375Y37794124D01*
X-26915039Y37839963D01*
X-27376515Y37839963D01*
X-27802864Y37663364D01*
X-28129178Y37337050D01*
X-28305777Y36910701D01*
X-28305777Y36449225D01*
X-28302841Y36442137D01*
X-28637214Y36107764D01*
X-28495777Y36449225D01*
X-28495777Y36910701D01*
X-28672376Y37337050D01*
X-28998690Y37663364D01*
X-29425039Y37839963D01*
X-29886515Y37839963D01*
X-30312864Y37663364D01*
X-30639178Y37337050D01*
X-30815777Y36910701D01*
X-30815777Y36449225D01*
X-30812841Y36442137D01*
X-31422489Y35832488D01*
X-33198483Y35832488D01*
X-33262500Y35845222D01*
X-33326518Y35832488D01*
X-34931862Y35832488D01*
X-37538731Y38439356D01*
X-37574998Y38493634D01*
X-37790005Y38637296D01*
X-37979604Y38675010D01*
X-37979606Y38675010D01*
X-38043622Y38687744D01*
X-38107638Y38675010D01*
X-38111627Y38675010D01*
X-37909840Y38809840D01*
X-37871004Y38867963D01*
X-32323777Y38867963D01*
X-32323777Y38339025D01*
X-32231215Y38115559D01*
X-32060182Y37944526D01*
X-31836716Y37851963D01*
X-31307777Y37851963D01*
X-31155777Y38003963D01*
X-31155777Y39019963D01*
X-30755777Y39019963D01*
X-30755777Y38003963D01*
X-30603777Y37851963D01*
X-30074838Y37851963D01*
X-29851372Y37944526D01*
X-29680339Y38115559D01*
X-29587777Y38339025D01*
X-29587777Y38867963D01*
X-29739777Y39019963D01*
X-30755777Y39019963D01*
X-31155777Y39019963D01*
X-32171777Y39019963D01*
X-32323777Y38867963D01*
X-37871004Y38867963D01*
X-37767239Y39023257D01*
X-37717164Y39275000D01*
X-37717164Y39373730D01*
X-37635751Y39393040D01*
X-37606072Y39373209D01*
X-37450000Y39342164D01*
X-36650000Y39342164D01*
X-36493928Y39373209D01*
X-36361616Y39461616D01*
X-36273209Y39593928D01*
X-36242164Y39750000D01*
X-36242164Y39848000D01*
X-36158000Y39848000D01*
X-36158000Y39629061D01*
X-36065437Y39405595D01*
X-35894404Y39234562D01*
X-35670938Y39142000D01*
X-35502000Y39142000D01*
X-35350000Y39294000D01*
X-35350000Y40000000D01*
X-34950000Y40000000D01*
X-34950000Y39294000D01*
X-34798000Y39142000D01*
X-34629062Y39142000D01*
X-34405596Y39234562D01*
X-34234563Y39405595D01*
X-34142000Y39629061D01*
X-34142000Y39848000D01*
X-34294000Y40000000D01*
X-34950000Y40000000D01*
X-35350000Y40000000D01*
X-36006000Y40000000D01*
X-36158000Y39848000D01*
X-36242164Y39848000D01*
X-36242164Y40100901D01*
X-32323777Y40100901D01*
X-32323777Y39571963D01*
X-32171777Y39419963D01*
X-31155777Y39419963D01*
X-31155777Y40435963D01*
X-30755777Y40435963D01*
X-30755777Y39419963D01*
X-29739777Y39419963D01*
X-29587777Y39571963D01*
X-29587777Y40100901D01*
X-29680339Y40324367D01*
X-29851372Y40495400D01*
X-30074838Y40587963D01*
X-30603777Y40587963D01*
X-30755777Y40435963D01*
X-31155777Y40435963D01*
X-31307777Y40587963D01*
X-31836716Y40587963D01*
X-32060182Y40495400D01*
X-32231215Y40324367D01*
X-32323777Y40100901D01*
X-36242164Y40100901D01*
X-36242164Y40650000D01*
X-36266220Y40770939D01*
X-36158000Y40770939D01*
X-36158000Y40552000D01*
X-36006000Y40400000D01*
X-35350000Y40400000D01*
X-35350000Y41106000D01*
X-34950000Y41106000D01*
X-34950000Y40400000D01*
X-34294000Y40400000D01*
X-34142000Y40552000D01*
X-34142000Y40770939D01*
X-34234563Y40994405D01*
X-34405596Y41165438D01*
X-34629062Y41258000D01*
X-34798000Y41258000D01*
X-34950000Y41106000D01*
X-35350000Y41106000D01*
X-35502000Y41258000D01*
X-35670938Y41258000D01*
X-35894404Y41165438D01*
X-36065437Y40994405D01*
X-36158000Y40770939D01*
X-36266220Y40770939D01*
X-36273209Y40806072D01*
X-36361616Y40938384D01*
X-36493928Y41026791D01*
X-36650000Y41057836D01*
X-37450000Y41057836D01*
X-37606072Y41026791D01*
X-37738384Y40938384D01*
X-37826791Y40806072D01*
X-37852318Y40677739D01*
X-37909226Y40664241D01*
X-37909840Y40665160D01*
X-38123257Y40807761D01*
X-38375000Y40857836D01*
X-39201098Y40857836D01*
X-39842164Y41498902D01*
X-39842164Y42633447D01*
X-39674016Y42600000D01*
X-39674016Y42600000D01*
G37*
X-39674016Y42600000D02*
X-39674015Y42600000D01*
X-39609999Y42587266D01*
X-39545982Y42600000D01*
X-36907836Y42600000D01*
X-36907836Y41750000D01*
X-36876791Y41593928D01*
X-36788384Y41461616D01*
X-36656072Y41373209D01*
X-36500000Y41342164D01*
X-35700000Y41342164D01*
X-35543928Y41373209D01*
X-35411616Y41461616D01*
X-35323209Y41593928D01*
X-35292164Y41750000D01*
X-35292164Y42600000D01*
X-31610249Y42600000D01*
X-29128239Y40117989D01*
X-29369178Y39877050D01*
X-29545777Y39450701D01*
X-29545777Y38989225D01*
X-29369178Y38562876D01*
X-29042864Y38236562D01*
X-28616515Y38059963D01*
X-28155039Y38059963D01*
X-27728690Y38236562D01*
X-27487751Y38477501D01*
X-26804375Y37794124D01*
X-26915039Y37839963D01*
X-27376515Y37839963D01*
X-27802864Y37663364D01*
X-28129178Y37337050D01*
X-28305777Y36910701D01*
X-28305777Y36449225D01*
X-28302841Y36442137D01*
X-28637214Y36107764D01*
X-28495777Y36449225D01*
X-28495777Y36910701D01*
X-28672376Y37337050D01*
X-28998690Y37663364D01*
X-29425039Y37839963D01*
X-29886515Y37839963D01*
X-30312864Y37663364D01*
X-30639178Y37337050D01*
X-30815777Y36910701D01*
X-30815777Y36449225D01*
X-30812841Y36442137D01*
X-31422489Y35832488D01*
X-33198483Y35832488D01*
X-33262500Y35845222D01*
X-33326518Y35832488D01*
X-34931862Y35832488D01*
X-37538731Y38439356D01*
X-37574998Y38493634D01*
X-37790005Y38637296D01*
X-37979604Y38675010D01*
X-37979606Y38675010D01*
X-38043622Y38687744D01*
X-38107638Y38675010D01*
X-38111627Y38675010D01*
X-37909840Y38809840D01*
X-37871004Y38867963D01*
X-32323777Y38867963D01*
X-32323777Y38339025D01*
X-32231215Y38115559D01*
X-32060182Y37944526D01*
X-31836716Y37851963D01*
X-31307777Y37851963D01*
X-31155777Y38003963D01*
X-31155777Y39019963D01*
X-30755777Y39019963D01*
X-30755777Y38003963D01*
X-30603777Y37851963D01*
X-30074838Y37851963D01*
X-29851372Y37944526D01*
X-29680339Y38115559D01*
X-29587777Y38339025D01*
X-29587777Y38867963D01*
X-29739777Y39019963D01*
X-30755777Y39019963D01*
X-31155777Y39019963D01*
X-32171777Y39019963D01*
X-32323777Y38867963D01*
X-37871004Y38867963D01*
X-37767239Y39023257D01*
X-37717164Y39275000D01*
X-37717164Y39373730D01*
X-37635751Y39393040D01*
X-37606072Y39373209D01*
X-37450000Y39342164D01*
X-36650000Y39342164D01*
X-36493928Y39373209D01*
X-36361616Y39461616D01*
X-36273209Y39593928D01*
X-36242164Y39750000D01*
X-36242164Y39848000D01*
X-36158000Y39848000D01*
X-36158000Y39629061D01*
X-36065437Y39405595D01*
X-35894404Y39234562D01*
X-35670938Y39142000D01*
X-35502000Y39142000D01*
X-35350000Y39294000D01*
X-35350000Y40000000D01*
X-34950000Y40000000D01*
X-34950000Y39294000D01*
X-34798000Y39142000D01*
X-34629062Y39142000D01*
X-34405596Y39234562D01*
X-34234563Y39405595D01*
X-34142000Y39629061D01*
X-34142000Y39848000D01*
X-34294000Y40000000D01*
X-34950000Y40000000D01*
X-35350000Y40000000D01*
X-36006000Y40000000D01*
X-36158000Y39848000D01*
X-36242164Y39848000D01*
X-36242164Y40100901D01*
X-32323777Y40100901D01*
X-32323777Y39571963D01*
X-32171777Y39419963D01*
X-31155777Y39419963D01*
X-31155777Y40435963D01*
X-30755777Y40435963D01*
X-30755777Y39419963D01*
X-29739777Y39419963D01*
X-29587777Y39571963D01*
X-29587777Y40100901D01*
X-29680339Y40324367D01*
X-29851372Y40495400D01*
X-30074838Y40587963D01*
X-30603777Y40587963D01*
X-30755777Y40435963D01*
X-31155777Y40435963D01*
X-31307777Y40587963D01*
X-31836716Y40587963D01*
X-32060182Y40495400D01*
X-32231215Y40324367D01*
X-32323777Y40100901D01*
X-36242164Y40100901D01*
X-36242164Y40650000D01*
X-36266220Y40770939D01*
X-36158000Y40770939D01*
X-36158000Y40552000D01*
X-36006000Y40400000D01*
X-35350000Y40400000D01*
X-35350000Y41106000D01*
X-34950000Y41106000D01*
X-34950000Y40400000D01*
X-34294000Y40400000D01*
X-34142000Y40552000D01*
X-34142000Y40770939D01*
X-34234563Y40994405D01*
X-34405596Y41165438D01*
X-34629062Y41258000D01*
X-34798000Y41258000D01*
X-34950000Y41106000D01*
X-35350000Y41106000D01*
X-35502000Y41258000D01*
X-35670938Y41258000D01*
X-35894404Y41165438D01*
X-36065437Y40994405D01*
X-36158000Y40770939D01*
X-36266220Y40770939D01*
X-36273209Y40806072D01*
X-36361616Y40938384D01*
X-36493928Y41026791D01*
X-36650000Y41057836D01*
X-37450000Y41057836D01*
X-37606072Y41026791D01*
X-37738384Y40938384D01*
X-37826791Y40806072D01*
X-37852318Y40677739D01*
X-37909226Y40664241D01*
X-37909840Y40665160D01*
X-38123257Y40807761D01*
X-38375000Y40857836D01*
X-39201098Y40857836D01*
X-39842164Y41498902D01*
X-39842164Y42633447D01*
X-39674016Y42600000D01*
G04 #@! TD*
M02*
